<?xml version="1.0" encoding="UTF-8" standalone="no"?>
<!-- Created with Inkscape (http://www.inkscape.org/) -->

<svg
   width="100mm"
   height="100mm"
   viewBox="0 0 100 100"
   version="1.1"
   id="svg25179"
   inkscape:version="1.1.1 (3bf5ae0d25, 2021-09-20)"
   sodipodi:docname="Bedrock_Termite.svg"
   xmlns:inkscape="http://www.inkscape.org/namespaces/inkscape"
   xmlns:sodipodi="http://sodipodi.sourceforge.net/DTD/sodipodi-0.dtd"
   xmlns="http://www.w3.org/2000/svg"
   xmlns:svg="http://www.w3.org/2000/svg">
  <sodipodi:namedview
     id="namedview25181"
     pagecolor="#ffffff"
     bordercolor="#666666"
     borderopacity="1.0"
     inkscape:pageshadow="2"
     inkscape:pageopacity="0.0"
     inkscape:pagecheckerboard="0"
     inkscape:document-units="mm"
     showgrid="false"
     inkscape:zoom="3.9745537"
     inkscape:cx="256.63259"
     inkscape:cy="37.740086"
     inkscape:window-width="1852"
     inkscape:window-height="1025"
     inkscape:window-x="0"
     inkscape:window-y="0"
     inkscape:window-maximized="1"
     inkscape:current-layer="g20007" />
  <defs
     id="defs25176" />
  <g
     inkscape:label="Layer 1"
     inkscape:groupmode="layer"
     id="layer1">
    <g
       id="g20007"
       transform="matrix(0.60305251,0,0,0.60305251,95.542013,-7.0236627)">
      <path
         style="fill:#000000;fill-opacity:1;stroke-width:0.400367"
         d="m -54.960467,152.18652 c -0.72268,-0.68514 -2.10688,-1.52299 -3.076,-1.86191 -1.75918,-0.61521 -1.76652,-0.62605 -4.5068,-6.64836 -9.50237,-20.88346 -9.38856,-20.66388 -12.17439,-23.48686 -1.43352,-1.45264 -2.79458,-3.11916 -3.02458,-3.70339 -0.49507,-1.25751 -4.2847,-4.43105 -7.0236,-5.88176 -2.07854,-1.10094 -2.57197,-1.86852 -3.16679,-4.92624 -0.34367,-1.76669 -0.28485,-2.06673 0.62846,-3.20485 1.15487,-1.43915 3.77757,-3.437613 4.10452,-3.127623 0.12089,0.11461 0.0137,1.637843 -0.23877,3.384833 -0.67344,4.66313 -0.40011,5.181 4.33907,8.22121 3.6819,2.36196 6.89329,5.68085 7.8101,8.07148 1.46702,3.82525 5.13549,11.8639 9.0442,19.81831 3.5319,7.18757 4.2369,8.35088 5.64075,9.30758 1.71343,1.16764 4.00165,3.88783 4.00165,4.75705 0,0.8871 -0.97789,0.58869 -2.35774,-0.71947 z m -65.488513,-5.35311 c 0,-0.80557 2.20131,-1.91841 4.58081,-2.3158 1.38925,-0.23208 2.62772,-0.51834 2.75218,-0.63633 0.12445,-0.11799 0.55494,-4.28869 0.95664,-9.26823 0.40168,-4.97951 1.12134,-13.17615 1.5992,-18.21471 0.78598,-8.28731 0.9717,-9.34071 1.94731,-11.04497 1.14503,-2.00022 3.04349,-3.7686 4.04583,-3.7686 0.33268,0 1.02154,0.42622 1.53075,0.94714 1.04377,1.06772 3.742323,7.06103 4.183723,9.29172 0.50793,2.56685 0.95388,1.95627 0.97658,-1.3371 0.0219,-3.33596 0.26727,-3.81654 1.9452,-3.82801 1.45791,-0.0104 1.95005,0.99366 1.90529,3.88545 -0.0705,4.54535 -2.26711,10.72726 -3.81192,10.72726 -0.99188,0 -3.021863,-3.6983 -4.900423,-8.9277 -0.97036,-2.70121 -1.9139,-4.9113 -2.09672,-4.9113 -0.91511,0 -1.75232,4.5275 -3.27997,17.7373 -2.39293,20.69183 -2.53397,21.15466 -6.30294,20.68065 -1.59423,-0.20063 -2.2781,-0.091 -3.41893,0.54706 -1.51627,0.84817 -2.61261,1.03118 -2.61261,0.43617 z m 91.284079,-14.34956 c -1.35788,-0.14736 -1.81644,-0.66032 -8.11924,-9.08002 -6.14975,-8.21526 -6.80261,-8.95256 -8.22379,-9.28727 -0.84906,-0.19985 -4.50428,-1.01985 -8.122746,-1.82197 -7.89303,-1.74969 -14.7321,-3.74669 -18.09234,-5.28293 -2.22997,-1.01951 -2.71076,-1.47509 -5.00117,-4.73928 -3.1513,-4.491053 -3.53412,-5.214793 -3.23348,-6.112853 0.13213,-0.3948 1.56943,-1.81311 3.19393,-3.15179 2.92986,-2.4144 2.95585,-2.42596 3.234,-1.43993 0.15434,0.54673 0.0792,3.04565 -0.16639,5.55319 -0.51898,5.294173 -0.57101,5.199593 3.2939,5.988123 4.12815,0.84224 12.84027,3.16631 19.322696,5.15462 l 6.25176,1.91753 5.92423,7.88396 c 3.25832,4.33617 6.55121,8.81992 7.3175,9.96389 l 1.39328,2.07996 4.38572,-0.23312 c 3.63327,-0.1931 4.49447,-0.12994 5.01958,0.36777 0.80429,0.7625 0.43383,1.70369 -0.85316,2.16758 -0.97411,0.35111 -4.63474,0.38643 -7.52417,0.0725 z M -136.52551,120.87851 c -6.26113,-0.86602 -8.17925,-2.38246 -8.18212,-6.4687 -8.2e-4,-1.20083 0.19896,-2.7286 0.44399,-3.395 l 0.44552,-1.21165 1.55914,0.97819 c 1.09117,0.68459 1.86535,0.90534 2.57933,0.73545 1.43619,-0.34175 3.51656,-2.24872 3.85729,-3.53579 0.25215,-0.95238 0.0528,-1.27869 -1.63039,-2.66865 -1.1673,-0.96397 -1.91634,-1.90905 -1.9143,-2.41536 0.003,-0.83619 2.88946,-3.651293 3.74336,-3.651293 0.24647,0 1.57272,0.964833 2.94721,2.144073 1.96476,1.68563 2.78876,2.14407 3.85388,2.14407 1.64168,0 4.03773,-1.8347 4.46024,-3.41523 0.25165,-0.941523 0.0285,-1.283093 -1.88545,-2.887323 -2.38144,-1.99596 -2.36957,-2.45578 0.0946,-3.66386 2.16367,-1.06073 3.08065,-0.74611 5.77035,1.97982 1.37778,1.39637 2.92704,2.63926 3.44272,2.76197 1.56554,0.3725 4.42975,-1.46191 5.18675,-3.32192 0.33492,-0.82294 0.1409,-1.17935 -1.50356,-2.76222 -1.67466,-1.61192 -1.8145,-1.87526 -1.23691,-2.32973 0.35817,-0.28179 1.53313,-0.59269 2.61105,-0.69091 1.94986,-0.1775 1.97366,-0.16528 4.67695,2.39746 1.65756,1.57149 3.06063,2.576 3.598,2.576 2.1023,0 4.951923,-2.36705 4.951923,-4.11328 0,-0.51406 -0.46206,-1.20861 -1.09469,-1.6455 -1.460413,-1.0086 -1.074253,-1.78358 1.32088,-2.65075 l 1.93176,-0.69943 1.96275,1.04599 c 2.43835,1.29946 3.69843,1.31851 5.2518,0.0793 2.35951,-1.88229 2.60968,-4.43971 0.49649,-5.07557 -1.25514,-0.37767 -1.00637,-1.02752 1.17209,-3.06176 l 1.99489,-1.86282 0.5303,1.87748 c 1.26641,4.48362 3.80635,7.81574 7.49771,9.83608 l 1.94364,1.06379 -3.74909,3.0905 c -2.06198,1.69979 -5.99506,5.32657 -8.74019,8.059523 l -4.99107,4.96899 -1.29355,-0.46289 c -0.99398,-0.3557 -1.6578,-0.35677 -2.86643,-0.005 -0.86509,0.25209 -1.6237,0.3294 -1.68585,0.17178 -0.0622,-0.15749 -0.61725,-1.16357 -1.233573,-2.2356 -2.16085,-3.758573 -5.46018,-4.136263 -8.47708,-0.97039 -2.86786,3.00949 -3.44541,4.93411 -4.26127,14.19992 l -0.30675,3.48373 -2.11307,0.69146 c -1.16219,0.38029 -3.29009,0.87249 -4.72868,1.09381 -3.4364,0.52864 -11.98693,0.43534 -16.43059,-0.17932 z m 62.011933,-34.246913 c -5.19535,-1.39071 -8.92835,-7.09638 -8.92835,-13.64639 0,-1.93977 0.16146,-2.31365 1.84677,-4.27501 2.04909,-2.38481 6.87371,-5.64296 9.93672,-6.71042 4.68074,-1.63126 4.6505,-1.61101 5.67154,-3.79981 0.53608,-1.14919 1.37258,-3.91816 1.85888,-6.15324 1.64007,-7.53764 5.17597,-12.68881 10.41296,-15.16984 1.36249,-0.64548 2.721526,-1.1736 3.020046,-1.1736 0.45237,0 3.01038,3.63878 3.02271,4.29977 0.002,0.11357 -0.94497,0.55218 -2.10469,0.97458 -2.755156,1.00355 -5.486826,3.31127 -6.777196,5.72542 -0.56881,1.06421 -1.40766,3.60489 -1.86414,5.64597 -0.45644,2.04105 -1.06037,4.43731 -1.34209,5.32503 l -0.51218,1.61401 6.81607,0.15905 c 14.440926,0.33673 13.474026,0.40818 16.527276,-1.22113 4.15573,-2.21767 7.49952,-4.72361 12.87379,-9.64795 3.82229,-3.50227 4.69042,-4.14936 3.93624,-2.93397 -2.18298,3.51799 -6.14728,8.35807 -9.80435,11.9703 -2.13564,2.10945 -3.80145,3.9127 -3.70177,4.00717 0.35408,0.33572 4.49929,-0.9166 6.21376,-1.87727 3.49135,-1.95627 6.314831,-5.226299 9.373151,-10.691309 0,0 1.985769,-4.382844 1.682081,-2.569127 l -0.173242,2.002956 c -0.26974,2.94632 -2.29178,7.23552 -4.95971,10.52112 -2.3835,2.93532 -7.21975,7.26145 -10.77926,9.64225 -1.57214,1.05156 -3.96866,2.85723 -5.32559,4.01261 -5.61265,4.77904 -15.072096,9.7334 -23.968186,12.55327 -5.65698,1.79315 -9.83491,2.24982 -12.9511,1.41566 z m 28.679676,-13.01991 c 2.85035,-1.89923 3.39405,-4.91904 1.25137,-6.95042 -2.92554,-2.77359 -12.051666,1.25474 -11.093406,4.89669 0.90412,3.43633 6.130366,4.5269 9.842036,2.05373 z"
         id="path20023"
         sodipodi:nodetypes="ssssssssscsssssssscssssssscccssssccssscsssssccsscsscscssscsscsssscsssscsscsssccsssscscsscsscsscsccssscsscccsssscssccsssccsssscssccssssccssss" />
    </g>
  </g>
</svg>
