<?xml version="1.0" encoding="UTF-8" standalone="no"?>
<!-- Created with Inkscape (http://www.inkscape.org/) -->

<svg
   width="100mm"
   height="100mm"
   viewBox="0 0 100 100"
   version="1.1"
   id="svg25179"
   sodipodi:docname="Brown_Recluse.svg"
   inkscape:version="1.1.1 (3bf5ae0d25, 2021-09-20)"
   xmlns:inkscape="http://www.inkscape.org/namespaces/inkscape"
   xmlns:sodipodi="http://sodipodi.sourceforge.net/DTD/sodipodi-0.dtd"
   xmlns="http://www.w3.org/2000/svg"
   xmlns:svg="http://www.w3.org/2000/svg">
  <sodipodi:namedview
     id="namedview25181"
     pagecolor="#ffffff"
     bordercolor="#666666"
     borderopacity="1.0"
     inkscape:pageshadow="2"
     inkscape:pageopacity="0.0"
     inkscape:pagecheckerboard="0"
     inkscape:document-units="mm"
     showgrid="false"
     inkscape:zoom="5.7408001"
     inkscape:cx="52.257524"
     inkscape:cy="195.09476"
     inkscape:window-width="1852"
     inkscape:window-height="1025"
     inkscape:window-x="0"
     inkscape:window-y="0"
     inkscape:window-maximized="1"
     inkscape:current-layer="g24139" />
  <defs
     id="defs25176" />
  <g
     inkscape:label="Layer 1"
     inkscape:groupmode="layer"
     id="layer1">
    <g
       id="g24139"
       transform="matrix(1.5534027,0,0,1.5534027,-251.5126,-355.61201)">
      <path
         style="fill:#000000;fill-opacity:1;stroke-width:0.15"
         d="m 212.33664,282.80825 c -0.1063,-0.10629 -0.44354,-1.03124 -0.74944,-2.05544 -0.53893,-1.80446 -1.72141,-5.12596 -2.03046,-5.70343 -0.0835,-0.15606 -0.25073,-0.28375 -0.37158,-0.28375 -0.12084,0 -0.21972,-0.0758 -0.21972,-0.16844 0,-0.22477 -4.90108,-11.3887 -5.17931,-11.79771 -0.0154,-0.0226 -0.42304,0.0617 -0.90586,0.1875 -2.07607,0.54074 -3.42774,0.15533 -3.33536,-0.95105 l 0.0455,-0.5453 0.975,-0.0976 c 0.53625,-0.0537 1.2108,-0.1718 1.49901,-0.2625 0.8391,-0.26409 1.39554,-0.19455 2.12008,0.26494 0.64761,0.41071 1.56167,1.39793 1.90001,2.05209 0.0873,0.16883 0.4377,1.14138 0.77862,2.16123 0.67484,2.01873 2.33438,6.28659 3.00514,7.72835 0.23118,0.49691 0.42009,1.07222 0.41978,1.27847 -4.5e-4,0.34159 1.82173,5.8994 2.53968,7.74602 0.16487,0.42406 0.54455,1.1398 0.84372,1.59053 0.57501,0.86629 0.6653,1.16345 0.35347,1.16345 -0.10477,0 -0.48402,-0.47568 -0.84276,-1.05705 -0.35874,-0.58137 -0.73923,-1.14401 -0.84552,-1.25031 z m -15.08985,-1.47801 c -0.0915,-0.43428 -0.22225,-0.8595 -0.29053,-0.94493 -0.0683,-0.0854 -0.29964,-1.19918 -0.51414,-2.475 -0.76008,-4.52095 -1.14609,-6.52144 -1.28552,-6.66218 -0.0776,-0.0784 -0.14126,-0.68588 -0.14138,-1.35 -3e-4,-1.81108 -0.80061,-8.35921 -1.42946,-11.69635 -0.26351,-1.39835 -0.1707,-2.11346 0.31563,-2.43212 0.8162,-0.53479 1.64867,0.22917 2.71978,2.49597 0.4483,0.94875 1.01291,1.90682 1.25468,2.12904 0.53114,0.48819 0.5816,1.16121 0.14123,1.88346 -0.36989,0.60667 -0.9023,0.64967 -1.32891,0.10733 -0.34324,-0.43636 -1.18504,-2.39386 -1.32031,-3.07022 -0.13107,-0.65536 -0.28973,-0.67126 -0.24439,-0.0245 0.48714,6.94889 0.86153,10.6943 1.11665,11.171 0.11249,0.21019 0.10186,0.39244 -0.0382,0.65408 -0.25036,0.46781 -0.0371,2.24894 0.70634,5.8998 0.294,1.44375 0.59133,2.92875 0.66073,3.3 0.0694,0.37125 0.26574,1.07369 0.4363,1.56098 0.17057,0.48729 0.31012,0.97667 0.31012,1.0875 0,0.40755 -0.47189,0.18577 -0.63791,-0.21159 -0.16601,-0.39736 -0.3392,-0.98798 -0.43071,-1.42227 z m -14.52776,-3.90022 c 0.41566,-0.88826 0.46635,-1.17498 0.60623,-3.42935 0.0839,-1.35302 0.14392,-3.33754 0.13327,-4.41004 -0.0181,-1.82615 0.0151,-2.06909 0.524,-3.825 0.74114,-2.55742 1.6846,-6.36319 1.80349,-7.275 0.12497,-0.95837 0.66741,-2.03806 1.16459,-2.31802 0.35384,-0.19925 0.46646,-0.18382 1.30761,0.17912 0.50623,0.21843 1.86968,0.92132 3.02988,1.562 l 2.10946,1.16485 -0.0682,0.71 c -0.15029,1.56412 -1.02749,1.9489 -2.03242,0.89152 -0.30606,-0.32204 -1.06273,-0.93955 -1.68148,-1.37224 -0.61875,-0.43269 -1.35266,-0.98441 -1.63091,-1.22605 -0.27826,-0.24164 -0.55802,-0.38351 -0.6217,-0.31527 -0.0637,0.0682 -0.18678,0.42784 -0.27355,0.79909 -0.0868,0.37125 -0.48848,1.75655 -0.89268,3.07844 -0.4042,1.32189 -0.91936,3.21189 -1.1448,4.2 -0.22544,0.98811 -0.47952,1.99906 -0.56462,2.24656 -0.26253,0.76351 -0.38898,1.90368 -0.56973,5.13688 -0.17113,3.0612 -0.18293,3.13376 -0.70741,4.35062 -0.29685,0.68872 -0.62456,1.2375 -0.73899,1.2375 -0.11309,0 -0.20561,-0.0937 -0.20562,-0.20817 -10e-6,-0.11448 0.20411,-0.64433 0.45358,-1.17744 z m 40.64995,-10.60746 c -0.62608,-1.22722 -0.91369,-2.27353 -1.50686,-5.48193 -0.33555,-1.815 -0.75701,-3.94004 -0.93658,-4.7223 l -0.32648,-1.4223 -1.28186,-1.2777 c -1.50625,-1.50136 -5.59436,-5.23912 -7.20176,-6.58457 -0.61875,-0.51792 -1.31183,-1.15464 -1.54018,-1.41494 -0.3387,-0.3861 -0.46304,-0.44333 -0.675,-0.31071 -0.42073,0.26326 -1.59112,2.62645 -2.81429,5.68252 -0.62738,1.5675 -1.28042,2.99921 -1.4512,3.18158 l -0.31051,0.33159 -0.42941,-0.59279 c -0.23618,-0.32603 -0.42941,-0.68808 -0.42941,-0.80456 0,-0.46907 1.11238,-3.41531 1.87489,-4.96582 1.20195,-2.44407 2.52782,-3.825 3.67248,-3.825 0.85506,0 2.25263,0.79405 2.25263,1.27987 0,0.0977 1.29867,1.31777 2.88593,2.71135 1.58726,1.39358 3.56825,3.20878 4.4022,4.03378 1.41588,1.40069 1.538,1.56952 1.84442,2.55 0.50621,1.61975 0.88132,3.64026 1.23923,6.675 0.30635,2.59761 0.36406,2.8491 0.90275,3.93417 0.31651,0.63754 0.57547,1.26192 0.57547,1.3875 0,0.44071 -0.44697,0.22231 -0.74646,-0.36474 z m -59.53156,-2.60391 1.25302,-0.028 3.56251,-3.61376 c 2.95279,-2.99527 3.66888,-3.64563 4.18402,-3.79997 0.34183,-0.10241 1.70143,-0.73747 3.02134,-1.41124 l 2.39984,-1.22503 1.40543,-0.052 1.40543,-0.052 2.21071,1.08713 c 1.2159,0.59793 2.22841,1.10029 2.25004,1.11636 0.0216,0.0161 -0.10072,0.34581 -0.27188,0.73274 l -0.31119,0.70351 -1.07813,-0.59177 c -1.60129,-0.87893 -3.89831,-1.81889 -4.44489,-1.81889 -1.02412,0 -4.58573,1.44841 -5.92285,2.40866 -0.50193,0.36045 -0.77257,0.45965 -1.08905,0.39915 -0.3846,-0.0735 -0.70961,0.20616 -3.74664,3.22398 0,0 -2.89021,2.96956 -3.32551,3.3045 -0.44608,0.14951 -1.34112,0.0765 -1.34112,0.0765 -0.95164,0.0543 -1.37335,0.0243 -1.50151,-0.18314 -0.12817,-0.20744 0.0154,-0.24709 1.34043,-0.27673 z m 39.12802,-3.80858 c -0.12375,-0.045 -0.39375,-0.23366 -0.6,-0.41919 -0.31077,-0.27955 -0.61909,-0.35441 -1.8,-0.43702 -2.51444,-0.17592 -2.36328,-0.0876 -3.23916,-1.89317 -1.07175,-2.20939 -2.12821,-3.15785 -3.24438,-2.91269 l -0.45246,0.0994 0.41016,-0.7536 c 0.84224,-1.54746 2.34165,-2.68952 3.71751,-2.83152 2.33808,-0.24131 5.63645,1.78128 6.77328,4.15345 0.26787,0.55895 0.76783,1.28339 1.11104,1.60987 0.35076,0.33367 0.62401,0.73346 0.62401,0.91298 0,0.33336 -0.64937,0.77291 -1.15505,0.78185 -0.531,0.009 -0.84283,0.39332 -0.73942,0.91038 0.0554,0.27704 0.0246,0.56331 -0.0734,0.68132 -0.16742,0.20174 -0.89914,0.25555 -1.33218,0.098 z m 0.27,-2.02444 c 0.46112,-0.46112 -0.0878,-1.22748 -0.81924,-1.14374 -0.59093,0.0677 -0.64938,0.58506 -0.1137,1.00643 0.4601,0.36192 0.67649,0.39376 0.93294,0.13731 z m -2.23089,-0.51523 c 0.51306,-0.65224 0.41584,-1.35138 -0.27994,-2.01326 -0.97689,-0.92929 -2.34335,-0.93236 -2.80493,-0.006 -0.31924,0.64047 0.24436,1.56365 1.29576,2.12249 0.77473,0.41178 1.41313,0.37505 1.78911,-0.10293 z m -10.33911,-1.39569 c -0.20625,-0.0633 -0.88125,-0.37481 -1.5,-0.69218 -1.00619,-0.51611 -1.2453,-0.57784 -2.26409,-0.58448 -1.05058,-0.007 -1.25082,-0.0629 -2.57695,-0.72121 -1.82682,-0.90688 -2.71089,-1.75267 -3.0495,-2.91747 -0.5975,-2.05531 0.78657,-4.65301 2.90056,-5.44396 2.00142,-0.74883 5.14391,-0.72726 7.05284,0.0484 1.80672,0.73413 3.55412,2.11541 4.5357,3.58534 l 0.61748,0.92468 -0.42052,0.21524 c -1.69128,0.86565 -3.44005,3.40809 -3.53777,5.14337 l -0.0327,0.58163 -0.675,-0.0121 c -0.37125,-0.007 -0.84375,-0.0639 -1.05,-0.12725 z m 26.42657,-1.10579 c -0.5924,-0.63059 -1.22657,-2.06128 -1.22657,-2.76715 v -0.65896 l 0.4417,0.34891 c 0.30041,0.2373 0.44436,0.48768 0.45,0.7827 0.005,0.23859 0.28083,0.86531 0.61392,1.39273 0.33309,0.52741 0.56536,1.02408 0.51615,1.10371 -0.14886,0.24085 -0.45139,0.16402 -0.7952,-0.20194 z m -14.32627,-3.29314 -0.72442,-0.48515 0.0893,-3.3 c 0.1,-3.69429 0.23522,-4.64498 0.81178,-5.7072 0.67637,-1.2461 1.81594,-1.72229 2.97574,-1.24347 0.27413,0.11318 2.14438,0.20585 5.33107,0.26416 4.42617,0.081 4.93497,0.11596 5.175,0.35571 0.23593,0.23566 0.27142,0.64438 0.31208,3.59487 l 0.0459,3.32897 -0.38338,-0.36017 c -0.38161,-0.3585 -0.38338,-0.37178 -0.38338,-2.87516 0,-1.38325 -0.0557,-2.54945 -0.12385,-2.59155 -0.20512,-0.12677 -5.14776,-0.38357 -8.38391,-0.43559 l -3.03276,-0.0488 -0.15009,0.7591 c -0.19595,0.99106 -0.42857,3.66343 -0.55571,6.38409 -0.0559,1.19625 -0.14153,2.32582 -0.19029,2.51015 -0.0883,0.33392 -0.0913,0.33338 -0.81309,-0.15 z m -5.41633,-2.09765 c -0.0395,-0.18563 -0.17918,-1.08 -0.31049,-1.9875 -0.35802,-2.47433 -0.80888,-4.92952 -1.05296,-5.73393 -0.1195,-0.39384 -0.218,-0.90438 -0.2189,-1.13455 -0.003,-0.73973 0.54514,-1.55899 1.46118,-2.18443 0.47421,-0.32377 1.02584,-0.76494 1.22585,-0.98038 0.74401,-0.80143 0.9885,-0.61405 2.70672,2.07459 0.4512,0.70604 0.89856,1.2837 0.99413,1.2837 0.0956,0 0.2578,-0.10125 0.3605,-0.225 0.22576,-0.27203 0.64971,-0.30024 0.56344,-0.0375 -0.0608,0.18525 -0.9733,0.86694 -1.14812,0.85775 -0.0497,-0.003 -0.3731,-0.42449 -0.71873,-0.9375 -0.34562,-0.51301 -0.87342,-1.21894 -1.17288,-1.56873 -0.5248,-0.61298 -0.55903,-0.62833 -0.9466,-0.42427 -0.22116,0.11644 -0.72864,0.54595 -1.12774,0.95446 l -0.72562,0.74275 0.53406,2.30652 c 0.46402,2.00398 1.29219,6.5793 1.29219,7.13882 0,0.13349 -0.2526,0.1927 -0.82214,0.1927 -0.73134,0 -0.83007,-0.0373 -0.89389,-0.3375 z m -2.4088,-2.51228 c -0.14923,-0.1649 -0.72413,-0.6092 -1.27757,-0.98735 -0.65243,-0.44578 -1.12878,-0.90734 -1.35475,-1.31268 -0.19169,-0.34384 -0.74759,-1.24953 -1.23533,-2.01266 -0.75189,-1.1764 -0.94734,-1.38772 -1.28467,-1.38897 -0.21882,-7.5e-4 -0.7691,-0.17528 -1.22285,-0.38773 -1.78769,-0.837 -3.69598,-1.42129 -5.33283,-1.63285 l -0.75783,-0.0979 -1.56717,2.17334 -1.56717,2.17335 -0.675,-0.0834 c -0.94186,-0.11631 -1.65,-0.42937 -1.65,-0.72943 0,-0.20524 0.0895,-0.23206 0.4875,-0.14604 1.64165,0.3548 1.46668,0.43701 2.73905,-1.28706 0.6315,-0.85569 1.35789,-1.90516 1.61419,-2.33215 0.25631,-0.427 0.62236,-0.84759 0.81345,-0.93466 0.3501,-0.15951 0.58294,-0.0912 5.31098,1.55764 0.54459,0.18992 1.16153,0.31255 1.37098,0.27251 0.20944,-0.04 0.68551,0.062 1.05793,0.22673 0.57058,0.25239 0.86683,0.56741 1.8826,2.00183 1.11162,1.56978 2.11612,3.27259 2.75181,4.6648 0.29318,0.64208 0.27708,0.68302 -0.10332,0.26269 z"
         id="path24155"
         sodipodi:nodetypes="sssssscscsssssscssscsssssssssssssssssssscssssssssscsssssssssssscsssscsssssscssssssssssssscssscccssscssssscscscsssscssssscscccsssscscsccsscssssscssccsssscscsssccsssssscsssscsssccssscsssssscsssscsssssssscsscccsssssssssssss" />
    </g>
  </g>
</svg>
