<?xml version="1.0" encoding="UTF-8" standalone="no"?>
<!-- Created with Inkscape (http://www.inkscape.org/) -->

<svg
   width="100mm"
   height="100mm"
   viewBox="0 0 100 100"
   version="1.1"
   id="svg25179"
   sodipodi:docname="Fire_Ant.svg"
   inkscape:version="1.1 (c4e8f9ed74, 2021-05-24)"
   xmlns:inkscape="http://www.inkscape.org/namespaces/inkscape"
   xmlns:sodipodi="http://sodipodi.sourceforge.net/DTD/sodipodi-0.dtd"
   xmlns="http://www.w3.org/2000/svg"
   xmlns:svg="http://www.w3.org/2000/svg">
  <sodipodi:namedview
     id="namedview25181"
     pagecolor="#ffffff"
     bordercolor="#666666"
     borderopacity="1.0"
     inkscape:pageshadow="2"
     inkscape:pageopacity="0.0"
     inkscape:pagecheckerboard="0"
     inkscape:document-units="mm"
     showgrid="false"
     inkscape:zoom="1.8159956"
     inkscape:cx="201.54234"
     inkscape:cy="184.47181"
     inkscape:window-width="1920"
     inkscape:window-height="1029"
     inkscape:window-x="0"
     inkscape:window-y="0"
     inkscape:window-maximized="1"
     inkscape:current-layer="layer1" />
  <defs
     id="defs25176" />
  <g
     inkscape:label="Layer 1"
     inkscape:groupmode="layer"
     id="layer1">
    <g
       id="g23289"
       transform="matrix(1.6486821,0,0,1.6486821,-93.549797,-433.76629)">
      <path
         style="fill:#000000;fill-opacity:1;stroke-width:0.15"
         d="m 81.792403,311.53874 c -0.417888,-0.45516 -1.154062,-1.95344 -1.450568,-2.95223 -0.31875,-1.07371 -0.305243,-1.65253 0.07352,-3.15033 0.250608,-0.99102 0.279824,-1.31362 0.142246,-1.57068 -0.146097,-0.27299 -0.06883,-0.56878 0.494729,-1.89389 0.70931,-1.66782 1.297641,-3.44109 1.297641,-3.91117 0,-0.15631 -0.103368,-0.2842 -0.229707,-0.2842 -0.425225,0 -0.405042,-0.44456 0.05276,-1.1621 0.378532,-0.5933 1.526949,-2.94708 1.526949,-3.12961 0,-0.0299 -0.233847,-0.15197 -0.519662,-0.27139 -0.613795,-0.25646 -0.80367,-0.77702 -0.527026,-1.4449 0.298479,-0.72059 0.825486,-1.042 1.70854,-1.042 0.930051,0 1.353192,0.26308 1.593296,0.9906 0.161182,0.48839 0.119329,0.71995 -0.44048,2.43703 -0.340222,1.04355 -0.735829,2.36987 -0.879127,2.94737 -0.246072,0.99169 -0.284369,1.05034 -0.689609,1.05612 -0.566979,0.008 -0.764677,0.30919 -1.299742,1.97955 -0.314298,0.98118 -0.44619,1.69389 -0.44619,2.41112 0,0.56002 -0.05682,1.08233 -0.126264,1.16071 -0.06944,0.0784 -0.20718,0.52122 -0.30608,0.9841 -0.0989,0.46288 -0.345831,1.06662 -0.548736,1.34164 -0.609697,0.8264 -0.511786,1.4841 0.53108,3.56745 0.495,0.98888 0.9,1.90513 0.9,2.03613 0,0.34849 -0.499544,0.29064 -0.857566,-0.0993 z m 22.806197,-0.62898 c -0.34451,-0.10741 -0.85076,-0.33408 -1.125,-0.50371 -0.69308,-0.42867 -1.8903,-1.85397 -2.33531,-2.78017 -0.2047,-0.42605 -0.63754,-1.23027 -0.96187,-1.78714 -0.474704,-0.81508 -0.661513,-1.0125 -0.958067,-1.0125 -0.8572,0 -1.264904,-1.22989 -1.272051,-3.83729 -0.0036,-1.30527 -0.151287,-2.30485 -0.452579,-3.06271 -0.134792,-0.33905 -0.231518,-0.375 -1.00892,-0.375 -0.768141,0 -1.107772,-0.12204 -3.184834,-1.14437 -1.877145,-0.92393 -2.420266,-1.26344 -2.819568,-1.7625 -0.272013,-0.33997 -0.591082,-0.61813 -0.709043,-0.61813 -0.11796,0 -0.327786,-0.17294 -0.466277,-0.3843 -0.231313,-0.35303 -0.232535,-0.42471 -0.01503,-0.88082 0.492934,-1.03369 2.65202,-1.65878 3.381638,-0.97904 0.443088,0.4128 0.443222,1.27748 3e-4,1.74898 -0.197798,0.21054 -0.272232,0.39989 -0.1875,0.47696 0.07728,0.0703 1.355514,0.58364 2.840514,1.14077 1.485,0.55713 2.784375,1.08074 2.8875,1.16357 0.103125,0.0828 0.1875,0.39039 0.1875,0.68345 0,0.29307 0.333123,1.55043 0.740273,2.79414 0.407149,1.24371 0.821288,2.72961 0.920304,3.302 0.13957,0.80679 0.326,1.2539 0.82941,1.98921 0.35715,0.52167 0.721,1.2346 0.80854,1.58429 0.2513,1.00371 0.55006,1.56151 1.23725,2.31001 0.622,0.67748 1.8612,1.39636 2.41215,1.39931 0.19452,10e-4 0.25916,0.0951 0.225,0.32722 -0.0613,0.41632 -0.20628,0.44724 -0.9743,0.20777 z M 61.799969,305.2129 c 0,-0.29427 1.071988,-1.19089 2.300691,-1.92431 0.584922,-0.34914 1.082994,-0.76296 1.159035,-0.96296 0.07334,-0.19289 0.442524,-0.56865 0.820416,-0.83501 0.704286,-0.49643 1.506448,-1.56087 1.915872,-2.5423 0.224248,-0.53755 0.220566,-0.5595 -0.132682,-0.79096 -0.627509,-0.41116 -0.414786,-0.99218 0.917494,-2.50601 1.159665,-1.31769 3.67957,-5.14043 3.861826,-5.85846 0.235806,-0.92901 0.545684,-0.9845 2.407209,-0.4311 1.982218,0.58927 4.188051,1.059 4.987472,1.06207 0.569005,0.002 0.623794,0.0397 0.774327,0.53018 l 0.161995,0.52783 -0.999326,-0.11533 c -1.7867,-0.2062 -3.941629,-0.13321 -4.509875,0.15275 -0.681941,0.34317 -0.781168,0.33006 -1.435122,-0.18964 -0.446983,-0.35522 -0.619949,-0.4155 -0.845627,-0.29472 -0.156037,0.0835 -0.283705,0.27264 -0.283705,0.42028 0,0.31407 -0.55431,1.99232 -1.220754,3.696 -0.258179,0.66 -0.542908,1.4025 -0.632733,1.65 -0.08983,0.2475 -0.445608,0.72461 -0.790626,1.06023 -0.42097,0.40952 -0.984681,1.31043 -1.713807,2.73899 -1.118153,2.19078 -1.585232,2.72578 -2.379733,2.72578 -0.438401,0 -1.060393,0.33076 -2.435186,1.29497 -1.133319,0.79484 -1.927161,1.03859 -1.927161,0.59172 z m 39.042211,-9.83213 c -1.628228,-0.38696 -3.10681,-1.60823 -3.875983,-3.20145 -0.354275,-0.73383 -0.76208,-1.26815 -1.446658,-1.89544 -1.33622,-1.2244 -1.80981,-2.14973 -1.890892,-3.69452 -0.07167,-1.3655 0.185716,-2.50386 0.839069,-3.71104 0.923381,-1.70611 3.634792,-3.54305 5.420331,-3.6722 0.914603,-0.0662 1.423813,0.10897 2.365293,0.81346 l 0.47836,0.35796 1.32164,-1.94665 c 0.72689,-1.07066 1.35538,-1.9452 1.39663,-1.94342 0.15692,0.007 4.11996,6.39724 4.95655,7.9925 1.37188,2.61601 1.82971,4.13883 1.91176,6.35874 0.0455,1.23157 0.0157,1.8375 -0.0903,1.8375 -0.087,0 -0.55079,-0.17046 -1.0306,-0.37881 l -0.87239,-0.3788 -0.008,-1.3087 c -0.0124,-2.12619 -0.67003,-3.74216 -3.26849,-8.03094 l -1.42658,-2.35457 -0.74186,1.06654 -0.74187,1.06654 0.34428,0.62187 c 0.18935,0.34203 0.48477,1.04269 0.6565,1.55702 0.23438,0.70198 0.48034,1.09011 0.98644,1.55661 1.3365,1.23194 2.05516,3.47088 1.72417,5.37156 -0.15934,0.91501 -0.60832,1.81168 -0.90715,1.81168 -0.0752,0 -0.28026,-0.28688 -0.45569,-0.6375 -0.17542,-0.35063 -0.5563,-0.88505 -0.84639,-1.18761 l -0.52744,-0.55011 -0.47485,0.62257 c -0.27297,0.35789 -0.80278,0.78644 -1.24616,1.00798 l -0.7713,0.3854 0.37544,0.47972 c 0.20649,0.26385 0.67719,0.65656 1.04598,0.87269 0.3688,0.21613 0.64673,0.46922 0.61763,0.56241 -0.0291,0.0932 -0.28515,0.28747 -0.56898,0.43172 -0.54747,0.27822 -2.30473,0.34166 -3.24886,0.11729 z m -1.526893,-5.74725 c 0.284452,-0.19126 0.592064,-0.5724 0.696103,-0.8625 0.50157,-1.39851 -0.571889,-4.02711 -1.931742,-4.73032 -0.343598,-0.17768 -0.5574,-0.19166 -1.021183,-0.0668 -1.575724,0.4243 -2.126988,2.65032 -1.116236,4.5074 0.753809,1.385 2.26107,1.89986 3.373058,1.1522 z m -12.375024,2.93019 c 0.07209,-0.72561 0.02881,-0.96837 -0.272711,-1.52959 -0.852851,-1.58739 -3.004022,-1.80103 -4.412217,-0.4382 l -0.469634,0.45451 -0.185354,-0.77264 c -0.230464,-0.96069 -0.106371,-1.79124 0.409149,-2.73842 1.082073,-1.98812 5.699742,-3.86316 9.51384,-3.86316 h 1.340227 l -0.119298,0.5625 c -0.06561,0.30938 -0.119296,1.27293 -0.119296,2.14123 0,1.47581 0.03156,1.6428 0.484029,2.56136 0.312996,0.63541 0.803272,1.28713 1.3875,1.84439 0.496909,0.47397 0.903471,0.88936 0.903471,0.92309 0,0.0672 -1.139489,0.66743 -1.267011,0.66743 -0.04343,0 -0.171941,-0.22253 -0.285581,-0.4945 -0.113638,-0.27198 -0.423473,-0.67698 -0.688521,-0.9 -0.870743,-0.73269 -2.7841,-0.50848 -3.913957,0.45864 -0.651483,0.55764 -1.04493,1.18961 -1.04493,1.67841 0,0.26423 -0.09457,0.30745 -0.672701,0.30745 h -0.6727 z m -8.640294,-4.0264 c -4.280829,-1.13717 -8.404983,-5.4346 -10.657702,-11.10549 -0.251405,-0.63287 -0.426752,-1.22977 -0.389661,-1.32642 0.07061,-0.18401 2.179559,-0.71931 3.847363,-0.97654 1.271976,-0.19619 4.759135,-0.19292 6,0.006 3.350088,0.53601 6.177994,2.08188 8.19024,4.47716 0.825959,0.98319 2.15976,3.19296 2.15976,3.57818 0,0.0842 -0.252724,0.20042 -0.561611,0.25837 -1.408624,0.26426 -3.67737,1.45993 -4.813518,2.53681 -0.650755,0.61681 -1.244743,1.60399 -1.43127,2.37872 -0.09145,0.37983 -0.155508,0.41171 -0.808959,0.40262 -0.390302,-0.005 -1.080892,-0.10849 -1.534642,-0.22903 z"
         id="path23305"
         sodipodi:nodetypes="ssssssssssssssscsssssssssssssssssssssssssssssssssssssssssssssscscsssssssssssscsssscscscssssccscccssssssscsscssssccssscsssssscssscssssssssssscscssscsssssccc" />
    </g>
  </g>
</svg>
