<?xml version="1.0" encoding="UTF-8" standalone="no"?>
<!-- Created with Inkscape (http://www.inkscape.org/) -->

<svg
   width="100mm"
   height="100mm"
   viewBox="0 0 100 100"
   version="1.1"
   id="svg25179"
   sodipodi:docname="Ghost_Bee.svg"
   inkscape:version="1.1 (c4e8f9ed74, 2021-05-24)"
   xmlns:inkscape="http://www.inkscape.org/namespaces/inkscape"
   xmlns:sodipodi="http://sodipodi.sourceforge.net/DTD/sodipodi-0.dtd"
   xmlns="http://www.w3.org/2000/svg"
   xmlns:svg="http://www.w3.org/2000/svg">
  <sodipodi:namedview
     id="namedview25181"
     pagecolor="#ffffff"
     bordercolor="#666666"
     borderopacity="1.0"
     inkscape:pageshadow="2"
     inkscape:pageopacity="0.0"
     inkscape:pagecheckerboard="0"
     inkscape:document-units="mm"
     showgrid="false"
     inkscape:zoom="1.8159956"
     inkscape:cx="201.54234"
     inkscape:cy="184.47181"
     inkscape:window-width="1920"
     inkscape:window-height="1029"
     inkscape:window-x="0"
     inkscape:window-y="0"
     inkscape:window-maximized="1"
     inkscape:current-layer="layer1" />
  <defs
     id="defs25176" />
  <g
     inkscape:label="Layer 1"
     inkscape:groupmode="layer"
     id="layer1">
    <g
       id="g22165"
       transform="matrix(1.6012553,0,0,1.6012553,-257.22131,-89.759291)">
      <path
         style="fill:#000000;fill-opacity:1;stroke-width:0.15"
         d="m 191.15486,111.0747 c 0.0988,-1.05428 0.0822,-1.15326 -0.26231,-1.56266 -0.26534,-0.31534 -0.41515,-0.75559 -0.53785,-1.58056 -0.32625,-2.19357 -0.33234,-2.17319 1.09958,-3.68413 l 1.26964,-1.33971 -0.21964,-0.62254 c -0.33759,-0.95683 -0.27338,-2.528816 0.17351,-4.247648 0.21624,-0.831701 0.45052,-1.574339 0.52062,-1.650306 0.20454,-0.221642 1.12865,0.876921 1.39484,1.658158 0.30123,0.884051 0.31269,2.665126 0.0224,3.487756 -0.12041,0.34128 -0.41155,0.90664 -0.64698,1.25636 -0.23543,0.34971 -0.61012,1.01528 -0.83265,1.47902 -0.22252,0.46375 -0.66859,1.14309 -0.99125,1.50965 l -0.58665,0.66647 0.4557,0.91942 c 0.49301,0.99467 0.71393,2.1801 0.43806,2.35059 -0.092,0.0569 -0.16796,0.28505 -0.16877,0.50705 -0.002,0.60086 -0.68754,1.97865 -0.98425,1.97865 -0.2199,0 -0.23701,-0.13363 -0.14405,-1.12557 z m -9.06592,-1.68693 c -2.50435,-1.46151 -4.61882,-4.24909 -5.39894,-7.11762 -1.00593,-3.698812 -1.12313,-8.082523 -0.29589,-11.067708 0.59835,-2.159209 1.66648,-4.164334 2.89857,-5.441259 0.48461,-0.50224 0.60583,-0.555502 1.10562,-0.48579 1.10326,0.153888 4.81227,0.379622 7.81927,0.475887 2.85241,0.09132 3.06303,0.117383 3.13376,0.387839 0.13411,0.512868 1.18913,2.569467 1.59599,3.11115 0.21688,0.28875 0.79791,0.935445 1.29119,1.437099 l 0.89686,0.912099 -0.59863,0.481074 c -1.11578,0.896658 -2.00012,2.455702 -2.73391,4.819728 -0.7211,2.323126 -1.9737,4.116651 -4.9479,7.084541 -2.75424,2.74842 -3.56905,3.95312 -3.62223,5.35552 -0.0127,0.33453 -0.0584,0.60862 -0.10148,0.60909 -0.0431,4.5e-4 -0.51216,-0.25228 -1.04228,-0.56165 z m 16.26423,-6.71273 c 0.0567,-0.45388 0.0547,-1.5845 -0.004,-2.5125 l -0.10747,-1.687271 -0.72708,-0.563778 c -0.3999,-0.310077 -0.98078,-0.890605 -1.29086,-1.290065 -0.31008,-0.399459 -0.73253,-0.791956 -0.93878,-0.872217 -0.20625,-0.08026 -0.56554,-0.421702 -0.79842,-0.75876 -0.40538,-0.586717 -0.4135,-0.632026 -0.19048,-1.063306 0.12813,-0.247763 0.45367,-0.625423 0.72343,-0.839247 l 0.49047,-0.388772 0.48168,1.013073 c 0.26493,0.557189 0.4843,1.091828 0.4875,1.188086 0.003,0.09626 0.52894,0.5454 1.16832,0.998097 1.90455,1.348476 2.14733,1.598155 2.2411,2.304819 0.13985,1.053798 -0.0763,2.001181 -0.55949,2.452581 -0.39904,0.37275 -0.41766,0.43919 -0.2637,0.94083 0.13486,0.43941 0.11724,0.66653 -0.0948,1.22171 -0.1525,0.39931 -0.35572,0.68195 -0.49032,0.68195 -0.19114,0 -0.2125,-0.13906 -0.12677,-0.82523 z m 3.61483,-4.711235 c -0.16027,-0.259308 0.0875,-0.540596 0.95265,-1.081683 0.65999,-0.412755 0.951,-0.713603 1.2122,-1.253184 0.28484,-0.588393 0.30801,-0.732957 0.13525,-0.843816 -0.38801,-0.248988 -1.25481,-0.433176 -2.04251,-0.434016 -0.68006,-7.5e-4 -0.81822,-0.053 -1.04176,-0.394155 -0.14174,-0.216324 -0.28306,-0.773199 -0.31404,-1.2375 l -0.0563,-0.844182 0.79809,-0.333533 c 1.4728,-0.615507 1.36336,-0.641031 1.24694,0.29082 l -0.10304,0.824702 0.65209,0.103037 c 1.10626,0.174794 1.77074,0.424526 2.15679,0.810578 0.58951,0.589501 0.41339,1.67667 -0.27247,1.681956 -0.25951,0.002 -0.41252,0.187938 -0.6991,0.849564 -0.52504,1.212176 -1.31199,1.997876 -2.00104,1.997876 -0.29666,0 -0.57733,-0.06141 -0.62371,-0.136464 z m 6.51637,-4.166762 c -1.16658,-0.581327 -2.69241,-2.149012 -3.29833,-3.388796 -1.71337,-3.505778 0.44826,-8.219923 4.31288,-9.405626 l 0.86071,-0.264074 1.16855,-2.230186 c 0.6427,-1.226602 1.22481,-2.286453 1.29358,-2.355224 0.13957,-0.139568 3.26233,3.446668 4.1811,4.801654 0.80462,1.29298 3.31591,6.44994 0.80052,5.951728 -0.43558,-0.08712 -0.46875,-0.138267 -0.46875,-0.722775 0,-0.84648 -0.37851,-2.083172 -0.94059,-3.073182 -0.35553,-0.626186 -2.20752,-3.070092 -3.11363,-4.108754 -0.10443,-0.11971 -1.19578,1.675626 -1.19578,1.967135 0,0.07971 0.2008,0.228105 0.44623,0.329764 0.6022,0.24944 1.60509,1.363121 1.94808,2.163296 0.9345,2.180089 0.67948,5.642322 -0.57567,7.815543 -1.50571,2.607058 -3.4392,3.506026 -5.4189,2.519497 z m 0.58465,-2.976915 c 0.90262,-1.028026 1.37987,-3.114094 1.06665,-4.662366 -0.46444,-2.295775 -1.783,-3.152218 -2.88,-1.87063 -0.76222,0.890491 -1.09722,1.955212 -1.0896,3.463137 0.007,1.369248 0.34218,2.403787 1.01339,3.127035 0.67356,0.72579 1.21653,0.70936 1.88956,-0.05718 z m -12.35939,0.157232 c -1.26823,-0.515449 -2.61784,-1.950204 -3.39552,-3.609726 -0.31872,-0.680114 -0.57948,-1.26754 -0.57948,-1.305393 0,-0.03785 1.50063,-0.117954 3.33473,-0.178006 1.8341,-0.06005 3.38811,-0.142178 3.45335,-0.182502 0.0653,-0.04033 0.31564,-0.463589 0.55643,-0.940588 l 0.4378,-0.86727 -0.55366,-0.534058 c -0.84309,-0.813255 -3.11861,-2.47216 -4.88263,-3.559548 l -1.58169,-0.975 0.70533,-0.720295 c 1.28288,-1.310083 3.35461,-2.069114 5.65534,-2.071976 2.12317,-0.0026 3.86961,0.752354 5.19749,2.246906 0.67051,0.754676 1.4772,2.296848 1.47739,2.824373 7e-5,0.204434 -0.31318,0.625318 -0.82734,1.111582 -1.41483,1.33809 -2.16412,3.378367 -2.17023,5.90941 l -0.003,1.2 -0.71221,0.474597 c -2.28212,1.52074 -4.3076,1.910943 -6.11221,1.177494 z m -9.225,-6.178948 c -1.94164,-0.08773 -7.88494,-0.511324 -8.2875,-0.590672 -0.22688,-0.04472 -0.40984,-0.12657 -0.40659,-0.18189 0.003,-0.05532 0.42512,-0.55247 0.9375,-1.104779 l 0.93159,-1.004196 3.525,0.830249 3.525,0.830248 3.10652,-0.236671 3.10652,-0.236672 2.35972,0.826859 c 1.29784,0.454771 2.39179,0.858925 2.43098,0.898119 0.0736,0.07364 -9.49903,0.04756 -11.22874,-0.0306 z m -12.61977,-1.026199 c -3.16952,-0.432493 -5.73394,-1.049328 -7.25523,-1.745139 -0.52828,-0.241626 -0.66131,-0.35463 -0.45,-0.382251 0.98718,-0.129037 8.08932,-0.66061 8.775,-0.656782 0.45375,0.0025 1.45338,0.158844 2.2214,0.347356 l 1.39641,0.342751 -1.01461,1.161061 c -1.16152,1.329192 -1.02453,1.294392 -3.67297,0.933004 z m 9.99477,-4.801309 c -7.6725,-2.670009 -13.98375,-4.862459 -14.025,-4.872107 -0.29288,-0.06851 0.85142,-0.315603 2.17302,-0.469227 3.36533,-0.391192 7.26008,0.425543 13.20198,2.768475 2.29597,0.905318 5.51749,2.498483 7.725,3.820313 2.0676,1.238053 5.41143,3.645508 5.025,3.617847 -0.0825,-0.0059 -6.4275,-2.195291 -14.1,-4.865301 z m -1.01284,2.72227 c -2.20706,-0.518967 -4.04593,-0.976674 -4.08638,-1.017126 -0.0405,-0.04045 1.21694,-0.169677 2.7942,-0.287164 l 2.86775,-0.213615 3.0907,1.066638 3.0907,1.066638 -1.19706,0.09962 c -0.65839,0.05479 -1.50082,0.128639 -1.87207,0.164103 -0.48046,0.0459 -1.83153,-0.207465 -4.68784,-0.879096 z m -18.44683,-1.107831 c -0.70703,-0.810837 -0.75658,-1.775904 -0.14083,-2.743207 0.5851,-0.91917 2.03431,-2.222195 3.10631,-2.792978 l 0.89419,-0.476109 6.78253,2.348583 c 3.73039,1.291721 6.73414,2.389079 6.675,2.438574 -0.0591,0.04949 -3.78628,0.374064 -8.28253,0.721266 -4.49625,0.347202 -8.3174,0.661127 -8.49145,0.697611 -0.18235,0.03822 -0.41254,-0.04387 -0.54322,-0.19374 z m 25.53467,-5.789902 c -1.36125,-0.599065 -3.15,-1.439778 -3.975,-1.868252 -1.54159,-0.800641 -3.23621,-1.817515 -3.03891,-1.823532 0.0611,-0.0019 2.11985,0.472992 4.575,1.055235 l 4.46391,1.058625 0.94844,0.995248 0.94844,0.995246 -0.64844,0.339351 c -0.35664,0.186642 -0.68219,0.338886 -0.72344,0.338319 -0.0413,-6e-4 -1.18875,-0.491175 -2.55,-1.09024 z m 1.65,-3.404516 c -1.80798,-1.938837 -3.45144,-3.569862 -3.74036,-3.712041 -0.46801,-0.230312 -2.6817,-2.806557 -2.53642,-2.951835 0.0851,-0.0851 2.61415,1.640826 4.05866,2.769797 1.28383,1.003395 7.01812,6.618364 7.01812,6.872086 0,0.07865 -0.2641,0.185225 -0.58689,0.236841 -0.32279,0.05162 -0.67716,0.127536 -0.7875,0.168713 -0.12142,0.04531 -1.47361,-1.290276 -3.42561,-3.383561 z m -5.44817,-0.522526 c -2.54274,-0.612486 -4.68683,-1.152959 -4.76464,-1.201049 -0.27009,-0.166921 -0.75725,-1.297518 -1.04664,-2.429016 -0.16003,-0.62571 -0.26889,-1.159728 -0.24191,-1.186704 0.027,-0.02698 1.75171,0.545247 3.83274,1.271612 l 3.78369,1.32066 1.57973,1.678183 c 0.86884,0.923001 1.55733,1.674075 1.52996,1.669055 -0.0274,-0.005 -2.13019,-0.510254 -4.67293,-1.122741 z m -3.43933,-4.980712 -2.8125,-0.977082 v -1.27436 -1.274359 l 0.61113,0.09772 c 0.33612,0.05375 1.0329,0.288966 1.54841,0.522708 0.84686,0.383987 1.06443,0.587052 2.25532,2.104994 0.72493,0.924004 1.29377,1.701934 1.2641,1.728733 -0.0297,0.0268 -1.31958,-0.390961 -2.86646,-0.928357 z"
         id="path22181"
         sodipodi:nodetypes="cssscsssssssscsccsccssssssssscsssssscccsssssscscsssssscccsssssccsscsssssccssscssccssssssssssscssscssscscsscscsssccsccsscscccccssssssscscsssssssssscscccssssssscssssssscscccscsssssssssssssscscsccccsssssc" />
    </g>
  </g>
</svg>
