<?xml version="1.0" standalone="no"?>
<!DOCTYPE svg PUBLIC "-//W3C//DTD SVG 20010904//EN"
 "http://www.w3.org/TR/2001/REC-SVG-20010904/DTD/svg10.dtd">
<svg version="1.0" xmlns="http://www.w3.org/2000/svg"
 width="1993.000000pt" height="2223.000000pt" viewBox="0 0 1993.000000 2223.000000"
 preserveAspectRatio="xMidYMid meet">
<metadata>
Created by potrace 1.16, written by Peter Selinger 2001-2019
</metadata>
<g transform="translate(0.000000,2223.000000) scale(0.100000,-0.100000)"
fill="#000000" stroke="none">
<path d="M10068 22073 c-289 -349 -1247 -1561 -4157 -5258 -710 -902 -1289
-1644 -1288 -1649 3 -9 987 -683 3297 -2259 1505 -1027 1820 -1240 1826 -1235
19 20 932 2229 2059 4982 733 1792 925 2269 925 2297 0 35 -367 509 -1864
2409 -582 738 -667 845 -676 848 -4 2 -59 -59 -122 -135z"/>
<path d="M14637 18168 c-378 -763 -2228 -4594 -2819 -5838 l-140 -294 33 -29
c168 -140 5279 -4109 5287 -4105 5 2 451 500 992 1108 1109 1245 1881 2112
1917 2151 l24 27 -1518 2193 c-1514 2187 -2757 3980 -3292 4749 -155 223 -285
406 -290 408 -5 2 -92 -165 -194 -370z"/>
<path d="M2788 14163 c-274 -301 -1291 -1438 -2327 -2603 -228 -256 -425 -477
-438 -492 l-25 -26 1439 -2079 c1553 -2241 3125 -4510 3453 -4980 112 -161
207 -293 211 -293 19 0 1255 2545 2980 6135 l168 350 -42 39 c-117 107 -1436
1139 -3827 2992 -1187 921 -1411 1093 -1432 1105 -14 7 -43 -20 -160 -148z"/>
<path d="M9620 9538 c-1227 -2997 -2483 -6069 -2557 -6254 -5 -13 133 -193
806 -1054 1217 -1557 1752 -2233 1761 -2223 26 29 4154 5268 5230 6637 l313
400 -36 31 c-84 73 -492 356 -2042 1416 -1644 1125 -3042 2079 -3047 2079 -3
0 -195 -465 -428 -1032z"/>
</g>
</svg>
