<?xml version="1.0" standalone="no"?>
<!DOCTYPE svg PUBLIC "-//W3C//DTD SVG 20010904//EN"
 "http://www.w3.org/TR/2001/REC-SVG-20010904/DTD/svg10.dtd">
<svg version="1.0" xmlns="http://www.w3.org/2000/svg"
 width="1123.000000pt" height="2223.000000pt" viewBox="0 0 1123.000000 2223.000000"
 preserveAspectRatio="xMidYMid meet">
<metadata>
Created by potrace 1.16, written by Peter Selinger 2001-2019
</metadata>
<g transform="translate(0.000000,2223.000000) scale(0.100000,-0.100000)"
fill="#000000" stroke="none">
<path d="M5580 22200 c0 -6 -61 -401 -135 -878 -184 -1190 -945 -6146 -1111
-7237 -245 -1615 -286 -1906 -270 -1922 12 -12 923 -10 935 2 15 16 78 396
301 1840 218 1408 286 1816 303 1827 16 10 21 10 40 -4 18 -14 20 -28 257
-1568 235 -1530 324 -2088 336 -2099 8 -8 839 -14 892 -6 79 12 80 -10 -4 530
-41 264 -214 1389 -385 2500 -858 5592 -1076 6994 -1091 7012 -13 15 -68 17
-68 3z"/>
<path d="M9638 20728 c-13 -10 -29 -92 -67 -333 -243 -1542 -1382 -8985 -1472
-9613 -6 -46 -8 -86 -4 -90 3 -4 217 -8 475 -10 449 -3 469 -3 478 15 12 22
76 426 341 2143 262 1694 231 1514 263 1518 21 3 30 -2 38 -20 16 -37 46 -227
370 -2329 104 -680 193 -1254 198 -1275 8 -39 8 -39 67 -47 94 -12 888 3 897
17 4 6 5 25 3 41 -3 17 -45 300 -95 631 -215 1443 -1331 8741 -1409 9219 -15
86 -25 123 -37 132 -22 16 -26 16 -46 1z"/>
<path d="M1540 20725 c0 -3 -36 -234 -79 -513 -211 -1342 -1318 -8592 -1427
-9336 -17 -120 -21 -173 -14 -180 13 -13 929 -21 946 -9 6 5 59 321 118 703
206 1338 347 2237 392 2510 67 410 90 496 123 456 20 -24 92 -468 401 -2476
100 -646 186 -1179 191 -1185 14 -15 934 -14 949 1 12 12 11 21 -139 1014
-225 1486 -1115 7317 -1307 8560 -37 239 -72 441 -77 448 -9 11 -77 18 -77 7z"/>
<path d="M5407 11790 c-114 -20 -208 -93 -266 -209 l-31 -60 0 -5761 0 -5760
505 0 505 0 0 5765 0 5766 -30 60 c-39 77 -86 128 -148 162 -41 22 -70 29
-168 37 -138 11 -298 11 -367 0z"/>
<path d="M1353 10310 c-97 -15 -192 -90 -244 -192 l-29 -57 0 -4811 0 -4810
500 0 500 0 0 4811 0 4810 -26 54 c-33 70 -99 136 -172 172 -56 28 -59 28
-267 30 -115 1 -233 -2 -262 -7z"/>
<path d="M9435 10311 c-101 -16 -184 -79 -243 -183 l-32 -55 0 -4810 0 -4810
158 -6 c86 -4 311 -7 500 -7 l342 0 -1 4078 c-1 2242 -4 4417 -7 4832 l-7 755
-22 36 c-33 53 -117 127 -170 151 -41 18 -71 21 -257 24 -116 1 -234 -1 -261
-5z"/>
</g>
</svg>
