<?xml version="1.0" standalone="no"?>
<!DOCTYPE svg PUBLIC "-//W3C//DTD SVG 20010904//EN"
 "http://www.w3.org/TR/2001/REC-SVG-20010904/DTD/svg10.dtd">
<svg version="1.0" xmlns="http://www.w3.org/2000/svg"
 width="2233.000000pt" height="2176.000000pt" viewBox="0 0 2233.000000 2176.000000"
 preserveAspectRatio="xMidYMid meet">
<metadata>
Created by potrace 1.16, written by Peter Selinger 2001-2019
</metadata>
<g transform="translate(0.000000,2176.000000) scale(0.100000,-0.100000)"
fill="#000000" stroke="none">
<path d="M10905 21749 c-1530 -83 -2915 -438 -4252 -1089 -640 -312 -1206
-661 -1825 -1126 -261 -196 -576 -456 -559 -462 4 -1 116 49 247 112 1103 527
2105 803 3319 911 238 22 923 30 1210 16 2130 -108 4130 -932 5721 -2357 167
-150 479 -460 650 -647 1350 -1474 2186 -3338 2383 -5317 36 -354 45 -541 45
-930 -1 -570 -37 -1011 -130 -1564 -423 -2518 -1900 -4778 -4049 -6192 -1345
-885 -2912 -1407 -4520 -1505 -269 -16 -1114 -7 -1345 15 -1184 111 -2206 391
-3240 888 -229 110 -292 139 -297 134 -9 -9 372 -321 612 -502 1393 -1048
3032 -1753 4740 -2038 116 -19 305 -47 420 -63 l210 -28 1223 2 1223 2 232 36
c401 62 669 113 1017 195 1374 321 2666 910 3837 1748 704 503 1377 1122 1954
1797 1398 1636 2288 3689 2528 5830 47 414 53 523 58 1036 10 947 -35 1492
-188 2294 -253 1324 -787 2653 -1533 3810 -605 940 -1349 1779 -2215 2499
-676 563 -1501 1089 -2287 1460 -1114 525 -2273 849 -3524 985 -288 31 -450
40 -945 51 -503 11 -503 11 -720 -1z"/>
<path d="M6235 17650 c-1650 -140 -3185 -864 -4332 -2044 -1007 -1036 -1668
-2386 -1867 -3815 -29 -204 -38 -520 -33 -1103 5 -608 7 -633 72 -1006 294
-1690 1215 -3208 2575 -4244 1026 -782 2167 -1231 3476 -1369 379 -39 1029
-34 1434 11 1437 162 2794 784 3849 1763 298 277 584 591 807 887 912 1207
1384 2613 1384 4120 0 917 -170 1779 -516 2618 -131 319 -351 740 -547 1047
-761 1197 -1895 2138 -3212 2667 -586 235 -1133 370 -1845 455 -154 18 -1069
28 -1245 13z"/>
</g>
</svg>
