<?xml version="1.0" standalone="no"?>
<!DOCTYPE svg PUBLIC "-//W3C//DTD SVG 20010904//EN"
 "http://www.w3.org/TR/2001/REC-SVG-20010904/DTD/svg10.dtd">
<svg version="1.0" xmlns="http://www.w3.org/2000/svg"
 width="1763.000000pt" height="2223.000000pt" viewBox="0 0 1763.000000 2223.000000"
 preserveAspectRatio="xMidYMid meet">
<metadata>
Created by potrace 1.16, written by Peter Selinger 2001-2019
</metadata>
<g transform="translate(0.000000,2223.000000) scale(0.100000,-0.100000)"
fill="#000000" stroke="none">
<path d="M14308 22133 c-70 -62 -327 -326 -4083 -4188 -1359 -1397 -3381
-3476 -4494 -4620 -1113 -1144 -2035 -2094 -2048 -2112 -13 -17 -27 -47 -30
-66 -7 -43 2 -47 137 -58 52 -5 1424 -13 3048 -19 l2953 -10 24 -28 c13 -15
25 -33 25 -40 0 -7 -669 -1370 -1486 -3030 -2355 -4780 -3493 -7095 -3770
-7670 -46 -96 -84 -187 -84 -202 0 -57 82 -80 135 -38 31 24 749 786 4655
4943 2820 3000 7696 8190 7782 8282 41 44 48 58 48 92 0 31 -5 44 -22 55 -44
27 -289 46 -2513 196 -2529 170 -3751 255 -4024 279 -79 7 -98 12 -112 30 -17
21 -17 24 1 65 60 142 397 821 1875 3786 1654 3316 2129 4276 2141 4324 5 20
0 32 -24 56 -17 16 -39 30 -49 30 -11 0 -49 -26 -85 -57z"/>
<path d="M2405 13287 c-44 -67 -272 -824 -1654 -5492 -797 -2692 -746 -2514
-723 -2544 10 -13 26 -27 37 -31 19 -7 280 34 1100 175 798 137 914 156 1075
180 91 14 177 25 191 25 63 0 59 13 204 -670 911 -4297 864 -4079 888 -4103
14 -14 27 -17 50 -13 54 11 75 32 81 78 3 24 46 664 96 1423 50 759 115 1756
145 2215 70 1069 129 1994 155 2425 11 187 23 386 26 443 7 118 -3 142 -61
142 -40 0 -616 -84 -1404 -205 -343 -52 -650 -98 -682 -102 -78 -8 -99 9 -99
78 0 94 58 594 289 2504 307 2531 413 3438 405 3460 -7 16 -49 35 -79 35 -15
0 -31 -9 -40 -23z"/>
<path d="M17225 8259 c-1321 -617 -5605 -2651 -5980 -2839 -161 -81 -170 -87
-173 -116 -6 -57 18 -78 633 -549 819 -627 805 -616 805 -664 0 -11 -10 -31
-22 -45 -26 -29 -59 -50 -3118 -2038 -3037 -1973 -2771 -1797 -2786 -1835 -15
-34 -11 -57 14 -85 21 -25 50 -22 136 12 487 193 8173 3540 8908 3878 97 45
119 69 94 107 -27 40 -186 152 -806 565 -333 221 -658 441 -722 487 -150 107
-151 111 -40 210 133 120 1054 904 2062 1757 626 529 1167 991 1273 1084 112
99 119 107 113 136 -8 38 -43 76 -70 75 -12 0 -156 -63 -321 -140z"/>
</g>
</svg>
