<?xml version="1.0" standalone="no"?>
<!DOCTYPE svg PUBLIC "-//W3C//DTD SVG 20010904//EN"
 "http://www.w3.org/TR/2001/REC-SVG-20010904/DTD/svg10.dtd">
<svg version="1.0" xmlns="http://www.w3.org/2000/svg"
 width="2233.000000pt" height="1168.000000pt" viewBox="0 0 2233.000000 1168.000000"
 preserveAspectRatio="xMidYMid meet">
<metadata>
Created by potrace 1.16, written by Peter Selinger 2001-2019
</metadata>
<g transform="translate(0.000000,1168.000000) scale(0.100000,-0.100000)"
fill="#000000" stroke="none">
<path d="M18760 11566 c-175 -33 -760 -195 -1780 -496 -564 -166 -730 -218
-730 -231 0 -13 590 -2119 596 -2127 1 -2 427 118 946 267 1240 355 1345 383
1380 375 60 -13 95 -58 127 -162 70 -228 556 -1925 662 -2307 l52 -189 -19
-35 c-40 -75 -59 -81 -904 -326 -1600 -463 -1446 -416 -1442 -441 7 -45 505
-1835 568 -2041 15 -50 30 -83 38 -83 42 0 2327 668 2485 726 123 46 319 147
442 229 579 385 959 1008 1050 1720 16 129 13 437 -5 576 -17 122 -90 402
-301 1144 -281 993 -528 1824 -582 1960 -166 421 -497 819 -903 1085 -197 129
-472 250 -709 311 -204 53 -275 61 -571 65 -254 3 -284 2 -400 -20z"/>
<path d="M15230 10565 c-63 -18 -380 -108 -705 -200 -1117 -316 -12986 -3697
-13310 -3792 -430 -125 -698 -209 -750 -233 -134 -64 -253 -192 -333 -359 -40
-83 -45 -104 -53 -195 -18 -224 -25 -190 283 -1291 267 -955 773 -2751 801
-2844 l14 -44 874 -444 c481 -244 1155 -585 1499 -758 727 -364 870 -429 870
-395 0 7 -126 440 -279 964 -395 1345 -393 1337 -386 1344 3 3 737 -360 1631
-807 894 -447 1627 -811 1629 -809 4 4 -17 78 -335 1213 -147 528 -281 1005
-295 1060 -15 55 -30 106 -33 114 -6 16 121 -48 1763 -894 1427 -735 1485
-764 1485 -754 0 12 -134 500 -327 1189 -243 872 -344 1243 -341 1257 4 17
171 -71 2166 -1139 596 -319 1085 -578 1088 -575 3 2 -26 117 -65 253 -143
510 -517 1870 -561 2043 -11 46 -19 86 -16 88 6 6 452 -220 1656 -842 1080
-558 1544 -795 1553 -795 4 0 7 6 7 13 0 21 -105 413 -315 1177 -264 959 -318
1161 -312 1166 6 6 211 -96 992 -496 1584 -810 2217 -1131 2223 -1126 4 5 4 5
-183 671 -416 1478 -1534 5391 -1674 5860 -93 313 -128 415 -139 414 -4 0 -59
-15 -122 -34z"/>
</g>
</svg>
