<?xml version="1.0" standalone="no"?>
<!DOCTYPE svg PUBLIC "-//W3C//DTD SVG 20010904//EN"
 "http://www.w3.org/TR/2001/REC-SVG-20010904/DTD/svg10.dtd">
<svg version="1.0" xmlns="http://www.w3.org/2000/svg"
 width="2233.000000pt" height="1935.000000pt" viewBox="0 0 2233.000000 1935.000000"
 preserveAspectRatio="xMidYMid meet">
<metadata>
Created by potrace 1.16, written by Peter Selinger 2001-2019
</metadata>
<g transform="translate(0.000000,1935.000000) scale(0.100000,-0.100000)"
fill="#000000" stroke="none">
<path d="M480 19341 c-310 -7 -316 -8 -371 -68 -59 -63 -80 -147 -56 -224 15
-49 125 -240 1672 -2924 2201 -3816 3466 -6005 3497 -6047 47 -67 164 -103
253 -78 93 26 96 30 648 985 3085 5338 4293 7438 4582 7964 66 121 67 124 62
182 -9 97 -64 174 -146 201 -28 9 -1146 12 -4946 13 -2701 1 -5038 -1 -5195
-4z"/>
<path d="M11670 19323 c-66 -38 -80 -53 -106 -108 -17 -36 -24 -68 -24 -115
l0 -64 987 -1711 c2909 -5041 3947 -6831 4164 -7181 80 -130 108 -149 219
-149 99 0 142 28 206 135 226 376 4865 8403 5082 8792 65 118 77 164 62 234
-19 85 -57 133 -137 173 l-42 21 -5183 0 -5183 0 -45 -27z"/>
<path d="M11070 16898 c-24 -13 -56 -39 -71 -58 -15 -19 -133 -217 -262 -440
-644 -1113 -2092 -3629 -2799 -4865 -359 -626 -389 -683 -385 -717 7 -53 41
-103 85 -124 36 -18 146 -19 3504 -19 l3467 0 28 21 c43 32 73 82 73 123 0 28
-37 101 -166 331 -652 1157 -3013 5250 -3261 5651 -44 72 -59 89 -93 103 -53
21 -67 20 -120 -6z"/>
<path d="M5909 9365 c-93 -48 -145 -140 -137 -242 5 -66 -150 208 1586 -2803
2277 -3948 3341 -5782 3556 -6130 61 -98 77 -118 116 -138 95 -48 232 -15 285
68 180 285 4460 7694 4970 8605 65 116 140 255 166 309 42 86 48 104 42 140
-13 89 -64 156 -150 200 -29 15 -459 16 -5210 16 l-5178 -1 -46 -24z"/>
</g>
</svg>
