<?xml version="1.0" standalone="no"?>
<!DOCTYPE svg PUBLIC "-//W3C//DTD SVG 20010904//EN"
 "http://www.w3.org/TR/2001/REC-SVG-20010904/DTD/svg10.dtd">
<svg version="1.0" xmlns="http://www.w3.org/2000/svg"
 width="240.000000pt" height="335.000000pt" viewBox="0 0 240.000000 335.000000"
 preserveAspectRatio="xMidYMid meet">
<metadata>
Created by potrace 1.16, written by Peter Selinger 2001-2019
</metadata>
<g transform="translate(0.000000,335.000000) scale(0.100000,-0.100000)"
fill="#000000" stroke="none">
<path d="M1010 3284 c-29 -35 -51 -66 -49 -68 2 -1 32 -19 66 -40 198 -118
446 -363 548 -541 27 -46 20 -41 -86 65 -138 139 -254 233 -374 305 -83 50
-208 105 -238 105 -7 0 -112 -120 -232 -267 -121 -147 -250 -304 -287 -349
l-67 -81 346 -362 c190 -199 350 -360 357 -358 6 3 63 41 126 87 333 237 589
370 744 387 l58 6 -6 41 c-12 76 -85 276 -142 389 -155 310 -396 577 -642 709
l-69 38 -53 -66z"/>
<path d="M173 2327 c-87 -66 -144 -171 -167 -309 -7 -37 -6 -38 71 -99 42 -34
116 -87 163 -119 68 -46 192 -165 625 -601 297 -300 679 -690 850 -867 177
-185 319 -325 333 -329 31 -7 63 8 117 58 95 88 174 237 216 407 18 74 20 97
11 117 -14 30 -44 32 -215 14 -120 -12 -188 1 -255 46 -19 13 -408 403 -864
867 -456 464 -832 844 -836 845 -4 1 -26 -12 -49 -30z"/>
</g>
</svg>
