<?xml version="1.0" standalone="no"?>
<!DOCTYPE svg PUBLIC "-//W3C//DTD SVG 20010904//EN"
 "http://www.w3.org/TR/2001/REC-SVG-20010904/DTD/svg10.dtd">
<svg version="1.0" xmlns="http://www.w3.org/2000/svg"
 width="238.000000pt" height="333.000000pt" viewBox="0 0 238.000000 333.000000"
 preserveAspectRatio="xMidYMid meet">
<metadata>
Created by potrace 1.16, written by Peter Selinger 2001-2019
</metadata>
<g transform="translate(0.000000,333.000000) scale(0.100000,-0.100000)"
fill="#000000" stroke="none">
<path d="M1426 3315 c-8 -21 -8 -118 0 -139 8 -22 41 -20 53 3 7 13 5 37 -7
81 -17 64 -34 84 -46 55z"/>
<path d="M1627 3212 c-49 -50 -58 -76 -31 -86 24 -9 43 6 79 65 53 84 26 96
-48 21z"/>
<path d="M1420 3071 c-35 -11 -69 -33 -75 -49 -3 -7 5 -32 17 -55 11 -23 24
-53 27 -65 l7 -24 24 20 c23 19 25 27 25 101 0 45 0 81 0 80 0 0 -11 -4 -25
-8z"/>
<path d="M1483 3058 c-5 -8 -7 -39 -3 -73 l6 -60 22 45 c28 58 29 100 3 100
-10 0 -23 -6 -28 -12z"/>
<path d="M1650 3037 c-30 -15 -34 -51 -5 -55 34 -4 140 33 140 49 0 19 -101
24 -135 6z"/>
<path d="M1273 3006 c-50 -42 -49 -60 13 -121 53 -54 54 -54 69 -32 22 31 19
55 -11 94 -14 19 -29 46 -33 60 l-7 25 -31 -26z"/>
<path d="M1177 2927 c-27 -42 -31 -76 -12 -97 10 -11 23 -20 30 -20 6 0 33
-11 58 -24 51 -25 57 -24 57 10 0 38 -11 53 -57 85 -24 17 -48 40 -52 51 -7
19 -8 19 -24 -5z"/>
<path d="M1560 2884 c-11 -12 -11 -17 1 -28 26 -25 126 -64 140 -55 15 9 15
10 -49 63 -48 39 -72 45 -92 20z"/>
<path d="M1105 2808 c-10 -31 -8 -89 3 -100 6 -6 35 -10 66 -9 30 0 67 -4 81
-9 34 -13 42 7 21 48 -13 25 -25 32 -72 42 -31 7 -64 20 -74 30 -19 19 -19 18
-25 -2z"/>
<path d="M1090 2653 c0 -24 42 -36 107 -30 70 5 83 11 64 30 -17 17 -171 17
-171 0z"/>
<path d="M1025 2549 c-74 -11 -113 -26 -125 -50 -6 -10 -10 -50 -10 -89 l0
-72 28 6 c171 35 373 35 545 0 l27 -6 0 70 c0 85 -5 99 -39 117 -61 31 -288
44 -426 24z"/>
<path d="M985 2284 c-377 -68 -690 -294 -857 -621 -92 -178 -123 -313 -122
-523 1 -132 5 -169 27 -253 81 -308 265 -553 532 -712 625 -372 1439 -120
1721 534 19 44 47 124 61 178 23 86 26 118 26 258 0 113 -5 181 -16 231 -109
478 -479 824 -971 909 -109 18 -294 18 -401 -1z m-44 -585 c22 -11 86 -65 144
-121 l105 -101 105 101 c135 130 181 154 296 154 94 -1 144 -26 245 -124 115
-111 139 -157 138 -273 0 -132 1 -132 -403 -538 -283 -284 -361 -357 -381
-357 -20 0 -98 73 -381 358 -390 391 -398 402 -406 521 -8 105 20 166 125 273
47 49 105 97 129 109 84 41 202 40 284 -2z"/>
</g>
</svg>
