<?xml version="1.0" encoding="UTF-8" standalone="no"?>
<!-- Created with Inkscape (http://www.inkscape.org/) -->

<svg
   width="100mm"
   height="100mm"
   viewBox="0 0 100 100"
   version="1.1"
   id="svg17343"
   inkscape:version="1.1.1 (3bf5ae0d25, 2021-09-20)"
   sodipodi:docname="30_meteor.svg"
   xmlns:inkscape="http://www.inkscape.org/namespaces/inkscape"
   xmlns:sodipodi="http://sodipodi.sourceforge.net/DTD/sodipodi-0.dtd"
   xmlns="http://www.w3.org/2000/svg"
   xmlns:svg="http://www.w3.org/2000/svg">
  <sodipodi:namedview
     id="namedview17345"
     pagecolor="#ffffff"
     bordercolor="#666666"
     borderopacity="1.0"
     inkscape:pageshadow="2"
     inkscape:pageopacity="0.0"
     inkscape:pagecheckerboard="0"
     inkscape:document-units="mm"
     showgrid="false"
     inkscape:zoom="1.6090175"
     inkscape:cx="197.01463"
     inkscape:cy="211.93057"
     inkscape:window-width="1852"
     inkscape:window-height="1025"
     inkscape:window-x="0"
     inkscape:window-y="0"
     inkscape:window-maximized="1"
     inkscape:current-layer="layer1" />
  <defs
     id="defs17340">
    <clipPath
       id="clip117">
      <path
         d="m 754,582.69531 h 25.60547 v 35.90625 H 754 Z m 0,0"
         id="path4021" />
    </clipPath>
  </defs>
  <g
     inkscape:label="Layer 1"
     inkscape:groupmode="layer"
     id="layer1">
    <g
       clip-path="url(#clip117)"
       clip-rule="nonzero"
       id="g15576"
       transform="matrix(2.2649957,0,0,2.2649957,-1688.9708,-1309.4383)">
      <path
         style="fill:#000000;fill-opacity:1;fill-rule:nonzero;stroke:none"
         d="m 768.29687,608.23047 c 0.91016,2.23047 -0.26171,4.15234 -1.5,5.78125 -1.29296,1.69922 -2.72265,2.09375 -4.2539,1.70703 -0.8086,-0.19922 -1.86328,-0.16016 -2.9375,-0.60938 -1.10156,-0.45703 -3.32031,-2.08203 -2.92188,-4.10937 0.33594,-1.70313 0.0781,-2.65234 0.61328,-3.46875 1.33985,-2.03516 3.72266,-3.55078 4.89454,-3.64063 1.20703,-0.0859 2.42968,-0.16796 3.83203,0.55469 1.40625,0.72656 1.87109,2.80469 2.27343,3.78516 m 11.14844,-25.52344 c -2.09765,1.21875 -4.1875,4.94141 -5.35937,4.70313 -0.5,-0.0977 -0.33594,-0.87891 -0.004,-1.98829 0.0234,-0.0781 -0.0547,-0.15234 -0.12891,-0.11328 -1.96093,0.94922 -6.3125,10.48828 -7.90234,10.64063 -0.75391,0.0742 -0.39453,-0.82031 -0.12891,-2.04688 0.0234,-0.0937 -0.082,-0.16797 -0.16796,-0.11718 -1.03516,0.625 -2.37891,2.73437 -3.73047,5.90625 -0.53907,1.26562 -1.73828,0.27734 -1.40625,-1.20704 0.0195,-0.0977 -0.0937,-0.16796 -0.17188,-0.10937 -1.86719,1.46484 -2.3789,5.03906 -3.29687,5.21094 -0.54688,0.0976 -0.51563,-0.58985 -0.33203,-1.53907 0.0195,-0.10156 -0.10547,-0.16796 -0.17969,-0.0977 -2.38672,2.40234 -4.98438,11.41015 1.19531,15.10937 7.375,4.41407 13.28516,-1.80078 13.95313,-4.29687 0.0234,-0.0898 -0.0703,-0.16797 -0.15235,-0.11719 -0.61328,0.36328 -1.54687,1.03906 -1.6875,0.46875 -0.29687,-1.16797 2.88281,-3.54297 3.2461,-6.43359 0.0117,-0.0977 -0.10938,-0.15625 -0.17969,-0.0859 -1.06641,1.03125 -1.79688,0.73828 -1.71094,-0.0625 0.13672,-1.24219 3.63672,-4.79688 4.55859,-8.66406 0.0234,-0.10157 -0.10156,-0.17578 -0.17968,-0.10157 -0.88672,0.85157 -1.53516,1.0586 -1.77735,0.47266 -0.44531,-1.08594 5.69532,-8.92969 5.57422,-11.05078 -0.004,-0.10547 -0.125,-0.16016 -0.20312,-0.0898 -1.03125,0.85937 -1.50391,0.42578 -1.51953,0.0781 -0.0312,-0.76953 0.90234,-2.8125 1.83203,-4.32031 0.0586,-0.0937 -0.0469,-0.20313 -0.14063,-0.14844"
         id="path15574" />
    </g>
  </g>
</svg>
