<?xml version="1.0" encoding="UTF-8" standalone="no"?>
<!-- Created with Inkscape (http://www.inkscape.org/) -->

<svg
   width="100mm"
   height="100mm"
   viewBox="0 0 100 100"
   version="1.1"
   id="svg17343"
   sodipodi:docname="33_shattered_stone.svg"
   inkscape:version="1.1.1 (3bf5ae0d25, 2021-09-20)"
   xmlns:inkscape="http://www.inkscape.org/namespaces/inkscape"
   xmlns:sodipodi="http://sodipodi.sourceforge.net/DTD/sodipodi-0.dtd"
   xmlns="http://www.w3.org/2000/svg"
   xmlns:svg="http://www.w3.org/2000/svg">
  <sodipodi:namedview
     id="namedview17345"
     pagecolor="#ffffff"
     bordercolor="#666666"
     borderopacity="1.0"
     inkscape:pageshadow="2"
     inkscape:pageopacity="0.0"
     inkscape:pagecheckerboard="0"
     inkscape:document-units="mm"
     showgrid="false"
     inkscape:zoom="1.6090175"
     inkscape:cx="197.01463"
     inkscape:cy="211.93057"
     inkscape:window-width="1852"
     inkscape:window-height="1025"
     inkscape:window-x="0"
     inkscape:window-y="0"
     inkscape:window-maximized="1"
     inkscape:current-layer="layer1" />
  <defs
     id="defs17340">
    <clipPath
       id="clip112">
      <path
         d="m 824,583.19141 h 6.31641 V 593 H 824 Z m 0,0"
         id="path4006" />
    </clipPath>
    <clipPath
       id="clip113">
      <path
         d="M 806.875,598 H 824 v 20.10937 h -17.125 z m 0,0"
         id="path4009" />
    </clipPath>
    <clipPath
       id="clip105">
      <path
         d="m 861,583.19141 h 11 v 34.76171 h -11 z m 0,0"
         id="path3985" />
    </clipPath>
    <clipPath
       id="clip106">
      <path
         d="m 871,583.19141 h 6 V 603 h -6 z m 0,0"
         id="path3988" />
    </clipPath>
    <clipPath
       id="clip107">
      <path
         d="m 871,588 h 13 v 29.95312 h -13 z m 0,0"
         id="path3991" />
    </clipPath>
    <clipPath
       id="clip108">
      <path
         d="m 877,598 h 9.49609 v 19.95312 H 877 Z m 0,0"
         id="path3994" />
    </clipPath>
    <clipPath
       id="clip109">
      <path
         d="M 858.79687,601 H 869 v 16 h -10.20313 z m 0,0"
         id="path3997" />
    </clipPath>
    <clipPath
       id="clip118">
      <path
         d="m 707,634.73828 h 12 V 654 h -12 z m 0,0"
         id="path4024" />
    </clipPath>
    <clipPath
       id="clip119">
      <path
         d="m 714,647 h 11.21094 v 9 H 714 Z m 0,0"
         id="path4027" />
    </clipPath>
    <clipPath
       id="clip120">
      <path
         d="m 708,656 h 15 v 12.61328 h -15 z m 0,0"
         id="path4030" />
    </clipPath>
    <clipPath
       id="clip121">
      <path
         d="M 698.83594,644 H 710 v 17 h -11.16406 z m 0,0"
         id="path4033" />
    </clipPath>
  </defs>
  <g
     inkscape:label="Layer 1"
     inkscape:groupmode="layer"
     id="layer1">
    <g
       id="g19497"
       transform="matrix(2.869142,0,0,2.869142,-1992.8964,-1819.7503)">
      <g
         clip-path="url(#clip118)"
         clip-rule="nonzero"
         id="g15580">
        <path
           style="fill:#000000;fill-opacity:1;fill-rule:nonzero;stroke:none"
           d="m 713.64453,652.46094 -0.23828,-1.39063 c -0.0664,-0.37109 -0.26172,-0.70703 -0.5625,-0.96094 l -2.88672,-2.80468 -0.42578,-1.35547 3.67969,2.58203 -0.30078,-5.26563 3.61328,-3.68359 0.96875,6.48828 z m 3.74609,-15.31641 -5.73828,-2.40625 -3.98047,3.67188 -0.21875,6.42578 1.25,2.1914 0.29297,3.80469 4.50782,2.98828 c 0.082,0.0547 0.19531,0.0312 0.24218,-0.0469 l 4.6211,-7.56641 z m 0,0"
           id="path15578" />
      </g>
      <g
         clip-path="url(#clip119)"
         clip-rule="nonzero"
         id="g15584">
        <path
           style="fill:#000000;fill-opacity:1;fill-rule:nonzero;stroke:none"
           d="m 722.33594,652.22266 c -0.23828,0.39453 -0.6211,0.67578 -1.0625,0.78515 l -4.25391,1.05078 c -0.008,0.004 -0.0117,-0.004 -0.008,-0.0117 l 4.73437,-4.33593 1.20313,1.49609 z m -0.25782,-4.27344 -7.44921,7.54297 c -0.0977,0.0898 0,0.24218 0.13671,0.20312 l 4.77344,-1.28906 4.46875,1.08984 1.20313,-3.99218 z m 0,0"
           id="path15582" />
      </g>
      <g
         clip-path="url(#clip120)"
         clip-rule="nonzero"
         id="g15588">
        <path
           style="fill:#000000;fill-opacity:1;fill-rule:nonzero;stroke:none"
           d="m 717.44531,664.82031 -5.49219,2.42969 c -0.26171,0.10156 -0.52734,-0.14844 -0.40234,-0.38281 l 1.61328,-4.65625 c 0.19531,-0.5586 0.57813,-1.02735 1.08203,-1.33203 l 2.63282,-1.58594 3.85546,0.57031 z m -0.043,-7.74609 -3.36718,1.15625 -2.23047,-1.1875 c -0.0664,-0.0781 -0.20703,-0.0625 -0.25391,0.0273 l -3.08984,6.13672 1.51953,5.02344 1.40234,0.38281 6.82031,-3.00781 4.33204,-6.70703 z m 0,0"
           id="path15586" />
      </g>
      <g
         clip-path="url(#clip121)"
         clip-rule="nonzero"
         id="g15592">
        <path
           style="fill:#000000;fill-opacity:1;fill-rule:nonzero;stroke:none"
           d="m 703.41016,647.21875 1.42187,1.49609 0.21875,2.25782 2.44141,2.72656 -0.56641,1.26172 1.11719,1.6875 -1.60156,0.14843 -1.23829,1.27344 -1.79296,-2.26562 0.004,-3.23828 -1.38281,1.49609 -0.1875,-2.90625 c -0.0234,-0.39453 0.0547,-0.78906 0.22656,-1.14063 z m 5.01953,7.36719 0.0351,-1.69922 -2.21093,-2.44531 -0.0352,-2.46094 -3.10156,-3.22266 -4.28516,9.39453 4.39453,5.66407 2.11719,-0.5 2.33203,1.03125 1.79688,-3.85547 z m 0,0"
           id="path15590" />
      </g>
    </g>
  </g>
</svg>
