<?xml version="1.0" encoding="UTF-8" standalone="no"?>
<!-- Created with Inkscape (http://www.inkscape.org/) -->

<svg
   width="100mm"
   height="100mm"
   viewBox="0 0 100 100"
   version="1.1"
   id="svg17343"
   sodipodi:docname="32_Seaweed.svg"
   inkscape:version="1.1.1 (3bf5ae0d25, 2021-09-20)"
   xmlns:inkscape="http://www.inkscape.org/namespaces/inkscape"
   xmlns:sodipodi="http://sodipodi.sourceforge.net/DTD/sodipodi-0.dtd"
   xmlns="http://www.w3.org/2000/svg"
   xmlns:svg="http://www.w3.org/2000/svg">
  <sodipodi:namedview
     id="namedview17345"
     pagecolor="#ffffff"
     bordercolor="#666666"
     borderopacity="1.0"
     inkscape:pageshadow="2"
     inkscape:pageopacity="0.0"
     inkscape:pagecheckerboard="0"
     inkscape:document-units="mm"
     showgrid="false"
     inkscape:zoom="1.6090175"
     inkscape:cx="197.01463"
     inkscape:cy="211.93057"
     inkscape:window-width="1852"
     inkscape:window-height="1025"
     inkscape:window-x="0"
     inkscape:window-y="0"
     inkscape:window-maximized="1"
     inkscape:current-layer="layer1" />
  <defs
     id="defs17340">
    <clipPath
       id="clip112">
      <path
         d="m 824,583.19141 h 6.31641 V 593 H 824 Z m 0,0"
         id="path4006" />
    </clipPath>
    <clipPath
       id="clip113">
      <path
         d="M 806.875,598 H 824 v 20.10937 h -17.125 z m 0,0"
         id="path4009" />
    </clipPath>
    <clipPath
       id="clip105">
      <path
         d="m 861,583.19141 h 11 v 34.76171 h -11 z m 0,0"
         id="path3985" />
    </clipPath>
    <clipPath
       id="clip106">
      <path
         d="m 871,583.19141 h 6 V 603 h -6 z m 0,0"
         id="path3988" />
    </clipPath>
    <clipPath
       id="clip107">
      <path
         d="m 871,588 h 13 v 29.95312 h -13 z m 0,0"
         id="path3991" />
    </clipPath>
    <clipPath
       id="clip108">
      <path
         d="m 877,598 h 9.49609 v 19.95312 H 877 Z m 0,0"
         id="path3994" />
    </clipPath>
    <clipPath
       id="clip109">
      <path
         d="M 858.79687,601 H 869 v 16 h -10.20313 z m 0,0"
         id="path3997" />
    </clipPath>
  </defs>
  <g
     inkscape:label="Layer 1"
     inkscape:groupmode="layer"
     id="layer1">
    <g
       id="g19077"
       transform="matrix(2.5262419,0,0,2.5262419,-2154.5154,-1467.1949)">
      <g
         clip-path="url(#clip105)"
         clip-rule="nonzero"
         id="g15506">
        <path
           style="fill:#000000;fill-opacity:1;fill-rule:nonzero;stroke:none"
           d="m 869.73047,617.27344 c 0,0 0.3125,-6.80078 -4.14453,-13.04297 -3.62891,-5.08203 -4.32422,-7.05078 -4.32422,-10.46485 0,-3.09375 1.19531,-7.39062 3.28906,-10.52343 0.0664,-0.0937 0.21875,-0.0391 0.20313,0.0781 -0.5625,3.82422 0.30078,8.3125 1.30078,10.97656 1.07031,2.83594 4.16015,6.50391 5.55468,10.11719 0.0586,0.14844 -0.14453,0.25391 -0.23437,0.125 -1.48828,-2.05078 -2.70703,-2.96875 -4.78516,-5.10547 -1.74609,-1.78906 -4.15234,-5.48047 -3.09765,-10.5039 0.0156,-0.0664 -0.082,-0.0977 -0.10547,-0.0312 -2.17188,6.07812 -0.0273,8.58593 2.24609,11.6289 2.82422,3.78516 4.75391,4.73828 5.1836,9.01563 0.47656,4.70703 -0.20313,8.21094 -0.20313,8.21094 0,0 -0.63281,0.0351 -0.88281,-0.48047"
           id="path15504" />
      </g>
      <g
         clip-path="url(#clip106)"
         clip-rule="nonzero"
         id="g15510">
        <path
           style="fill:#000000;fill-opacity:1;fill-rule:nonzero;stroke:none"
           d="m 872.81641,602.48437 c 0,0 -0.83594,-2.03125 -0.66407,-4.6289 0.25782,-3.81641 1.41797,-5.55078 0.8711,-9.15235 -0.4375,-2.86718 -0.90235,-3.32812 -1.86719,-4.9414 -0.0469,-0.0742 0.0352,-0.16406 0.10937,-0.12891 4.25,2.07422 5.20313,8.3125 5.06641,13.69531 -1.00391,1.76954 -2.32422,2.45704 -3.51562,5.15625"
           id="path15508" />
      </g>
      <g
         clip-path="url(#clip107)"
         clip-rule="nonzero"
         id="g15514">
        <path
           style="fill:#000000;fill-opacity:1;fill-rule:nonzero;stroke:none"
           d="m 872.46094,614.85937 c 0.008,0.13282 -0.1875,0.16016 -0.21485,0.0312 -0.33984,-1.59765 -0.64843,-4.82031 0.90235,-9.03515 1.43359,-3.89453 3.44531,-5.8086 6.1289,-9.80469 1.47266,-2.19141 1.97266,-5.23828 1.88672,-7.94922 0,-0.0976 0.125,-0.13672 0.17188,-0.0547 2.41015,3.98438 2.42578,8.72657 1.73047,11.35547 -1.16407,4.42188 -4.78907,7.2461 -5.8125,9.57422 -1.24219,2.83594 -1.14063,5.90235 -0.29688,8.66406 -0.72266,0.47266 -1.61719,0.26954 -1.61719,0.26954 0,0 -2.92578,-6.82032 0.77344,-10.80079 3.80469,-4.09765 7.39844,-9.33984 5.78516,-15.04687 -0.0156,-0.0547 -0.0937,-0.043 -0.0937,0.0117 -0.0274,2.97265 -0.50391,5.875 -2.9336,8.55078 -1.625,1.78906 -2.75781,2.85156 -4.39062,6.04687 -1.05078,2.07032 -2.21875,4.82422 -2.01953,8.1875"
           id="path15512" />
      </g>
      <g
         clip-path="url(#clip108)"
         clip-rule="nonzero"
         id="g15518">
        <path
           style="fill:#000000;fill-opacity:1;fill-rule:nonzero;stroke:none"
           d="m 878.07812,617.22656 c 0,0 -0.22656,-2.03515 0,-3.76953 0.67969,-3.12109 2.17188,-4.85547 4.70704,-7.13281 1.95703,-1.76172 2.2539,-4.85156 1.83593,-7.81641 -0.0117,-0.0898 0.10938,-0.13672 0.16016,-0.0625 3.03906,4.48828 1.36719,8.10156 0.0859,9.85547 -1.48047,2.01953 -3.41016,3.12109 -3.9375,8.50391 -1.22266,0.67968 -2.85157,0.42187 -2.85157,0.42187"
           id="path15516" />
      </g>
      <g
         clip-path="url(#clip109)"
         clip-rule="nonzero"
         id="g15522">
        <path
           style="fill:#000000;fill-opacity:1;fill-rule:nonzero;stroke:none"
           d="m 868.53906,616.60547 c 0,0 0.17188,-1.02735 -0.16797,-3.1836 -1.35547,-1.0625 -2.58984,-2.6875 -3.18359,-5.26562 -0.78906,-3.41016 -3.92969,-6.06641 -6.28516,-6.74219 -0.0859,-0.0273 -0.14453,0.082 -0.0781,0.14063 1.76953,1.59375 3.21875,3.39062 3.48437,6.1875 0.3711,3.91015 2.14453,8.67578 6.23047,8.86328"
           id="path15520" />
      </g>
    </g>
  </g>
</svg>
