<?xml version="1.0" encoding="UTF-8" standalone="no"?>
<!-- Created with Inkscape (http://www.inkscape.org/) -->

<svg
   width="100mm"
   height="100mm"
   viewBox="0 0 100 100"
   version="1.1"
   id="svg17343"
   sodipodi:docname="34_Snowflake.svg"
   inkscape:version="1.1.1 (3bf5ae0d25, 2021-09-20)"
   xmlns:inkscape="http://www.inkscape.org/namespaces/inkscape"
   xmlns:sodipodi="http://sodipodi.sourceforge.net/DTD/sodipodi-0.dtd"
   xmlns="http://www.w3.org/2000/svg"
   xmlns:svg="http://www.w3.org/2000/svg">
  <sodipodi:namedview
     id="namedview17345"
     pagecolor="#ffffff"
     bordercolor="#666666"
     borderopacity="1.0"
     inkscape:pageshadow="2"
     inkscape:pageopacity="0.0"
     inkscape:pagecheckerboard="0"
     inkscape:document-units="mm"
     showgrid="false"
     inkscape:zoom="1.6090175"
     inkscape:cx="197.01463"
     inkscape:cy="211.93057"
     inkscape:window-width="1852"
     inkscape:window-height="1025"
     inkscape:window-x="0"
     inkscape:window-y="0"
     inkscape:window-maximized="1"
     inkscape:current-layer="layer1" />
  <defs
     id="defs17340">
    <clipPath
       id="clip112">
      <path
         d="m 824,583.19141 h 6.31641 V 593 H 824 Z m 0,0"
         id="path4006" />
    </clipPath>
    <clipPath
       id="clip113">
      <path
         d="M 806.875,598 H 824 v 20.10937 h -17.125 z m 0,0"
         id="path4009" />
    </clipPath>
    <clipPath
       id="clip105">
      <path
         d="m 861,583.19141 h 11 v 34.76171 h -11 z m 0,0"
         id="path3985" />
    </clipPath>
    <clipPath
       id="clip106">
      <path
         d="m 871,583.19141 h 6 V 603 h -6 z m 0,0"
         id="path3988" />
    </clipPath>
    <clipPath
       id="clip107">
      <path
         d="m 871,588 h 13 v 29.95312 h -13 z m 0,0"
         id="path3991" />
    </clipPath>
    <clipPath
       id="clip108">
      <path
         d="m 877,598 h 9.49609 v 19.95312 H 877 Z m 0,0"
         id="path3994" />
    </clipPath>
    <clipPath
       id="clip109">
      <path
         d="M 858.79687,601 H 869 v 16 h -10.20313 z m 0,0"
         id="path3997" />
    </clipPath>
    <clipPath
       id="clip118">
      <path
         d="m 707,634.73828 h 12 V 654 h -12 z m 0,0"
         id="path4024" />
    </clipPath>
    <clipPath
       id="clip119">
      <path
         d="m 714,647 h 11.21094 v 9 H 714 Z m 0,0"
         id="path4027" />
    </clipPath>
    <clipPath
       id="clip120">
      <path
         d="m 708,656 h 15 v 12.61328 h -15 z m 0,0"
         id="path4030" />
    </clipPath>
    <clipPath
       id="clip121">
      <path
         d="M 698.83594,644 H 710 v 17 h -11.16406 z m 0,0"
         id="path4033" />
    </clipPath>
    <clipPath
       id="clip122">
      <path
         d="m 764,636.47266 h 3 v 32.41015 h -3 z m 0,0"
         id="path4036" />
    </clipPath>
    <clipPath
       id="clip123">
      <path
         d="m 749.22656,651 h 32.41406 v 3 h -32.41406 z m 0,0"
         id="path4039" />
    </clipPath>
  </defs>
  <g
     inkscape:label="Layer 1"
     inkscape:groupmode="layer"
     id="layer1">
    <g
       id="g19927"
       transform="matrix(2.9830302,0,0,2.9830302,-2233.3115,-1896.9574)">
      <g
         clip-path="url(#clip122)"
         clip-rule="nonzero"
         id="g15596">
        <path
           style="fill:#000000;fill-opacity:1;fill-rule:nonzero;stroke:none"
           d="m 766.21094,642.66016 c -0.28907,-5.23829 -0.46094,-6.19141 -0.77735,-6.19141 -0.3125,0 -0.48828,0.95312 -0.77343,6.19141 -0.0625,1.11328 -0.33594,5.5664 -0.33985,10.01562 -0.008,4.46484 0.25391,8.92969 0.3125,10.01563 0.27344,5.23828 0.48438,6.1914 0.80078,6.1914 0.32032,0 0.53125,-0.95312 0.80469,-6.1914 0.0547,-1.08204 0.31641,-5.53125 0.3125,-9.99219 -0.008,-4.45703 -0.27734,-8.92578 -0.33984,-10.03906"
           id="path15594" />
      </g>
      <g
         clip-path="url(#clip123)"
         clip-rule="nonzero"
         id="g15600">
        <path
           style="fill:#000000;fill-opacity:1;fill-rule:nonzero;stroke:none"
           d="m 755.41797,651.89844 c -5.23828,0.28906 -6.19141,0.46484 -6.19141,0.77734 0,0.31641 0.95313,0.48828 6.19141,0.77734 1.11719,0.0625 5.5664,0.33204 10.01562,0.33985 4.46485,0.004 8.92969,-0.25781 10.01563,-0.3125 5.23828,-0.27344 6.1914,-0.48438 6.1914,-0.80469 0,-0.32031 -0.95312,-0.52734 -6.1914,-0.80078 -1.08203,-0.0586 -5.53125,-0.32031 -9.99219,-0.3125 -4.45703,0.004 -8.92578,0.27734 -10.03906,0.33594"
           id="path15598" />
      </g>
      <path
         style="fill:#000000;fill-opacity:1;fill-rule:nonzero;stroke:none"
         d="m 757.80469,659.21094 c -3.5,3.90625 -4.05078,4.70312 -3.82813,4.92578 0.22266,0.22265 1.01563,-0.32813 4.92578,-3.82813 0.83203,-0.74609 4.17188,-3.69922 7.32032,-6.84375 3.16406,-3.15234 6.13281,-6.49609 6.86328,-7.30468 3.50781,-3.89454 4.03125,-4.71875 3.80859,-4.94141 -0.22656,-0.22656 -1.04687,0.29687 -4.94531,3.80859 -0.80469,0.72657 -4.13672,3.6875 -7.28906,6.84375 -3.14844,3.15625 -6.11329,6.50782 -6.85547,7.33985"
         id="path15602" />
      <path
         style="fill:#000000;fill-opacity:1;fill-rule:nonzero;stroke:none"
         d="m 758.90234,645.04687 c -3.91015,-3.5 -4.70312,-4.05078 -4.92578,-3.82812 -0.22265,0.22266 0.32813,1.01562 3.82813,4.92578 0.74218,0.83203 3.69922,4.17188 6.83984,7.32031 3.15625,3.16407 6.49609,6.13282 7.30469,6.85938 3.89844,3.51172 4.71875,4.03515 4.94531,3.8125 0.22656,-0.22656 -0.29687,-1.04688 -3.80859,-4.94531 -0.72657,-0.80469 -3.6875,-4.13672 -6.84766,-7.28907 -3.15234,-3.14843 -6.50781,-6.11328 -7.33594,-6.85547"
         id="path15604" />
      <path
         style="fill:#000000;fill-opacity:1;fill-rule:nonzero;stroke:none"
         d="m 761.58203,665.67969 c 0.28906,0.28515 2.51953,-1.55469 3.85156,-2.79688 1.20313,1.12891 3.51172,3.13672 3.85157,2.79688 0.5039,-0.50391 -3.42579,-4.50782 -3.85157,-4.90625 -0.26172,0.2539 -4.3164,4.4414 -3.85156,4.90625"
         id="path15606" />
      <path
         style="fill:#000000;fill-opacity:1;fill-rule:nonzero;stroke:none"
         d="m 769.28516,639.67187 c -0.28516,-0.28515 -2.51563,1.5586 -3.84766,2.79688 -1.20703,-1.12891 -3.51172,-3.13672 -3.85156,-2.79688 -0.50782,0.50391 3.42578,4.50782 3.85156,4.91016 0.25781,-0.25391 4.31641,-4.44141 3.84766,-4.91016"
         id="path15608" />
      <path
         style="fill:#000000;fill-opacity:1;fill-rule:nonzero;stroke:none"
         d="m 771.90625,664.59375 c 0.40234,0 0.67969,-2.87891 0.74609,-4.69922 1.64844,-0.0547 4.69922,-0.26562 4.69922,-0.74609 0,-0.71485 -5.60937,-0.76563 -6.1914,-0.7461 -0.008,0.36328 0.0859,6.19141 0.74609,6.19141"
         id="path15610" />
      <path
         style="fill:#000000;fill-opacity:1;fill-rule:nonzero;stroke:none"
         d="m 758.96484,640.75781 c -0.40625,0 -0.67968,2.88281 -0.74609,4.69922 -1.64844,0.0547 -4.69922,0.26563 -4.69922,0.74609 0,0.71485 5.60938,0.76563 6.19141,0.7461 0.004,-0.36328 -0.0899,-6.19141 -0.7461,-6.19141"
         id="path15612" />
      <path
         style="fill:#000000;fill-opacity:1;fill-rule:nonzero;stroke:none"
         d="m 778.4375,656.52734 c 0.28516,-0.28515 -1.55469,-2.51562 -2.79297,-3.84765 1.125,-1.20703 3.13281,-3.51172 2.79297,-3.85157 -0.50391,-0.50781 -4.50781,3.42579 -4.90625,3.85157 0.25391,0.25781 4.44141,4.3125 4.90625,3.84765"
         id="path15614" />
      <path
         style="fill:#000000;fill-opacity:1;fill-rule:nonzero;stroke:none"
         d="m 752.43359,648.82422 c -0.28906,0.28515 1.55469,2.51953 2.79297,3.85156 -1.1289,1.20313 -3.13672,3.51172 -2.79297,3.85156 0.50391,0.50391 4.50782,-3.42578 4.90625,-3.85156 -0.2539,-0.26172 -4.4414,-4.31641 -4.90625,-3.85156"
         id="path15616" />
      <path
         style="fill:#000000;fill-opacity:1;fill-rule:nonzero;stroke:none"
         d="m 777.35156,646.20703 c 0,-0.40625 -2.8789,-0.67969 -4.69922,-0.74609 -0.0547,-1.65235 -0.26562,-4.70313 -0.74609,-4.70313 -0.71094,0 -0.76563,5.61328 -0.74609,6.19531 0.36328,0.004 6.1914,-0.0859 6.1914,-0.74609"
         id="path15618" />
      <path
         style="fill:#000000;fill-opacity:1;fill-rule:nonzero;stroke:none"
         d="m 753.51562,659.14844 c 0,0.40234 2.88282,0.67968 4.69922,0.74609 0.0547,1.64844 0.26563,4.69922 0.7461,4.69922 0.71484,0 0.76562,-5.60938 0.74609,-6.19141 -0.35937,-0.008 -6.19141,0.0859 -6.19141,0.7461"
         id="path15620" />
    </g>
  </g>
</svg>
