<?xml version="1.0" encoding="UTF-8" standalone="no"?>
<!-- Created with Inkscape (http://www.inkscape.org/) -->

<svg
   width="100mm"
   height="100mm"
   viewBox="0 0 100 100"
   version="1.1"
   id="svg17343"
   sodipodi:docname="35_Trap.svg"
   inkscape:version="1.1.1 (3bf5ae0d25, 2021-09-20)"
   xmlns:inkscape="http://www.inkscape.org/namespaces/inkscape"
   xmlns:sodipodi="http://sodipodi.sourceforge.net/DTD/sodipodi-0.dtd"
   xmlns="http://www.w3.org/2000/svg"
   xmlns:svg="http://www.w3.org/2000/svg">
  <sodipodi:namedview
     id="namedview17345"
     pagecolor="#ffffff"
     bordercolor="#666666"
     borderopacity="1.0"
     inkscape:pageshadow="2"
     inkscape:pageopacity="0.0"
     inkscape:pagecheckerboard="0"
     inkscape:document-units="mm"
     showgrid="false"
     inkscape:zoom="1.6090175"
     inkscape:cx="197.01463"
     inkscape:cy="211.93057"
     inkscape:window-width="1852"
     inkscape:window-height="1025"
     inkscape:window-x="0"
     inkscape:window-y="0"
     inkscape:window-maximized="1"
     inkscape:current-layer="layer1" />
  <defs
     id="defs17340">
    <clipPath
       id="clip112">
      <path
         d="m 824,583.19141 h 6.31641 V 593 H 824 Z m 0,0"
         id="path4006" />
    </clipPath>
    <clipPath
       id="clip113">
      <path
         d="M 806.875,598 H 824 v 20.10937 h -17.125 z m 0,0"
         id="path4009" />
    </clipPath>
    <clipPath
       id="clip105">
      <path
         d="m 861,583.19141 h 11 v 34.76171 h -11 z m 0,0"
         id="path3985" />
    </clipPath>
    <clipPath
       id="clip106">
      <path
         d="m 871,583.19141 h 6 V 603 h -6 z m 0,0"
         id="path3988" />
    </clipPath>
    <clipPath
       id="clip107">
      <path
         d="m 871,588 h 13 v 29.95312 h -13 z m 0,0"
         id="path3991" />
    </clipPath>
    <clipPath
       id="clip108">
      <path
         d="m 877,598 h 9.49609 v 19.95312 H 877 Z m 0,0"
         id="path3994" />
    </clipPath>
    <clipPath
       id="clip109">
      <path
         d="M 858.79687,601 H 869 v 16 h -10.20313 z m 0,0"
         id="path3997" />
    </clipPath>
    <clipPath
       id="clip118">
      <path
         d="m 707,634.73828 h 12 V 654 h -12 z m 0,0"
         id="path4024" />
    </clipPath>
    <clipPath
       id="clip119">
      <path
         d="m 714,647 h 11.21094 v 9 H 714 Z m 0,0"
         id="path4027" />
    </clipPath>
    <clipPath
       id="clip120">
      <path
         d="m 708,656 h 15 v 12.61328 h -15 z m 0,0"
         id="path4030" />
    </clipPath>
    <clipPath
       id="clip121">
      <path
         d="M 698.83594,644 H 710 v 17 h -11.16406 z m 0,0"
         id="path4033" />
    </clipPath>
    <clipPath
       id="clip122">
      <path
         d="m 764,636.47266 h 3 v 32.41015 h -3 z m 0,0"
         id="path4036" />
    </clipPath>
    <clipPath
       id="clip123">
      <path
         d="m 749.22656,651 h 32.41406 v 3 h -32.41406 z m 0,0"
         id="path4039" />
    </clipPath>
    <clipPath
       id="clip124">
      <path
         d="m 802.72266,637.09375 h 31.75 v 30.52734 h -31.75 z m 0,0"
         id="path4042" />
    </clipPath>
  </defs>
  <g
     inkscape:label="Layer 1"
     inkscape:groupmode="layer"
     id="layer1">
    <g
       clip-path="url(#clip124)"
       clip-rule="nonzero"
       id="g15624"
       transform="matrix(2.8418002,0,0,2.8418002,-2276.2884,-1803.8678)">
      <path
         style="fill:#000000;fill-opacity:1;fill-rule:nonzero;stroke:none"
         d="m 831.77344,652.65625 -7.50782,-0.94922 c 0.30079,0.61328 0.46875,1.30469 0.46875,2.03516 0,1.24609 -0.48828,2.3789 -1.27734,3.21484 l 5.92969,0.82422 0.92187,2.20312 -4.38672,2.12891 -1.0664,2.92578 c 0,0 -2.06641,0.89844 -5.10547,1.15625 l 0.32812,-1.91797 0.39454,-0.16797 c 0.32421,-0.13671 0.47656,-0.50781 0.33593,-0.83203 -0.0898,-0.21484 -0.28125,-0.35156 -0.49609,-0.3789 l 0.29687,-1.72657 0.4336,-0.18359 c 0.32422,-0.13672 0.47656,-0.51172 0.33984,-0.83594 -0.0937,-0.22265 -0.30469,-0.36328 -0.53515,-0.3789 l 0.25,-1.46094 c -0.33985,0.0742 -0.6875,0.11719 -1.05079,0.11719 -1.08593,0 -2.08593,-0.3711 -2.8789,-0.99219 l -0.19141,1.09766 -0.39453,0.16796 c -0.32031,0.13672 -0.47266,0.50782 -0.33203,0.83204 0.0898,0.21093 0.27734,0.34765 0.49219,0.3789 l -0.28516,1.63672 -0.25781,0.10938 c -0.32031,0.13671 -0.47266,0.51171 -0.33594,0.83593 0.0742,0.16797 0.21094,0.28907 0.37109,0.34766 l -0.3125,1.81641 -0.29296,0.125 c -0.29297,0.125 -0.44532,0.44921 -0.35938,0.75 -8.03906,-3.23438 -7.87891,-10.47657 -7.87891,-10.47657 l 8.57422,0.98828 c -0.38281,-0.67968 -0.60156,-1.46484 -0.60156,-2.30468 0,-1.15235 0.41797,-2.20703 1.10938,-3.02344 l -8.46485,-1.10938 c 0,0 0.10547,-0.78125 1.01172,-2.46484 1.33203,-2.48047 5.5625,-6.40625 11.05469,-6.56641 l -0.49219,2.84766 -0.32031,0.13672 c -0.32422,0.13672 -0.47266,0.50781 -0.33594,0.83203 0.0781,0.19141 0.24219,0.32031 0.42578,0.36719 l -0.28906,1.68359 -0.18359,0.0781 c -0.32422,0.13672 -0.47266,0.50781 -0.33594,0.83203 0.0625,0.14453 0.17187,0.25781 0.30469,0.32031 l -0.27735,1.62109 c 0.46485,-0.15234 0.96094,-0.23828 1.47656,-0.23828 0.92188,0 1.78516,0.26563 2.50782,0.72657 l 0.10547,-0.60547 0.49218,-0.21094 c 0.32032,-0.13281 0.47266,-0.50781 0.33594,-0.83203 -0.10156,-0.24219 -0.33984,-0.38672 -0.58594,-0.38672 l 0.28516,-1.67578 0.53516,-0.22656 c 0.32421,-0.13672 0.47265,-0.50782 0.33593,-0.83204 -0.10547,-0.2539 -0.35937,-0.39843 -0.62109,-0.38281 l 0.26562,-1.57422 0.40235,-0.16797 c 0.32422,-0.14062 0.47265,-0.51171 0.33594,-0.83593 -0.0899,-0.21485 -0.28516,-0.34766 -0.5,-0.37891 l 0.0976,-0.57031 c 5.07813,1.8164 7.8086,5.18359 7.8086,5.18359 l -1.76954,3.33594 z m -2.38672,-11.77734 c -0.10156,-0.0937 -0.20313,-0.1836 -0.3086,-0.26954 -0.27343,0.69141 -0.46875,1.10547 -0.46875,1.10547 l -8.51562,-4.62109 -0.5625,2.07812 -7.47656,-0.84765 -1.00391,3.57422 -5.41406,1.92578 0.6289,4.23437 -3.54687,3.23828 2.58984,5.28125 -1.75781,2.52735 4.72266,3.67578 -0.47657,1.52734 c 0,0 4.95313,2.59375 7.85157,3.05469 4.17968,0.66797 13.9414,0.67188 17.45703,-8.25781 3.35156,-8.51172 -0.0781,-14.94531 -3.71875,-18.22656"
         id="path15622" />
    </g>
  </g>
</svg>
