<?xml version="1.0" encoding="UTF-8" standalone="no"?>
<!-- Created with Inkscape (http://www.inkscape.org/) -->

<svg
   width="100mm"
   height="100mm"
   viewBox="0 0 100 100"
   version="1.1"
   id="svg17343"
   sodipodi:docname="36_Fist.svg"
   inkscape:version="1.1.1 (3bf5ae0d25, 2021-09-20)"
   xmlns:inkscape="http://www.inkscape.org/namespaces/inkscape"
   xmlns:sodipodi="http://sodipodi.sourceforge.net/DTD/sodipodi-0.dtd"
   xmlns="http://www.w3.org/2000/svg"
   xmlns:svg="http://www.w3.org/2000/svg">
  <sodipodi:namedview
     id="namedview17345"
     pagecolor="#ffffff"
     bordercolor="#666666"
     borderopacity="1.0"
     inkscape:pageshadow="2"
     inkscape:pageopacity="0.0"
     inkscape:pagecheckerboard="0"
     inkscape:document-units="mm"
     showgrid="false"
     inkscape:zoom="1.6090175"
     inkscape:cx="197.01463"
     inkscape:cy="211.93057"
     inkscape:window-width="1852"
     inkscape:window-height="1025"
     inkscape:window-x="0"
     inkscape:window-y="0"
     inkscape:window-maximized="1"
     inkscape:current-layer="layer1" />
  <defs
     id="defs17340">
    <clipPath
       id="clip112">
      <path
         d="m 824,583.19141 h 6.31641 V 593 H 824 Z m 0,0"
         id="path4006" />
    </clipPath>
    <clipPath
       id="clip113">
      <path
         d="M 806.875,598 H 824 v 20.10937 h -17.125 z m 0,0"
         id="path4009" />
    </clipPath>
    <clipPath
       id="clip105">
      <path
         d="m 861,583.19141 h 11 v 34.76171 h -11 z m 0,0"
         id="path3985" />
    </clipPath>
    <clipPath
       id="clip106">
      <path
         d="m 871,583.19141 h 6 V 603 h -6 z m 0,0"
         id="path3988" />
    </clipPath>
    <clipPath
       id="clip107">
      <path
         d="m 871,588 h 13 v 29.95312 h -13 z m 0,0"
         id="path3991" />
    </clipPath>
    <clipPath
       id="clip108">
      <path
         d="m 877,598 h 9.49609 v 19.95312 H 877 Z m 0,0"
         id="path3994" />
    </clipPath>
    <clipPath
       id="clip109">
      <path
         d="M 858.79687,601 H 869 v 16 h -10.20313 z m 0,0"
         id="path3997" />
    </clipPath>
    <clipPath
       id="clip118">
      <path
         d="m 707,634.73828 h 12 V 654 h -12 z m 0,0"
         id="path4024" />
    </clipPath>
    <clipPath
       id="clip119">
      <path
         d="m 714,647 h 11.21094 v 9 H 714 Z m 0,0"
         id="path4027" />
    </clipPath>
    <clipPath
       id="clip120">
      <path
         d="m 708,656 h 15 v 12.61328 h -15 z m 0,0"
         id="path4030" />
    </clipPath>
    <clipPath
       id="clip121">
      <path
         d="M 698.83594,644 H 710 v 17 h -11.16406 z m 0,0"
         id="path4033" />
    </clipPath>
    <clipPath
       id="clip122">
      <path
         d="m 764,636.47266 h 3 v 32.41015 h -3 z m 0,0"
         id="path4036" />
    </clipPath>
    <clipPath
       id="clip123">
      <path
         d="m 749.22656,651 h 32.41406 v 3 h -32.41406 z m 0,0"
         id="path4039" />
    </clipPath>
    <clipPath
       id="clip124">
      <path
         d="m 802.72266,637.09375 h 31.75 v 30.52734 h -31.75 z m 0,0"
         id="path4042" />
    </clipPath>
    <clipPath
       id="clip110">
      <path
         d="m 855.95703,636.79687 h 33.375 v 29.63282 h -33.375 z m 0,0"
         id="path4000" />
    </clipPath>
  </defs>
  <g
     inkscape:label="Layer 1"
     inkscape:groupmode="layer"
     id="layer1">
    <g
       id="g20674"
       transform="matrix(2.6087791,0,0,2.6087791,-2226.5368,-1649.9151)">
      <g
         clip-path="url(#clip110)"
         clip-rule="nonzero"
         id="g15526">
        <path
           style="fill:#000000;fill-opacity:1;fill-rule:nonzero;stroke:none"
           d="m 886.64062,660.46875 -1.70312,-0.51953 2.1875,-1.97656 z m -13.00781,4.60937 -0.41015,-2.78125 1.68359,-0.0547 0.34375,1.58203 z m 8.1875,-23.65234 -1.11719,-0.15625 -0.75,-0.48828 2.48829,-1.125 z m -18.44922,-1.08594 -1.03906,-0.98047 0.21484,-0.53906 2.83594,0.89453 z m -5.72656,13.6211 -0.35937,-1.4336 1.53125,-0.47265 z m 30.09766,-2.25391 1.41015,-2.18359 0.17969,-3.4961 -2.88672,-1.55078 -2.94922,-3.21094 -0.0859,-2.21875 -4.25782,-1.86718 -2.76172,0.99609 -0.49218,-0.51562 -4.30469,-0.86329 -3.51172,1.98047 -2.39844,0.13672 -3.80468,-1.18359 -0.80469,3.18359 -1.0586,0.28516 -1.28515,5.72656 -2.77344,5.12109 1.57031,4.51172 2.58594,-4.40234 -0.45703,-3.57031 3.47266,-7.27735 1.30078,0.19532 7.84375,-2.60157 3.5039,0.94141 c 0.44141,0.28125 3.50391,2.40625 3.50391,2.40625 l 4.17969,0.60937 1.20312,1.3086 c 1.76953,1.92187 2.51172,4.57812 1.9961,7.14062 l -1.31641,6.55078 -4.80469,4.15235 0.0117,0.008 -4.10156,1.0625 -0.78906,-1.88281 -2.82032,0.0469 -3.29687,-0.59765 -0.41016,3.93359 4.625,1.85156 2.92578,-2.11328 1.91407,-0.49219 2.41015,0.42579 1.63281,-1.39454 4.82032,-0.91015 0.82812,-5.23828 -0.69922,-0.80469 0.1211,-4.02344 z m 0,0"
           id="path15524" />
      </g>
      <path
         style="fill:#000000;fill-opacity:1;fill-rule:nonzero;stroke:none"
         d="m 883.96875,652.03906 c -0.0469,0.44531 -0.004,1.07031 -0.0117,1.32422 -0.18359,5.44141 -2.06641,5.57813 -2.98828,5.70313 -0.69531,0.0937 -1.62109,0.0195 -1.35156,-0.63282 0.5625,-1.35937 0.67968,-3.6289 0.6875,-4.83984 0.0195,-1.97266 -0.46094,-4.33594 -0.75782,-4.15234 -0.30078,0.1875 -0.0352,3.14062 -0.10546,4.28906 -0.19141,3.0625 -0.55469,4.09765 -1.26172,4.78906 -1.03125,1.00781 -2.62891,0.67578 -3.42188,0.16016 -0.5,-0.32813 -0.0234,-2.75782 0.0508,-4.8086 0.125,-3.48828 -0.41406,-5.76562 -0.6875,-5.70703 -0.40234,0.0859 -0.004,3.33594 -0.23047,6.75391 -0.18359,2.85547 0.0703,3.92187 -2.46484,4.05859 -2.53906,0.13672 -2.78516,-1.48828 -3.01953,-4.35937 -0.45703,-5.50391 0.58594,-6.85157 0.27344,-7.07813 -0.4961,-0.36328 -0.9961,1.4375 -1.21485,3.19922 -0.26953,2.20703 0.31641,6.32422 0.31641,6.32422 0,0 0.23437,1.19922 -2.07422,1.07031 -3.08984,-0.16797 -3.5625,-0.80469 -3.35547,-6.89844 0.0508,-0.47265 -0.27734,-0.98046 -0.70312,-0.59765 -0.14063,-0.39844 -0.3125,-0.88281 0.10156,-1.4375 0.72266,-0.96094 0.99609,-1.97656 0.0703,-2.08985 0.20703,-0.93359 1.07031,-0.89062 1.31641,-1.36718 0.32812,-0.64453 0.27344,-1.06641 1.07031,-1.78125 0.73438,-0.65625 1.96094,-0.71485 2.21484,-1.46875 0.4375,0.38672 2.00391,0.9414 2.79688,0.48828 1.33594,-0.76172 3.23047,-1.50781 4.11328,-1.59375 0.043,0.22265 0.63672,1.27344 1.56641,1.30469 0.17187,0.008 0.70703,0.0234 1.2539,-0.13672 0.375,0.89843 1.15235,1 1.62891,1.04297 1.52344,0.14453 2.04687,1.29687 2.52344,1.55468 0.66797,0.36328 1.5039,0.20313 2.02734,0.21094 0.33203,0.004 1.05859,0.0703 1.42188,0.55859 -0.21094,0.0547 -0.90235,0.23438 -0.92579,0.58204 0.15235,0.33593 1.21875,0.49218 1.64454,1.90234 0,0 -0.44532,-0.29688 -0.65625,0.55078 -0.0234,0.10156 -0.0312,0.20703 -0.0234,0.3125 0.0156,0.0937 0.0312,0.19531 0.0469,0.29688 0.17188,0.71093 0.76953,1.46093 0.8086,1.91796 0,0 -0.45703,0.14454 -0.67969,0.55469 m -17.5625,11.52344 c -0.92188,0.32422 -1.55469,-0.54297 -2.35156,-0.76172 -2.42188,-0.65625 -3.00782,-1.90234 -3.625,-2.57422 -0.46875,-0.28906 -0.66797,0.0117 -0.66797,0.0117 0.0195,-0.1875 0.10937,-1.21094 -0.0664,-1.56641 -0.17969,-0.35937 -0.63672,0.0352 -0.63672,0.0352 0,-0.28906 0.44922,-1.00391 0.76172,-1.21094 0.3125,-0.20703 0.33203,-2.00781 0.42578,-2.41797 0.23047,-1 1.32032,-1.89062 1.32032,-1.89062 0.0664,1.38281 -0.16797,4.17969 1.44921,5.32422 1.11329,0.78515 1.60547,0.0586 3.01563,1.23437 1.45312,1.21094 1.29687,3.49219 0.375,3.81641"
         id="path15528" />
    </g>
  </g>
</svg>
