<?xml version="1.0" encoding="UTF-8" standalone="no"?>
<!-- Created with Inkscape (http://www.inkscape.org/) -->

<svg
   width="100mm"
   height="100mm"
   viewBox="0 0 100 100"
   version="1.1"
   id="svg17343"
   sodipodi:docname="38_Anemone.svg"
   inkscape:version="1.1.1 (3bf5ae0d25, 2021-09-20)"
   xmlns:inkscape="http://www.inkscape.org/namespaces/inkscape"
   xmlns:sodipodi="http://sodipodi.sourceforge.net/DTD/sodipodi-0.dtd"
   xmlns="http://www.w3.org/2000/svg"
   xmlns:svg="http://www.w3.org/2000/svg">
  <sodipodi:namedview
     id="namedview17345"
     pagecolor="#ffffff"
     bordercolor="#666666"
     borderopacity="1.0"
     inkscape:pageshadow="2"
     inkscape:pageopacity="0.0"
     inkscape:pagecheckerboard="0"
     inkscape:document-units="mm"
     showgrid="false"
     inkscape:zoom="1.6090175"
     inkscape:cx="197.01463"
     inkscape:cy="211.93057"
     inkscape:window-width="1852"
     inkscape:window-height="1025"
     inkscape:window-x="0"
     inkscape:window-y="0"
     inkscape:window-maximized="1"
     inkscape:current-layer="layer1" />
  <defs
     id="defs17340">
    <clipPath
       id="clip112">
      <path
         d="m 824,583.19141 h 6.31641 V 593 H 824 Z m 0,0"
         id="path4006" />
    </clipPath>
    <clipPath
       id="clip113">
      <path
         d="M 806.875,598 H 824 v 20.10937 h -17.125 z m 0,0"
         id="path4009" />
    </clipPath>
    <clipPath
       id="clip105">
      <path
         d="m 861,583.19141 h 11 v 34.76171 h -11 z m 0,0"
         id="path3985" />
    </clipPath>
    <clipPath
       id="clip106">
      <path
         d="m 871,583.19141 h 6 V 603 h -6 z m 0,0"
         id="path3988" />
    </clipPath>
    <clipPath
       id="clip107">
      <path
         d="m 871,588 h 13 v 29.95312 h -13 z m 0,0"
         id="path3991" />
    </clipPath>
    <clipPath
       id="clip108">
      <path
         d="m 877,598 h 9.49609 v 19.95312 H 877 Z m 0,0"
         id="path3994" />
    </clipPath>
    <clipPath
       id="clip109">
      <path
         d="M 858.79687,601 H 869 v 16 h -10.20313 z m 0,0"
         id="path3997" />
    </clipPath>
    <clipPath
       id="clip118">
      <path
         d="m 707,634.73828 h 12 V 654 h -12 z m 0,0"
         id="path4024" />
    </clipPath>
    <clipPath
       id="clip119">
      <path
         d="m 714,647 h 11.21094 v 9 H 714 Z m 0,0"
         id="path4027" />
    </clipPath>
    <clipPath
       id="clip120">
      <path
         d="m 708,656 h 15 v 12.61328 h -15 z m 0,0"
         id="path4030" />
    </clipPath>
    <clipPath
       id="clip121">
      <path
         d="M 698.83594,644 H 710 v 17 h -11.16406 z m 0,0"
         id="path4033" />
    </clipPath>
    <clipPath
       id="clip122">
      <path
         d="m 764,636.47266 h 3 v 32.41015 h -3 z m 0,0"
         id="path4036" />
    </clipPath>
    <clipPath
       id="clip123">
      <path
         d="m 749.22656,651 h 32.41406 v 3 h -32.41406 z m 0,0"
         id="path4039" />
    </clipPath>
    <clipPath
       id="clip124">
      <path
         d="m 802.72266,637.09375 h 31.75 v 30.52734 h -31.75 z m 0,0"
         id="path4042" />
    </clipPath>
    <clipPath
       id="clip110">
      <path
         d="m 855.95703,636.79687 h 33.375 v 29.63282 h -33.375 z m 0,0"
         id="path4000" />
    </clipPath>
    <clipPath
       id="clip111">
      <path
         d="m 698.83594,683.80078 h 28.7539 v 33.12109 h -28.7539 z m 0,0"
         id="path4003" />
    </clipPath>
    <clipPath
       id="clip100">
      <path
         d="M 751.63281,686 H 771 v 23 h -19.36719 z m 0,0"
         id="path3970" />
    </clipPath>
    <clipPath
       id="clip101">
      <path
         d="m 759,685.80078 h 5 V 698 h -5 z m 0,0"
         id="path3973" />
    </clipPath>
    <clipPath
       id="clip102">
      <path
         d="M 751.63281,693 H 757 v 7 h -5.36719 z m 0,0"
         id="path3976" />
    </clipPath>
    <clipPath
       id="clip103">
      <path
         d="m 755,704 h 24 v 11.66406 h -24 z m 0,0"
         id="path3979" />
    </clipPath>
    <clipPath
       id="clip104">
      <path
         d="m 773,700 h 8.23437 v 6 H 773 Z m 0,0"
         id="path3982" />
    </clipPath>
  </defs>
  <g
     inkscape:label="Layer 1"
     inkscape:groupmode="layer"
     id="layer1">
    <g
       id="g21293"
       transform="matrix(2.6770188,0,0,2.6770188,-2001.7597,-1825.8738)">
      <g
         clip-path="url(#clip100)"
         clip-rule="nonzero"
         id="g15480">
        <path
           style="fill:#000000;fill-opacity:1;fill-rule:nonzero;stroke:none"
           d="m 759.30859,708.11328 c -0.0508,0.0898 0.008,0.20313 0.10938,0.21875 0.8125,0.12891 3.67578,0.55469 5.15625,0.37891 1.36328,-0.16016 2.47265,-0.44141 2.88672,-0.55078 0.10547,-0.0312 0.17578,-0.125 0.17187,-0.23438 -0.0195,-0.62109 -0.17187,-2.71875 -1.26953,-4.62109 -1.30469,-2.26172 -0.0352,-6.55078 3.02344,-9.78125 2,-2.11328 1.1289,-7.21094 -0.5,-7.23047 -1.63281,-0.0195 -0.77344,3.04297 -1.44922,4.52344 -0.81641,1.79687 -2.71875,2.4375 -4.02734,5.79296 -0.73438,1.88282 -1.01563,2.30469 -1.33594,2.61329 -0.0625,0.0625 -0.16797,0.0351 -0.19531,-0.0508 -0.50782,-1.64062 -1.70313,-4.89843 -3.36329,-6.72656 -1.82031,-2.00781 -3.82031,-3.8164 -5.02734,-3.1914 -1.21094,0.625 -0.58594,2.375 0.85547,3.35546 1.30859,0.89063 2.12891,1.91407 2.33203,4 0.21875,2.2461 0.53125,3.75391 1.29688,4.89844 0.0469,0.0742 0,0.16797 -0.0859,0.17188 -0.86328,0.0508 -2.76563,-1.48438 -3.16797,-1.92578 -0.71094,-0.77735 -1.875,-1.76954 -2.60938,-0.84375 -1.17578,1.49218 0.87891,3.90625 3.31641,5.30078 1.97266,1.13281 3.39844,0.79297 3.98047,2.08593 0.35156,0.78125 0.0742,1.49219 -0.0977,1.81641"
           id="path15478" />
      </g>
      <g
         clip-path="url(#clip101)"
         clip-rule="nonzero"
         id="g15484">
        <path
           style="fill:#000000;fill-opacity:1;fill-rule:nonzero;stroke:none"
           d="m 762.17969,697.28906 c 0.57422,-0.96484 0.70703,-2.01562 1.48047,-3.07812 0.0195,-0.0312 0.0391,-0.0664 0.0312,-0.10547 -0.28125,-2.53516 -1.35938,-3.15625 -1.49219,-4.625 -0.13672,-1.47656 0.36719,-3.79688 -1.0586,-3.67578 -1.10937,0.0937 -1.67578,1.76172 -1.46484,3.78125 0.11328,1.08203 0.58594,1.91015 1.0625,3.10547 0.52734,1.32421 0.82422,3.23437 1.25,4.57812 0.0273,0.0859 0.14453,0.0977 0.19141,0.0195"
           id="path15482" />
      </g>
      <path
         style="fill:#000000;fill-opacity:1;fill-rule:nonzero;stroke:none"
         d="m 764.25781,689.71484 c 0.33594,1.10157 -0.008,1.96094 0.41016,2.76953 0.0195,0.0391 0.0703,0.0469 0.0977,0.0195 0.38672,-0.36719 1.40625,-1.46485 1.51172,-1.72657 0.10938,-0.27734 0.26172,-3.01172 -0.53515,-4.24609 -0.46485,-0.72656 -1.61719,-0.23828 -1.76563,0.78906 -0.125,0.88672 -0.0625,1.25781 0.28125,2.39453"
         id="path15486" />
      <g
         clip-path="url(#clip102)"
         clip-rule="nonzero"
         id="g15490">
        <path
           style="fill:#000000;fill-opacity:1;fill-rule:nonzero;stroke:none"
           d="m 756.36328,699.19531 c -0.24609,-0.87109 -0.25781,-1.93359 -0.36328,-2.5039 -0.0117,-0.0664 -0.0859,-0.0977 -0.14453,-0.12891 -1.77735,-0.96094 -1.76953,-1.70703 -2.77344,-2.86719 -0.54297,-0.625 -1.49609,-0.30469 -1.44531,0.5625 0.0898,1.61328 2.77344,4.48828 4.6289,5.02735 0.0547,0.0156 0.11329,-0.0352 0.0977,-0.0899"
           id="path15488" />
      </g>
      <g
         clip-path="url(#clip103)"
         clip-rule="nonzero"
         id="g15494">
        <path
           style="fill:#000000;fill-opacity:1;fill-rule:nonzero;stroke:none"
           d="m 776.83594,709.49219 c -0.3125,-1.56641 0.38672,-4.00782 -0.51172,-4.89453 -0.22656,-0.22657 -0.64453,-0.375 -1.11719,-0.39454 -1.36328,-0.0664 -4.44922,-0.1875 -8.20312,-0.1875 -3.73047,0 -6.73829,0.1211 -8.07422,0.1836 -0.47657,0.0234 -0.89453,0.17187 -1.11719,0.39844 -0.89844,0.88671 -0.49219,3.04687 -0.80469,4.51562 -0.32031,1.49609 -1.39844,3.51172 -1.79687,4.22266 -0.0899,0.16406 -0.0469,0.375 0.10547,0.48437 0.73828,0.53906 3.41015,1.84375 11.96484,1.84375 8.22656,0 10.48437,-1.02344 11.08984,-1.50781 0.14063,-0.11328 0.1836,-0.30859 0.10157,-0.46875 -0.33985,-0.66016 -1.33204,-2.67578 -1.63672,-4.19531"
           id="path15492" />
      </g>
      <path
         style="fill:#000000;fill-opacity:1;fill-rule:nonzero;stroke:none"
         d="m 779.11328,693.57422 c -0.87891,0.2539 -1.37891,1.1289 -1.64844,2.96875 -0.15625,1.05859 -0.83593,1.55859 -1.80078,1.9375 -0.082,0.0352 -0.16797,-0.0273 -0.16797,-0.11328 0.0274,-1.39063 0.0703,-3.3125 1.44532,-4.75 1.0039,-1.04688 2.58984,-3.64453 0.66796,-4.21875 -0.98046,-0.29297 -4.10546,3.78906 -4.92968,6.55859 -1.08594,3.65625 -5.79297,4.33203 -6.01172,5.66016 -0.17969,1.07031 0.66797,2.13281 1.02344,3.27734 0.0312,0.11328 3.07812,0.19531 3.10937,0.0859 0.0391,-0.13672 0.0898,-0.26953 0.14844,-0.39844 0.41797,0.20313 1.05469,0.99609 1.75781,-0.125 0.95703,-1.52344 2.35156,-2.16406 4.60938,-3.11328 2.23437,-0.93359 3.01953,-4.07422 3.09375,-5.30469 0.082,-1.35547 0.12109,-2.87109 -1.29688,-2.46484"
         id="path15496" />
      <path
         style="fill:#000000;fill-opacity:1;fill-rule:nonzero;stroke:none"
         d="m 767.08203,699.87891 c -0.0898,0.043 -0.19141,-0.0234 -0.19141,-0.1211 0.0156,-1.53906 1.03907,-3.47265 1.76954,-4.01953 1.99609,-1.49219 2.80859,-2.52734 3.25,-3.85547 0.49218,-1.49219 0.61328,-3.50781 0.70703,-3.63281 0.0937,-0.125 0.52343,-0.96094 1.40234,-0.39844 0.875,0.56641 0.66797,2.63281 0.66797,2.63281 0,0 -1.31641,1.35938 -2.12891,3.36329 -0.44922,1.10156 -0.67187,2.35937 -1.58984,3.36328 -0.67578,1.01172 -2.68359,2.09765 -3.88672,2.66797"
         id="path15498" />
      <g
         clip-path="url(#clip104)"
         clip-rule="nonzero"
         id="g15502">
        <path
           style="fill:#000000;fill-opacity:1;fill-rule:nonzero;stroke:none"
           d="m 773.80859,704.32031 c 0,0 0.61719,-1.07812 2.19532,-1.53515 2.0664,-0.59375 2.95703,-1.02344 3.38281,-1.34375 1.6289,-1.22266 1.86328,-0.004 1.84765,0.46875 -0.0625,1.8164 -2.57031,3.38281 -4.66796,3.41406 -1.39454,0.0195 -2.03516,0.34375 -2.03516,0.34375 z m 0,0"
           id="path15500" />
      </g>
    </g>
  </g>
</svg>
