<?xml version="1.0" encoding="UTF-8" standalone="no"?>
<!-- Created with Inkscape (http://www.inkscape.org/) -->

<svg
   width="100mm"
   height="100mm"
   viewBox="0 0 100 100"
   version="1.1"
   id="svg17343"
   sodipodi:docname="31_Drill.svg"
   inkscape:version="1.1.1 (3bf5ae0d25, 2021-09-20)"
   xmlns:inkscape="http://www.inkscape.org/namespaces/inkscape"
   xmlns:sodipodi="http://sodipodi.sourceforge.net/DTD/sodipodi-0.dtd"
   xmlns="http://www.w3.org/2000/svg"
   xmlns:svg="http://www.w3.org/2000/svg">
  <sodipodi:namedview
     id="namedview17345"
     pagecolor="#ffffff"
     bordercolor="#666666"
     borderopacity="1.0"
     inkscape:pageshadow="2"
     inkscape:pageopacity="0.0"
     inkscape:pagecheckerboard="0"
     inkscape:document-units="mm"
     showgrid="false"
     inkscape:zoom="1.6090175"
     inkscape:cx="197.01463"
     inkscape:cy="211.93057"
     inkscape:window-width="1852"
     inkscape:window-height="1025"
     inkscape:window-x="0"
     inkscape:window-y="0"
     inkscape:window-maximized="1"
     inkscape:current-layer="layer1" />
  <defs
     id="defs17340">
    <clipPath
       id="clip112">
      <path
         d="m 824,583.19141 h 6.31641 V 593 H 824 Z m 0,0"
         id="path4006" />
    </clipPath>
    <clipPath
       id="clip113">
      <path
         d="M 806.875,598 H 824 v 20.10937 h -17.125 z m 0,0"
         id="path4009" />
    </clipPath>
  </defs>
  <g
     inkscape:label="Layer 1"
     inkscape:groupmode="layer"
     id="layer1">
    <g
       id="g18279"
       transform="matrix(2.4158263,0,0,2.4158263,-1932.7956,-1400.1401)">
      <g
         clip-path="url(#clip112)"
         clip-rule="nonzero"
         id="g15542">
        <path
           style="fill:#000000;fill-opacity:1;fill-rule:nonzero;stroke:none"
           d="m 830.10156,583.22266 -4.65625,3.55859 c -0.16797,0.13281 -0.28906,0.3125 -0.33594,0.51953 -0.20312,0.87891 -0.55078,3.32031 1.34375,4.89063 0.42188,0.35156 0.83985,0.5 1.17969,0.55859 0.40235,0.0664 0.78516,-0.19922 0.86719,-0.60156 l 1.81641,-8.79297 c 0.0234,-0.1211 -0.11719,-0.21094 -0.21485,-0.13281"
           id="path15540" />
      </g>
      <path
         style="fill:#000000;fill-opacity:1;fill-rule:nonzero;stroke:none"
         d="m 823.69141,588.54297 -0.88282,0.73047 c 0,0 -1.5039,2.875 0.85547,5.99218 1.78125,2.34766 3.17969,1.6211 3.17969,1.6211 l 0.40234,-1.5625 c 0,0 0.82813,1.47656 0.23047,2.96094 -0.71875,1.78515 -2.42969,1.71484 -4.35547,0.11718 -1.79297,-1.48437 -4.07812,-6.35547 -1.67968,-9.07812 1.09375,-1.24219 2.25,-0.78125 2.25,-0.78125"
         id="path15544" />
      <path
         style="fill:#000000;fill-opacity:1;fill-rule:nonzero;stroke:none"
         d="m 818.24609,593.07812 -1.14062,0.94141 c 0,0 -1.79688,5.11328 2.47265,9.6875 3.39063,3.63281 5.05469,1.78906 5.05469,1.78906 l 0.46875,-1.84375 c 0,0 0.98828,2.16407 0.21485,4.03125 -0.82813,1.99219 -3.40625,2.19532 -6.03907,0.57422 -2.60547,-1.60937 -7.29297,-7.75781 -4.32812,-13.60156 1.14844,-2.26563 3.29687,-1.57813 3.29687,-1.57813"
         id="path15546" />
      <g
         clip-path="url(#clip113)"
         clip-rule="nonzero"
         id="g15550">
        <path
           style="fill:#000000;fill-opacity:1;fill-rule:nonzero;stroke:none"
           d="m 811.61719,598.53125 -1.92188,1.58594 c 0,0 -1.10156,6.73828 4.46875,11.76172 5.44922,4.91796 8.40625,1.76171 8.40625,1.76171 l 0.46875,-1.84375 c 0,0 1.09375,1.80079 -0.23437,4.30469 -1.15235,2.17969 -3.81641,2.5625 -7.49219,1.25391 -5.89844,-2.10156 -11.16797,-12.28516 -6.86719,-17.64844 1.5,-1.87109 3.17188,-1.17578 3.17188,-1.17578"
           id="path15548" />
      </g>
    </g>
  </g>
</svg>
