<?xml version="1.0" encoding="UTF-8" standalone="no"?>
<!-- Created with Inkscape (http://www.inkscape.org/) -->

<svg
   width="100mm"
   height="100mm"
   viewBox="0 0 100 100"
   version="1.1"
   id="svg17343"
   sodipodi:docname="39_Shackles.svg"
   inkscape:version="1.1.1 (3bf5ae0d25, 2021-09-20)"
   xmlns:inkscape="http://www.inkscape.org/namespaces/inkscape"
   xmlns:sodipodi="http://sodipodi.sourceforge.net/DTD/sodipodi-0.dtd"
   xmlns="http://www.w3.org/2000/svg"
   xmlns:svg="http://www.w3.org/2000/svg">
  <sodipodi:namedview
     id="namedview17345"
     pagecolor="#ffffff"
     bordercolor="#666666"
     borderopacity="1.0"
     inkscape:pageshadow="2"
     inkscape:pageopacity="0.0"
     inkscape:pagecheckerboard="0"
     inkscape:document-units="mm"
     showgrid="false"
     inkscape:zoom="1.6090175"
     inkscape:cx="197.01463"
     inkscape:cy="211.93057"
     inkscape:window-width="1852"
     inkscape:window-height="1025"
     inkscape:window-x="0"
     inkscape:window-y="0"
     inkscape:window-maximized="1"
     inkscape:current-layer="layer1" />
  <defs
     id="defs17340">
    <clipPath
       id="clip112">
      <path
         d="m 824,583.19141 h 6.31641 V 593 H 824 Z m 0,0"
         id="path4006" />
    </clipPath>
    <clipPath
       id="clip113">
      <path
         d="M 806.875,598 H 824 v 20.10937 h -17.125 z m 0,0"
         id="path4009" />
    </clipPath>
    <clipPath
       id="clip105">
      <path
         d="m 861,583.19141 h 11 v 34.76171 h -11 z m 0,0"
         id="path3985" />
    </clipPath>
    <clipPath
       id="clip106">
      <path
         d="m 871,583.19141 h 6 V 603 h -6 z m 0,0"
         id="path3988" />
    </clipPath>
    <clipPath
       id="clip107">
      <path
         d="m 871,588 h 13 v 29.95312 h -13 z m 0,0"
         id="path3991" />
    </clipPath>
    <clipPath
       id="clip108">
      <path
         d="m 877,598 h 9.49609 v 19.95312 H 877 Z m 0,0"
         id="path3994" />
    </clipPath>
    <clipPath
       id="clip109">
      <path
         d="M 858.79687,601 H 869 v 16 h -10.20313 z m 0,0"
         id="path3997" />
    </clipPath>
    <clipPath
       id="clip118">
      <path
         d="m 707,634.73828 h 12 V 654 h -12 z m 0,0"
         id="path4024" />
    </clipPath>
    <clipPath
       id="clip119">
      <path
         d="m 714,647 h 11.21094 v 9 H 714 Z m 0,0"
         id="path4027" />
    </clipPath>
    <clipPath
       id="clip120">
      <path
         d="m 708,656 h 15 v 12.61328 h -15 z m 0,0"
         id="path4030" />
    </clipPath>
    <clipPath
       id="clip121">
      <path
         d="M 698.83594,644 H 710 v 17 h -11.16406 z m 0,0"
         id="path4033" />
    </clipPath>
    <clipPath
       id="clip122">
      <path
         d="m 764,636.47266 h 3 v 32.41015 h -3 z m 0,0"
         id="path4036" />
    </clipPath>
    <clipPath
       id="clip123">
      <path
         d="m 749.22656,651 h 32.41406 v 3 h -32.41406 z m 0,0"
         id="path4039" />
    </clipPath>
    <clipPath
       id="clip124">
      <path
         d="m 802.72266,637.09375 h 31.75 v 30.52734 h -31.75 z m 0,0"
         id="path4042" />
    </clipPath>
    <clipPath
       id="clip110">
      <path
         d="m 855.95703,636.79687 h 33.375 v 29.63282 h -33.375 z m 0,0"
         id="path4000" />
    </clipPath>
    <clipPath
       id="clip111">
      <path
         d="m 698.83594,683.80078 h 28.7539 v 33.12109 h -28.7539 z m 0,0"
         id="path4003" />
    </clipPath>
    <clipPath
       id="clip100">
      <path
         d="M 751.63281,686 H 771 v 23 h -19.36719 z m 0,0"
         id="path3970" />
    </clipPath>
    <clipPath
       id="clip101">
      <path
         d="m 759,685.80078 h 5 V 698 h -5 z m 0,0"
         id="path3973" />
    </clipPath>
    <clipPath
       id="clip102">
      <path
         d="M 751.63281,693 H 757 v 7 h -5.36719 z m 0,0"
         id="path3976" />
    </clipPath>
    <clipPath
       id="clip103">
      <path
         d="m 755,704 h 24 v 11.66406 h -24 z m 0,0"
         id="path3979" />
    </clipPath>
    <clipPath
       id="clip104">
      <path
         d="m 773,700 h 8.23437 v 6 H 773 Z m 0,0"
         id="path3982" />
    </clipPath>
    <clipPath
       id="clip114">
      <path
         d="M 802.72266,685.64844 H 819 V 703 h -16.27734 z m 0,0"
         id="path4012" />
    </clipPath>
    <clipPath
       id="clip115">
      <path
         d="m 823,709 h 7 v 8.81641 h -7 z m 0,0"
         id="path4015" />
    </clipPath>
    <clipPath
       id="clip116">
      <path
         d="m 818,690 h 18.95703 v 14 H 818 Z m 0,0"
         id="path4018" />
    </clipPath>
  </defs>
  <g
     inkscape:label="Layer 1"
     inkscape:groupmode="layer"
     id="layer1">
    <g
       id="g21734"
       transform="matrix(2.5453211,0,0,2.5453211,-2036.7557,-1736.1329)">
      <g
         clip-path="url(#clip114)"
         clip-rule="nonzero"
         id="g15554">
        <path
           style="fill:#000000;fill-opacity:1;fill-rule:nonzero;stroke:none"
           d="m 811.47656,695.08594 c -1.60937,1.92968 -5.33203,5.14843 -7.58203,4.45312 -0.48828,-0.15234 -0.51953,-0.40625 -0.53516,-0.55469 0.16016,0.0898 1.54297,0.27735 2.94532,-0.41406 0.68359,-1.6289 1.67187,-3.1914 3.40234,-5.21484 1.90234,-2.21875 4.00391,-3.69531 4.83203,-4.08594 0.30469,-0.63281 0.77735,-1.78125 0.3711,-3.00391 0.16796,0 0.33984,0.3086 0.39453,0.46094 0.88672,2.48047 -1.76953,5.87891 -3.82813,8.35938 m 6.32422,-6.64063 -2.26953,-2.26562 c -0.0391,-0.043 -0.0781,-0.082 -0.12109,-0.11719 0,-0.004 0,-0.004 0,-0.004 -0.34375,-0.30468 -0.8125,-0.4414 -1.39063,-0.40625 -1.90234,0.11328 -4.77344,2.03907 -7.3125,4.90625 -2.67578,3.02344 -4.17578,6.17188 -3.96875,8.01172 0,0 0.004,0.004 0.004,0.004 0.0547,0.48828 0.23047,0.88281 0.53515,1.16015 l 2.39063,2.38282 c 0.30859,0.27734 0.71875,0.40625 1.20703,0.40625 1.84766,0 4.80469,-1.875 7.49219,-4.91016 3.39453,-3.83594 4.89843,-7.86719 3.43359,-9.16797"
           id="path15552" />
      </g>
      <path
         style="fill:#000000;fill-opacity:1;fill-rule:nonzero;stroke:none"
         d="m 810.96094,700.22266 c -0.19141,0 -0.37891,0.043 -0.55469,0.1289 -0.29688,0.14844 -0.52344,0.40625 -0.63281,0.72656 -0.10547,0.32032 -0.0859,0.66016 0.0625,0.96094 l 1.28515,2.59766 c 0.14453,0.29687 0.40625,0.52344 0.72266,0.6289 0.32422,0.10938 0.66406,0.0859 0.96094,-0.0625 0.30078,-0.14453 0.52734,-0.40625 0.63672,-0.72265 0.10546,-0.32031 0.0859,-0.66406 -0.0625,-0.96094 l -1.28516,-2.59766 c -0.14844,-0.30078 -0.40625,-0.52343 -0.72656,-0.63281 -0.13282,-0.043 -0.26953,-0.0664 -0.40625,-0.0664 m 1.29297,6.60937 c -1.01563,0 -1.9961,-0.5625 -2.47657,-1.53516 l -1.28125,-2.59375 c -0.32812,-0.66015 -0.375,-1.40625 -0.13672,-2.10546 0.23438,-0.69532 0.72657,-1.26172 1.38282,-1.58594 0.66015,-0.32422 1.40625,-0.375 2.10547,-0.14063 0.69921,0.23828 1.26171,0.73047 1.58593,1.39063 l 1.28516,2.59375 c 0.32422,0.65625 0.375,1.40234 0.13672,2.10156 -0.23438,0.69922 -0.72656,1.26563 -1.38672,1.58984 -0.39063,0.19141 -0.80469,0.28516 -1.21484,0.28516"
         id="path15556" />
      <path
         style="fill:#000000;fill-opacity:1;fill-rule:nonzero;stroke:none"
         d="m 821.79297,709.24609 -1.10156,-2.23047 c -0.42969,-0.87109 -1.20704,-1.54296 -2.15235,-1.76562 -2.60547,-0.62109 -3.78515,2.39453 -2.96484,3.84375 0.53125,0.94531 0.57031,2.01172 0.55469,2.50391 -0.004,0.16796 0.1289,0.3164 0.29687,0.32812 0.54297,0.0508 0.87109,-0.23047 1.02734,-0.71875 0,0 0.0156,-1.75 -0.54296,-2.77344 -0.25,-0.45703 -0.0508,-1.3789 0.57421,-1.6875 0.17969,-0.0898 0.36719,-0.1289 0.55079,-0.1289 0.46484,0 0.91406,0.2539 1.13281,0.69922 l 1.28125,2.59375 c 0.15234,0.30078 0.17578,0.64062 0.0664,0.96093 -0.0898,0.26172 -0.25781,0.48438 -0.48437,0.64453 0.0234,0.57032 0.28125,1.04688 0.80859,1.12891 0.10547,0.0156 0.21485,-0.0234 0.29297,-0.0937 0.36328,-0.32031 0.64453,-0.73047 0.80078,-1.19922 0.23438,-0.69922 0.1875,-1.44922 -0.14062,-2.10547"
         id="path15558" />
      <path
         style="fill:#000000;fill-opacity:1;fill-rule:nonzero;stroke:none"
         d="m 818.11328,708.44531 c -0.12891,0 -0.25781,-0.0312 -0.37891,-0.10156 l -5.82421,-3.41016 c -0.35547,-0.20703 -0.47657,-0.66797 -0.26563,-1.02343 0.20703,-0.35547 0.66406,-0.47657 1.02344,-0.26563 l 5.82422,3.40625 c 0.35547,0.21094 0.47656,0.66797 0.26562,1.02344 -0.13672,0.23828 -0.38672,0.37109 -0.64453,0.37109"
         id="path15560" />
      <path
         style="fill:#000000;fill-opacity:1;fill-rule:nonzero;stroke:none"
         d="m 827.08984,701.49609 c -0.14843,-0.11328 -0.32031,-0.19922 -0.51172,-0.23828 -0.32812,-0.0703 -0.66406,-0.004 -0.94921,0.17969 -0.28125,0.18359 -0.47266,0.46875 -0.54297,0.79297 l -0.59766,2.83203 c -0.0664,0.32812 -0.004,0.66406 0.17969,0.94922 0.1875,0.28125 0.46875,0.47656 0.79687,0.54297 0.32422,0.0703 0.66016,0.008 0.94532,-0.17969 0.28125,-0.18359 0.47656,-0.46484 0.54687,-0.79297 l 0.59375,-2.83203 c 0.0703,-0.32813 0.004,-0.66406 -0.17969,-0.94531 -0.0781,-0.1211 -0.17187,-0.22266 -0.28125,-0.3086 m -3.0664,5.9961 c -0.80078,-0.62891 -1.22266,-1.67578 -0.9961,-2.73438 l 0.59375,-2.83203 c 0.15235,-0.72266 0.57422,-1.33594 1.19141,-1.74219 0.61719,-0.40234 1.35547,-0.53906 2.07031,-0.39062 0.72266,0.15234 1.33985,0.57422 1.74219,1.1914 0.40234,0.6211 0.53906,1.35547 0.39062,2.07422 l -0.59765,2.83203 c -0.14844,0.71875 -0.57422,1.33594 -1.19141,1.73829 -0.61719,0.40234 -1.35156,0.54296 -2.07031,0.39062 -0.42578,-0.0898 -0.8125,-0.27344 -1.13281,-0.52734"
         id="path15562" />
      <g
         clip-path="url(#clip115)"
         clip-rule="nonzero"
         id="g15566">
        <path
           style="fill:#000000;fill-opacity:1;fill-rule:nonzero;stroke:none"
           d="m 826.76953,709.80859 c -1.51953,-0.0469 -2.79297,1.15235 -2.84375,2.66797 l -0.0937,2.89063 c -0.0352,1.04297 0.44531,2.00781 1.44922,2.42578 0.21484,0.0469 0.52344,0.0234 0.73047,-0.10547 0.35547,-0.22656 0.41797,-0.66797 0.42969,-0.82031 0,-0.0312 -0.0234,-0.0586 -0.0508,-0.0664 -0.30078,-0.0977 -0.5,-0.24609 -0.72265,-0.48437 -0.23047,-0.24219 -0.34766,-0.5625 -0.33985,-0.89844 l 0.0937,-2.89063 c 0.0234,-0.69531 0.60547,-1.24218 1.29688,-1.22265 0.20312,0.008 0.39062,0.0586 0.55469,0.14843 0.41015,0.21875 0.73047,0.52344 0.66406,1.15235 -0.16016,1.53906 0.22656,2.50781 0.41016,3 0.0391,0.0977 0.0781,0.1914 0.17187,0.24609 0.14844,0.082 0.31641,0.15625 0.60938,0.125 0.13671,-0.0156 0.28906,-0.0508 0.42187,-0.0976 0.16797,-0.0586 0.26953,-0.21875 0.24609,-0.39454 -0.0859,-0.53906 -0.53906,-1.49609 -0.36328,-2.82812 0.1875,-1.43359 -1.14843,-2.79688 -2.66406,-2.84766"
           id="path15564" />
      </g>
      <path
         style="fill:#000000;fill-opacity:1;fill-rule:nonzero;stroke:none"
         d="m 826.30859,712.64453 c -0.0859,-0.0977 -0.14843,-0.21875 -0.17578,-0.35156 l -1.29687,-6.6211 c -0.0781,-0.40625 0.18359,-0.80078 0.58984,-0.8789 0.40625,-0.082 0.79688,0.18359 0.87891,0.58984 l 1.29687,6.6211 c 0.082,0.40625 -0.18359,0.80078 -0.58984,0.8789 -0.26953,0.0547 -0.53516,-0.0469 -0.70313,-0.23828"
         id="path15568" />
      <g
         clip-path="url(#clip116)"
         clip-rule="nonzero"
         id="g15572">
        <path
           style="fill:#000000;fill-opacity:1;fill-rule:nonzero;stroke:none"
           d="m 827.05859,698.17969 c -2.28515,-1.05469 -6.35937,-3.8125 -6.26953,-6.16407 0.0195,-0.51171 0.25391,-0.60937 0.39844,-0.66015 -0.0469,0.17578 0.12891,1.55859 1.16016,2.73437 1.75,0.23828 3.51562,0.78516 5.92187,1.9336 2.63281,1.25781 4.60938,2.90625 5.19922,3.60547 0.6875,0.1289 1.92187,0.28906 2.99609,-0.42188 0.043,0.16016 -0.20703,0.41016 -0.33984,0.5 -2.16406,1.5 -6.14063,-0.17969 -9.06641,-1.52734 m 8.05469,4.38281 1.59766,-2.77734 c 0.0312,-0.0469 0.0586,-0.0977 0.082,-0.14844 0,0 0,0 0.004,0 0.20313,-0.41016 0.21485,-0.89844 0.0312,-1.44531 -0.60546,-1.8086 -3.21093,-4.08204 -6.63671,-5.78907 -3.61329,-1.80468 -7.04297,-2.4375 -8.76563,-1.7539 -0.004,0 -0.004,0 -0.004,0 -0.45703,0.18359 -0.79296,0.45703 -0.98046,0.82031 l -1.6836,2.92578 c -0.18359,0.37109 -0.20312,0.80078 -0.0781,1.26953 0.48047,1.78516 3.05468,4.15625 6.68359,5.96485 h 0.004 c 4.58203,2.28125 8.86718,2.6875 9.74609,0.93359"
           id="path15570" />
      </g>
    </g>
  </g>
</svg>
