<?xml version="1.0" encoding="UTF-8" standalone="no"?>
<svg
   xmlns:dc="http://purl.org/dc/elements/1.1/"
   xmlns:cc="http://creativecommons.org/ns#"
   xmlns:rdf="http://www.w3.org/1999/02/22-rdf-syntax-ns#"
   xmlns:svg="http://www.w3.org/2000/svg"
   xmlns="http://www.w3.org/2000/svg"
   xmlns:sodipodi="http://sodipodi.sourceforge.net/DTD/sodipodi-0.dtd"
   xmlns:inkscape="http://www.inkscape.org/namespaces/inkscape"
   width="20.166414mm"
   height="31.541866mm"
   viewBox="0 0 20.166414 31.541866"
   version="1.1"
   id="svg4146"
   sodipodi:docname="C_Brightspark.svg"
   inkscape:version="1.0.1 (3bc2e813f5, 2020-09-07)">
  <defs
     id="defs4140" />
  <sodipodi:namedview
     id="base"
     pagecolor="#ffffff"
     bordercolor="#666666"
     borderopacity="1.0"
     inkscape:pageopacity="0.0"
     inkscape:pageshadow="2"
     inkscape:zoom="19.309102"
     inkscape:cx="37.512391"
     inkscape:cy="16.760133"
     inkscape:document-units="mm"
     inkscape:current-layer="g2652"
     inkscape:document-rotation="0"
     showgrid="false"
     fit-margin-top="0"
     fit-margin-left="0"
     fit-margin-right="0"
     fit-margin-bottom="0"
     inkscape:window-width="1920"
     inkscape:window-height="1029"
     inkscape:window-x="0"
     inkscape:window-y="0"
     inkscape:window-maximized="1" />
  <metadata
     id="metadata4143">
    <rdf:RDF>
      <cc:Work
         rdf:about="">
        <dc:format>image/svg+xml</dc:format>
        <dc:type
           rdf:resource="http://purl.org/dc/dcmitype/StillImage" />
        <dc:title></dc:title>
      </cc:Work>
    </rdf:RDF>
  </metadata>
  <g
     inkscape:label="Layer 1"
     inkscape:groupmode="layer"
     id="layer1"
     transform="translate(-12.29804,-16.210873)">
    <g
       transform="matrix(0.34944402,0,0,-0.34944402,22.365872,30.877388)"
       id="g2652"
       style="fill:#000000;fill-opacity:1">
      <path
         d="m 0,0 c -5.156,0 -9.821,-0.878 -13.052,-2.206 -1.616,-0.664 -2.866,-1.448 -3.62,-2.181 -0.686,-0.667 -0.919,-1.19 -0.956,-1.615 h -0.047 c 0,-2.944 1.363,-5.753 3.652,-8.035 -0.088,0.042 -0.179,0.082 -0.266,0.125 -1.873,0.917 -3.436,1.991 -4.607,3.252 -0.39,0.419 -0.74,0.869 -1.037,1.347 -1.306,-2.33 -2.168,-4.909 -2.168,-7.892 0,-13.383 9.909,-24.386 22.091,-24.386 12.183,0 22.198,11.002 22.198,24.386 0,3.016 -0.86,5.655 -2.164,8.042 -0.314,-0.533 -0.698,-1.033 -1.128,-1.497 -1.171,-1.261 -2.735,-2.335 -4.608,-3.252 -0.077,-0.038 -0.158,-0.074 -0.236,-0.111 2.28,2.279 3.637,5.083 3.637,8.021 h -0.061 c -0.036,0.425 -0.27,0.948 -0.956,1.614 -0.754,0.733 -2.004,1.518 -3.619,2.181 C 9.82,-0.878 5.155,0 0,0 Z m -16.278,38.792 0.799,-2.408 c 1.447,-4.355 3.769,-8.808 5.057,-12.983 1.288,-4.174 1.589,-7.745 -0.548,-11.057 -2.389,-3.701 -6.738,-7.488 -10.585,-11.974 -3.848,-4.487 -7.256,-9.884 -7.256,-16.895 0,-17.455 12.897,-31.767 28.794,-31.767 15.898,0 28.916,14.303 28.916,31.767 0,6.972 -3.253,12.463 -7.045,17.019 -3.791,4.556 -8.179,8.358 -10.865,11.951 -1.603,2.144 -1.412,6.548 -0.154,11.307 1.258,4.759 3.364,9.598 4.523,12.533 l 0.991,2.507 H 12.754 L 6.995,21.684 C 6.187,17.471 6.157,13.26 8.467,10.169 11.521,6.083 15.902,2.333 19.446,-1.925 c 3.544,-4.258 6.19,-8.845 6.19,-14.6 0,-15.509 -11.535,-28.182 -25.653,-28.182 -14.118,0 -25.531,12.663 -25.531,28.182 0,5.744 2.751,10.218 6.368,14.437 3.617,4.218 8.038,7.97 10.871,12.359 2.809,4.351 2.436,9.322 1.099,13.869 l -4.237,10.913 c -0.02,0.051 -0.042,0.103 -0.062,0.154 h 0.003 l -1.392,3.585 z m 5.693,3.179 6.895,-17.762 c 2.693,-0.996 5.319,-0.952 8.055,-0.001 l 5.98,17.762 c -6.9766666,6.45e-4 -13.9533337,-0.0014 -20.93,10e-4 z"
         style="fill:#000000;fill-opacity:1;fill-rule:nonzero;stroke:none"
         id="path2650"
         sodipodi:nodetypes="sccccccccsssccccccccscccccsssccscccccssssccccccccccccc" />
    </g>
  </g>
</svg>
