<?xml version="1.0" encoding="UTF-8" standalone="no"?>
<svg
   xmlns:dc="http://purl.org/dc/elements/1.1/"
   xmlns:cc="http://creativecommons.org/ns#"
   xmlns:rdf="http://www.w3.org/1999/02/22-rdf-syntax-ns#"
   xmlns:svg="http://www.w3.org/2000/svg"
   xmlns="http://www.w3.org/2000/svg"
   xmlns:sodipodi="http://sodipodi.sourceforge.net/DTD/sodipodi-0.dtd"
   xmlns:inkscape="http://www.inkscape.org/namespaces/inkscape"
   version="1.1"
   id="svg2"
   width="333.33334"
   height="397.33334"
   viewBox="0 0 333.33334 397.33334"
   sodipodi:docname="C_Brewmaster.png.svg"
   inkscape:version="1.0.1 (3bc2e813f5, 2020-09-07)">
  <metadata
     id="metadata8">
    <rdf:RDF>
      <cc:Work
         rdf:about="">
        <dc:format>image/svg+xml</dc:format>
        <dc:type
           rdf:resource="http://purl.org/dc/dcmitype/StillImage" />
        <dc:title></dc:title>
      </cc:Work>
    </rdf:RDF>
  </metadata>
  <defs
     id="defs6" />
  <sodipodi:namedview
     pagecolor="#ffffff"
     bordercolor="#666666"
     borderopacity="1"
     objecttolerance="10"
     gridtolerance="10"
     guidetolerance="10"
     inkscape:pageopacity="0"
     inkscape:pageshadow="2"
     inkscape:window-width="1920"
     inkscape:window-height="1029"
     id="namedview4"
     showgrid="false"
     inkscape:zoom="2.1115771"
     inkscape:cx="166.66667"
     inkscape:cy="198.66667"
     inkscape:window-x="0"
     inkscape:window-y="0"
     inkscape:window-maximized="1"
     inkscape:current-layer="g10" />
  <g
     inkscape:groupmode="layer"
     inkscape:label="Image"
     id="g10">
    <path
       style="fill:#000000;stroke-width:1.33333"
       d="m 38.188918,391.63635 c -2.054005,-1.50192 -14.052112,-33.69606 -14.150534,-37.96968 -0.02932,-1.27302 5.630034,-1.66666 23.961617,-1.66666 18.29561,0 24.006908,0.39613 24.029067,1.66666 0.01599,0.91667 1.718908,10.21667 3.784271,20.66667 l 3.755204,19 H 60.039112 c -13.705103,0 -20.221561,-0.50609 -21.850194,-1.69699 z m 52.47775,0.69483 c 0,-0.99969 -6.037408,-31.63975 -7.355845,-37.33117 l -0.69496,-3 h 23.946717 c 13.17069,0 24.21165,0.45 24.53546,1 0.32381,0.55 1.02159,9.85 1.55063,20.66666 l 0.96189,19.66667 h -21.47194 c -11.80958,0 -21.471952,-0.45097 -21.471952,-1.00216 z m 54.192212,-5.99784 c -0.42994,-3.85 -1.17637,-13.15 -1.65872,-20.66667 l -0.87701,-13.66666 h 24.34352 24.34352 l -0.87701,13.66666 c -0.48235,7.51667 -1.22878,16.81667 -1.65872,20.66667 l -0.78172,7 H 166.66667 145.6406 Z m 55.82579,-12.66667 c 0.52904,-10.81666 1.22683,-20.11666 1.55063,-20.66666 0.32381,-0.55 11.36477,-1 24.53546,-1 h 23.94671 l -0.69496,3 c -1.31843,5.69142 -7.35584,36.33148 -7.35584,37.33117 0,0.55119 -9.66237,1.00216 -21.47195,1.00216 h -21.47194 z m 56.83534,0.66667 c 2.06536,-10.45 3.76828,-19.75 3.78426,-20.66667 0.0221,-1.27053 5.73346,-1.66666 24.02907,-1.66666 18.33159,0 23.99093,0.39364 23.96161,1.66666 -0.0984,4.27362 -12.09652,36.46776 -14.15053,37.96968 -1.62863,1.1909 -8.14509,1.69699 -21.85019,1.69699 H 253.76479 Z M 17.452783,329.23263 c -1.532364,-6.65538 -2.786116,-12.35538 -2.786116,-12.66666 0,-0.31128 68.46998,-0.56596 152.155513,-0.56596 h 152.15551 l -0.79504,3 c -0.43728,1.65 -1.76748,7.35 -2.95602,12.66666 l -2.16097,9.66667 H 166.65228 20.2389 Z m -6.66439,-30.89929 c -7.4461169,-37.21283 -10.82270061,-90.95322 -8.2309133,-131 1.4880196,-22.99202 5.1450331,-53.49023 8.1937903,-68.333338 l 1.437791,-7 H 38.497769 64.806477 L 63.139608,108.33334 C 59.839951,140.66606 58.291313,183.01432 59.129197,218 c 0.743531,31.04596 3.73498,76.3823 5.564608,84.33334 l 0.690335,3 H 38.786601 12.189061 Z m 64.675521,0.36897 C 68.853555,248.87099 68.865185,143.60838 75.486127,97.666668 l 0.816659,-5.666666 h 26.615374 26.61537 l -1.04188,12.333338 c -1.3555,16.04581 -1.3555,172.62085 0,188.66666 l 1.04188,12.33334 H 102.93854 76.34355 Z m 64.081706,-12.36897 c -1.12638,-24.62186 -1.12638,-150.71148 0,-175.33334 l 0.86918,-18.999998 h 26.25187 26.25187 L 193.78772,111 c 1.12638,24.62186 1.12638,150.71148 0,175.33334 l -0.86918,19 H 166.66667 140.4148 Z M 204.84559,293 c 1.35149,-15.93876 1.35319,-175.58212 0.003,-190 l -1.03087,-10.999998 h 26.63319 26.63317 l 0.80294,6.333333 c 6.86008,54.111345 6.82074,146.736345 -0.0852,200.666675 l -0.811,6.33333 H 230.3955 203.8005 L 204.84628,293 Z m 63.79395,9.33334 c 1.82963,-7.95104 4.82107,-53.28738 5.5646,-84.33334 0.83789,-34.98568 -0.71075,-77.33394 -4.01041,-109.66666 l -1.66687,-16.333338 h 26.29276 26.29275 l 1.34882,6.333333 c 5.7671,27.079045 8.72103,61.032015 8.72908,100.333335 0.008,38.58579 -2.76952,70.65613 -8.63153,99.66667 l -1.41447,7 H 294.54674 267.94921 Z M 14.666667,79.285084 c 0,-0.393205 1.273672,-5.793205 2.830381,-12 L 20.32743,56.000001 h 146.33924 146.33924 l 2.83038,11.285083 c 1.55672,6.206795 2.83038,11.606795 2.83038,12 0,0.393204 -68.4,0.714917 -152,0.714917 -83.600002,0 -152.000003,-0.321713 -152.000003,-0.714917 z M 24,43.943222 C 24,40.395141 35.024578,9.1863328 37.249922,6.4348244 39.645243,3.4731485 40.67351,3.3138507 60.059745,2.9011519 76.484211,2.5515042 80.234706,2.8061306 79.698954,4.2344853 79.334736,5.2055185 77.321495,14.85 75.225084,25.666667 L 71.413429,45.333334 H 47.706716 C 32.145598,45.333334 24,44.855693 24,43.943222 Z m 59.136876,-0.943221 c 0.35745,-1.283334 2.297042,-10.883334 4.310203,-21.333334 L 91.107374,2.6666667 h 21.263946 21.26395 L 132.66725,23 c -0.53241,11.183334 -1.23575,20.783334 -1.56299,21.333334 -0.32723,0.55 -11.39999,1 -24.60613,1 -22.226468,0 -23.962856,-0.173431 -23.361254,-2.333333 z m 60.086114,-12 c 0.48117,-7.883334 1.22197,-17.483334 1.64624,-21.3333342 l 0.77137,-7.0000001 h 21.02607 21.02607 l 0.77137,7.0000001 c 0.42427,3.8500002 1.16507,13.4500002 1.64624,21.3333342 l 0.87485,14.333333 h -24.31853 -24.31853 z m 59.00608,13.333333 c -0.32723,-0.55 -1.03057,-10.15 -1.56299,-21.333334 L 199.69807,2.6666667 h 21.26395 21.26394 l 3.6603,19.0000003 c 2.01316,10.45 3.95276,20.05 4.3102,21.333334 0.60161,2.159902 -1.13478,2.333333 -23.36126,2.333333 -13.20613,0 -24.27889,-0.45 -24.60613,-1 z m 55.93282,-18.554566 c -2.06179,-10.75501 -4.07292,-20.3994916 -4.4692,-21.4321807 -0.6045,-1.5752769 2.54849,-1.8080255 19.5809,-1.4454354 19.38624,0.4126988 20.41451,0.5719966 22.80983,3.5336725 2.22535,2.7515084 13.24992,33.9603166 13.24992,37.5083976 0,0.912481 -8.14703,1.390112 -23.71137,1.390112 h -23.71139 z"
       id="path837" />
  </g>
</svg>
