<?xml version="1.0" encoding="UTF-8" standalone="no"?>
<svg
   version="1.1"
   id="svg2"
   width="100mm"
   height="100mm"
   viewBox="0 0 377.95274 377.95276"
   sodipodi:docname="C_Brewmaster.svg"
   inkscape:version="1.1 (c4e8f9ed74, 2021-05-24)"
   xmlns:inkscape="http://www.inkscape.org/namespaces/inkscape"
   xmlns:sodipodi="http://sodipodi.sourceforge.net/DTD/sodipodi-0.dtd"
   xmlns="http://www.w3.org/2000/svg"
   xmlns:svg="http://www.w3.org/2000/svg"
   xmlns:rdf="http://www.w3.org/1999/02/22-rdf-syntax-ns#"
   xmlns:cc="http://creativecommons.org/ns#"
   xmlns:dc="http://purl.org/dc/elements/1.1/">
  <metadata
     id="metadata8">
    <rdf:RDF>
      <cc:Work
         rdf:about="">
        <dc:format>image/svg+xml</dc:format>
        <dc:type
           rdf:resource="http://purl.org/dc/dcmitype/StillImage" />
      </cc:Work>
    </rdf:RDF>
  </metadata>
  <defs
     id="defs6" />
  <sodipodi:namedview
     pagecolor="#ffffff"
     bordercolor="#666666"
     borderopacity="1"
     objecttolerance="10"
     gridtolerance="10"
     guidetolerance="10"
     inkscape:pageopacity="0"
     inkscape:pageshadow="2"
     inkscape:window-width="1920"
     inkscape:window-height="1029"
     id="namedview4"
     showgrid="false"
     inkscape:zoom="2.0405901"
     inkscape:cx="185.24053"
     inkscape:cy="198.472"
     inkscape:window-x="0"
     inkscape:window-y="0"
     inkscape:window-maximized="1"
     inkscape:current-layer="g10"
     inkscape:pagecheckerboard="0"
     units="mm"
     width="100mm"
     inkscape:document-units="mm" />
  <g
     inkscape:groupmode="layer"
     inkscape:label="Image"
     id="g10">
    <path
       style="fill:#000000;stroke-width:1.05152"
       d="m 87.831235,341.68571 c -1.619869,-1.18447 -11.082054,-26.57406 -11.159671,-29.94439 -0.02309,-1.00396 4.440063,-1.31441 18.897084,-1.31441 14.428642,0 18.932802,0.31242 18.950282,1.31441 0.0129,0.72291 1.3556,8.05727 2.98442,16.29855 l 2.9615,14.98416 h -15.40168 c -10.808398,0 -15.947526,-0.39912 -17.231935,-1.33832 z m 41.386035,0.54798 c 0,-0.7884 -4.76134,-24.95237 -5.80111,-29.44086 l -0.54806,-2.36592 h 18.88532 c 10.38694,0 19.09428,0.35489 19.34965,0.78864 0.25537,0.43375 0.80566,7.76811 1.22288,16.29856 l 0.75859,15.50992 h -16.93363 c -9.3135,0 -16.93364,-0.35566 -16.93364,-0.79034 z m 42.73815,-4.73014 c -0.33908,-3.03627 -0.92773,-10.37062 -1.30814,-16.29856 l -0.69164,-10.77808 h 19.19827 19.19826 l -0.69164,10.77808 c -0.38041,5.92794 -0.96907,13.26229 -1.30814,16.29856 l -0.61649,5.52048 h -16.58199 -16.58199 z m 44.02644,-9.98944 c 0.41722,-8.53045 0.96751,-15.86481 1.22288,-16.29856 0.25537,-0.43375 8.96271,-0.78864 19.34965,-0.78864 h 18.88532 l -0.54808,2.36592 c -1.03975,4.48849 -5.80109,28.65246 -5.80109,29.44086 0,0.43468 -7.62014,0.79034 -16.93364,0.79034 h -16.93363 z m 44.8226,0.52576 c 1.62883,-8.24128 2.97182,-15.57564 2.98442,-16.29855 0.0175,-1.00199 4.52164,-1.31441 18.95028,-1.31441 14.45702,0 18.92021,0.31045 18.89709,1.31441 -0.0776,3.37033 -9.53981,28.75992 -11.15967,29.94439 -1.28441,0.9392 -6.42354,1.33832 -17.23194,1.33832 h -15.4017 z M 71.477891,292.47165 c -1.208485,-5.24869 -2.19724,-9.74395 -2.19724,-9.98943 0,-0.24548 53.998159,-0.44634 119.995899,-0.44634 h 119.99589 l -0.627,2.36592 c -0.34485,1.30126 -1.3939,5.7965 -2.33123,9.98943 l -1.70423,7.62352 H 189.14256 73.67513 Z m -5.255805,-24.3684 C 60.349784,238.75573 57.686875,196.3739 59.730862,164.79142 60.904374,146.659 63.788441,122.6069 66.192806,110.90103 l 1.133908,-5.52049 h 20.748096 20.7481 l -1.31457,12.88113 c -2.60224,25.49887 -3.82356,58.8964 -3.16276,86.4875 0.58637,24.48407 2.94554,60.23813 4.38847,66.50863 l 0.54442,2.36592 H 88.302598 67.326714 Z m 51.005694,0.29098 c -5.21319,-39.29897 -5.20402,-122.31326 0.0175,-158.54472 l 0.64404,-4.46897 h 20.98994 20.98995 l -0.82166,9.72657 c -1.06901,12.65436 -1.06901,136.13568 0,148.79004 l 0.82166,9.72657 h -20.97388 -20.97386 z m 50.53739,-9.75466 c -0.88831,-19.41779 -0.88831,-118.85709 0,-138.27486 l 0.68547,-14.98417 h 20.70327 20.70326 l 0.68547,14.98417 c 0.88831,19.41777 0.88831,118.85707 0,138.27486 l -0.68547,14.98415 h -20.70326 -20.70327 z m 51.49815,5.25758 c 1.06584,-12.56993 1.06717,-138.47105 0.003,-149.84157 l -0.81299,-8.67504 h 21.004 21.00397 l 0.63324,4.99473 c 5.41013,42.67436 5.3791,115.72212 -0.0673,158.25373 l -0.63959,4.99472 H 239.41307 218.4392 l 0.82474,-9.72657 z m 50.31046,7.36065 c 1.44291,-6.2705 3.80208,-42.02456 4.38845,-66.50863 0.6608,-27.5911 -0.56052,-60.98863 -3.16276,-86.4875 l -1.31457,-12.88113 h 20.73552 20.73551 l 1.06373,4.99473 c 4.54817,21.35562 6.87776,48.13228 6.88411,79.12686 0.006,30.4303 -2.18415,55.72224 -6.80716,78.60112 l -1.11551,5.52047 H 290.00523 269.02934 Z M 69.280651,95.353061 c 0,-0.310093 1.00447,-4.568754 2.232155,-9.463676 l 2.232155,-8.89987 H 189.15391 304.56286 l 2.23214,8.89987 c 1.2277,4.894922 2.23216,9.153583 2.23216,9.463676 0,0.310094 -53.94297,0.563807 -119.87325,0.563807 -65.93029,0 -119.873259,-0.253713 -119.873259,-0.563807 z m 7.360644,-27.872003 c 0,-2.798156 8.694422,-27.410666 10.449406,-29.580616 1.889053,-2.335695 2.699976,-2.461324 17.988739,-2.786795 12.95298,-0.275746 15.91078,-0.07494 15.48826,1.051519 -0.28723,0.765797 -1.87495,8.37182 -3.52827,16.902274 l -3.00602,15.509914 H 95.337347 c -12.272113,0 -18.696052,-0.376683 -18.696052,-1.096296 z m 46.637685,-0.743861 c 0.2819,-1.012084 1.81154,-8.58303 3.3992,-16.824316 l 2.88666,-14.984159 h 16.7696 16.76959 L 162.34061,50.9644 c -0.41987,8.819623 -0.97456,16.390561 -1.23263,16.824314 -0.25807,0.433752 -8.99049,0.78864 -19.40537,0.78864 -17.52869,0 -18.89808,-0.136793 -18.42363,-1.840157 z m 47.38631,-9.463678 c 0.37946,-6.21711 0.96369,-13.788054 1.29829,-16.824317 l 0.60834,-5.52048 h 16.58199 16.58199 l 0.60833,5.52048 c 0.3346,3.036263 0.91883,10.607207 1.29829,16.824317 l 0.68995,11.303835 h -19.17856 -19.17857 z m 46.53454,10.515195 c -0.25807,-0.433753 -0.81276,-8.004691 -1.23264,-16.824314 l -0.76341,-16.035678 h 16.76961 16.76958 l 2.88666,14.984159 c 1.58766,8.241286 3.1173,15.812232 3.3992,16.824316 0.47445,1.703378 -0.89494,1.840157 -18.42363,1.840157 -10.41488,0 -19.1473,-0.354888 -19.40537,-0.78864 z m 44.11085,-14.632867 c -1.62602,-8.48183 -3.21207,-16.087852 -3.52459,-16.902272 -0.47674,-1.242326 2.00984,-1.42588 15.44228,-1.139928 15.28876,0.325471 16.0997,0.4511 17.98874,2.786795 1.755,2.16995 10.44942,26.78246 10.44942,29.580616 0,0.719613 -6.42509,1.096296 -18.69974,1.096296 h -18.69975 z"
       id="path837" />
  </g>
</svg>
