<?xml version="1.0" encoding="UTF-8" standalone="no"?>
<!-- Created with Inkscape (http://www.inkscape.org/) -->

<svg
   width="100mm"
   height="100mm"
   viewBox="0 0 100 100"
   version="1.1"
   id="svg1135"
   inkscape:version="1.1.1 (3bf5ae0d25, 2021-09-20)"
   sodipodi:docname="C_Chained_Helmet.svg"
   xmlns:inkscape="http://www.inkscape.org/namespaces/inkscape"
   xmlns:sodipodi="http://sodipodi.sourceforge.net/DTD/sodipodi-0.dtd"
   xmlns="http://www.w3.org/2000/svg"
   xmlns:svg="http://www.w3.org/2000/svg">
  <sodipodi:namedview
     id="namedview1137"
     pagecolor="#ffffff"
     bordercolor="#666666"
     borderopacity="1.0"
     inkscape:pageshadow="2"
     inkscape:pageopacity="0.0"
     inkscape:pagecheckerboard="0"
     inkscape:document-units="mm"
     showgrid="false"
     inkscape:zoom="0.73762626"
     inkscape:cx="397.22013"
     inkscape:cy="561.25984"
     inkscape:window-width="1920"
     inkscape:window-height="1029"
     inkscape:window-x="0"
     inkscape:window-y="0"
     inkscape:window-maximized="1"
     inkscape:current-layer="layer1" />
  <defs
     id="defs1132" />
  <g
     inkscape:label="Layer 1"
     inkscape:groupmode="layer"
     id="layer1">
    <path
       d="m 94.124672,51.147333 c 0.97492,0.31271 1.87627,0.86456 2.55688,1.71072 1.03011,1.28764 1.4164,2.77762 1.14048,4.39637 -0.51506,2.97996 -1.36122,5.88635 -2.53849,8.68236 -0.97493,2.37294 -3.5686,4.13884 -6.60375,3.587 -0.12876,0.23913 -0.27592,0.49666 -0.42308,0.73579 -0.73579,1.14048 -1.47159,2.29936 -2.20738,3.43983 -0.11037,0.16556 -0.27592,0.31272 -0.0736,0.55185 1.54517,1.89467 1.47159,4.78266 -0.29432,6.82449 -2.17059,2.5017 -4.65389,4.67229 -7.39472,6.51177 -2.11541,1.4348 -4.87464,1.21406 -6.84288,-0.42308 -0.20235,-0.16555 -0.33111,-0.16555 -0.55185,-0.0552 -1.4164,0.69901 -2.8328,1.36122 -4.24921,2.06023 -0.12876,0.0736 -0.29432,0.27592 -0.29432,0.40468 0.18395,2.46491 -1.56356,5.09538 -4.54352,5.86796 -2.81441,0.73579 -5.66561,1.28764 -8.572,1.48998 -2.40972,0.18395 -4.37797,-0.66221 -5.62882,-2.81441 -0.23913,-0.42308 -0.38629,-0.91974 -0.57024,-1.37961 -1.45319,-0.16556 -2.94317,-0.31271 -4.41476,-0.47827 -0.20235,-0.0184 -0.38629,-0.092 -0.57024,-0.0736 -0.14716,0.0184 -0.3495,0.092 -0.40469,0.20235 -1.26924,2.28096 -4.15723,3.45822 -6.91646,2.64885 -2.79601,-0.82776 -5.48166,-1.93145 -8.05694,-3.29268 -2.5017,-1.32442 -3.66057,-4.13883 -2.68565,-6.69572 0.0184,-0.0368 0.0184,-0.092 0.0368,-0.16555 -0.68061,-0.53345 -1.39801,-1.04851 -2.07862,-1.60035 -0.66221,-0.53345 -1.32442,-1.10369 -2.00503,-1.67393 -1.0669,0.62542 -2.22578,0.91974 -3.49502,0.80937 -1.54517,-0.14716 -2.8512,-0.79098 -3.84453,-1.96825 -1.91306,-2.22577 -3.5501996,-4.65389 -4.9482076,-7.22917 -1.287639,-2.37294 -0.699004,-5.22414 1.398008,-6.95325 0.20234,-0.16555 0.27592,-0.29432 0.18395,-0.55185 -0.49666,-1.52677 -0.974928,-3.05354 -1.489984,-4.6355 -0.993321,-0.0184 -2.005038,-0.27592 -2.88799,-0.84616 -1.489982,-0.97493 -2.336145,-2.37293 -2.520094,-4.13884 -0.294317,-2.86959 -0.331107,-5.73919 -0.05518,-8.60878 0.275923,-2.77763 2.262566,-4.85624 5.021792,-5.31612 0.147159,-0.0184 0.367897,-0.16555 0.404686,-0.29431 0.459872,-1.58196 0.90134,-3.18231 1.34282,-4.72748 -0.47827,-0.53345 -1.066897,-1.03011 -1.453189,-1.63714 -1.10369,-1.72911 -1.14048,-3.58699 -0.257527,-5.38969 1.342816,-2.77762 2.9983556,-5.3529 4.9482056,-7.74423 1.72912,-2.1338 4.48834,-2.77762 6.99004,-1.74751 0.12877,0.0552 0.33111,0.0552 0.42308,-0.0184 1.28764,-1.14048 2.55689,-2.29935 3.86292,-3.49502 -0.57024,-1.4164 -0.51505,-2.88799 0.14716,-4.34118 0.66221,-1.39801 1.7843,-2.31775 3.10873,-3.0535497 2.22577,-1.25084 4.52513,-2.35454 6.89806,-3.29267 1.83949,-0.7174 3.66058,-0.82777 5.44488,0.16555 0.77258,0.44148 1.43479,1.01172 1.87627,1.8027 0.14716,0.23913 0.27592,0.27592 0.55185,0.22073 1.52677,-0.29431 3.07194,-0.55184 4.59871,-0.82776 0.16555,-0.0368 0.36789,-0.20235 0.40468,-0.34951 0.82777,-2.75922 3.16392,-4.45155 6.10709,-4.39636 2.70404,0.0552 5.3713,0.36789 8.03855,0.79097 2.86959,0.45988 5.27932,2.55689 5.09537,5.95993 0.80937,0.2943197 1.63714,0.5702397 2.44651,0.9013497 0.79098,0.31271 1.58196,0.68061 2.37294,1.03011 0.44147,-0.33111 0.86456,-0.7174 1.34282,-0.97492 2.11541,-1.2140597 4.23081,-1.1036997 6.27264,0.16555 2.39133,1.50838 4.58032,3.31107 6.60375,5.27932 2.06022,2.00504 2.35454,4.76426 0.80937,7.19238 -0.0736,0.12877 -0.0736,0.40469 0.0184,0.53345 0.82777,1.25085 1.69233,2.5017 2.53849,3.75255 0.14716,0.22074 0.27592,0.23913 0.51505,0.20234 2.83281,-0.53345 5.31611,0.79098 6.4382,3.43984 1.08529,2.57528 1.91306,5.20574 2.46491,7.94657 0.57024,2.81441 -0.7174,5.33451 -3.31107,6.51177 -0.25753,0.11037 -0.33111,0.23914 -0.31271,0.51506 0.0368,1.56356 0.0552,3.16391 0.092,4.85624 z m -67.01241,30.51704 c 1.93145,-0.90134 3.77094,-1.08529 5.72079,-0.16555 1.72912,0.82777 3.49502,1.58196 5.31611,2.18898 2.28096,0.75419 3.55021,2.29936 4.02847,4.56193 0.0552,0.29431 0.16555,0.44147 0.49666,0.47826 1.47159,0.14716 2.94318,0.29432 4.39637,0.45987 0.3679,0.0368 0.53345,-0.092 0.699,-0.40468 1.0853,-2.06023 2.74084,-3.27429 5.13216,-3.53181 1.91307,-0.20235 3.82613,-0.57024 5.70241,-1.01172 2.28096,-0.53345 4.21241,-0.0184 5.86795,1.58196 0.29432,0.27592 0.51506,0.31271 0.84616,0.14716 1.23246,-0.58864 2.46491,-1.15888 3.69737,-1.76591 0.699,-0.33111 0.66221,-0.3495 0.60703,-1.12208 -0.12877,-1.87628 0.42308,-3.53182 1.83948,-4.81945 1.58196,-1.4348 3.31107,-2.72244 4.80105,-4.24921 1.76591,-1.7843 3.78934,-2.33615 6.16228,-1.87628 0.25752,0.0552 0.40468,0.0368 0.55184,-0.20234 0.79098,-1.26924 1.60035,-2.52009 2.40973,-3.77094 0.22074,-0.33111 0.16555,-0.53345 -0.0736,-0.82777 -1.41641,-1.7659 -1.82109,-3.67897 -1.01172,-5.86796 0.62543,-1.71072 1.17727,-3.47662 1.54517,-5.27931 0.51505,-2.44652 1.96825,-3.9549 4.21242,-4.80106 0.29431,-0.11037 0.42308,-0.22074 0.40468,-0.53345 -0.0184,-1.4164 -0.0368,-2.81441 -0.0184,-4.23081 0,-0.42308 -0.12877,-0.58864 -0.55185,-0.7358 -2.18899,-0.699 -3.58699,-2.07861 -4.13884,-4.41476 -0.44147,-1.87627 -1.15887,-3.67897 -1.72911,-5.51845 -0.14716,-0.44148 -0.27593,-0.90135 -0.33111,-1.36122 -0.16555,-1.63714 0.40469,-3.07194 1.39801,-4.34118 0.22074,-0.27593 0.23913,-0.45987 0.0368,-0.75419 -0.79098,-1.14048 -1.58196,-2.29936 -2.35454,-3.45823 -0.23914,-0.3495 -0.45988,-0.3679 -0.84617,-0.27592 -2.22577,0.57024 -4.19402,0.22073 -5.95992,-1.39801 -1.32443,-1.23246 -2.74084,-2.39133 -4.24921,-3.40305 -2.02344,-1.37961 -2.79602,-3.23749 -2.59368,-5.59203 0.0184,-0.29432 -0.0368,-0.44148 -0.31271,-0.55185 -1.32443,-0.53345 -2.64885,-1.0669 -3.95489,-1.63714 -0.42308,-0.18394 -0.66221,-0.092 -0.99332,0.23914 -1.50838,1.52677 -3.27428,2.29935 -5.48166,1.98664 -2.06023,-0.27592 -4.12045,-0.44148 -6.18067,-0.68061 -0.58864,-0.0736 -1.19567,-0.11037 -1.76591,-0.31271 -1.48998,-0.49666 -2.53848,-1.54517 -3.27428,-2.90639 -0.14716,-0.25752 -0.29432,-0.3311 -0.57024,-0.29431 -1.4348,0.25752 -2.86959,0.51505 -4.30439,0.75418 -0.42308,0.0736 -0.58864,0.23914 -0.68061,0.69901 -0.44148,2.1338 -1.63714,3.67897 -3.67897,4.58031 -1.82109,0.79098 -3.66057,1.61875 -5.38969,2.59368 -2.1338,1.19566 -4.19402,1.19566 -6.30943,0.092 -0.25753,-0.12876 -0.42308,-0.14716 -0.64382,0.0552 -1.10369,0.99332 -2.22577,1.98664 -3.34786,2.96156 -0.29432,0.25753 -0.31271,0.45988 -0.16555,0.82777 0.82776,2.07862 0.68061,4.02847 -0.68061,5.88635 -1.10369,1.52678 -2.1522,3.09034 -3.03515,4.74587 -1.17727,2.20738 -2.99836,3.29268 -5.40809,3.51342 -0.31271,0.0184 -0.45987,0.11036 -0.55184,0.40468 -0.38629,1.37962 -0.79098,2.74083 -1.21406,4.10205 -0.12876,0.40469 -0.0368,0.60703 0.33111,0.86456 1.71072,1.15888 2.70404,2.74083 2.66725,4.89303 -0.0368,2.09701 -0.0184,4.21242 0.0368,6.32782 0.0184,0.90135 -0.092,1.74751 -0.45987,2.55689 -0.47827,1.0669 -1.19567,1.93146 -2.1338,2.59367 -0.3679,0.25753 -0.44148,0.47827 -0.31272,0.88295 0.42308,1.30604 0.82777,2.59368 1.21406,3.89971 0.11037,0.38629 0.33111,0.49666 0.7358,0.49666 2.29935,0.0736 4.10205,0.97493 5.26092,3.07194 0.68061,1.23245 1.52677,2.37293 2.31775,3.53181 0.45987,0.68061 1.0669,1.28764 1.45319,2.00504 0.86456,1.58195 0.77259,3.25588 0.11037,4.89303 -0.14716,0.3495 -0.092,0.55184 0.18395,0.77258 0.97493,0.77258 1.93146,1.52677 2.8696,2.33614 0.60703,0.47827 1.14048,0.7358 1.65553,0.11037 z m 56.49056,-60.33508 c 0.36789,-1.17727 0.23913,-2.18899 -0.60703,-3.03515 -1.96825,-1.96825 -4.12045,-3.71576 -6.47499,-5.18735 -0.99332,-0.62542 -2.06022,-0.55184 -3.07194,-0.0368 0.3679,0.3679 0.77259,0.66222 1.04851,1.06691 0.31271,0.44147 0.23913,0.95653 0.0184,1.43479 -0.23914,0.49666 -0.62543,0.88296 -1.15888,0.97493 -0.47826,0.092 -0.99332,0.0184 -1.50838,0.0184 0.0368,0.12877 0.0552,0.3679 0.16556,0.53345 0.33111,0.45987 0.62542,0.99333 1.0669,1.28764 1.85788,1.26925 3.62378,2.68565 5.26092,4.24921 0.58864,0.57024 1.32443,0.80937 2.17059,0.79098 -0.60702,-1.15888 -0.51505,-2.00504 0.25753,-2.63046 0.84617,-0.68061 1.63714,-0.53345 2.83281,0.53345 z m -21.66913,65.83514 c -0.7174,-0.44148 -1.47159,-0.57024 -2.24417,-0.3679 -2.31775,0.60703 -4.65389,1.03011 -7.02683,1.23246 -0.84616,0.0736 -1.63714,0.55184 -1.94985,1.12208 1.10369,0.14716 1.74751,0.7174 1.7659,1.65554 0,0.3679 -0.11037,0.77258 -0.29431,1.10369 -0.42309,0.7174 -1.19567,0.77258 -2.04183,0.79098 0.75419,1.15887 1.74751,1.60035 2.97996,1.48998 2.75923,-0.23913 5.46327,-0.7174 8.13052,-1.45319 0.79098,-0.22074 1.39801,-0.69901 1.8027,-1.37962 0.18395,-0.29431 0.27592,-0.62542 0.44147,-1.01171 -1.52677,0.42308 -2.39132,0.16555 -2.75922,-0.75419 -0.38629,-0.95653 0.0552,-1.83948 1.19566,-2.42812 z m 10.3379,-4.985 c 1.23246,-0.51506 2.11541,-0.31271 2.64886,0.57024 0.49666,0.80937 0.22074,1.52677 -0.99332,2.57528 0.77258,0.53345 2.1522,0.51505 3.05354,-0.14716 2.33615,-1.69233 4.52514,-3.587 6.45659,-5.73919 0.77259,-0.84617 0.93814,-2.13381 0.47827,-2.97997 -1.15888,1.10369 -1.87627,1.30603 -2.68565,0.77258 -0.44147,-0.29431 -0.77258,-0.71739 -0.77258,-1.23245 0,-0.47827 0.16555,-0.95653 0.25753,-1.4164 -0.80938,0.0368 -1.48999,0.3495 -2.09702,0.97493 -1.56356,1.65553 -3.25588,3.14551 -5.09537,4.50673 -0.68061,0.51506 -1.12208,1.19567 -1.25085,2.11541 z m 17.58547,-51.67112 c 0.51506,1.54517 0.42309,2.1522 -0.40468,2.68565 -0.45987,0.29432 -0.97493,0.45987 -1.48998,0.25753 -0.45988,-0.16555 -0.84617,-0.49666 -1.28764,-0.77258 -0.29432,0.66221 -0.33111,1.398 -0.0368,2.1338 0.27592,0.7174 0.58863,1.4164 0.80937,2.1338 0.44147,1.4348 0.82777,2.90638 1.21406,4.35958 0.22074,0.79098 0.66221,1.37961 1.39801,1.80269 -0.0552,-1.14048 0.53345,-1.94985 1.54516,-2.09701 0.3679,-0.0552 0.79098,0.0184 1.12209,0.16555 0.73579,0.31272 0.88295,1.01172 0.95653,1.7843 0.99332,-0.84616 1.4348,-1.82109 1.21406,-2.99836 -0.51506,-2.63046 -1.32443,-5.18734 -2.37294,-7.67065 -0.45987,-1.10368 -1.37961,-1.69232 -2.66725,-1.7843 z m -60.94211,53.19789 c 0.90135,0.90135 1.0853,1.67393 0.55184,2.46491 -0.79097,1.17727 -1.83948,1.0669 -2.94317,0.33111 -0.0368,1.21406 0.38629,2.15219 1.37961,2.68564 2.5201,1.37962 5.15056,2.46491 7.92818,3.2191 1.10369,0.29432 2.09701,-0.0552 2.88799,-0.82777 -0.45987,-0.23913 -0.93814,-0.42308 -1.30603,-0.7174 -0.42309,-0.3311 -0.51506,-0.84616 -0.42309,-1.37961 0.092,-0.53345 0.34951,-1.01172 0.84617,-1.23245 0.44147,-0.20235 0.95653,-0.27593 1.4348,-0.40469 -0.33111,-0.62542 -0.84617,-1.14048 -1.60035,-1.37961 -2.26257,-0.69901 -4.43316,-1.60035 -6.53017,-2.66726 -0.69901,-0.3495 -1.4532,-0.3311 -2.22578,-0.092 z m -9.01347,-58.1277 c -1.0853,0.80937 -2.04183,0.86456 -2.72244,0.16555 -0.23913,-0.25753 -0.42308,-0.62542 -0.49666,-0.97493 -0.16555,-0.71739 0.29432,-1.25085 0.79098,-1.7843 -1.36122,-0.18394 -2.42812,0.18395 -3.16392,1.23246 -1.17726,1.65554 -2.28096,3.34786 -3.38465,5.04018 -0.38629,0.58864 -0.699,1.23246 -1.0301096,1.87628 -0.53345,1.0853 -0.36789,2.39133 0.3678996,3.03515 0.80937,-1.34283 1.4348,-1.72912 2.40972,-1.4348 0.49666,0.14716 0.91975,0.44148 1.04851,0.93814 0.12876,0.45987 0.12876,0.95653 0.18395,1.4348 0.699,-0.23914 1.30603,-0.69901 1.69232,-1.41641 1.0853,-2.07862 2.33615,-4.04686 3.77095,-5.90474 0.47826,-0.62543 0.64382,-1.36122 0.53345,-2.20738 z m 70.21311,28.62237 c -0.68061,0.45987 -1.14048,1.03011 -1.30603,1.76591 -0.47827,2.33614 -1.14048,4.6355 -2.00504,6.86127 -0.29432,0.75419 -0.18395,1.58196 0.18395,2.11541 0.7174,-0.97493 1.60035,-1.32443 2.4833,-0.88295 0.33111,0.16555 0.62543,0.47826 0.80938,0.79098 0.38629,0.64382 0.092,1.26924 -0.25753,1.94985 1.32443,-0.18395 2.20738,-0.80937 2.68564,-1.94985 0.31272,-0.7358 0.60703,-1.47159 0.82777,-2.24417 0.51506,-1.82109 1.01172,-3.66058 1.45319,-5.50006 0.29432,-1.23246 -0.22073,-2.37294 -1.10369,-2.90639 -0.22073,0.47827 -0.38629,1.01172 -0.68061,1.4348 -0.3495,0.47826 -0.90134,0.60703 -1.48998,0.53345 -0.97493,-0.0736 -1.50838,-0.7174 -1.60035,-1.96825 z m -51.28482,-41.20444 c -1.23245,0.14715 -2.00504,-0.20235 -2.28096,-1.1037 -0.11037,-0.3311 -0.092,-0.75418 0,-1.08529 0.20234,-0.8093697 0.91974,-1.0852997 1.72911,-1.3244297 -0.90134,-0.77258 -1.85787,-1.01172 -2.88799,-0.7174 -0.80937,0.23913 -1.60035,0.53345 -2.35454,0.90135 -1.87627,0.9197397 -3.73415,1.8762697 -5.57363,2.8695897 -1.0669,0.58864 -1.60035,2.06023 -1.32443,2.74084 1.52677,-0.7174 2.20738,-0.7174 2.77762,0.0736 0.22074,0.29432 0.3495,0.69901 0.38629,1.06691 0.0736,0.64382 -0.29432,1.12208 -0.82777,1.54516 0.80938,0.20235 1.54517,0.16556 2.18899,-0.22074 2.11541,-1.25084 4.34118,-2.29935 6.62214,-3.2007 0.69901,-0.25753 1.19567,-0.79098 1.54517,-1.54516 z M 7.0802744,45.058643 c -1.122086,0.51505 -1.839484,1.28763 -1.968248,2.4649 -0.312712,2.77763 -0.275923,5.57364 0.05518,8.35126 0.147159,1.14048 0.864558,1.87628 1.894669,2.24417 0.07358,-0.53345 0.07358,-1.08529 0.220738,-1.56356 0.183949,-0.53345 0.662214,-0.90134 1.214059,-0.91974 0.45988,-0.0184 0.99333,0.0184 1.37962,0.25753 0.3678896,0.22073 0.6070296,0.699 0.9013496,1.08529 0.44147,-0.57024 0.71739,-1.25085 0.66221,-2.06022 -0.20234,-2.29935 -0.23913,-4.59871 -0.0552,-6.89806 0.0736,-0.79098 -0.18394,-1.47159 -0.77258,-2.06023 -0.49666,1.23246 -1.3060296,1.76591 -2.3361466,1.54517 -0.938137,-0.22074 -1.306034,-0.90135 -1.195665,-2.44651 z m 13.1155176,31.63912 c 0.16556,-0.7174 -0.0184,-1.50837 -0.53345,-2.1338 -1.45319,-1.7659 -2.72243,-3.64217 -3.82612,-5.62882 -0.40469,-0.7174 -1.01172,-1.14048 -1.83949,-1.34282 0.27593,1.21406 0,1.98664 -0.91974,2.40972 -0.33111,0.14716 -0.75419,0.20235 -1.12208,0.16556 -0.79098,-0.092 -1.17727,-0.68061 -1.4532,-1.41641 -0.7725796,0.99332 -0.8645596,2.28096 -0.27592,3.27428 0.55185,0.91975 1.0669,1.85788 1.67393,2.74084 0.90135,1.30603 1.85788,2.57527 2.83281,3.82612 0.73579,0.93814 2.1154,1.26925 3.01675,0.88296 -0.90135,-1.25085 -0.97493,-1.93146 -0.29432,-2.64886 0.69901,-0.77258 1.61875,-0.80938 2.74083,-0.12877 z M 49.590752,7.4779733 c 1.56356,0.0184 2.22578,0.44148 2.35454,1.45319 0.12877,1.03012 -0.47826,1.7291197 -1.80269,2.0970197 0.55184,0.60703 1.21406,0.93813 2.00504,0.95653 2.37293,0.0552 4.72747,0.29432 7.06361,0.73579 0.77259,0.14716 1.52678,-0.0184 2.20739,-0.51505 -0.0736,-0.0552 -0.092,-0.0736 -0.11037,-0.092 -0.97493,-0.42308 -1.39801,-1.26924 -1.0853,-2.1889797 0.29432,-0.91975 1.19567,-1.37962 2.22578,-1.14048 0.14716,0.0368 0.29432,0.0736 0.49666,0.11037 -0.3495,-1.23246 -1.0853,-1.96825 -2.24417,-2.22578 -2.72244,-0.57024 -5.48166,-0.84616 -8.25929,-0.86456 -1.26924,-0.0184 -2.18898,0.55185 -2.8512,1.67393 z"
       id="path4"
       style="stroke-width:0.183948" />
    <path
       d="m 67.990158,60.17235 c 0.51506,2.92478 1.48998,5.77598 2.29935,8.84792 -4.74587,3.95489 -13.48342,12.45331 -13.48342,12.45331 v -0.7358 c 0,-7.87299 3.38465,-15.74598 3.42145,-23.61898 0,-0.47826 0.49665,-1.10369 0.90134,-1.4164 0.66222,-0.51505 1.23246,-1.21406 1.71072,-1.94985 1.04851,-1.60035 1.71072,-3.43984 2.00504,-5.33451 l 0.62543,-3.99168 c 0,0 -7.81781,4.24921 -11.55197,6.36462 -0.3311,0.18395 -0.55184,0.86455 -0.57023,1.30603 l -0.82777,7.8546 -2.48331,3.32947 -2.5017,-3.32947 -0.82776,-7.8546 c -0.0184,-0.45987 -0.22074,-1.12208 -0.57024,-1.30603 -3.75255,-2.11541 -11.55197,-6.36462 -11.55197,-6.36462 l 0.62543,3.99168 c 0.29432,1.89467 0.95653,3.73416 2.00504,5.33451 0.47826,0.7174 1.0485,1.4348 1.71072,1.94985 0.40468,0.33111 0.90134,0.93814 0.90134,1.4164 0.0552,7.873 3.43984,15.74599 3.42145,23.61898 v 0.7358 c 0,0 -8.71916,-8.49842 -13.48342,-12.45331 0.80937,-3.07194 1.78429,-5.92314 2.29935,-8.84792 0.90135,-5.07698 0.18395,-10.11717 -1.63714,-14.88143 -1.03011,-2.70404 -1.04851,-5.27932 -0.3679,-7.94657 1.87628,-7.39473 5.7208,-13.40984 12.65566,-16.94165 2.4649,-1.25085 4.89302,-1.85788 7.28435,-1.87628 2.39133,0 4.81945,0.60703 7.28436,1.87628 6.93486,3.53181 10.77938,9.54692 12.65565,16.94165 0.68061,2.68564 0.66222,5.24253 -0.36789,7.94657 -1.76591,4.76426 -2.5017,9.80445 -1.58196,14.88143 z"
       id="path10"
       style="stroke-width:0.183948" />
  </g>
</svg>
