<?xml version="1.0" encoding="UTF-8" standalone="no"?>
<!-- Created with Inkscape (http://www.inkscape.org/) -->

<svg
   width="100mm"
   height="100mm"
   viewBox="0 0 100 100"
   version="1.1"
   id="svg1382"
   inkscape:version="1.1.1 (3bf5ae0d25, 2021-09-20)"
   sodipodi:docname="C_Crescent_Sun.svg"
   xmlns:inkscape="http://www.inkscape.org/namespaces/inkscape"
   xmlns:sodipodi="http://sodipodi.sourceforge.net/DTD/sodipodi-0.dtd"
   xmlns="http://www.w3.org/2000/svg"
   xmlns:svg="http://www.w3.org/2000/svg">
  <sodipodi:namedview
     id="namedview1384"
     pagecolor="#ffffff"
     bordercolor="#666666"
     borderopacity="1.0"
     inkscape:pageshadow="2"
     inkscape:pageopacity="0.0"
     inkscape:pagecheckerboard="0"
     inkscape:document-units="mm"
     showgrid="false"
     inkscape:zoom="0.73762626"
     inkscape:cx="397.22013"
     inkscape:cy="439.24683"
     inkscape:window-width="1920"
     inkscape:window-height="1029"
     inkscape:window-x="0"
     inkscape:window-y="0"
     inkscape:window-maximized="1"
     inkscape:current-layer="layer1" />
  <defs
     id="defs1379" />
  <g
     inkscape:label="Layer 1"
     inkscape:groupmode="layer"
     id="layer1">
    <g
       id="g1467"
       transform="translate(-101.01087,-41.826085)">
      <g
         id="g836"
         transform="matrix(0.18871836,0,0,0.18871836,94.395362,35.652363)">
        <path
           class="st0"
           d="M 525.8,316.1 C 525.8,440.8 424.8,542 300.1,542 175.4,542 74.2,441 74.2,316.3 c 0,-14.9 1.4,-29.6 4.2,-43.7 44.3,76.4 127,127.7 221.6,127.7 94.6,0 177.3,-51.5 221.5,-127.8 2.9,14.1 4.3,28.7 4.3,43.6 z"
           id="path834" />
      </g>
      <path
         class="st0"
         d="m 190.1888,79.416151 v 0 c -0.0566,0.07549 -0.15097,0.226462 -0.32082,0.339693 -0.0755,0.05662 -0.15097,0.09436 -0.22646,0.132103 -0.16985,0.07549 -0.35857,0.150974 -0.54728,0.245333 -0.81149,0.396309 -1.83057,0.868105 -3.07611,0.566156 -0.54729,-0.132103 -1.09457,-0.264206 -1.60411,-0.358565 -0.11323,-0.01887 -0.24533,0 -0.6039,0.188718 -0.30195,0.169847 -0.6039,0.169847 -0.79262,0.188718 -0.0377,0 -0.0566,0 -0.0944,0 -0.1321,0.01887 -0.22646,0 -0.32082,0 h -0.0755 c -0.64165,0.245334 -1.32103,0.528412 -2.13252,0.868105 -0.28308,0.132103 -0.56616,0.264206 -0.86811,0.396308 -0.30195,0.150975 -0.62277,0.30195 -0.94359,0.434053 -0.24533,0.113231 -0.49067,0.150974 -0.67938,0.188718 -0.0566,0.01887 -0.11323,0.01887 -0.16985,0.03774 -0.16985,0.03774 -0.32082,0.05661 -0.4718,0.07549 -0.0944,0.01887 -0.24533,0.03774 -0.30195,0.05661 -0.0189,0.01887 -0.0377,0.03774 -0.0566,0.03774 -0.58503,0.434052 -1.24554,0.679386 -1.8117,0.886976 -0.28307,0.113231 -0.54728,0.207591 -0.79261,0.320822 l -0.3397,0.169846 c -0.35856,0.169847 -0.75487,0.358565 -1.13231,0.528412 -0.33969,0.150974 -0.67938,0.113231 -0.83036,0.09436 -0.45292,-0.05662 -0.75487,0 -1.01908,0.169846 -0.33969,0.226462 -0.71713,0.434053 -1.18892,0.490668 -0.43406,0.03774 -0.88698,0.188718 -1.3399,0.490668 0.15097,0.792617 0.22646,1.604106 0.2642,2.415595 0.0189,0.377437 0.0189,0.773745 0.0189,1.170054 0.20759,0.01887 0.41518,0.03774 0.66052,0.05662 0.11323,0 0.22646,0.01887 0.32082,0.01887 0.4718,0.03774 0.96246,0 1.49087,-0.03774 0.28308,-0.01887 0.56616,-0.03774 0.84924,-0.05662 0.24533,0 0.47179,0 0.66051,0.01887 l 0.16985,0.01887 c 0.41518,0.01887 0.81149,0.05662 1.22667,0.07549 h 0.0566 c 0.13211,0 0.32082,0.01887 0.52841,0.07549 1.2078,0.396309 2.50996,0.434052 3.6234,0.415181 0.2642,0 0.52841,0 0.77374,0.01887 0.11323,0 0.22646,0 0.3397,0.01887 l 0.50953,0.01887 c 0.41518,0.01887 0.84924,0.01887 1.26442,0.03774 0.8681,0.01887 1.6041,0.41518 2.13252,1.151182 l 0.1321,0.188718 c 0.0566,0.07549 0.11323,0.150975 0.16984,0.226462 -1.49087,1.679594 -3.11385,3.227084 -4.83119,4.661344 -0.24533,-0.07549 -0.49066,-0.150975 -0.736,-0.264206 -0.33969,-0.150975 -0.64164,-0.320821 -0.94359,-0.471796 -0.24533,-0.132103 -0.49067,-0.264206 -0.71713,-0.377437 -0.37744,-0.169846 -0.8681,-0.264205 -1.35877,-0.358565 -0.26421,-0.05662 -0.54728,-0.09436 -0.83036,-0.169846 l -0.0755,-0.01887 c -0.28308,-0.07549 -0.64164,-0.150975 -0.96246,-0.358565 v 0 c 0,0 -0.0189,0 -0.0378,0.01887 -0.49066,0.188718 -1.26441,0.396309 -2.13251,-0.03774 -0.0755,-0.03774 -0.32083,-0.03774 -0.4718,-0.05661 h -0.0377 c -0.75488,-0.03774 -1.54749,-0.05662 -2.45334,-0.09436 -0.22646,0.792617 -0.49067,1.585234 -0.81149,2.321235 -0.0755,0.188719 -0.16985,0.377437 -0.24533,0.566156 1.32102,0.547283 2.6798,1.113438 4.00082,1.641849 0.20759,0.07549 0.45293,0.150975 0.71713,0.20759 0.18872,0.03774 0.37744,0.09436 0.58503,0.150975 0.52841,0.150975 1.13231,0.377437 1.69847,0.754874 -1.88719,1.170051 -3.86873,2.208001 -5.92576,3.076101 -0.0566,-0.0377 -0.1321,-0.0566 -0.18872,-0.0944 -0.28308,-0.16984 -0.58503,-0.32082 -0.8681,-0.49066 -0.66052,-0.37744 -1.35878,-0.77375 -2.03816,-1.11344 -0.18872,-0.0944 -0.37744,-0.18872 -0.56616,-0.28308 -0.3963,0.43405 -0.83036,0.83036 -1.28328,1.2078 -0.0377,0.0377 -0.0755,0.0566 -0.11323,0.0944 -0.0566,-0.0377 -0.11323,-0.0755 -0.16985,-0.13211 -0.79262,-0.54728 -0.96246,-1.32102 -0.83036,-2.207996 0,-0.03774 0,-0.05661 0.0189,-0.09436 0.0755,-0.585027 0.13211,-1.170054 0.49067,-1.679593 0.0944,-0.150975 0.16985,-0.339694 0.16985,-0.528412 0.0377,-0.773745 0.41518,-1.415388 0.71713,-2.113646 0,-0.01887 0.0189,-0.05661 0.0377,-0.07549 0.16985,-0.452924 0.18872,-0.962464 0.30195,-1.434259 0.0566,-0.188719 0.11323,-0.377437 0.18872,-0.547284 0.0755,-0.188718 0.15097,-0.377436 0.18872,-0.566155 0.0755,-0.283077 0.15097,-0.566155 0.15097,-0.849232 0.0189,-0.962464 -0.0566,-1.943799 0.0377,-2.906263 0.0566,-0.698258 -0.0377,-1.3399 -0.2642,-2.000415 -0.0566,-0.169846 -0.1321,-0.358565 -0.1321,-0.528411 -0.0189,-1.622978 -0.75488,-2.906263 -1.84944,-4.057445 -0.41518,-0.434052 -0.66052,-1.000207 -1.00021,-1.490875 -0.0944,-0.132103 -0.22646,-0.264206 -0.33969,-0.377437 -0.92472,-0.83036 -1.8117,-1.698465 -2.79304,-2.47221 -0.45292,-0.358565 -1.07569,-0.50954 -1.62297,-0.754874 -0.15098,-0.05662 -0.30195,-0.09436 -0.41518,-0.188718 -0.67939,-0.566155 -1.45314,-0.773745 -2.32124,-0.698258 -0.0755,0 -0.16985,0.01887 -0.24533,-0.01887 -1.17006,-0.509539 -2.39673,-0.339693 -3.56678,-0.169846 -1.64185,0.226462 -3.2837,0.585027 -4.86893,1.094566 -1.9438,0.641643 -3.71776,1.660722 -5.13314,3.208212 -0.64165,0.698258 -1.35878,1.358773 -1.83057,2.170262 -0.4718,0.792617 -0.67939,1.736208 -0.98134,2.642057 -0.0566,0.169846 0.0566,0.377436 0.0566,0.585026 0,0.264206 0.0377,0.585027 -0.0755,0.792618 -0.39631,0.62277 -0.43405,1.283284 -0.41518,1.962671 0.0189,0.245333 0.0377,0.490667 0.0566,0.736001 -0.0189,0.132103 -0.0377,0.245334 -0.0566,0.377437 -0.0944,0.660514 -0.18872,1.283285 -0.15097,1.84944 0.0377,0.566155 0.24533,1.151182 0.45292,1.773952 0.0566,0.169847 0.11323,0.339693 0.16985,0.50954 0.0755,0.07549 0.18871,0.169846 0.28307,0.320821 0.0189,0.03774 0.0566,0.07549 0.0944,0.113231 0.16985,0.226462 0.43405,0.585027 0.45293,1.056823 0.0189,0.377437 0.18871,0.754873 0.56615,1.245541 0.37744,0.490668 0.83036,1.000207 1.39652,1.547491 0.0566,0.05661 0.15097,0.09436 0.18872,0.113231 0.24533,0.03774 0.49066,0.09436 0.71713,0.188718 0.1321,0.169847 0.24533,0.339693 0.35856,0.50954 0.32082,0.471796 0.77375,0.736001 1.2078,1.056821 0.69826,0.50954 1.472,0.77374 2.24575,0.94359 0.84923,0.28308 1.83056,0.6039 2.83077,0.98134 0.26421,0.0944 0.54729,0.0944 0.92472,0.0944 0.0944,0 0.20759,0 0.30195,0 0.66052,0.0189 1.28329,-0.16985 1.88718,-0.41518 0.54729,-0.0566 1.11344,-0.0566 1.62298,-0.28308 0.81149,-0.3397 1.69847,-0.66052 2.15139,-1.50975 0.0755,-0.0377 0.1321,-0.0566 0.20759,-0.09436 l 0.18872,-0.07549 c 0.28308,-0.358565 0.62277,-0.641643 0.90585,-0.886977 0.28308,-0.245334 0.56615,-0.471796 0.69826,-0.698258 l 0.11323,-0.169846 c 0.39631,-0.641643 0.66051,-1.094567 0.62277,-1.566363 0.11323,-0.264205 0.16984,-0.566155 0.18872,-0.905848 0,-0.585027 0.16984,-1.170054 0.30195,-1.75508 0.22646,-1.132311 0.24533,-2.283493 0.0566,-3.415803 -0.0944,-0.509539 -0.45292,-0.962463 -0.66051,-1.453131 -0.0944,-0.226462 -0.0755,-0.50954 -0.15098,-0.736002 -0.0755,-0.226462 -0.1321,-0.509539 -0.28307,-0.679386 -0.52842,-0.547283 -1.05683,-1.151182 -1.69847,-1.54749 -0.94359,-0.566155 -1.84944,-1.22667 -3.07611,-1.132311 -0.84923,0.05662 -1.71734,-0.07549 -2.56657,0.01887 -0.736,0.07549 -1.45313,0.320822 -2.17026,0.528412 -0.16985,0.03774 -0.35857,0.150974 -0.4718,0.283077 -0.84923,1.019079 -1.49087,2.094774 -1.41538,3.415803 -0.0944,0.132102 -0.20759,0.245333 -0.30195,0.377436 -0.11323,1.547491 0.15097,2.434467 0.94359,3.170469 0.41518,0.396308 0.92472,0.736001 1.58523,1.094566 0.0944,0.05662 0.22646,0.07549 0.30195,0.07549 0.71713,-0.07549 1.30216,-0.245334 1.77395,-0.50954 0.50954,-0.03774 1.01908,-0.169847 1.5475,-0.41518 0.16984,-0.09436 0.35856,-0.264206 0.41518,-0.434053 0.22646,-0.603898 0,-1.264413 -0.56616,-1.566362 -0.41518,-0.226462 -0.88698,-0.434052 -1.35877,-0.528411 -0.736,-0.150975 -1.13231,-0.92472 -0.69826,-1.547491 0.41518,-0.603899 1.03795,-0.962464 1.71734,-1.170054 0.47179,-0.132103 0.92472,-0.07549 1.32103,0.245334 0.56615,0.452924 1.15118,0.886976 1.67959,1.358772 1.07569,0.962464 1.17005,2.189133 0.92472,3.510162 -0.0566,0.320821 -0.11323,0.641642 -0.1321,0.962463 -0.0378,1.000208 -0.58503,1.64185 -1.54749,1.887184 -0.66052,0.150975 -1.30216,0.377437 -1.92493,0.622771 -1.00021,0.41518 -2.00042,0.245333 -3.00062,0 -0.4718,-0.113231 -0.96247,-0.264206 -1.45313,-0.320822 -1.26442,-0.09436 -2.11365,-0.868104 -2.86852,-1.773952 -0.22647,-0.283078 -0.56616,-0.490668 -0.75488,-0.792617 -0.28307,-0.452924 -0.50954,-0.962464 -0.736,-1.453132 -0.32082,-0.717129 -0.45292,-1.472003 -0.32082,-2.26462 0.0566,-0.339693 -0.0755,-0.71713 -0.15097,-1.075695 -0.18872,-0.905848 -0.0755,-1.717337 0.52841,-2.47221 0.20759,-0.245334 0.22646,-0.679386 0.24533,-1.037951 0.0189,-0.283078 0.0566,-0.50954 0.30195,-0.698258 0.8681,-0.698258 1.71734,-1.43426 2.60431,-2.094774 0.18872,-0.132103 0.37744,-0.264206 0.58503,-0.377437 0.24533,-0.09436 0.50954,-0.188718 0.75487,-0.301949 0.16985,-0.07549 0.3397,-0.132103 0.50954,-0.20759 0.30195,-0.05662 0.62277,-0.07549 0.92472,-0.132103 0.52841,-0.07549 1.0757,-0.09436 1.60411,-0.20759 0.94359,-0.169847 1.79282,0.169846 2.66093,0.377436 0.45292,0.113231 0.90585,0.226463 1.35877,0.320822 0.0377,0.01887 0.0755,0.03774 0.1321,0.05662 0.30195,0.150975 0.58503,0.283078 0.86811,0.377437 1.41539,0.490668 2.35898,1.509747 3.20821,2.396723 0.0755,0.07549 0.15097,0.150975 0.20759,0.226462 0.39631,0.566155 0.66051,1.207798 1.05682,1.773953 0.94359,1.3399 0.98134,2.925134 1.24554,4.434881 0.11324,0.660514 0.22647,1.339901 0.26421,2.019287 0.0189,0.528411 -0.0189,1.075694 -0.0944,1.604106 -0.18872,1.207797 -0.39631,2.415595 -0.62277,3.623392 -0.18872,0.981336 -0.71713,1.830568 -1.28328,2.660928 -0.11324,0.16985 -0.20759,0.33969 -0.3397,0.49067 -0.22646,0.32082 -0.15097,0.58503 0.0566,0.92472 0.41518,0.64164 0.77374,1.32103 1.15118,1.98154 -0.8681,0.35857 -1.75508,0.62277 -2.6798,0.83036 -0.75487,0.16985 -1.54749,0.30195 -2.34011,0.39631 -0.20759,0.0189 -0.81149,0.0944 -1.64185,0.16985 -0.90585,0.0755 -2.11364,0.16984 -3.43467,0.22646 -0.24534,0.0189 -0.50954,0.0189 -0.75488,0.0189 -1.52861,0.0377 -3.13272,0 -4.54811,-0.18872 0,0 -0.0189,0 -0.0189,0 -0.49067,-0.0755 -1.00021,-0.16984 -1.49088,-0.28307 -3.35918,-0.67939 -6.58627,-1.73621 -9.66238,-3.17047 0.39631,-0.35857 0.79262,-0.71713 1.18893,-1.05683 l 0.28308,-0.24533 c -0.0378,-0.0377 -0.0566,-0.0566 -0.0944,-0.0755 -0.52841,-0.45292 -0.88698,-0.96246 -1.0757,-1.566359 -0.66051,0.169846 -1.30215,0.490667 -1.96267,0.830359 -0.30195,0.15098 -0.62277,0.30195 -0.94359,0.45293 -0.1321,0.0566 -0.2642,0.11323 -0.39631,0.16984 -1.73621,-0.962462 -3.39693,-2.057028 -4.98216,-3.245954 0.41518,-0.188718 0.84923,-0.377437 1.26441,-0.547283 0.33969,-0.132103 0.64164,-0.264206 0.96246,-0.415181 0.0566,-0.01887 0.11324,-0.05662 0.18872,-0.09436 0.20759,-0.113231 0.4718,-0.264205 0.83036,-0.320821 0.83036,-0.132103 1.39652,-0.283077 1.84944,-0.622771 0.0566,-0.03774 0.0944,-0.07549 0.15098,-0.113231 0.0377,-0.03774 0.0755,-0.05661 0.11323,-0.09436 0.18872,-0.132103 0.37744,-0.20759 0.50954,-0.264205 l 0.0566,-0.01887 c 0.0944,-0.03774 0.18872,-0.07549 0.26421,-0.113231 0,-0.07549 0,-0.169847 0,-0.245334 0,-0.01887 -0.0189,-0.113231 -0.0377,-0.169847 -0.0189,-0.05662 -0.0377,-0.132103 -0.0566,-0.188718 -0.0566,-0.20759 -0.0944,-0.41518 -0.15097,-0.603899 -0.11323,-0.490668 -0.22647,-0.962463 -0.37744,-1.396516 -0.0189,-0.07549 -0.1321,-0.20759 -0.22646,-0.339693 -0.49067,0 -0.94359,0.01887 -1.39652,0.01887 -0.0944,0 -0.18872,0.01887 -0.30195,0.01887 -0.1321,0.01887 -0.28308,0.01887 -0.45292,0.01887 -0.92472,0.01887 -1.83057,0.01887 -2.75529,0.03774 h -0.28308 c -0.11323,0 -0.20759,0 -0.32082,0 -0.30195,0.01887 -0.64164,0.01887 -0.98133,-0.01887 -1.35878,-0.169847 -2.98175,-0.358565 -4.6236,-0.622771 -0.22647,-0.03774 -0.32083,0 -0.45293,0.09436 -0.0566,0.03774 -0.11323,0.07549 -0.16984,0.113231 -1.37765,-1.54749 -2.66093,-3.227084 -3.83099,-4.982164 0.13211,-0.150975 0.30195,-0.30195 0.4718,-0.434053 0.37744,-0.283077 0.84923,-0.490667 1.35877,-0.603898 1.00021,-0.245334 2.03816,0.150974 2.66093,0.981335 0.11323,0.150975 0.24533,0.245334 0.6039,0.301949 0.0944,0.01887 0.18872,0.01887 0.28308,0.03774 0.60389,0.05662 1.28328,0.132103 1.9438,0.452924 0.32082,0.150975 0.71712,0.245334 1.07569,0.245334 0.45292,0 0.92472,-0.03774 1.41539,-0.09436 0.24533,-0.01887 0.49067,-0.05662 0.736,-0.07549 0.30195,-0.01887 0.58503,0.03774 0.81149,0.169846 0.32082,0.188718 0.62277,0.150975 1.32103,-0.03774 0.22646,-0.05661 0.47179,-0.113231 0.736,-0.169846 0.11323,-0.01887 0.22646,-0.03774 0.32082,-0.05662 0.41518,-0.07549 0.8681,-0.169846 1.37764,-0.132103 0.26421,0.01887 0.50954,0.03774 0.75488,0.05662 0.0944,0 0.18872,0.01887 0.30195,0.01887 0.0755,-0.169847 0.18871,-0.30195 0.33969,-0.396309 l 0.0377,-0.01887 c 0,0 0.0566,-0.03774 0.0755,-0.05662 0.0755,-0.05662 0.15098,-0.150975 0.1321,-0.585027 -0.33969,-0.150975 -0.69825,-0.301949 -1.05682,-0.434052 -0.22646,-0.09436 -0.45292,-0.188719 -0.67939,-0.283078 l -0.0944,-0.03774 c -0.24534,-0.09436 -0.54729,-0.226462 -0.83037,-0.452924 -0.3963,-0.339694 -0.79261,-0.528412 -1.22666,-0.603899 -0.39631,-0.05662 -0.84924,-0.150975 -1.26442,-0.415181 -1.00021,-0.660514 -1.98154,-1.3399 -3.00062,-2.05703 -0.26421,-0.188718 -0.49067,-0.377436 -0.736,-0.566155 -0.37744,-0.301949 -0.736,-0.603899 -1.09457,-0.773745 -1.67959,-0.773745 -3.43467,-1.509747 -5.11427,-2.226877 -0.64164,-0.283077 -1.28328,-0.547283 -1.92492,-0.830361 -0.64165,-0.264205 -1.05683,-0.358564 -1.45313,-0.301949 -0.56616,0.07549 -0.90585,-0.132103 -1.09457,-0.320821 -0.26421,-0.283078 -0.56616,-0.622771 -0.84923,-0.981336 -0.75488,-1.000207 -0.50954,-2.038158 -0.32082,-2.811903 l 0.0189,-0.113231 c 0.0944,-0.377437 0.28307,-0.943592 0.81149,-1.321029 0.28307,-0.20759 0.62277,-0.339693 1.07569,-0.41518 0.16985,-0.03774 0.37744,-0.07549 0.54728,-0.132103 1.28329,-0.471796 2.39673,-0.150975 3.22709,0.92472 0.0566,0.07549 0.0944,0.113231 0.1321,0.150975 0.49067,0.396308 0.71713,0.92472 0.67939,1.490875 0.39631,0.169846 0.77374,0.339693 1.13231,0.509539 0.18872,0.09436 0.39631,0.188719 0.58502,0.264206 0.52842,0.245334 1.05683,0.490668 1.58524,0.71713 1.22667,0.566155 2.49108,1.13231 3.73662,1.717337 0.35857,0.169846 0.736,0.396308 1.15118,0.698258 0.16985,0.113231 0.32083,0.245334 0.45293,0.358565 0.35856,0.301949 0.58502,0.471796 0.84923,0.490667 0.39631,0.01887 0.79262,0.226462 1.05682,0.547284 0.0566,0.07549 0.18872,0.113231 0.49067,0.169846 l 0.1321,0.03774 c 0.0944,0.01887 0.16985,0.03774 0.26421,0.05662 0.4718,0.09436 1.00021,0.226462 1.45313,0.566155 0.79262,0.585027 1.64185,1.170054 2.60431,1.453132 0.26421,-0.698258 0.58503,-1.358772 0.92472,-2.000415 0.0755,-0.150974 0.16985,-0.301949 0.26421,-0.434052 0.0189,-0.03774 0.0377,-0.05662 0.0566,-0.09436 -0.56616,-0.679386 -1.2078,-1.302157 -1.88719,-1.868312 -0.2642,-0.20759 -0.52841,-0.41518 -0.83036,-0.622771 -0.43405,-0.320821 -0.88698,-0.641642 -1.32103,-1.037951 -0.79261,-0.754873 -1.58523,-1.54749 -2.3401,-2.321235 -0.4718,-0.490668 -0.98134,-1.000208 -1.47201,-1.490875 -0.0755,-0.07549 -0.15097,-0.150975 -0.22646,-0.226462 -0.0755,-0.09436 -0.20759,-0.226462 -0.26421,-0.264206 -0.60389,0 -1.22667,-0.30195 -1.71733,-0.830361 -0.49067,-0.528411 -0.736,-1.170054 -0.69826,-1.755081 v -0.11327 c 0.0755,-1.056823 0.18872,-2.358979 1.35877,-3.321443 l 0.0755,-0.05661 c 0.0944,-0.07549 0.18872,-0.169847 0.28308,-0.226462 0.15097,-0.113231 0.58502,-0.434053 1.22667,-0.377437 0.52841,0.03774 1.07569,0.09436 1.62297,0.283077 0.6039,0.207591 1.01908,0.830361 1.11344,1.321029 0.0755,0.377437 0.0755,0.736002 0.0944,1.056823 0,0.188718 0,0.377436 0.0189,0.528411 0.0189,0.113231 0.0189,0.169847 0.0378,0.20759 l 0.20759,0.245334 c 0.49066,0.585027 0.94359,1.13231 1.472,1.566363 1.64185,1.415387 2.8119,2.604313 3.81211,3.830982 0.20759,0.264206 0.50954,0.490668 0.83036,0.754874 l 0.0377,0.03774 c 0.18871,0.150975 0.3963,0.283078 0.62277,0.434053 0.1321,0.09436 0.2642,0.169846 0.3963,0.264205 0.20759,0.150975 0.41518,0.283078 0.62277,0.434053 0.0189,0.01887 0.0378,0.01887 0.0566,0.03774 0.35857,-0.301949 0.71713,-0.603898 1.07569,-0.868104 0.26421,-0.188719 0.52842,-0.396309 0.79262,-0.566155 -0.22646,-0.471796 -0.50954,-0.92472 -0.77374,-1.321029 -1.03795,-1.622978 -1.88719,-3.340315 -2.62319,-4.982164 -0.47179,-1.01908 -0.88697,-2.075902 -1.28328,-3.07611 -0.16985,-0.41518 -0.32082,-0.811489 -0.49067,-1.207797 -0.0755,-0.188719 -0.1321,-0.377437 -0.1321,-0.603899 -0.0944,-1.207797 -0.50954,-2.358979 -0.96247,-3.566777 -0.15097,-0.396309 -0.28307,-0.792617 -0.41518,-1.188926 -0.0944,-0.264205 -0.20759,-0.528411 -0.33969,-0.811489 -0.24533,-0.547283 -0.50954,-1.151182 -0.6039,-1.868311 -0.0377,-0.03774 -0.0566,-0.05662 -0.0944,-0.09436 -0.0944,-0.113231 -0.22646,-0.226462 -0.33969,-0.358564 -0.30195,-0.283078 -0.62277,-0.603899 -0.88698,-1.037951 -1.03795,-1.736209 -0.58503,-3.038366 -0.0189,-3.812111 0.0189,-0.01887 0.0566,-0.09436 0.0755,-0.150975 0.0377,-0.05662 0.0566,-0.113231 0.0944,-0.169847 l 0.0944,-0.188718 0.83036,-0.62277 0.15097,-0.03774 c 0.0566,-0.01887 0.11323,-0.03774 0.16985,-0.03774 0.0944,-0.01887 0.16984,-0.05662 0.22646,-0.07549 0.94359,-0.358565 2.47221,-0.20759 3.13272,0.566155 1.26442,1.490875 1.00021,2.793032 0.54729,3.623392 -0.0378,0.09436 -0.0755,0.132103 0.0944,0.358565 l 0.0566,0.07549 c 0.45293,0.679386 0.94359,1.377644 1.3399,2.132517 0.0377,0.07549 0.0755,0.132103 0.11323,0.20759 0.30195,0.547284 0.69826,1.302157 0.52842,2.245749 -0.0944,0.566155 0.0189,1.170054 0.37743,1.792824 0.81149,1.43426 1.3399,2.906263 1.62298,4.453754 0.0755,0.358564 0.18872,0.698257 0.33969,1.000207 0.30195,0.566155 0.62277,1.13231 0.94359,1.698465 0.15098,0.264206 0.32083,0.547283 0.4718,0.811489 0.11323,0.20759 0.18872,0.41518 0.22646,0.622771 0.0944,0.83036 0.52841,1.585234 0.96247,2.396723 0.0944,0.188718 0.18871,0.358565 0.30195,0.528411 0.11323,0.188719 0.20759,0.396309 0.30195,0.585027 0.79261,-0.301949 1.58523,-0.547283 2.39672,-0.736001 0.24533,-0.05662 0.49067,-0.113231 0.736,-0.150975 0,-0.566155 0.0189,-1.13231 0.0944,-1.679594 0.22646,-2.26462 0.16985,-4.52924 0.0944,-6.265449 -0.0189,-0.471796 -0.11323,-0.754874 -0.33969,-1.019079 -0.86811,-1.000208 -0.9436,-2.77416 -0.13211,-3.868727 0.28308,-0.377436 0.58503,-0.773745 0.96247,-1.264413 0.11323,-0.150974 0.24533,-0.283077 0.3963,-0.377436 0.11324,-0.07549 0.22647,-0.150975 0.3397,-0.188719 0.0755,-0.01887 0.1321,-0.05662 0.18872,-0.07549 0.50954,-0.20759 1.26441,-0.528411 2.13251,-0.150975 0.0755,0 0.16985,0 0.28308,0.01887 h 0.0566 c 0.15097,0.01887 0.3963,0.05662 0.66051,0.20759 l 0.1321,0.07549 c 0.64165,0.358564 1.69847,0.962463 1.66073,2.434466 0,0.05662 0,0.09436 0,0.150975 0.0189,0.264206 0.0189,0.698258 -0.24534,1.13231 -0.1321,0.20759 -0.28308,0.415181 -0.41518,0.603899 -0.11323,0.150975 -0.20759,0.320821 -0.32082,0.471796 0,0.01887 -0.0189,0.03774 -0.0189,0.05662 -0.0566,0.169847 -0.16985,0.50954 -0.49067,0.736002 l -0.0377,0.01887 -0.0377,0.01887 c -0.0189,0 -0.0189,0.01887 -0.0377,0.01887 -0.0377,0.01887 -0.0377,0.03774 -0.0377,0.03774 -0.0189,0.07549 0.0189,0.377437 0.0566,0.547283 l 0.0189,0.05662 c 0.0755,0.434052 0.15098,0.905848 0.20759,1.377644 0.0566,0.452924 0.11323,1.037951 0.13211,1.604106 0,0.396309 -0.0378,0.830361 -0.11324,1.321029 -0.0377,0.264205 -0.0944,0.528411 -0.15097,0.773745 -0.0755,0.320821 -0.1321,0.641642 -0.16985,0.943592 -0.0189,0.264205 -0.0189,0.566155 -0.0189,0.868104 0,0.339693 0,0.679386 -0.0189,1.037951 0,0 0,0 0,0.01887 0.49067,0.01887 1.00021,0.07549 1.49087,0.132103 0.52842,0.05661 1.0757,0.150974 1.60411,0.245334 0.0944,-0.30195 0.20759,-0.585027 0.32082,-0.849233 l 0.0378,-0.113231 c 0.0755,-0.188718 0.15097,-0.339693 0.24533,-0.471796 0.0566,-0.09436 0.1321,-0.245334 0.15097,-0.301949 0.30195,-1.792825 0.86811,-3.321443 1.73621,-4.717959 0.18872,-0.30195 0.32082,-0.698258 0.35857,-1.056823 0.15097,-1.3399 0.90585,-2.302364 1.56636,-3.151597 l 0.0755,-0.113231 c 0.43405,-0.566155 0.71713,-1.170054 0.84923,-1.830568 0.20759,-1.094566 0.58503,-2.226876 1.15118,-3.415802 -0.15097,-0.377437 -0.16984,-0.905848 0.37744,-1.472003 0.50954,-0.528412 0.81149,-1.264413 1.13231,-2.038159 l 0.0944,-0.245333 c 0,-0.01887 0,-0.05662 0,-0.07549 0,-0.09436 0,-0.20759 0,-0.339693 0,-0.07549 0.0189,-0.150975 0.0189,-0.245334 0.0189,-0.283077 0.0377,-0.585027 0.11323,-0.905848 0.0944,-0.377437 0.20759,-0.736001 0.32082,-1.075695 0.0755,-0.226462 0.15098,-0.452924 0.20759,-0.679386 0.15098,-0.528411 0.37744,-1.113438 0.94359,-1.528618 0.11324,-0.09436 0.24534,-0.150975 0.37744,-0.226462 0.94359,-0.415181 1.84944,-0.547284 2.75529,-0.377437 1.00021,0.188718 1.39652,0.962464 1.50975,1.226669 0.0944,0.188719 0.18871,0.396309 0.28307,0.585027 0.0755,0.150975 0.13211,0.30195 0.20759,0.452924 0.50954,1.075695 0.49067,2.038159 -0.0566,2.849647 -0.33969,0.528412 -0.736,1.000208 -1.11344,1.472004 l -0.22646,0.283077 c -0.0755,0.09436 -0.15098,0.169847 -0.24534,0.226462 -0.24533,0.169847 -0.50954,0.264206 -0.77374,0.264206 -0.0377,0.05662 -0.0755,0.113231 -0.11323,0.169846 -0.0566,0.09436 -0.11323,0.169847 -0.1321,0.226463 -0.0566,0.150974 -0.13211,0.283077 -0.18872,0.434052 -0.16985,0.377436 -0.32082,0.71713 -0.39631,1.056823 -0.0566,0.245333 -0.0944,0.490667 -0.1321,0.754873 -0.15098,0.811489 -0.30195,1.736209 -0.83037,2.585442 -0.2642,0.434052 -0.41518,0.754873 -0.41518,0.943591 0,0.886977 -0.41518,1.453132 -0.75487,1.924928 l -0.0566,0.07549 c -0.0189,0.03774 -0.0566,0.132103 -0.0377,0.169846 0.0377,0.415181 0,1.037951 -0.56615,1.566363 -0.67939,0.62277 -1.13231,1.283285 -1.39652,2.019286 -0.16985,0.471796 -0.39631,1.019079 -0.79262,1.472004 0.22647,0.396308 0.22647,0.886976 -0.0189,1.3399 -0.0944,0.169846 -0.18872,0.320821 -0.2642,0.452924 -0.0755,0.113231 -0.15098,0.226462 -0.18872,0.320821 -0.0189,0.03774 -0.0377,0.09436 -0.0566,0.132103 -0.0377,0.07549 -0.0944,0.188718 -0.11323,0.264206 0.16985,1.321028 -0.32082,2.358979 -0.71713,3.038365 -0.0566,0.09436 -0.0944,0.207591 -0.15097,0.339693 0.24533,0.113231 0.49066,0.226462 0.71713,0.339693 0.79261,0.415181 1.52862,0.92472 2.18913,1.490875 0.11323,-0.113231 0.22646,-0.20759 0.32082,-0.320821 0.90585,-0.92472 1.83057,-1.887183 2.79303,-2.944006 0.0944,-0.113231 0.20759,-0.264206 0.32082,-0.415181 0.18872,-0.283077 0.41518,-0.603898 0.73601,-0.868104 1.05682,-0.905848 2.15138,-1.755081 3.22708,-2.585442 l 0.35856,-0.283077 c 0.16985,-0.132103 0.18872,-0.169847 0.18872,-0.20759 l 0.0378,-0.132103 c 0.11323,-0.415181 0.28307,-1.019079 0.84923,-1.453132 0,0 0,-0.01887 0,-0.01887 0.1321,-0.452924 0.39631,-0.811489 0.75487,-1.075695 0.18872,-0.132103 0.39631,-0.245334 0.64164,-0.320821 0.0944,-0.03774 0.18872,-0.05662 0.28308,-0.09436 0.32082,-0.113231 0.64164,-0.226462 0.98134,-0.283078 1.22667,-0.264206 1.92492,0.20759 2.22687,0.528411 0.30195,0.30195 0.75488,1.000208 0.4718,2.208005 -0.11323,0.547284 -0.28308,1.056823 -0.43405,1.566363 l -0.11323,0.358565 c -0.18872,0.62277 -0.50954,1.094566 -0.9436,1.415387 -0.3963,0.283078 -0.8681,0.434052 -1.39651,0.452924 -0.15098,0 -0.24533,0.03774 -0.35857,0.132103 -0.0755,0.05662 -0.1321,0.113231 -0.20759,0.188719 -0.24533,0.320821 -0.50954,0.603898 -0.79261,0.92472 -0.22647,0.264205 -0.4718,0.528411 -0.69826,0.792617 -0.39631,0.452924 -0.81149,0.905848 -1.2078,1.358772 0,0.01887 -0.0189,0.03774 -0.0189,0.03774 -0.0189,0.05662 -0.0566,0.150975 -0.11323,0.245334 l -0.0377,0.07549 c -0.0755,0.132103 -0.16984,0.320821 -0.33969,0.490667 -0.88697,0.92472 -1.67959,1.736209 -2.39672,2.472211 l -0.0755,0.07549 c -0.41518,0.434053 -0.84923,0.868105 -1.32103,1.283285 -0.15097,0.132103 -0.32082,0.283078 -0.47179,0.415181 0.56615,0.943591 1.09456,1.906055 1.58523,2.88739 0.0189,0.03774 0.0377,0.09436 0.0566,0.132103 0.52841,-0.20759 1.05682,-0.41518 1.56636,-0.62277 0.49067,-0.207591 1.00021,-0.415181 1.50975,-0.641643 0.83036,-0.358565 1.69846,-0.736001 2.58544,-1.056823 0.84923,-0.301949 1.73621,-0.547283 2.58544,-0.792617 0.41518,-0.113231 0.84923,-0.245334 1.26441,-0.358565 0.24534,-0.07549 0.49067,-0.150974 0.71713,-0.264205 0.79262,-0.415181 1.88719,-0.905848 3.17047,-0.943592 0.56616,-0.01887 1.01908,-0.132103 1.43426,-0.339693 0.8681,-0.471796 1.56636,-0.792617 2.22688,-1.037951 0.39631,-0.150975 0.77374,-0.226462 1.15118,-0.320821 0.33969,-0.07549 0.64164,-0.150975 0.92472,-0.245334 1.22667,-0.452924 2.43447,-0.30195 3.68001,0.471796 l 0.15097,0.09436 0.90585,1.245541 0.0377,0.20759 c 0.13211,0.396309 0.37744,1.660722 -0.52841,2.717545 z"
         id="path838"
         style="fill:#231f20;stroke-width:0.188718" />
    </g>
  </g>
</svg>
