<?xml version="1.0" encoding="UTF-8" standalone="no"?>
<svg
   xmlns:dc="http://purl.org/dc/elements/1.1/"
   xmlns:cc="http://creativecommons.org/ns#"
   xmlns:rdf="http://www.w3.org/1999/02/22-rdf-syntax-ns#"
   xmlns:svg="http://www.w3.org/2000/svg"
   xmlns="http://www.w3.org/2000/svg"
   xmlns:sodipodi="http://sodipodi.sourceforge.net/DTD/sodipodi-0.dtd"
   xmlns:inkscape="http://www.inkscape.org/namespaces/inkscape"
   version="1.1"
   id="svg62"
   width="800"
   height="800"
   viewBox="0 0 800 800"
   sodipodi:docname="C_Fire_Knight.svg"
   inkscape:version="1.0.2 (e86c870879, 2021-01-15)">
  <metadata
     id="metadata68">
    <rdf:RDF>
      <cc:Work
         rdf:about="">
        <dc:format>image/svg+xml</dc:format>
        <dc:type
           rdf:resource="http://purl.org/dc/dcmitype/StillImage" />
        <dc:title></dc:title>
      </cc:Work>
    </rdf:RDF>
  </metadata>
  <defs
     id="defs66" />
  <sodipodi:namedview
     pagecolor="#ffffff"
     bordercolor="#666666"
     borderopacity="1"
     objecttolerance="10"
     gridtolerance="10"
     guidetolerance="10"
     inkscape:pageopacity="0"
     inkscape:pageshadow="2"
     inkscape:window-width="1920"
     inkscape:window-height="1029"
     id="namedview64"
     showgrid="false"
     inkscape:zoom="1.0525"
     inkscape:cx="400"
     inkscape:cy="400"
     inkscape:window-x="0"
     inkscape:window-y="0"
     inkscape:window-maximized="1"
     inkscape:current-layer="g70" />
  <g
     inkscape:groupmode="layer"
     inkscape:label="Image"
     id="g70">
    <path
       style="fill:#000000;stroke-width:0.32"
       d="m 665.36509,719.46976 c -0.49824,-0.20147 0.43811,1.17043 -42.0073,-61.54976 -19.59305,-28.952 -43.20832,-63.8 -52.47837,-77.44 C 561.60934,566.84 537.99283,532.064 518.3983,503.2 424.7631,365.26957 368.51491,282.80895 363.42019,276 c -4.21142,-5.62845 -8.49049,-10.76021 -18.99414,-22.77905 -7.60807,-8.70554 -9.38605,-10.91329 -9.38605,-11.65482 0,-0.81931 0.45936,-1.2222 4.4,-3.85918 2.42,-1.6194 10.448,-7.06378 17.84,-12.09861 7.392,-5.03484 13.62819,-9.26998 13.85818,-9.41142 1.11014,-0.68269 1.90057,0.10121 4.07366,4.04008 2.93469,5.31936 9.90269,16.89918 14.44483,24.00528 7.18826,11.24595 12.75808,19.45774 28.26896,41.67772 13.54474,19.40345 13.72304,19.6632 29.43392,42.88 32.36663,47.82986 61.22067,90.15341 142.24013,208.64 83.19206,121.6639 94.89952,138.90336 95.73485,140.97139 2.16893,5.36976 1.45869,12.04272 -2.01795,18.95911 -0.63853,1.27024 -1.59444,2.94124 -2.12429,3.71334 -1.69946,2.47648 -13.03456,16.80454 -14.01549,17.71616 -0.96381,0.89571 -1.11491,0.95155 -1.81171,0.66976 z M 235.59848,706.4785 C 228.69132,699.56966 223.04,693.82816 223.04,693.71955 c 0,-0.10861 5.292,-5.15491 11.76,-11.21401 6.468,-6.05911 12.408,-11.62714 13.2,-12.37341 l 1.44,-1.35683 -22.88,-22.74263 c -36.42784,-36.20909 -92.79347,-91.94406 -93.08668,-92.04515 -0.14754,-0.0509 -1.49406,1.46112 -2.99227,3.36 -1.4982,1.89885 -5.77554,7.12448 -9.5052,11.61248 -3.72966,4.488 -7.97066,9.68842 -9.42445,11.55651 l -2.64324,3.39648 L 95.742826,570.43651 82.577494,556.96 92.587981,546.88 c 5.505766,-5.544 24.905829,-25.19738 43.111249,-43.67418 41.70464,-42.3263 105.73108,-107.25504 112.11562,-113.69561 l 4.84725,-4.88976 6.76185,2.8663 c 27.65356,11.72221 58.1398,20.28359 90.56357,25.43274 l 6.78749,1.07792 35.3888,35.16128 c 19.46384,19.33872 35.57238,35.20304 35.7968,35.25405 0.22438,0.051 1.112,-0.669 1.97248,-1.6 0.86045,-0.93101 7.82493,-8.1402 15.47657,-16.02042 11.14234,-11.47517 13.99047,-14.24653 14.3056,-13.92 0.21642,0.22422 5.01207,7.17299 10.65696,15.4417 l 10.26346,15.03401 -7.93901,8.00599 c -4.36643,4.40329 -27.29747,27.66124 -50.95782,51.68438 C 368.51434,597.07891 248.24853,719.04 248.18369,719.04 c -0.0147,0 -5.67805,-5.65267 -12.58521,-12.5615 z M 283.70544,631.84 c 17.18938,-18.02662 39.97558,-42.10915 40.05466,-42.33341 0.044,-0.12489 -25.23913,-25.54598 -56.18482,-56.49129 l -56.26488,-56.26423 -24.74192,26.14688 -24.74192,26.14685 56.28672,56.09885 c 30.9577,30.85433 56.38942,56.07126 56.51495,56.0376 0.12553,-0.0337 4.21027,-4.23725 9.07721,-9.34125 z m 89.90275,-92.51046 c 12.31549,-12.95277 23.38701,-24.62941 24.60336,-25.9481 l 2.21152,-2.39766 -54.37152,-54.39213 c -29.90436,-29.91568 -55.20768,-55.12432 -56.22961,-56.0192 l -1.85806,-1.62707 -1.29545,1.24732 c -2.40385,2.3145 -47.78731,49.79565 -47.90834,50.12272 -0.10824,0.29248 111.88778,112.56458 112.28775,112.56458 0.0927,0 10.24486,-10.5977 22.56035,-23.55046 z M 535.04,422.0023 c -1.32,-1.96508 -5.97363,-8.80668 -10.34138,-15.20348 -4.36774,-6.3968 -7.89574,-11.76612 -7.84,-11.93175 0.0557,-0.16563 8.38138,-8.75005 18.50138,-19.07641 10.12,-10.3264 20.15338,-20.5985 22.29638,-22.82692 l 3.89642,-4.05164 -55.9201,-55.91939 -55.92006,-55.91939 -12.07344,12.23479 c -10.21197,10.34843 -12.13866,12.16518 -12.49635,11.78334 -0.70003,-0.74725 -10.98067,-15.9635 -15.84835,-23.45689 l -4.55069,-7.00544 2.69209,-2.75456 c 1.48064,-1.51501 18.01796,-18.30656 36.74954,-37.31456 18.73158,-19.008 46.1528,-46.86649 60.936,-61.90776 14.7832,-15.04127 31.35629,-31.882394 36.82909,-37.42472 l 9.95053,-10.076957 12.84947,12.457315 C 571.81773,100.4594 577.6,106.15398 577.6,106.26251 c 0,0.10852 -0.75526,0.83185 -1.67837,1.6074 -0.92307,0.77555 -5.13997,4.50609 -9.37085,8.29009 -4.23091,3.784 -9.1703,8.16906 -10.97648,9.74458 l -3.28393,2.86459 31.45481,31.47572 c 17.30016,17.31164 43.35031,43.27202 57.88925,57.68973 l 26.43447,26.21401 1.68435,-1.99432 c 1.34461,-1.59202 16.53177,-18.62005 21.03321,-23.58267 l 1.0265,-1.13164 12.8135,12.7985 c 7.04746,7.03917 12.81354,12.88351 12.81354,12.98742 0,0.1039 -7.09331,7.37658 -15.76291,16.1615 -8.6696,8.78492 -45.71261,46.35658 -82.31783,83.49258 -36.60521,37.136 -69.92643,70.94 -74.04716,75.12 -4.12071,4.18 -7.57767,7.59443 -7.68215,7.58762 -0.10448,-0.007 -1.26995,-1.6202 -2.58995,-3.58532 z m 78.99728,-126.01102 c 13.92749,-14.2608 25.31805,-26.0328 25.31235,-26.16 -0.006,-0.1272 -25.24621,-25.56444 -56.08998,-56.52718 l -56.07962,-56.2959 -25.38224,26.10456 c -13.96025,14.35751 -25.38006,26.20294 -25.37741,26.32318 0.007,0.30865 111.74669,112.48406 112.0473,112.48406 0.13581,0 11.64211,-11.66792 25.5696,-25.92872 z M 394.24,397.4145 C 351.5641,394.92867 312.79931,386.84486 276.48,372.85747 219.82082,351.03674 173.54816,315.43229 144.77862,271.52 c -10.95152,-16.71581 -19.6988,-35.87595 -24.91495,-54.57398 -2.37597,-8.517 -4.44284,-19.33915 -5.46715,-28.62602 -0.71042,-6.44111 -0.98903,-22.81705 -0.50409,-29.6298 1.61502,-22.68909 7.28895,-44.12831 17.46555,-65.994462 1.36581,-2.934656 2.58232,-5.335738 2.70338,-5.335738 0.28183,0 0.67953,0.835683 4.72093,9.92 10.83188,24.34804 20.41933,39.71074 31.3861,50.29233 4.2323,4.08365 7.2396,6.28017 11.11161,8.11589 4.47256,2.12044 6.54253,2.55007 12.16,2.52389 5.6607,-0.0264 8.20007,-0.59003 12.85115,-2.85249 14.92197,-7.2586 33.61596,-33.23476 48.78377,-67.787329 l 2.36508,-5.387709 10.4,0.241034 c 24.51929,0.568259 48.78319,0.183034 62.4,-0.990688 13.66304,-1.177712 26.63181,-1.336387 37.28,-0.456131 31.83037,2.631318 58.85802,13.569027 81.70688,33.065603 1.46678,1.25158 3.17795,2.71485 3.80262,3.25171 l 1.13572,0.97612 -3.0026,-0.40685 c -4.78547,-0.64841 -16.11283,-0.88885 -21.56262,-0.45769 -15.04925,1.19062 -29.37555,4.62961 -38.24285,9.18011 -10.02838,5.14633 -18.32899,17.27138 -20.68272,30.2122 -0.67059,3.68684 -0.75347,11.84814 -0.156,15.36 0.52455,3.08326 2.10269,9.12245 2.9368,11.23862 0.35651,0.90453 0.60695,1.67507 0.55651,1.71233 -4.63382,3.42205 -44.60268,30.76253 -56.15003,38.4091 l -8.69828,5.75995 -1.30659,2.78532 c -2.66383,5.67863 -4.61477,11.68066 -5.64759,17.37468 -0.69937,3.85575 -0.94961,13.25869 -0.46512,17.47767 2.27342,19.79699 13.53885,41.93909 33.60096,66.04233 7.10681,8.53834 11.4632,13.24339 22.23737,24.01702 13.48916,13.48855 23.2113,22.34112 38.3042,34.87821 3.75833,3.12189 6.89334,5.72762 6.96668,5.79047 0.19021,0.16307 -3.58448,0.0617 -8.61334,-0.2312 z"
       id="path74" />
  </g>
</svg>
