<?xml version="1.0" encoding="UTF-8" standalone="no"?>
<svg
   version="1.1"
   id="svg62"
   width="100mm"
   height="100mm"
   viewBox="0 0 377.95275 377.95275"
   sodipodi:docname="C_Fire_Knight.svg"
   inkscape:version="1.1 (c4e8f9ed74, 2021-05-24)"
   xmlns:inkscape="http://www.inkscape.org/namespaces/inkscape"
   xmlns:sodipodi="http://sodipodi.sourceforge.net/DTD/sodipodi-0.dtd"
   xmlns="http://www.w3.org/2000/svg"
   xmlns:svg="http://www.w3.org/2000/svg"
   xmlns:rdf="http://www.w3.org/1999/02/22-rdf-syntax-ns#"
   xmlns:cc="http://creativecommons.org/ns#"
   xmlns:dc="http://purl.org/dc/elements/1.1/">
  <metadata
     id="metadata68">
    <rdf:RDF>
      <cc:Work
         rdf:about="">
        <dc:format>image/svg+xml</dc:format>
        <dc:type
           rdf:resource="http://purl.org/dc/dcmitype/StillImage" />
      </cc:Work>
    </rdf:RDF>
  </metadata>
  <defs
     id="defs66" />
  <sodipodi:namedview
     pagecolor="#ffffff"
     bordercolor="#666666"
     borderopacity="1"
     objecttolerance="10"
     gridtolerance="10"
     guidetolerance="10"
     inkscape:pageopacity="0"
     inkscape:pageshadow="2"
     inkscape:window-width="1920"
     inkscape:window-height="1029"
     id="namedview64"
     showgrid="false"
     inkscape:zoom="1.7552774"
     inkscape:cx="133.88197"
     inkscape:cy="173.192"
     inkscape:window-x="0"
     inkscape:window-y="0"
     inkscape:window-maximized="1"
     inkscape:current-layer="g70"
     inkscape:pagecheckerboard="0"
     units="mm"
     width="100mm"
     inkscape:document-units="mm" />
  <g
     inkscape:groupmode="layer"
     inkscape:label="Image"
     id="g70">
    <path
       style="fill:#000000;stroke-width:0.137684"
       d="m 303.14917,326.42387 c -0.21438,-0.0867 0.18851,0.50359 -18.07416,-26.48252 -8.43014,-12.45695 -18.5909,-27.45073 -22.57945,-33.3195 -3.98857,-5.86878 -14.14986,-20.83158 -22.58064,-33.25066 -40.28768,-59.34625 -64.48914,-94.82591 -66.6812,-97.75555 -1.81202,-2.42172 -3.65314,-4.62971 -8.17246,-9.80096 -3.27347,-3.74567 -4.03846,-4.69559 -4.03846,-5.01464 0,-0.35252 0.19763,-0.52586 1.89315,-1.66046 1.04123,-0.69675 4.49537,-3.03927 7.67587,-5.20556 3.18051,-2.1663 5.8637,-3.98853 5.96266,-4.04938 0.47764,-0.29374 0.81774,0.0436 1.75274,1.73829 1.26268,2.28872 4.26075,7.27108 6.21506,10.32856 3.09283,4.83871 5.48932,8.37193 12.16306,17.93234 5.82779,8.34857 5.90451,8.46033 12.6643,18.44964 13.92613,20.57938 26.34093,38.78961 61.20054,89.7699 35.79439,52.34736 40.83167,59.76484 41.19109,60.65465 0.93319,2.3104 0.62761,5.18152 -0.86826,8.15737 -0.27473,0.54654 -0.68602,1.26551 -0.91399,1.59771 -0.73122,1.06555 -5.60828,7.23036 -6.03034,7.6226 -0.41469,0.3854 -0.4797,0.40942 -0.77951,0.28817 z m -184.91229,-5.58964 c -2.9719,-2.97261 -5.40344,-5.44296 -5.40344,-5.48969 0,-0.0468 2.27694,-2.21796 5.05987,-4.82497 2.78295,-2.607 5.33871,-5.00271 5.67947,-5.32381 l 0.61958,-0.5838 -9.8444,-9.78528 c -15.673525,-15.5794 -39.925526,-39.56006 -40.051674,-39.60354 -0.06346,-0.0219 -0.642838,0.62865 -1.287464,1.44568 -0.644626,0.817 -2.48499,3.06539 -4.089728,4.9964 -1.604732,1.93102 -3.429473,4.16857 -4.054984,4.97234 l -1.137285,1.46137 -5.664544,-5.79841 -5.664545,-5.79844 4.307133,-4.33704 c 2.368923,-2.38537 10.716036,-10.84148 18.54914,-18.79134 17.943933,-18.21141 45.492071,-46.14779 48.239111,-48.91891 l 2.08558,-2.10389 2.90937,1.23326 c 11.89828,5.04363 25.01535,8.72726 38.96608,10.94274 l 2.9204,0.4638 15.22645,15.12856 c 8.37456,8.32072 15.30545,15.14654 15.40202,15.16849 0.0965,0.0219 0.47845,-0.28785 0.84867,-0.68842 0.37023,-0.40059 3.36678,-3.50243 6.65899,-6.89299 4.79413,-4.93733 6.01957,-6.12973 6.15515,-5.98924 0.0932,0.0965 2.15651,3.08627 4.58529,6.64397 l 4.41598,6.46857 -3.41585,3.44467 c -1.87871,1.89457 -11.74507,11.90158 -21.92523,22.23783 -22.90048,23.25159 -74.6463,75.72683 -74.6742,75.72683 -0.007,0 -2.44306,-2.43214 -5.41494,-5.40474 z m 20.6986,-32.11412 c 7.39593,-7.75617 17.19997,-18.11797 17.234,-18.21446 0.019,-0.0538 -10.85944,-10.99147 -24.1742,-24.30607 l -24.20864,-24.20837 -10.64551,11.25002 -10.645524,11.25 24.218054,24.13721 c 13.31992,13.27545 24.26223,24.12533 24.31624,24.11085 0.054,-0.0145 1.81151,-1.82312 3.90558,-4.01918 z m 38.68175,-39.80375 c 5.29889,-5.57308 10.06254,-10.5971 10.58589,-11.16448 l 0.95154,-1.03162 -23.39401,-23.40288 c -12.86672,-12.87158 -23.75377,-23.7179 -24.19347,-24.10293 l -0.79945,-0.70008 -0.5574,0.53667 c -1.03428,0.99586 -20.56106,21.4252 -20.61314,21.56592 -0.0465,0.12585 48.14108,48.43227 48.31317,48.43227 0.0399,0 4.40798,-4.55979 9.70687,-10.13287 z m 69.45799,-50.48147 c -0.56795,-0.84549 -2.57022,-3.78918 -4.44951,-6.54147 -1.87926,-2.7523 -3.39723,-5.06253 -3.37325,-5.13379 0.0239,-0.0713 3.60619,-3.76482 7.96044,-8.20785 4.35425,-4.44306 8.67124,-8.86276 9.5933,-9.82156 l 1.67647,-1.74327 -24.06029,-24.06 -24.0603,-24.05999 -5.19473,5.26417 c -4.39382,4.45254 -5.22282,5.23421 -5.37672,5.06992 -0.30119,-0.32151 -4.72455,-6.86848 -6.81893,-10.09261 l -1.95799,-3.01417 1.15829,-1.18518 c 0.63707,-0.65186 7.75246,-7.87663 15.81195,-16.055048 8.05949,-8.178429 19.85779,-20.164877 26.21844,-26.636566 6.36066,-6.471693 13.49143,-13.717791 15.84617,-16.102445 l 4.28133,-4.335732 5.52865,5.359911 c 3.04074,2.94795 5.52864,5.398112 5.52864,5.444809 0,0.0467 -0.32496,0.357913 -0.72215,0.691602 -0.39715,0.333691 -2.21153,1.9388 -4.03191,3.566912 -1.82041,1.628112 -3.94564,3.514841 -4.72277,4.192719 l -1.41295,1.232525 13.53381,13.542826 c 7.4436,7.448544 18.652,18.618297 24.90755,24.821697 l 11.37376,11.27889 0.7247,-0.85807 c 0.57854,-0.68499 7.113,-8.0115 9.04979,-10.14673 l 0.44167,-0.4869 5.51317,5.50671 c 3.03226,3.02868 5.51317,5.54329 5.51317,5.588 0,0.0446 -3.05198,3.17385 -6.78217,6.95367 -3.73021,3.77982 -19.66841,19.94549 -35.41825,35.9237 -15.74983,15.97822 -30.08669,30.52279 -31.85969,32.32129 -1.77299,1.7985 -3.26038,3.26759 -3.30534,3.26467 -0.0449,-0.003 -0.5464,-0.69712 -1.11435,-1.54264 z m 33.98954,-54.21777 c 5.99247,-6.13587 10.89339,-11.20092 10.89095,-11.25565 -0.003,-0.0547 -10.8625,-10.99941 -24.1334,-24.3215 L 243.69338,84.417966 232.77235,95.649775 c -6.00656,6.177495 -10.92007,11.274135 -10.91893,11.325865 0.003,0.13284 48.08036,48.39763 48.20971,48.39763 0.0585,0 5.00916,-5.02027 11.00163,-11.15615 z m -94.57045,43.63858 c -18.36183,-1.06957 -35.04085,-4.54772 -50.66767,-10.56597 -24.3783,-9.38862 -44.287666,-24.70788 -56.66611,-43.60167 -4.712025,-7.19217 -8.475659,-15.43606 -10.719964,-23.48112 -1.02229,-3.66454 -1.911586,-8.3209 -2.352308,-12.316684 -0.305667,-2.77137 -0.425543,-9.81731 -0.216891,-12.748589 0.694882,-9.76225 3.136159,-18.986739 7.514768,-28.394916 0.587657,-1.262672 1.11107,-2.295767 1.163159,-2.295767 0.12128,0 0.292376,0.359564 2.031239,4.268201 4.660555,10.476039 8.785663,17.086029 13.50425,21.638885 1.821002,1.757041 3.114934,2.702124 4.780907,3.491964 1.924373,0.912343 2.815002,1.097195 5.23198,1.08594 2.43559,-0.01076 3.52819,-0.253867 5.52937,-1.227321 6.42036,-3.123109 14.46368,-14.29967 20.98981,-29.166328 l 1.0176,-2.318127 4.47473,0.103707 c 10.54972,0.2445 20.98955,0.07875 26.84836,-0.426255 5.87868,-0.506726 11.45865,-0.574998 16.04017,-0.196256 13.6954,1.132156 25.32438,5.838238 35.15538,14.226876 0.6311,0.538508 1.36734,1.168096 1.63612,1.399088 l 0.48866,0.419986 -1.29191,-0.175052 c -2.05901,-0.278985 -6.93274,-0.382438 -9.27758,-0.196926 -6.47512,0.512279 -12.63918,1.991942 -16.45445,3.949848 -4.31483,2.214276 -7.88627,7.431227 -8.89898,12.999177 -0.28853,1.586308 -0.32421,5.097809 -0.0671,6.608821 0.22569,1.326618 0.90471,3.92505 1.26359,4.835564 0.1534,0.389186 0.26115,0.720716 0.23945,0.736743 -1.99376,1.472383 -19.19084,13.235951 -24.15924,16.525981 l -3.74254,2.47829 -0.56217,1.19842 c -1.14615,2.44329 -1.98557,5.02575 -2.42995,7.47566 -0.30091,1.65898 -0.40857,5.70472 -0.20012,7.51998 0.97817,8.51789 5.82526,18.0448 14.45722,28.41551 3.05779,3.67374 4.93217,5.69813 9.5679,10.33363 5.80388,5.80361 9.98694,9.61253 16.48085,15.00676 1.61706,1.34324 2.96594,2.46438 2.99749,2.49142 0.0819,0.0702 -1.54226,0.0265 -3.706,-0.0995 z"
       id="path74" />
  </g>
</svg>
