<?xml version="1.0" encoding="UTF-8" standalone="no"?>
<svg
   width="100mm"
   height="100mm"
   viewBox="0 0 99.999999 99.999999"
   version="1.1"
   id="svg4146"
   sodipodi:docname="C_Brightspark.svg"
   inkscape:version="1.1 (c4e8f9ed74, 2021-05-24)"
   xmlns:inkscape="http://www.inkscape.org/namespaces/inkscape"
   xmlns:sodipodi="http://sodipodi.sourceforge.net/DTD/sodipodi-0.dtd"
   xmlns="http://www.w3.org/2000/svg"
   xmlns:svg="http://www.w3.org/2000/svg"
   xmlns:rdf="http://www.w3.org/1999/02/22-rdf-syntax-ns#"
   xmlns:cc="http://creativecommons.org/ns#"
   xmlns:dc="http://purl.org/dc/elements/1.1/">
  <defs
     id="defs4140" />
  <sodipodi:namedview
     id="base"
     pagecolor="#ffffff"
     bordercolor="#666666"
     borderopacity="1.0"
     inkscape:pageopacity="0.0"
     inkscape:pageshadow="2"
     inkscape:zoom="1.3964387"
     inkscape:cx="199.79395"
     inkscape:cy="189.05234"
     inkscape:document-units="mm"
     inkscape:current-layer="g2652"
     inkscape:document-rotation="0"
     showgrid="false"
     fit-margin-top="0"
     fit-margin-left="0"
     fit-margin-right="0"
     fit-margin-bottom="0"
     inkscape:window-width="1920"
     inkscape:window-height="1029"
     inkscape:window-x="0"
     inkscape:window-y="0"
     inkscape:window-maximized="1"
     inkscape:pagecheckerboard="0" />
  <metadata
     id="metadata4143">
    <rdf:RDF>
      <cc:Work
         rdf:about="">
        <dc:format>image/svg+xml</dc:format>
        <dc:type
           rdf:resource="http://purl.org/dc/dcmitype/StillImage" />
      </cc:Work>
    </rdf:RDF>
  </metadata>
  <g
     inkscape:label="Layer 1"
     inkscape:groupmode="layer"
     id="layer1"
     transform="translate(-12.29804,-16.210873)">
    <g
       transform="matrix(0.34944402,0,0,-0.34944402,22.365872,30.877388)"
       id="g2652"
       style="fill:#000000;fill-opacity:1">
      <path
         d="m 114.15024,-92.264214 c -14.436507,0 -27.498239,-2.45835 -36.544853,-6.176673 -4.524707,-1.859163 -8.024635,-4.054313 -10.135792,-6.106673 -1.92076,-1.86756 -2.573147,-3.33193 -2.676745,-4.52191 h -0.131597 c 0,-8.24303 3.816321,-16.10807 10.22539,-22.49754 -0.246395,0.1176 -0.50119,0.2296 -0.744785,0.35 -5.244292,2.56754 -9.620602,5.57468 -12.899335,9.10541 -1.091977,1.17317 -2.071957,2.43315 -2.90354,3.77152 -3.656725,-6.52387 -6.070275,-13.74492 -6.070275,-22.09715 0,-37.47163 27.74463,-68.27939 61.853532,-68.27939 34.1117,0 62.15312,30.80496 62.15312,68.27939 0,8.44463 -2.40795,15.83368 -6.05908,22.51714 -0.87918,-1.49237 -1.95436,-2.89234 -3.15833,-4.19151 -3.27874,-3.53073 -7.65784,-6.53787 -12.90214,-9.10541 -0.21559,-0.1064 -0.44239,-0.2072 -0.66078,-0.3108 6.38387,6.38107 10.18338,14.23211 10.18338,22.45834 h -0.17079 c -0.1008,1.18998 -0.75599,2.65435 -2.67674,4.51911 -2.11116,2.05236 -5.61109,4.25031 -10.133,6.106673 -9.05221,3.721123 -22.11394,6.179473 -36.54764,6.179473 z M 68.572772,16.351154 70.809926,9.6088916 C 74.861444,-2.5848574 81.36291,-15.053001 84.969236,-26.742761 88.575562,-38.42972 89.418345,-48.428315 83.434867,-57.701724 76.745805,-68.064311 64.568855,-78.667694 53.797476,-91.228235 43.023298,-103.79158 33.481094,-118.90287 33.481094,-138.53326 c 0,-48.873 36.110858,-88.94578 80.621546,-88.94578 44.51348,0 80.96313,40.04758 80.96313,88.94578 0,19.52119 -9.10821,34.89568 -19.7256,47.652217 -10.61458,12.756538 -22.90072,23.40192 -30.42137,33.462113 -4.4883,6.003076 -3.95352,18.334023 -0.43119,31.658949 3.52233,13.324926 9.41901,26.8738476 12.66414,35.0916786 l 2.77475,7.0194564 h -10.0658 l -16.12487,-47.901416 c -2.26235,-11.796157 -2.34635,-23.586715 4.12152,-32.241337 8.55102,-11.440565 20.81757,-21.940349 30.74056,-33.862504 9.923,-11.922157 17.33165,-24.765497 17.33165,-40.879157 0,-43.42431 -32.29734,-78.90798 -71.82692,-78.90798 -39.52959,0 -71.485334,35.45567 -71.485334,78.90798 0,16.08287 7.702642,28.60981 17.830033,40.422766 10.127392,11.810157 22.505938,22.315541 30.438175,34.604489 7.865039,12.18255 6.82066,26.101064 3.077137,38.832401 L 82.099295,5.8821686 c -0.056,0.142797 -0.117598,0.288394 -0.173596,0.431191 h 0.0084 l -3.89752,10.0377944 z m 15.940073,8.901017 19.305605,-49.732578 c 7.54024,-2.788743 14.89289,-2.665545 22.55353,-0.0028 l 16.74366,49.732578 c -19.53426,0.0018 -39.06853,-0.0039 -58.602795,0.0028 z"
         style="fill:#000000;fill-opacity:1;fill-rule:nonzero;stroke:none;stroke-width:2.79994"
         id="path2650"
         sodipodi:nodetypes="sccccccccsssccccccccscccccsssccscccccssssccccccccccccc" />
    </g>
  </g>
</svg>
