<?xml version="1.0" encoding="UTF-8" standalone="no"?>
<!-- Created with Inkscape (http://www.inkscape.org/) -->

<svg
   width="100mm"
   height="100mm"
   viewBox="0 0 100 100"
   version="1.1"
   id="svg18558"
   inkscape:version="1.1.1 (3bf5ae0d25, 2021-09-20)"
   sodipodi:docname="C_Starslinger.svg"
   xmlns:inkscape="http://www.inkscape.org/namespaces/inkscape"
   xmlns:sodipodi="http://sodipodi.sourceforge.net/DTD/sodipodi-0.dtd"
   xmlns="http://www.w3.org/2000/svg"
   xmlns:svg="http://www.w3.org/2000/svg">
  <sodipodi:namedview
     id="namedview18560"
     pagecolor="#ffffff"
     bordercolor="#666666"
     borderopacity="1.0"
     inkscape:pageshadow="2"
     inkscape:pageopacity="0.0"
     inkscape:pagecheckerboard="0"
     inkscape:document-units="mm"
     showgrid="false"
     inkscape:zoom="1.0075223"
     inkscape:cx="520.08775"
     inkscape:cy="209.42465"
     inkscape:window-width="1920"
     inkscape:window-height="1029"
     inkscape:window-x="0"
     inkscape:window-y="0"
     inkscape:window-maximized="1"
     inkscape:current-layer="layer1" />
  <defs
     id="defs18555" />
  <g
     inkscape:label="Layer 1"
     inkscape:groupmode="layer"
     id="layer1">
    <g
       id="g17819"
       transform="matrix(7.2968209,0,0,-7.2968209,-551.85279,183.66762)">
      <g
         transform="translate(78.093604,20.465869)"
         id="g4502">
        <path
           d="m 0,0 0.054,-0.93 0.426,0.828 0.342,-0.171 c 0.07,0.057 0.143,0.116 0.218,0.174 L 0.808,0.262 1.587,0.772 0.657,0.728 0.604,1.657 0.178,0.829 -0.655,1.249 -0.15,0.466 -0.93,-0.045 Z"
           style="fill:#344ba7;fill-opacity:1;fill-rule:nonzero;stroke:none"
           id="path4500" />
      </g>
      <g
         transform="translate(84.512104,19.440469)"
         id="g4506">
        <path
           d="m 0,0 c -0.029,0.014 -0.113,-0.025 -0.112,-0.041 -0.038,-0.888 -1.169,-1.79 -2.685,-2.099 -0.185,-0.039 -0.372,-0.065 -0.56,-0.078 -0.995,-0.103 -1.696,0.383 -1.629,0.919 0.068,0.553 0.483,1.087 1.195,1.502 -0.446,-0.505 -1.14,-1.143 -0.521,-1.638 0.03,-0.013 0.086,0.008 0.112,0.042 0.058,0.311 0.122,0.589 0.357,0.868 0.628,0.729 1.982,1.392 3.401,1.306 0.783,-0.06 1.137,-0.497 1.116,-0.916 -0.07,-0.537 -0.483,-1.087 -1.195,-1.502 0.447,0.505 1.14,1.145 0.522,1.637 z m 0,-2.429 c -0.291,0.204 -0.125,0.663 0.23,0.634 l 0.814,-0.067 c 0.027,-0.003 0.055,-0.002 0.081,0.003 0.025,0.004 0.049,0.014 0.067,0.032 0.065,0.058 0.127,0.118 0.188,0.178 0.018,0.018 0.032,0.043 0.037,0.07 0.002,0.011 0.004,0.021 0.005,0.032 l 0.074,0.815 c 0.033,0.354 0.513,0.438 0.665,0.117 0.002,-0.004 0.006,-0.006 0.01,-0.004 0.002,0.001 0.003,0.002 0.003,0.004 0.105,0.192 0.19,0.396 0.252,0.607 0.166,0.651 -0.113,1.309 -1.114,1.641 -0.86,0.298 -1.844,0.12 -2.788,0.1 C -0.222,2.338 1.771,2.448 2.878,1.83 4.048,1.156 3.83,0.145 3.489,-0.737 4.423,0.352 4.571,1.854 2.686,2.45 -0.429,3.437 -4.142,1.735 -5.79,0.106 -5.855,0.043 -5.917,-0.021 -5.978,-0.086 c -0.897,-0.958 -1.47,-2.372 0.308,-3.01 0.859,-0.298 1.844,-0.119 2.787,-0.099 -1.253,-0.605 -3.245,-0.715 -4.354,-0.098 -1.169,0.675 -0.951,1.686 -0.611,2.568 -0.729,-0.885 -0.914,-1.941 -0.069,-2.736 0.604,-0.553 1.738,-0.811 2.898,-0.742 1.971,0.137 3.827,0.751 5.205,1.619 0.006,0.005 0.008,0.014 0.003,0.021 -0.001,0.001 -0.002,0.002 -0.003,0.003 z"
           style="fill:#344ba7;fill-opacity:1;fill-rule:nonzero;stroke:none"
           id="path4504" />
      </g>
      <g
         transform="translate(86.357804,18.670969)"
         id="g4510">
        <path
           d="m 0,0 0.643,-1.363 1.368,0.632 -0.859,-1.239 1.231,-0.87 -1.502,0.125 -0.138,-1.501 -0.642,1.363 -1.37,-0.63 0.86,1.238 -1.231,0.869 1.502,-0.124 z"
           style="fill:#344ba7;fill-opacity:1;fill-rule:nonzero;stroke:none"
           id="path4508" />
      </g>
    </g>
  </g>
</svg>
