<?xml version="1.0" encoding="UTF-8" standalone="no"?>
<!-- Created with Inkscape (http://www.inkscape.org/) -->

<svg
   version="1.1"
   id="svg870"
   width="100mm"
   height="100mm"
   viewBox="0 0 377.95274 377.95274"
   sodipodi:docname="C_Ice_Meteor.svg"
   inkscape:version="1.1.2 (0a00cf5339, 2022-02-04)"
   xmlns:inkscape="http://www.inkscape.org/namespaces/inkscape"
   xmlns:sodipodi="http://sodipodi.sourceforge.net/DTD/sodipodi-0.dtd"
   xmlns="http://www.w3.org/2000/svg"
   xmlns:svg="http://www.w3.org/2000/svg">
  <defs
     id="defs874" />
  <sodipodi:namedview
     id="namedview872"
     pagecolor="#ffffff"
     bordercolor="#666666"
     borderopacity="1.0"
     inkscape:pageshadow="2"
     inkscape:pageopacity="0.0"
     inkscape:pagecheckerboard="0"
     showgrid="false"
     units="mm"
     inkscape:zoom="1.0708915"
     inkscape:cx="180.22367"
     inkscape:cy="284.80943"
     inkscape:window-width="1846"
     inkscape:window-height="1025"
     inkscape:window-x="0"
     inkscape:window-y="0"
     inkscape:window-maximized="1"
     inkscape:current-layer="g876"
     inkscape:document-units="mm" />
  <g
     inkscape:groupmode="layer"
     inkscape:label="Image"
     id="g876">
    <path
       style="fill:#000000;fill-opacity:1;stroke:#000000;stroke-width:0.146758;stroke-opacity:1"
       d="m 193.33173,344.64929 c -1.53352,-0.40181 -3.24042,-1.34226 -4.4225,-2.43669 -0.82874,-0.76729 -4.71429,-6.0839 -21.23671,-29.05827 l -20.22239,-28.11914 -1.6408,-1.37517 c -8.42696,-7.06278 -14.6814,-14.92367 -19.13866,-24.05445 -4.08785,-8.37403 -7.73576,-19.3069 -10.33219,-30.96583 -1.6992,-7.63007 -5.42449,-29.09975 -7.20643,-41.53236 -0.7862,-5.48532 -1.18946,-7.55437 -2.05947,-10.56654 -2.86123,-9.90636 -8.448836,-18.60293 -16.431368,-25.57388 -4.17851,-3.64898 -3.936575,-3.38247 -3.550209,-3.91085 0.181864,-0.24872 0.348044,-0.22239 3.118596,0.49401 4.130621,1.06809 5.76433,1.64299 8.320698,2.92802 7.406883,3.72327 13.259473,8.85578 21.262023,18.64601 1.6546,2.0242 1.98902,2.26056 2.57847,1.82239 0.60249,-0.4479 0.57764,-0.88859 -0.16279,-2.88775 -3.4518,-9.31989 -7.69988,-17.95784 -10.99988,-22.36697 -1.47237,-1.96723 -8.79508,-9.34817 -15.727076,-15.85215 -6.628837,-6.21953 -8.66174,-8.42612 -11.660417,-12.65665 -6.127398,-8.64455 -10.779605,-20.770992 -12.988234,-33.855134 -1.968806,-11.66337 -1.494885,-25.11306 1.08624,-30.827149 l 0.560299,-1.240399 1.04761,1.991389 c 10.571975,20.096119 23.528746,32.234516 41.065018,38.471268 2.57337,0.915216 2.70612,0.933281 3.10755,0.422945 0.36553,-0.464693 0.44877,-0.244773 -1.48208,-3.915796 -4.39783,-8.361387 -6.24727,-13.933084 -6.09981,-18.37652 l 0.0427,-1.287837 0.50533,0.714571 c 4.79676,6.782969 12.00815,12.209491 22.43197,16.879878 7.70726,3.453235 14.36387,5.866304 33.71108,12.220498 35.90744,11.793056 36.24661,11.912306 42.1194,14.808116 7.3771,3.63758 15.8525,8.73291 27.95729,16.80765 2.78473,1.85761 5.21161,3.4062 5.39305,3.44131 0.51553,0.0997 1.06427,-0.3405 1.06427,-0.85385 0,-1.13272 -5.91422,-10.64987 -11.64804,-18.744 -1.10022,-1.55311 -2.0004,-2.86319 -2.0004,-2.91129 0,-0.16142 4.19701,2.10753 6.69702,3.62046 16.27012,9.84629 32.19559,23.70076 43.33932,37.70335 0.67449,0.84753 1.53847,1.87116 1.91997,2.27475 1.24892,1.32124 56.61363,78.48108 57.15773,79.65872 0.96257,2.08336 1.21653,5.11308 0.61149,7.29507 -0.33534,1.20935 -39.646,88.2747 -40.33957,89.34419 -1.18886,1.83321 -3.22967,3.39206 -5.43475,4.15131 -1.16182,0.40003 -3.19978,0.61664 -48.86251,5.19297 -27.2603,2.73205 -48.235,4.77207 -49.01699,4.76744 -0.84809,-0.005 -1.77184,-0.11417 -2.43388,-0.28764 z m 43.18639,-20.04658 c 39.37149,-3.95482 49.85483,-5.02238 49.89497,-5.08093 0.0147,-0.0216 1.16999,-2.58175 2.56714,-5.68934 1.39716,-3.10759 2.70024,-5.98036 2.89573,-6.38395 0.5565,-1.14887 29.9833,-66.37928 30.36914,-67.31929 l 0.34402,-0.83817 -0.47048,-0.70278 c -0.87376,-1.30516 -19.22594,-26.8198 -19.77017,-27.48603 -0.46061,-0.56386 -12.03345,-16.635 -27.08053,-37.6066 -2.24417,-3.12776 -4.15416,-5.68485 -4.24444,-5.6824 -0.0903,0.002 -3.30107,0.32667 -7.13511,0.7205 -3.83404,0.39385 -23.28307,2.3438 -43.22007,4.33322 -19.937,1.98945 -36.45639,3.64805 -36.70974,3.68582 -0.35184,0.0524 -0.50564,0.18044 -0.65114,0.54201 -0.17413,0.43269 -26.16717,58.07975 -33.04332,73.28308 l -2.92866,6.47533 4.21918,5.8523 c 10.04456,13.93252 28.2033,39.21531 28.5518,39.75326 0.44394,0.6853 16.67347,23.26958 17.84309,24.82964 l 0.79091,1.05494 1.05781,-0.0792 c 0.58181,-0.0436 17.10574,-1.69119 36.71987,-3.66143 z m -33.02043,-6.72147 c -0.24214,-0.10762 -0.57971,-0.35269 -0.75015,-0.5446 -0.34461,-0.38804 -35.71396,-49.55732 -36.70668,-51.02842 -0.72648,-1.07654 -0.80742,-1.7373 -0.32795,-2.67713 0.53817,-1.05491 0.61179,-1.07008 9.40849,-1.93873 7.69694,-0.76005 7.87021,-0.77074 7.75611,-0.47819 -0.0642,0.16459 -0.61861,1.38204 -1.23203,2.70548 -0.61343,1.32342 -1.11532,2.46748 -1.11532,2.54236 0,0.19237 3.82721,7.01213 3.93517,7.01213 0.43045,0 7.62666,-1.55326 7.76031,-1.67503 0.0962,-0.0877 1.42977,-2.90013 2.96335,-6.24987 2.39912,-5.24024 2.83562,-6.0977 3.12703,-6.14246 0.18627,-0.0286 3.07937,-0.33326 6.42912,-0.677 5.60136,-0.57477 6.10918,-0.60595 6.32395,-0.38824 0.12844,0.13021 1.77297,2.41607 3.65454,5.07972 1.88158,2.66365 3.47301,4.91095 3.53656,4.99404 0.10564,0.13809 -4.40865,10.23276 -4.71931,10.5531 -0.0734,0.0757 -3.51273,0.45481 -7.64294,0.84247 -4.13022,0.38764 -7.52305,0.72197 -7.53962,0.74291 -0.25023,0.31635 -3.92854,6.65026 -3.94152,6.78715 -0.01,0.10477 1.07161,1.42592 2.40343,2.9359 1.33182,1.50997 2.49605,2.83954 2.58716,2.95458 0.1428,0.18032 0.68927,0.15945 3.9604,-0.15125 2.0871,-0.19822 3.8169,-0.33828 3.84396,-0.31121 0.027,0.027 -0.94189,2.20834 -2.15325,4.84727 l -2.20247,4.79808 1.91314,3.39764 c 1.05224,1.86871 1.95609,3.44346 2.00855,3.49946 0.0807,0.0861 7.76574,-1.41265 7.89228,-1.5392 0.0374,-0.0374 2.72894,-5.87604 4.03362,-8.75 l 0.42749,-0.94166 2.1347,2.99626 c 1.17407,1.64795 2.18037,3.07325 2.23618,3.16733 0.0708,0.11939 1.32562,0.20318 4.15491,0.27747 l 4.05342,0.1064 1.27657,-3.82982 1.27659,-3.82983 -4.24612,-5.98688 c -2.33537,-3.29276 -4.32789,-6.12089 -4.42786,-6.2847 -0.15954,-0.26144 0.10097,-0.91586 2.13216,-5.35665 1.27266,-2.78234 2.36529,-5.11774 2.4281,-5.18975 0.0629,-0.072 3.04033,-0.41022 6.61671,-0.75156 5.99462,-0.57215 6.52091,-0.60204 6.73834,-0.38271 0.20494,0.20675 6.77842,9.3177 7.08281,9.81692 0.0695,0.11408 -1.03035,2.68311 -2.83199,6.61461 -1.62014,3.53546 -2.94571,6.47193 -2.94571,6.5255 0,0.077 3.76155,6.82606 3.87973,6.96106 0.0653,0.0746 7.64967,-1.4817 7.80603,-1.60177 0.0909,-0.0698 0.78286,-1.47913 1.53764,-3.13181 1.28495,-2.81348 1.38767,-2.98853 1.61312,-2.74877 0.41589,0.44226 9.17871,12.70658 9.43146,13.2001 0.54737,1.06888 -0.14853,2.68828 -1.30446,3.03556 -0.31516,0.0947 -62.99843,6.40497 -63.52635,6.39517 -0.17001,-0.003 -0.50724,-0.0938 -0.7494,-0.20143 z m 78.82969,-17.70138 c -0.23064,-0.0692 -0.54701,-0.2412 -0.70303,-0.38238 -0.37793,-0.34203 -9.45341,-12.96578 -9.41132,-13.09091 0.0181,-0.0537 1.37029,-0.22972 3.00493,-0.39115 l 2.97211,-0.29351 2.01459,-3.37543 c 1.10803,-1.85648 2.0177,-3.41458 2.0215,-3.46243 0.0204,-0.25682 -5.17472,-5.9347 -5.46435,-5.97215 -0.17912,-0.0232 -3.12682,0.2245 -6.55047,0.55034 -3.42364,0.32585 -6.39769,0.59245 -6.60899,0.59245 -0.31152,0 -0.53776,-0.21513 -1.19612,-1.13738 -0.44657,-0.62554 -2.14348,-2.98959 -3.77092,-5.25341 l -2.959,-4.11606 2.6535,-5.79007 c 1.45941,-3.18455 2.67374,-5.8116 2.6985,-5.83788 0.0645,-0.0685 10.46271,-1.04779 11.0785,-1.04332 0.50857,0.004 0.55572,0.0632 4.76962,6.02532 2.34078,3.3119 4.322,6.07667 4.40272,6.14396 0.0807,0.0673 1.93785,0.17042 4.12694,0.22918 l 3.98019,0.10682 1.2774,-3.83233 1.27741,-3.83235 -2.2114,-3.11091 c -1.21627,-1.71101 -2.18511,-3.13723 -2.15297,-3.16936 0.0321,-0.0321 2.37166,-0.27819 5.19896,-0.54679 2.82729,-0.26859 5.20334,-0.52717 5.28011,-0.57461 0.0767,-0.0474 0.53632,-0.76405 1.02125,-1.59245 0.48493,-0.82843 1.37988,-2.34546 1.98877,-3.3712 l 1.10708,-1.86501 -2.42609,-2.75785 c -1.33435,-1.51682 -2.53528,-2.87015 -2.66873,-3.0074 -0.22826,-0.23477 -0.55515,-0.21993 -5.52007,0.25042 -2.9026,0.27496 -5.29077,0.48632 -5.30703,0.46967 -0.0162,-0.0167 0.56285,-1.31808 1.2869,-2.89205 0.72406,-1.57397 1.45074,-3.17062 1.61485,-3.54812 l 0.29835,-0.68634 -1.94108,-3.45955 c -1.29786,-2.31313 -2.01963,-3.458 -2.17812,-3.45488 -0.13036,0.003 -1.91354,0.35097 -3.96261,0.7742 l -3.7256,0.76951 -3.19014,6.96726 -3.19014,6.96726 -5.70474,0.53878 c -3.13763,0.29633 -5.71406,0.52748 -5.72547,0.51366 -0.0115,-0.0138 -1.741,-2.44999 -3.84358,-5.41372 l -3.82286,-5.38858 2.56632,-5.68691 c 1.41147,-3.1278 2.58828,-5.70886 2.61513,-5.7357 0.0268,-0.0268 3.1769,-0.34356 7.00011,-0.70384 3.82325,-0.36027 7.01992,-0.67971 7.10373,-0.70985 0.0838,-0.0301 1.063,-1.58802 2.17597,-3.46195 2.02099,-3.40272 2.02325,-3.40755 1.74184,-3.72215 -0.15498,-0.17326 -1.32789,-1.50375 -2.60645,-2.95664 -1.27856,-1.45291 -2.40441,-2.6616 -2.50187,-2.68601 -0.0975,-0.0244 -1.61321,0.0933 -3.36832,0.26151 -1.75512,0.16823 -3.22486,0.27211 -3.26612,0.23086 -0.16256,-0.16256 6.63348,-14.97389 7.0551,-15.37589 0.68882,-0.6568 2.03748,-0.7346 2.79741,-0.16137 0.3493,0.26347 36.91145,50.98076 37.40789,51.89045 0.14125,0.25885 0.25682,0.72717 0.25682,1.04073 0,0.71273 -25.91856,58.33035 -26.5324,58.98223 -0.56362,0.59855 -1.42259,0.80358 -2.28451,0.54528 z M 222.7963,256.81494 c -2.704,-3.83049 -4.90987,-7.08105 -4.90193,-7.22347 0.0103,-0.18426 6.79772,-15.1935 7.03841,-15.56422 0.0532,-0.082 17.01717,-1.64771 17.17922,-1.58554 0.0901,0.0346 2.26477,3.02362 4.83255,6.64237 2.56779,3.61873 4.79541,6.75303 4.95026,6.9651 l 0.28156,0.38558 -3.55261,7.75946 c -1.95392,4.2677 -3.59582,7.80664 -3.64865,7.86432 -0.0529,0.0577 -3.62828,0.43524 -7.94546,0.83904 -4.31716,0.40381 -8.1796,0.76744 -8.58318,0.80805 l -0.73379,0.0739 z m -58.05502,-9.67222 c -0.84101,-0.36618 -1.48815,-1.59115 -1.27958,-2.42214 0.0516,-0.20563 5.96021,-13.38481 13.13019,-29.28706 14.07797,-31.22337 13.34858,-29.72787 14.59497,-29.92457 1.93022,-0.30463 62.50934,-6.26587 63.19697,-6.21884 0.90423,0.0618 1.40579,0.38515 1.81374,1.1692 0.47633,0.9155 0.36849,1.22741 -3.05916,8.84791 -1.79595,3.99283 -3.29838,7.26013 -3.33873,7.26069 -0.0404,0 -0.83285,-1.07842 -1.76109,-2.39772 l -1.68771,-2.39877 -0.73379,-0.0927 c -0.40358,-0.051 -2.22774,-0.0933 -4.05368,-0.094 l -3.31987,-9.2e-4 -1.26857,3.70563 c -0.69772,2.03809 -1.26755,3.75881 -1.2663,3.8238 9.3e-4,0.065 1.78317,2.62582 3.95981,5.69069 l 3.95752,5.57247 -2.65645,5.90316 c -1.46102,3.24675 -2.66856,5.91869 -2.68338,5.93764 -0.025,0.0319 -12.35487,1.21297 -12.6635,1.21297 -0.0765,0 -1.64172,-2.11524 -3.47843,-4.70053 l -3.33945,-4.70056 3.00964,-6.56308 c 1.65529,-3.6097 3.08583,-6.7305 3.17898,-6.93511 0.15484,-0.34013 0.004,-0.66724 -1.76547,-3.81569 -1.06416,-1.89403 -1.95349,-3.46485 -1.97629,-3.49072 -0.0228,-0.0258 -1.81022,0.30658 -3.97205,0.73878 l -3.9306,0.78582 -1.55317,3.39782 c -0.85425,1.86881 -1.59321,3.43786 -1.64215,3.48681 -0.049,0.049 -1.4675,-1.86155 -3.15235,-4.24553 l -3.06337,-4.33453 -4.01533,0.0356 -4.01534,0.0356 -1.23068,3.59556 c -0.67685,1.97756 -1.2309,3.68624 -1.23122,3.79707 0,0.11083 1.35724,2.1156 3.01678,4.45502 1.65956,2.33944 2.98261,4.28831 2.94011,4.33081 -0.0425,0.0425 -1.77907,0.23811 -3.85906,0.43471 -2.07998,0.19658 -3.79148,0.36941 -3.80334,0.38406 -0.12319,0.1522 -3.8757,6.54334 -3.93954,6.7097 -0.0676,0.17626 3.01794,3.87537 5.05263,6.05731 0.0916,0.0983 13.74492,-1.07239 14.98865,-1.28521 0.35356,-0.0604 0.62476,0.27757 3.70977,4.62483 l 3.32833,4.6901 -2.73572,5.9784 c -1.50466,3.28813 -2.76376,6.0084 -2.79803,6.04504 -0.0935,0.1 -12.43689,1.31792 -12.52394,1.23577 -0.0413,-0.0391 -1.89255,-2.62643 -4.11376,-5.74981 l -4.0386,-5.67885 -0.65764,-0.0992 c -0.36171,-0.0545 -2.18554,-0.10408 -4.05298,-0.11007 l -3.39532,-0.0108 -1.02603,2.97184 c -0.56431,1.63451 -1.14364,3.34639 -1.28739,3.80418 l -0.26137,0.83236 1.9917,2.78785 1.99168,2.78789 -0.68438,0.0893 c -1.44571,0.18879 -15.23577,1.548 -15.65366,1.54291 -0.24216,-0.003 -0.644,-0.0941 -0.893,-0.2025 z"
       id="path978" />
  </g>
</svg>
