<?xml version="1.0" encoding="UTF-8" standalone="no"?>
<!-- Generator: Adobe Illustrator 25.2.0, SVG Export Plug-In . SVG Version: 6.00 Build 0)  -->

<svg
   version="1.1"
   id="Layer_1"
   x="0px"
   y="0px"
   viewBox="0 0 377.95276 377.95276"
   xml:space="preserve"
   sodipodi:docname="C_Leaf.svg"
   width="100mm"
   height="100mm"
   inkscape:version="1.1.1 (3bf5ae0d25, 2021-09-20)"
   xmlns:inkscape="http://www.inkscape.org/namespaces/inkscape"
   xmlns:sodipodi="http://sodipodi.sourceforge.net/DTD/sodipodi-0.dtd"
   xmlns="http://www.w3.org/2000/svg"
   xmlns:svg="http://www.w3.org/2000/svg"><defs
   id="defs7" /><sodipodi:namedview
   id="namedview5"
   pagecolor="#ffffff"
   bordercolor="#666666"
   borderopacity="1.0"
   inkscape:pageshadow="2"
   inkscape:pageopacity="0.0"
   inkscape:pagecheckerboard="0"
   showgrid="false"
   units="mm"
   inkscape:zoom="1.38"
   inkscape:cx="78.985507"
   inkscape:cy="237.68116"
   inkscape:window-width="1920"
   inkscape:window-height="1029"
   inkscape:window-x="0"
   inkscape:window-y="0"
   inkscape:window-maximized="1"
   inkscape:current-layer="Layer_1"
   inkscape:document-units="mm" />
<path
   d="m 171.09616,122.30025 c 1.25476,-4.25222 2.4398,-8.08618 3.90368,-12.3384 -3.62484,-2.16096 -6.06464,-6.27376 -6.06464,-10.804808 0,-7.040554 5.71609,-12.756646 12.75664,-12.756646 0.97592,0 1.88213,0.06971 2.78834,0.278833 0.0697,0 0.20913,0.06971 0.34855,0.06971 -0.27884,1.603295 -0.55767,3.206589 -0.7668,4.879592 -0.34853,2.648921 0.48796,4.740174 1.04563,6.064635 v 0 c 0,0 0.0697,0.06971 0.0697,0.209126 0.0697,0.209125 0.20913,0.278833 0.20913,0.487958 0.55766,1.74271 1.11533,3.48542 1.81242,5.22813 0.69708,2.02155 1.32445,3.90367 2.02154,5.7858 -2.09125,1.53359 -4.67046,2.37009 -7.38909,2.37009 -0.48796,0 -1.04564,0 -1.53359,-0.0697 -1.74271,4.9493 -3.06718,9.34093 -4.46134,14.35994 -1.673,-1.25475 -3.13688,-2.50951 -4.74018,-3.76425 z m 26.07096,-51.793381 c 0.27884,0.209125 1.04563,0.766793 1.81242,1.533586 0.20913,0.209125 0.34854,0.348542 0.69709,0.557667 0.76678,-1.115334 1.53358,-2.160961 2.30037,-3.206588 1.6033,0.766793 3.41572,1.115335 5.43726,1.115335 3.13689,0 5.99493,-1.115335 8.29531,-3.067172 v 0 c 0.8365,-0.766793 1.6033,-1.603294 2.30038,-2.439796 0,-0.278833 0.0697,-0.557667 0.0697,-0.975918 0.20913,-1.533586 0.48796,-2.927755 0.76679,-4.391632 -7.31939,-1.882128 -13.31432,-7.110262 -16.38148,-13.871981 -4.67047,1.882128 -8.01647,6.552594 -8.01647,11.920145 0,3.206588 1.11533,6.204052 3.13687,8.434722 -0.76679,0.975918 -1.39416,2.021545 -2.16096,3.13688 z M 155.34205,195.35471 c 1.39417,0.48795 2.92776,0.8365 4.39163,1.25474 1.81242,0.48797 3.62485,0.97592 5.43727,1.32447 1.11533,0.20912 2.30037,0.48795 3.4157,0.55766 0.27884,0 0.48797,0.0697 0.7668,0.0697 0.55767,0 0.8365,-0.0697 0.8365,-0.20913 0.0697,-0.0697 0.27884,-0.76679 -0.0697,-2.02154 -0.76679,-2.78833 -2.16095,-5.22813 -3.69454,-6.6223 -0.48797,-0.34854 -0.83651,-0.76679 -1.32447,-1.11534 -1.60328,-1.39416 -3.346,-2.92775 -5.019,-4.39163 -1.88213,-1.6033 -3.83397,-3.20658 -5.78581,-4.87959 -2.85804,2.37008 -4.67046,5.92521 -4.67046,9.75919 0,1.60328 0.27883,3.20658 0.8365,4.67046 l 0.27883,0.0697 c 1.53359,0.55767 3.06718,1.04562 4.60076,1.53359 z m -6.83142,77.93404 c 0,-1.81242 -0.34855,-3.41572 -1.11534,-4.9493 1.53358,-1.39417 3.13688,-2.92776 4.67047,-4.74018 -0.97592,-1.74271 -1.88213,-3.346 -2.85805,-5.01901 -1.74271,2.09126 -3.48542,3.90368 -5.22813,5.50697 -2.02155,-1.53358 -4.46134,-2.43979 -7.11026,-2.43979 -6.48289,0 -11.71103,5.22813 -11.71103,11.5716 0,1.39416 0.27884,2.78834 0.69709,3.97338 -3.97338,2.16097 -8.92268,4.39163 -14.42965,5.7161 -1.60329,-4.8796 -6.20405,-8.36502 -11.501895,-8.36502 -4.740174,0 -8.922682,2.78833 -10.944227,6.83143 -3.903673,-1.6033 -7.040552,-3.83396 -9.480349,-5.92522 1.115336,-1.6033 1.812421,-3.62484 1.812421,-5.7858 0,-5.57668 -4.53105,-10.10773 -10.107726,-10.10773 -0.697085,0 -1.254752,0.0697 -1.812419,0.20913 -1.115336,-2.85805 -2.300379,-6.34347 -3.415715,-10.52597 3.067172,-1.74271 5.019009,-4.94931 5.019009,-8.64385 0,-5.01901 -3.694548,-9.13181 -8.574139,-9.75919 -0.48796,-4.25221 -0.697085,-8.36501 -0.766793,-11.78073 3.833964,-1.11533 6.552594,-4.67046 6.552594,-8.85297 0,-3.90367 -2.439796,-7.31939 -5.925219,-8.57414 0.348543,-3.97338 1.045627,-9.34093 2.091254,-15.75411 4.740175,-0.48796 8.365014,-4.46134 8.365014,-9.34093 0,-3.48543 -1.882128,-6.6223 -4.879592,-8.2953 1.882129,-7.59823 3.903673,-14.15082 5.576676,-19.03042 0.209126,0 0.348542,0 0.557668,0 5.228134,0 9.41064,-4.18249 9.41064,-9.41063 0,-3.06718 -1.533585,-5.78581 -3.833964,-7.52852 1.812419,-4.46134 4.670466,-10.45627 8.574139,-17.70594 0.836501,0.20912 1.742712,0.34854 2.579213,0.34854 5.576675,0 10.10772,-4.53105 10.10772,-10.10773 0,-2.64892 -1.045622,-5.019003 -2.648917,-6.831422 3.346007,-5.228134 5.994937,-9.340932 8.086177,-12.477813 1.04563,0.348542 2.16096,0.557668 3.41572,0.557668 5.57667,0 10.10772,-4.531049 10.10772,-10.107725 0,-2.370088 -0.8365,-4.531049 -2.16096,-6.273761 2.92776,-3.624839 6.97085,-8.295305 11.98985,-13.244605 1.53359,0.975918 3.41572,1.533587 5.43726,1.533587 5.57668,0 10.10773,-4.53105 10.10773,-10.107726 0,-1.324461 -0.27883,-2.579213 -0.76679,-3.694547 4.74017,-3.206589 9.06209,-5.43726 12.61722,-6.970845 1.88213,2.927755 5.29784,4.9493 9.13182,4.9493 5.99491,0 10.8048,-4.879592 10.8048,-10.804811 0,-0.209125 0,-0.348542 0,-0.487958 4.11281,-1.115336 9.0621,-2.300379 14.35994,-3.136881 1.32447,3.833965 4.67046,6.622303 8.64385,7.389096 0,-3.067172 0.55767,-5.994927 1.6033,-8.643848 0.20912,-0.557667 0.48795,-1.045627 0.69708,-1.603294 1.81242,-3.833964 4.53105,-7.110261 7.87705,-9.619766 -2.09125,-2.021545 -4.87959,-3.13688 -8.01647,-3.13688 -5.92521,0 -10.80481,4.461341 -11.5019,10.177434 -5.71608,0.975918 -11.01393,2.160961 -15.33585,3.415713 -1.88213,-3.13688 -5.29784,-5.158425 -9.20151,-5.158425 -5.99493,0 -10.80482,4.879591 -10.80482,10.804809 0,0.209126 0,0.48796 0,0.766794 -3.97338,1.742711 -8.85297,4.182506 -14.15081,7.807346 -1.74272,-1.324461 -3.83397,-2.091253 -6.06464,-2.091253 -5.57667,0 -10.10772,4.531049 -10.10772,10.107725 0,1.603294 0.34854,3.206588 1.11533,4.531048 -5.43726,5.228135 -9.68947,10.177435 -12.75664,14.011399 -1.11533,-0.348542 -2.30038,-0.697085 -3.48542,-0.697085 -5.57668,0 -10.10773,4.531049 -10.10773,10.107725 0,2.370088 0.8365,4.670466 2.30038,6.343469 -2.160964,3.136881 -4.949301,7.319387 -8.365016,12.756647 -0.836501,-0.278835 -1.882127,-0.348542 -2.858046,-0.348542 -5.576675,0 -10.107725,4.531049 -10.107725,10.107727 0,2.78833 1.045627,5.22813 2.858047,7.04055 -4.182508,7.59822 -7.110263,13.87198 -9.062099,18.54245 -0.209125,0 -0.348542,0 -0.557667,0 -5.228134,0 -9.410641,4.18251 -9.410641,9.41064 0,3.06717 1.394169,5.7858 3.694548,7.52851 -1.742711,4.9493 -3.833965,11.78073 -5.785801,19.65778 -4.879591,0.34855 -8.713557,4.39163 -8.713557,9.41064 0,3.69455 2.091254,6.83144 5.158426,8.36502 -1.115335,6.76172 -1.81242,12.26868 -2.160962,16.38148 -4.112798,0.97592 -7.110262,4.53105 -7.110262,8.92268 0,4.11281 2.788338,7.59823 6.482886,8.71356 v 0 c 0.06971,3.62484 0.278833,8.08618 0.766793,12.61723 -3.415714,1.53359 -5.785802,4.9493 -5.785802,9.0621 0,5.29785 4.182508,9.61977 9.410641,9.8986 1.254752,4.67046 2.579213,8.57414 3.833965,11.71102 -2.091254,1.81242 -3.346006,4.53105 -3.346006,7.52852 0,5.57667 4.531049,10.10772 10.107726,10.10772 1.394168,0 2.788337,-0.27883 3.973381,-0.83651 3.067171,2.78834 7.249679,5.7161 12.547521,7.80735 0,6.6223 5.437258,11.98985 12.059561,11.98985 6.064629,0 11.223059,-4.53105 11.989849,-10.45626 v 0 c 6.55259,-1.39417 12.3384,-4.1128 16.93916,-6.62231 2.09125,2.02155 4.87959,3.13689 8.01647,3.13689 6.69201,0.27883 11.92015,-4.94931 11.92015,-11.36248 z M 328.35842,146.07083 c -20.84282,8.43472 -20.84282,8.08618 -22.51582,1.53359 -4.11281,3.20658 -8.08618,6.76171 -12.26869,9.34093 -7.31939,4.46134 -14.70849,8.85297 -22.44613,11.78073 -3.346,1.32446 -8.64384,1.25475 -10.45626,-0.97593 -2.85805,-3.48542 0.34854,-8.92268 3.41571,-12.61722 5.92522,-7.04056 12.05956,-13.80227 18.26362,-20.6337 4.1128,-4.53105 8.57414,-8.64385 13.10519,-13.38402 -4.18251,-3.41572 -1.81242,-7.11026 0,-10.73511 1.60329,-3.13688 4.1128,-5.50697 3.48542,-9.8986 -0.34854,-3.136879 2.16096,-7.249677 3.48542,-11.15335 -5.15843,1.394169 -9.48035,10.177434 -15.61469,4.879592 -4.87959,5.716093 -11.15335,8.434728 -17.98478,8.434728 -8.57414,0 -13.87199,-5.019014 -13.38402,-14.290238 0.27883,-7.110262 2.57921,-14.359941 3.97338,-21.609619 0.34854,-1.882128 1.25475,-3.694548 2.02154,-5.994927 -3.83396,0.209126 -8.64384,6.064635 -10.52597,-0.209125 v -0.06971 c 8.15589,-1.882128 14.35994,-9.340932 14.35994,-18.054488 0,-10.247142 -8.36502,-18.612156 -18.61216,-18.612156 -10.24714,0 -18.61215,8.365014 -18.61215,18.612156 0,6.064635 2.92775,11.501894 7.52851,14.917609 -1.74272,5.158424 -5.7858,4.740173 -11.5019,-0.975919 -0.55766,3.067171 -1.11533,5.576676 -1.39416,8.155889 -0.8365,6.970845 -2.02155,13.871981 -9.41065,17.008861 -7.59822,3.13688 -13.52343,0 -18.82127,-4.879592 -0.48797,-0.487958 -0.97592,-0.766792 -1.04563,-0.836501 -0.8365,5.228134 -1.88214,10.944227 -2.78835,16.730028 -0.20912,1.115335 0.7668,2.370087 1.11535,3.624839 2.64892,8.016473 5.71609,15.963233 7.31938,24.467663 1.11533,5.92522 0.97592,13.10519 -5.22813,17.2877 -5.99493,3.97338 -11.5716,0.83651 -16.38149,-2.30038 -5.99492,-4.1128 -11.43218,-9.1318 -17.14828,-13.66285 -1.04562,-0.8365 -2.09125,-1.81242 -3.346,-2.78835 -1.53358,6.76172 -3.62484,8.01648 -10.17743,5.99493 -2.92777,-0.97592 -5.78581,-2.37008 -9.41065,-3.90367 2.02154,3.97338 3.69455,7.11026 5.15843,10.52598 1.32445,3.13687 1.39417,5.92521 -3.34601,5.29784 2.57922,4.11279 5.7161,7.59822 7.11026,11.92014 1.81242,5.15843 -1.25474,9.13182 -5.29784,11.01394 9.8986,8.15589 20.14574,16.17236 29.76551,24.81621 2.78834,2.37008 4.67046,6.20405 5.71609,9.8986 1.81242,6.55259 -2.16096,11.43218 -8.85297,10.45627 -6.76172,-0.97592 -13.10519,-3.2066 -18.61216,-4.74019 -7.52851,4.74019 -12.61722,-1.81241 -18.54245,-1.60328 -0.20912,6.6223 3.69455,10.94422 7.59823,15.40556 1.6033,1.81242 2.09125,4.74017 3.06717,7.11026 -0.34854,0.27883 -0.83651,0.55767 -1.25475,0.8365 1.53359,0.48797 3.06717,0.97592 4.53105,1.39418 3.97338,1.11533 7.66793,2.16096 11.15335,3.69454 1.60329,0.7668 3.13688,1.6033 4.87959,2.78834 2.85804,1.74271 5.50696,3.90367 8.01647,6.06464 1.25476,1.04562 0.76679,3.97337 1.04562,5.99493 -2.02154,0.48795 -4.11279,1.60328 -5.78579,1.32445 -5.78581,-0.97592 -11.43219,-2.4398 -17.84536,-4.1128 8.36501,14.08111 16.10265,27.74397 23.70087,41.61595 0.76679,1.39417 1.74271,2.85805 2.92775,3.97338 0,0 0.0697,0.0697 0.20913,0.0697 0.34853,0.20912 0.69708,0.48796 0.8365,0.69708 0.0697,0.0697 0.20912,0.20913 0.27883,0.27883 v 0 c 0.97592,1.04564 1.32446,2.57922 -0.69708,6.4829 -0.55767,1.11533 -1.11534,2.16095 -1.74271,3.34599 -1.6033,3.2066 -3.20659,6.27377 -4.9493,9.20152 -7.11026,11.98985 -14.70849,23.84029 -22.72496,35.69073 -3.69455,5.43725 -7.38909,10.8048 -11.29277,16.17236 -0.55766,0.76679 -1.04563,1.60329 -1.39416,2.16096 -0.69709,1.11533 -1.32447,2.30038 -2.02155,3.41572 0.55766,0.69708 1.11534,1.39416 1.81242,2.09125 0.34854,0.48796 0.7668,0.8365 1.04563,1.32446 1.11533,0 2.37009,0 3.48542,0 0.8365,-0.27884 1.81242,-0.48796 2.64892,-0.76679 1.11533,-0.48797 3.34601,-1.6033 4.25222,-2.16097 2.78834,-1.81242 4.46134,-2.78834 6.6223,-5.7858 6.48288,-9.1318 12.33839,-18.75157 17.84536,-28.0228 1.32446,-2.16095 2.57921,-4.25221 3.83397,-6.48288 4.74017,-8.08618 9.1318,-16.38149 13.31431,-24.25854 0.97592,-1.88213 1.88213,-3.83396 2.85805,-5.71609 l 0.0697,-0.0697 h 0.0697 l 0.27884,-0.55767 c 40.91893,-81.21034 51.51461,-179.0113 51.51461,-179.0113 l 4.9493,-11.43218 c 0,0 -0.34854,33.73889 -4.25222,60.01897 -3.90367,25.79213 -16.45119,82.18626 -34.22684,124.01134 2.4398,-0.97592 5.019,-1.74272 7.52851,-2.3701 0,0 0,0 0.0697,0 4.74018,-1.32445 9.89861,-2.30037 15.68441,-2.85804 2.30038,-0.27883 4.53104,-0.76679 7.04055,-1.25476 0.55767,-0.0697 1.11533,-0.27883 1.74271,-0.34854 -1.74271,-1.74271 -3.41571,-2.85804 -4.25222,-4.46134 -1.25474,-2.30038 -3.06716,-5.15842 -2.37008,-7.59822 0.55767,-1.81242 4.87959,-4.53105 7.24968,-4.87959 v 0 c 0.34854,-0.20912 0.76679,-0.34854 0.97592,-0.34854 8.85297,-1.11534 17.77565,-1.81242 26.90745,-2.64892 1.11535,-0.0697 2.57922,0.20913 3.97339,0.48796 0.8365,0.20912 1.74271,0.27883 2.57921,0.48796 0.0697,0 0.27884,0 0.34854,0 1.6033,-7.11026 10.38656,-14.42965 21.67933,-18.89099 0.7668,-0.27884 1.53358,-0.69709 2.30038,-0.97592 0.20913,-0.27883 0.34855,-0.69709 0.69708,-0.97592 -3.346,-0.27883 -6.76172,-0.48796 -10.10772,-0.8365 -2.85805,-0.34854 -4.74018,-1.6033 -2.02155,-5.57667 -5.99492,0.20912 -11.78072,0.97591 -17.21798,0.27883 -4.9493,-0.55767 -9.61977,-2.09125 -13.87198,-3.97338 -1.81242,-0.8365 -3.62484,-3.62484 -3.41572,-5.78581 0.20913,-1.60329 3.34601,-4.53104 5.43727,-5.43725 3.83396,-1.53359 7.59821,-3.13689 11.50189,-4.67047 0.76679,-0.27884 1.53358,-0.55767 2.30037,-0.97591 4.53105,-1.81243 9.20153,-3.62485 13.87199,-5.01902 4.94929,-1.60329 9.8986,-2.43979 15.12673,-3.48542 2.4398,-0.48796 4.9493,-0.97592 7.38909,-1.53359 1.25476,-0.27883 2.37009,-0.69708 3.83397,-1.04562 0.20913,-0.0697 0.48796,-0.20912 0.7668,-0.20912 -0.48797,-0.83651 -0.69709,-1.25476 -0.97593,-1.53359 -7.87705,-7.24968 -7.38909,-11.22307 2.16097,-21.19137 3.06717,-3.20659 6.48288,-6.06464 9.75918,-9.34094 -1.25476,-0.48795 -2.4398,-0.97592 -4.67046,-1.81242 3.76425,-6.76171 7.5285,-13.73256 11.22305,-20.77311 z m -108.81489,-91.178653 1.39418,-8.295306 3.69454,3.624839 c -0.8365,-2.439795 -1.32446,-5.158425 -1.32446,-7.877054 0,-9.968309 6.27376,-18.472739 15.05702,-21.888453 -3.48542,-3.13688 -8.15588,-5.019009 -13.31431,-5.019009 -11.15335,0 -20.07603,8.922681 -20.07603,20.076034 -0.13942,9.340931 6.06463,17.008861 14.56906,19.378949 z"
   id="path2"
   style="stroke-width:0.697085" />
</svg>
