<?xml version="1.0" encoding="UTF-8" standalone="no"?>
<!-- Generator: Adobe Illustrator 27.0.1, SVG Export Plug-In . SVG Version: 6.00 Build 0)  -->

<svg
   version="1.1"
   id="Layer_1"
   x="0px"
   y="0px"
   viewBox="0 0 377.95276 377.95276"
   xml:space="preserve"
   sodipodi:docname="C_Lightning_Ball.svg"
   width="100mm"
   height="100mm"
   inkscape:version="1.1.2 (0a00cf5339, 2022-02-04)"
   xmlns:inkscape="http://www.inkscape.org/namespaces/inkscape"
   xmlns:sodipodi="http://sodipodi.sourceforge.net/DTD/sodipodi-0.dtd"
   xmlns:xlink="http://www.w3.org/1999/xlink"
   xmlns="http://www.w3.org/2000/svg"
   xmlns:svg="http://www.w3.org/2000/svg"><defs
   id="defs19" /><sodipodi:namedview
   id="namedview17"
   pagecolor="#ffffff"
   bordercolor="#666666"
   borderopacity="1.0"
   inkscape:pageshadow="2"
   inkscape:pageopacity="0.0"
   inkscape:pagecheckerboard="0"
   showgrid="false"
   units="mm"
   inkscape:zoom="0.93767996"
   inkscape:cx="280.47949"
   inkscape:cy="327.40382"
   inkscape:window-width="1846"
   inkscape:window-height="1025"
   inkscape:window-x="0"
   inkscape:window-y="0"
   inkscape:window-maximized="1"
   inkscape:current-layer="Layer_1"
   inkscape:document-units="mm" />
<style
   type="text/css"
   id="style2">
	.st0{clip-path:url(#SVGID_00000081636762277705246810000015123562207216967297_);}
	.st1{fill:#231F20;}
</style>
<g
   id="g14"
   transform="matrix(0.67811648,0,0,0.67811648,-14.424658,-14.458564)">
	<defs
   id="defs5">
		<rect
   id="SVGID_1_"
   width="600"
   height="600"
   x="0"
   y="0" />
	</defs>
	<clipPath
   id="SVGID_00000119092938711474976160000001087031063270955142_">
		<use
   xlink:href="#SVGID_1_"
   style="overflow:visible"
   id="use7"
   x="0"
   y="0"
   width="100%"
   height="100%" />
	</clipPath>
	<g
   clip-path="url(#SVGID_00000119092938711474976160000001087031063270955142_)"
   id="g12">
		<path
   class="st1"
   d="m 379.17148,356.59897 13.17554,-13.93384 -26.54065,-10.14232 c 0,0 -16.20875,18.38888 -27.77289,25.30841 l -21.99082,-13.36512 36.96733,72.60764 17.06184,-39.52661 49.19499,159.71783 -54.69269,-85.59359 -24.17095,42.18067 -20.28464,-89.4799 -17.06185,41.04322 v -77.72619 c -9.57359,1.32703 -17.91493,2.3697 -27.29895,-1.23224 l -3.22279,-23.41265 -17.63058,53.65003 16.39833,-0.28437 -49.38456,82.84474 19.24197,-69.38484 h -16.96706 l 33.17581,-56.39887 c 0,0 -6.91952,-3.03322 -9.09965,-5.68729 l 7.39347,-28.05725 -60.09561,64.07671 10.04753,-29.57387 -60.75913,44.64516 6.72995,-37.15691 -90.238199,22.55956 130.712689,-76.02001 -11.8485,33.17582 54.40833,-20.75858 c -0.18958,-0.66352 -7.20389,-19.0524 -5.30813,-29.28951 l 21.70646,-7.96219 -52.03863,-11.46935 1.13745,15.35566 -93.84014,-43.12855 78.2949,15.35566 -0.66351,-15.16609 54.78748,22.65434 c 0,0 3.22279,-8.7205 8.05698,-13.17554 l 29.47908,5.5925 -73.27115,-61.89659 38.95788,10.90063 -57.8207,-64.9298 48.24711,5.21334 -40.47449,-85.404021 102.84502,122.371351 -39.33704,-4.26546 23.7918,54.50312 c 7.77262,-2.84364 11.65893,-4.83419 20.00028,-4.36025 l 10.2371,24.26573 1.80098,-24.92925 4.07588,3.50716 10.42668,-61.99137 12.22766,10.52147 30.33217,-67.01514 -15.8296,99.33786 -14.59736,-12.41724 -13.74426,36.4934 c 2.46449,0.85309 14.12341,5.97164 20.28464,12.70159 l -5.78207,26.25629 55.26142,-58.19985 -10.42668,29.95301 58.67379,-46.54092 -7.39347,39.24224 83.03432,-22.74912 -119.52771,73.36593 9.28923,-31.94356 -45.87741,16.5879 c 0.0948,0.28437 5.97164,15.26088 5.11855,24.92925 l -21.89603,11.75372 19.05239,0.47394 c 0,0 -4.7394,4.83419 -4.7394,4.83419 l 62.84446,10.80584 -9.95274,10.71104 70.23793,30.99569 z"
   id="path10"
   style="stroke-width:0.94788" />
	</g>
</g>
</svg>
