<?xml version="1.0" encoding="UTF-8" standalone="no"?>
<svg
   xmlns:dc="http://purl.org/dc/elements/1.1/"
   xmlns:cc="http://creativecommons.org/ns#"
   xmlns:rdf="http://www.w3.org/1999/02/22-rdf-syntax-ns#"
   xmlns:svg="http://www.w3.org/2000/svg"
   xmlns="http://www.w3.org/2000/svg"
   xmlns:sodipodi="http://sodipodi.sourceforge.net/DTD/sodipodi-0.dtd"
   xmlns:inkscape="http://www.inkscape.org/namespaces/inkscape"
   version="1.1"
   id="svg2"
   width="316"
   height="428"
   viewBox="0 0 316 428"
   sodipodi:docname="C_Mirefoot.png.svg"
   inkscape:version="1.0.2 (e86c870879, 2021-01-15)">
  <metadata
     id="metadata8">
    <rdf:RDF>
      <cc:Work
         rdf:about="">
        <dc:format>image/svg+xml</dc:format>
        <dc:type
           rdf:resource="http://purl.org/dc/dcmitype/StillImage" />
        <dc:title></dc:title>
      </cc:Work>
    </rdf:RDF>
  </metadata>
  <defs
     id="defs6" />
  <sodipodi:namedview
     pagecolor="#ffffff"
     bordercolor="#666666"
     borderopacity="1"
     objecttolerance="10"
     gridtolerance="10"
     guidetolerance="10"
     inkscape:pageopacity="0"
     inkscape:pageshadow="2"
     inkscape:window-width="1920"
     inkscape:window-height="1029"
     id="namedview4"
     showgrid="false"
     inkscape:zoom="1.9602804"
     inkscape:cx="158"
     inkscape:cy="214"
     inkscape:window-x="0"
     inkscape:window-y="0"
     inkscape:window-maximized="1"
     inkscape:current-layer="g10" />
  <g
     inkscape:groupmode="layer"
     inkscape:label="Image"
     id="g10">
    <path
       style="fill:#000000"
       d="m 137.98006,400.23074 c -0.65558,-15.02878 -1.36677,-33.98681 -1.58043,-42.12897 -0.21365,-8.14216 -0.60179,-15.01725 -0.86252,-15.27798 -0.26073,-0.26073 -1.69076,-0.0115 -3.17784,0.55392 -5.81109,2.20937 -11.81422,0.18971 -12.95582,-4.3588 -0.52463,-2.0903 -1.01541,-2.24479 -5.85599,-1.84337 -6.63237,0.55001 -10.09511,-1.73773 -10.09511,-6.66957 0,-3.86489 2.61952,-6.74678 7.72927,-8.50342 4.68336,-1.61007 4.86426,-2.93568 0.4997,-3.66171 -5.4743,-0.91062 -7.89564,-2.6733 -7.89564,-5.74783 0,-2.94445 2.27495,-6.87134 5.21779,-9.00666 1.74865,-1.26881 1.741,-1.4176 -0.19975,-3.88486 -2.60852,-3.31619 -2.5488,-5.56723 0.23352,-8.80187 1.52747,-1.77579 3.62432,-2.80172 6.52011,-3.19013 4.23868,-0.56853 4.26407,-0.59635 3.62964,-3.97816 -0.76773,-4.09235 1.17037,-6.69915 6.21961,-8.36555 2.94336,-0.97139 3.37908,-1.54667 3.37908,-4.46135 0,-2.85304 -1.89337,-13.33895 -2.58612,-14.32248 -0.12541,-0.17805 -1.59749,0.38445 -3.27129,1.25 -7.3056,3.77788 -15.14259,0.49464 -15.14259,-6.34385 0,-4.29063 1.64719,-6.2014 7.42827,-8.61689 3.51142,-1.46716 3.71441,-1.75142 2.27708,-3.18875 -1.43734,-1.43733 -2.23743,-1.25216 -8.97545,2.07715 -4.0686,2.01034 -9.801839,4.36918 -12.740532,5.24188 -2.938692,0.87269 -7.625993,2.84715 -10.416225,4.38767 -7.461568,4.11964 -12.302129,5.48634 -14.111849,3.98441 -2.633479,-2.18559 -1.70535,-8.25632 2.538228,-16.60208 4.584764,-9.01678 7.133902,-12.1624 12.707298,-15.68073 8.976174,-5.66641 27.6668,-8.5424 36.195,-5.56945 1.76015,0.61359 3.47805,0.83784 3.81755,0.49834 1.12677,-1.12676 -6.06644,-9.99792 -15.20348,-18.74998 -8.95885,-8.58138 -12.500258,-12.99862 -21.098073,-26.31586 -2.468531,-3.82353 -4.64753,-7.11116 -4.84222,-7.30585 -0.194691,-0.19469 -3.441347,1.21144 -7.214792,3.12474 -7.833275,3.9718 -15.77866,6.15724 -25.860807,7.11321 -3.85,0.36505 -9.84042,1.30634 -13.31205,2.09175 -6.37633,1.44257 -20.6892,1.94038 -23.60616,0.82104 -0.86998,-0.33384 -1.58179,-1.0078 -1.58179,-1.49768 0,-2.30396 7.54401,-10.94031 13.8654,-15.87305 14.47331,-11.29389 22.67094,-15.07287 41.0406,-18.91909 l 8.406002,-1.76003 1.240158,-4.92158 c 0.682087,-2.70687 1.788398,-7.60353 2.458468,-10.88147 1.152696,-5.6389 3.262609,-10.21102 5.407139,-11.71709 4.818966,-3.38429 24.728165,21.33358 32.562225,40.42698 1.86082,4.53524 5.02001,6.57309 5.02001,3.23818 0,-1.20372 0.81516,-1.38147 4,-0.87219 l 4,0.63963 -0.073,-4.37781 c -0.0401,-2.4078 -0.41608,-6.7918 -0.8354,-9.74223 -0.65417,-4.60289 -1.38399,-5.93837 -5.1411,-9.40756 C 119.16641,127.0674 101.8328,116.98129 77.506735,105.06988 65.528317,99.204575 55.437078,94.405689 55.081768,94.405689 c -0.3553,0 -4.43233,-1.858303 -9.06007,-4.129562 -6.09753,-2.99262 -10.52327,-6.152173 -16.07504,-11.476023 -4.21354,-4.040553 -9.23598,-8.143494 -11.16098,-9.117646 C 9.2706085,64.867327 -1.1012415,55.649784 0.35122846,53.299627 1.6314185,51.228244 11.674358,49.405689 21.808248,49.405689 c 12.01548,0 17.69843,1.339111 24.74615,5.831095 2.60221,1.65856 7.65627,3.766297 11.23127,4.68386 8.859,2.273756 11.845703,3.624553 17.583197,7.952355 5.693909,4.294925 17.416811,15.443858 17.416811,16.56406 0,0.814696 10.806774,15.13035 12.054584,15.968631 0.40935,0.275 3.60203,4.1483 7.09485,8.60733 11.48499,14.66208 18.85064,23.53695 18.8465,22.70818 -0.002,-0.44853 -0.47934,-7.09576 -1.06022,-14.77162 l -1.05616,-13.95611 -4.60364,-7.043891 c -2.532,-3.87414 -6.70591,-9.51889 -9.27535,-12.54389 -7.76136,-9.13746 -11.6862,-15.21562 -13.56026,-21 -0.98006,-3.025 -2.453606,-7.072978 -3.274538,-8.995508 -3.466169,-8.117377 -0.649207,-27.331173 4.501898,-30.706305 2.24031,-1.467904 2.66237,-1.292109 9.8051,4.08394 4.10521,3.08983 7.88016,5.617873 8.38878,5.617873 0.50862,0 1.39332,-2.660059 1.96601,-5.911243 1.45603,-8.266052 4.71036,-14.290959 13.14469,-24.3354562 2.626,-3.12731993 5.27522,-2.07264962 9.92905,3.952812 12.31976,15.9507902 15.7537,31.2563792 13.10937,58.4304632 -0.92074,9.461875 -1.66154,12.09739 -11.02563,39.225345 -2.25198,6.52406 -3.8788,12.07765 -3.61513,12.34131 0.26366,0.26366 1.3807,0.19331 2.48231,-0.15632 1.2707,-0.40331 3.6451,-4.00106 6.49493,-9.84131 8.06089,-16.519417 16.65286,-34.70817 16.65286,-35.25322 0,-0.550741 4.07483,-6.565182 5.04904,-7.452381 0.30197,-0.275 2.72813,-3.875 5.39147,-8 9.14037,-14.156686 10.06638,-15.496328 13.05949,-18.892992 5.17367,-5.871214 7.82526,-8.208097 13.7368,-12.106433 5.86898,-3.870265 25.56868,-11.436414 33.91434,-13.025622 4.95361,-0.943285 14.30493,0.08112 15.97367,1.749854 1.3668,1.366805 -4.2102,15.871616 -9.35232,24.323768 -2.65958,4.371569 -5.86039,7.933126 -9.62826,10.713392 -3.10433,2.290649 -9.01923,7.35046 -13.14423,11.244025 -7.85218,7.411627 -17.53652,14.337314 -25.36976,18.142997 -4.94542,2.402667 -6.40925,4.477889 -1.9674,2.7891 3.45023,-1.311776 4.11154,-0.525885 5.39366,6.409717 1.13057,6.115844 0.2022,13.537725 -2.61711,20.922435 -0.79167,2.07363 -1.43939,3.97013 -1.43939,4.21446 0,0.24432 2.1375,-0.49027 4.75,-1.63244 9.60326,-4.19846 23.96227,-8.57187 31.75,-9.67027 27.18034,-3.833601 38.49992,-3.890487 52.67651,-0.26473 8.0889,2.0688 23.82349,8.80305 23.82349,10.19622 0,2.19449 -8.61955,5.03723 -31.69537,10.45318 -14.92483,3.5029 -19.33211,5.43334 -12.40454,5.43334 11.06519,0 29.77351,12.4548 39.05451,26 3.47093,5.06566 9.0454,15.21374 9.0454,16.46676 0,0.89821 -6.60812,0.59388 -12.20078,-0.56189 -2.91457,-0.60233 -10.69922,-3.73166 -17.29922,-6.95408 -9.31985,-4.55038 -13.45175,-6.00976 -18.5,-6.53418 -3.575,-0.37138 -11.76613,-2.19204 -18.2025,-4.04592 -6.43638,-1.85388 -12.65184,-3.37069 -13.81214,-3.37069 -1.97995,0 -1.91098,0.27662 1.12202,4.5 1.77741,2.475 3.52251,4.5 3.878,4.5 1.51999,0 5.00609,8.11142 6.45655,15.02301 0.86301,4.11235 2.29424,10.50431 3.18052,14.20438 1.72402,7.19745 1.30781,14.11814 -1.04234,17.33217 -1.20882,1.65315 -1.7594,1.70621 -5.70897,0.55015 -10.42908,-3.05263 -31.24076,-20.0085 -37.50772,-30.55861 -1.94357,-3.27189 -5.48361,-7.66522 -7.86675,-9.76295 -2.38315,-2.09773 -6.40439,-6.95822 -8.93609,-10.8011 -2.53169,-3.84288 -5.0731,-6.98705 -5.64757,-6.98705 -2.36065,0 -5.11924,2.36896 -9.05995,7.78027 -2.29091,3.14585 -7.58255,9.10745 -11.75918,13.248 -10.38237,10.29267 -22.43084,25.44532 -21.78954,27.40341 0.79178,2.41752 5.36478,1.60139 9.74076,-1.7384 6.93607,-5.29367 11.87433,-7.35877 19.36761,-8.09923 8.75231,-0.86487 20.58461,0.23539 21.25264,1.97624 1.19618,3.1172 -13.42324,18.42971 -17.59553,18.42971 -0.5884,0 -1.06982,0.39752 -1.06982,0.88337 0,1.28781 3.74828,2.0874 9.85821,2.10298 6.46303,0.0165 36.64938,3.58172 43.64179,5.15445 2.75,0.61853 7.17385,2.70489 9.83078,4.63636 2.65692,1.93147 7.15692,4.48123 10,5.66613 5.17399,2.15636 12.09866,5.77251 18.66922,9.74932 4.03822,2.44413 16,14.23629 16,15.77313 0,1.45745 -10.28697,1.2353 -17.5,-0.37792 -9.3877,-2.09958 -29.60765,-7.5777 -31.39006,-8.50439 -3.19918,-1.66328 -23.38486,-8.14185 -23.86671,-7.65999 -0.27162,0.27162 1.76493,3.54996 4.52566,7.28521 9.81013,13.27298 16.23111,28.25727 16.23111,37.87763 0,3.8767 -0.29606,4.44992 -2.59649,5.02729 -5.61519,1.40933 -25.6569,-6.93577 -40.4062,-16.8246 -16.23999,-10.88828 -29.86298,-25.0181 -38.5843,-40.01981 -2.15216,-3.70197 -4.15918,-6.73947 -4.46006,-6.75 -0.30088,-0.0105 -2.30471,1.78084 -4.45295,3.98084 -3.08878,3.1632 -3.51721,4 -2.04796,4 1.7957,0 1.79412,0.0706 -0.0471,2.10748 -1.05732,1.16971 -1.90499,3.56617 -1.90499,5.38565 0,3.23033 0.0787,3.2863 5.39532,3.83527 7.54525,0.77908 12.48617,4.7843 12.9093,10.46455 0.40953,5.49769 -2.42086,7.46247 -10.22911,7.10078 -3.05013,-0.14129 -5.81848,0.0159 -6.1519,0.34933 -0.95789,0.95789 0.58065,4.75694 1.92647,4.75694 0.87566,0 1.10476,1.95628 0.81976,7 -0.21754,3.85 -0.10153,7 0.25781,7 0.35933,0 1.91264,-0.93104 3.45179,-2.06899 3.73463,-2.76113 9.44395,-3.95662 13.52037,-2.83106 2.59814,0.71738 3.64717,1.79198 4.92502,5.04507 1.50646,3.83507 1.50237,4.33893 -0.0566,6.9781 -1.60865,2.72322 -6.63437,5.87688 -9.3655,5.87688 -0.71227,0 0.14324,1.48392 1.90113,3.29761 6.65904,6.87038 2.53893,13.70239 -8.26334,13.70239 -5.38081,0 -5.5401,0.0793 -5.52684,2.75 0.0209,4.20432 1.07822,7.25 2.51693,7.25 0.95956,0 1.41441,2.92896 1.74708,11.25 0.59154,14.79631 2.57459,31.04065 3.88846,31.85267 0.67097,0.41468 0.69477,0.86527 0.0662,1.25373 -0.61034,0.37722 -0.97204,13.09227 -0.957,33.64191 0.0133,18.16953 -0.15571,33.21276 -0.37558,33.42941 -0.21987,0.21665 -2.00033,0.69282 -3.95659,1.05815 l -3.55683,0.66423 -1.19196,-27.32505 z m -6.19438,-90.32505 c 0,-1.375 -0.45,-2.5 -1,-2.5 -1.11717,0 -1.3707,3.29596 -0.33333,4.33333 1.10234,1.10234 1.33333,0.78473 1.33333,-1.83333 z m 4.95321,-99.12712 c 2.22156,-5.02221 2.53883,-8.04642 1.08527,-10.34485 -0.81958,-1.29597 -0.99392,-1.29597 -1.45802,0 -1.7821,4.97643 -3.20229,14.97197 -2.12725,14.97197 0.24926,0 1.37426,-2.0822 2.5,-4.62712 z m -9.00444,-15.62288 c -0.0829,-4.5375 0.34477,-10.67392 0.95029,-13.63649 2.25958,-11.05524 1.03778,-15.54345 -5.09458,-18.71462 l -3.07411,-1.58968 0.61509,2.8454 c 1.01841,4.7112 4.52535,27.4401 5.18357,33.59539 0.33819,3.1625 0.82987,5.75 1.09264,5.75 0.26276,0 0.40996,-3.7125 0.3271,-8.25 z m 8.95155,-12.16667 c 0.1516,-4.43587 -0.57186,-2.70848 -1.22154,2.91667 -0.38945,3.37192 -0.30082,4.18596 0.27219,2.5 0.46732,-1.375 0.89453,-3.8125 0.94935,-5.41667 z m 3.46814,-27.48512 c 1.37799,-8.65989 0.66815,-9.75726 -1.2325,-1.90539 -1.1692,4.83016 -1.55056,11.55511 -0.60144,10.60599 0.29399,-0.29399 1.11926,-4.20926 1.83394,-8.7006 z m 5.16308,-21.73529 c 3.52969,-7.64153 3.81984,-9.72935 1.03039,-7.41432 -2.46281,2.04395 -6.83565,15.0514 -5.05998,15.0514 0.27608,0 2.08939,-3.43669 4.02959,-7.63708 z m -6.54672,-9.81292 c 0.0447,-2.79637 -1.86151,1.56702 -2.38089,5.45 l -0.60192,4.5 1.48382,-4.5 c 0.81609,-2.475 1.49064,-4.9275 1.49899,-5.45 z m 13.45848,-4.77251 c 0.85618,-1.22237 1.5567,-2.62747 1.5567,-3.12244 0,-1.22413 -2.87732,1.2472 -4.08978,3.51271 -1.42213,2.65727 0.61873,2.34284 2.53308,-0.39027 z"
       id="path837" />
  </g>
</svg>
