<?xml version="1.0" encoding="UTF-8" standalone="no"?>
<svg
   version="1.1"
   id="svg2"
   width="100mm"
   height="100mm"
   viewBox="0 0 377.95275 377.95278"
   sodipodi:docname="C_Rootwhisperer.svg"
   inkscape:version="1.1 (c4e8f9ed74, 2021-05-24)"
   xmlns:inkscape="http://www.inkscape.org/namespaces/inkscape"
   xmlns:sodipodi="http://sodipodi.sourceforge.net/DTD/sodipodi-0.dtd"
   xmlns="http://www.w3.org/2000/svg"
   xmlns:svg="http://www.w3.org/2000/svg"
   xmlns:rdf="http://www.w3.org/1999/02/22-rdf-syntax-ns#"
   xmlns:cc="http://creativecommons.org/ns#"
   xmlns:dc="http://purl.org/dc/elements/1.1/">
  <metadata
     id="metadata8">
    <rdf:RDF>
      <cc:Work
         rdf:about="">
        <dc:format>image/svg+xml</dc:format>
        <dc:type
           rdf:resource="http://purl.org/dc/dcmitype/StillImage" />
      </cc:Work>
    </rdf:RDF>
  </metadata>
  <defs
     id="defs6" />
  <sodipodi:namedview
     pagecolor="#ffffff"
     bordercolor="#666666"
     borderopacity="1"
     objecttolerance="10"
     gridtolerance="10"
     guidetolerance="10"
     inkscape:pageopacity="0"
     inkscape:pageshadow="2"
     inkscape:window-width="1920"
     inkscape:window-height="1029"
     id="namedview4"
     showgrid="false"
     inkscape:zoom="1.4043388"
     inkscape:cx="51.981759"
     inkscape:cy="191.54922"
     inkscape:window-x="0"
     inkscape:window-y="0"
     inkscape:window-maximized="1"
     inkscape:current-layer="g10"
     inkscape:pagecheckerboard="0"
     units="mm"
     width="100mm"
     inkscape:document-units="mm" />
  <g
     inkscape:groupmode="layer"
     inkscape:label="Image"
     id="g10">
    <path
       style="fill:#000000;stroke-width:0.780366"
       d="m 124.76023,335.18996 c -3.54389,-1.58044 -4.97742,-4.08236 -4.97742,-8.68705 0,-5.11312 1.43028,-6.47996 13.02308,-12.44528 15.84907,-8.1555 26.07881,-17.929 32.68526,-31.22752 4.09215,-8.23731 5.76346,-15.36933 5.78222,-24.67438 0.047,-23.32906 -11.33337,-49.58344 -30.69375,-70.81024 -11.82528,-12.96526 -35.00299,-33.76634 -36.24282,-32.52651 -0.22231,0.22232 1.59545,2.95402 4.03948,6.07047 30.1288,38.41784 38.69876,53.36731 43.42317,75.74747 2.02279,9.58224 1.98489,10.54494 -0.43905,11.15331 -1.08796,0.27305 -6.44321,0.33484 -11.90056,0.13735 -7.68409,-0.27817 -11.06672,-0.76346 -14.99484,-2.15126 C 112.1468,241.4243 103.32084,235.74097 93.640579,225.92735 58.274587,190.07424 51.098227,124.61659 76.886061,73.104533 83.472171,59.94856 95.145901,43.633746 99.727935,41.181524 c 2.283925,-1.222321 3.981815,1.131355 5.168925,7.165352 2.40505,12.224649 8.82968,26.426885 16.64869,36.803503 7.20741,9.56494 14.72359,15.908631 28.503,24.056691 28.44008,16.81722 34.62273,21.14254 43.14717,30.18541 8.73279,9.26388 15.96869,22.5701 18.32903,33.7055 1.70109,8.02529 1.45803,21.45037 -0.50525,27.90666 -3.14228,10.33355 -10.06462,20.86245 -18.7699,28.54916 l -4.86118,4.29235 1.41531,9.0279 c 1.06736,6.80824 1.32109,11.6788 1.03201,19.80977 -0.21082,5.93005 -0.51995,11.30864 -0.68696,11.95245 -0.24231,0.9341 0.72101,1.22065 4.76872,1.41853 17.51006,0.85605 41.45751,-6.97067 61.27549,-20.02659 11.02297,-7.26184 24.59856,-19.936 29.59363,-27.62858 2.15802,-3.32342 0.36123,-2.72576 -9.25206,3.07752 -25.05903,15.12748 -57.70115,28.40403 -60.13854,24.46024 -1.07664,-1.74203 -0.43833,-10.69461 1.12038,-15.71437 2.38351,-7.67593 6.77053,-14.40426 14.46845,-22.1902 15.14618,-15.31935 32.34752,-23.29453 54.73693,-25.37807 10.92194,-1.01637 24.54986,0.0855 35.30964,2.85505 12.91886,3.32525 29.28611,12.46664 35.46177,19.80599 3.96201,4.70859 2.69178,6.04913 -7.36885,7.77658 -14.64251,2.51415 -25.68514,8.21401 -34.01095,17.55534 -4.36478,4.8972 -7.38839,10.62318 -11.7666,22.28308 -4.64231,12.36326 -7.6764,17.81261 -12.59315,22.61771 -13.98317,13.66562 -35.74203,16.01739 -52.67866,5.69367 -4.3973,-2.68037 -4.766,-2.7695 -7.80367,-1.88665 -16.58499,4.82023 -17.49945,4.96396 -33.23234,5.22363 l -15.21711,0.25116 -3.90184,5.37486 c -10.79777,14.87425 -21.13393,23.54565 -37.45753,31.42467 -9.01682,4.35221 -12.27149,5.09011 -15.70226,3.56012 z"
       id="path837" />
  </g>
</svg>
