<?xml version="1.0" encoding="UTF-8" standalone="no"?>
<svg
   xmlns:dc="http://purl.org/dc/elements/1.1/"
   xmlns:cc="http://creativecommons.org/ns#"
   xmlns:rdf="http://www.w3.org/1999/02/22-rdf-syntax-ns#"
   xmlns:svg="http://www.w3.org/2000/svg"
   xmlns="http://www.w3.org/2000/svg"
   xmlns:sodipodi="http://sodipodi.sourceforge.net/DTD/sodipodi-0.dtd"
   xmlns:inkscape="http://www.inkscape.org/namespaces/inkscape"
   version="1.1"
   id="svg2"
   width="381"
   height="379"
   viewBox="0 0 381 379"
   sodipodi:docname="C_Rootwhisperer.svg"
   inkscape:version="1.0.1 (3bc2e813f5, 2020-09-07)">
  <metadata
     id="metadata8">
    <rdf:RDF>
      <cc:Work
         rdf:about="">
        <dc:format>image/svg+xml</dc:format>
        <dc:type
           rdf:resource="http://purl.org/dc/dcmitype/StillImage" />
        <dc:title></dc:title>
      </cc:Work>
    </rdf:RDF>
  </metadata>
  <defs
     id="defs6" />
  <sodipodi:namedview
     pagecolor="#ffffff"
     bordercolor="#666666"
     borderopacity="1"
     objecttolerance="10"
     gridtolerance="10"
     guidetolerance="10"
     inkscape:pageopacity="0"
     inkscape:pageshadow="2"
     inkscape:window-width="1920"
     inkscape:window-height="1029"
     id="namedview4"
     showgrid="false"
     inkscape:zoom="2.2137203"
     inkscape:cx="190.5"
     inkscape:cy="189.5"
     inkscape:window-x="0"
     inkscape:window-y="0"
     inkscape:window-maximized="1"
     inkscape:current-layer="g10" />
  <g
     inkscape:groupmode="layer"
     inkscape:label="Image"
     id="g10">
    <path
       style="fill:#000000"
       d="m 81.245553,377.61213 c -4.54131,-2.02525 -6.3783,-5.23135 -6.3783,-11.13202 0,-6.55223 1.83283,-8.30375 16.68843,-15.94803 20.309827,-10.45087 33.418727,-22.97512 41.884587,-40.01655 5.24388,-10.55572 7.38559,-19.69504 7.40962,-31.61901 0.0602,-29.89505 -14.52316,-63.53878 -39.33256,-90.73988 -15.153517,-16.61435 -44.854607,-43.26992 -46.443387,-41.68114 -0.28489,0.28489 2.04449,3.78544 5.1764,7.77901 38.60857,49.2306 49.590567,68.38762 55.644667,97.06671 2.59211,12.27917 2.54355,13.51282 -0.56262,14.29241 -1.39417,0.34992 -8.25667,0.42908 -15.25,0.17593 -9.846767,-0.35646 -14.181457,-0.97833 -19.215137,-2.75672 -15.78518,-5.57684 -27.09522,-12.85976 -39.5,-25.43541 C -3.9525568,191.6534 -13.14871,107.77262 19.897143,41.762416 28.336923,24.903671 43.296253,3.9970321 49.167893,0.85462712 c 2.92674,-1.566344 5.1025,1.44977698 6.62374,9.18205088 3.08195,15.665293 11.3148,33.864777 21.33449,47.161912 9.23593,12.257006 18.86754,20.386132 36.525197,30.827476 36.44458,21.550444 44.36733,27.093134 55.29099,38.681134 11.19064,11.87121 20.46311,28.92248 23.48776,43.19195 2.17987,10.28401 1.8684,27.48762 -0.64744,35.76104 -4.02669,13.24194 -12.89732,26.73421 -24.05274,36.58434 l -6.22935,5.50046 1.81366,11.5688 c 1.36775,8.72443 1.6929,14.96582 1.32247,25.38527 -0.27016,7.59906 -0.66629,14.49147 -0.88031,15.31647 -0.31051,1.19699 0.92394,1.56419 6.11089,1.81778 22.43828,1.09698 53.12577,-8.93257 78.52155,-25.66311 14.1254,-9.3057 31.52186,-25.54701 37.9228,-35.40467 2.7654,-4.25881 0.4629,-3.49293 -11.85607,3.9437 -32.11192,19.38511 -73.9412,36.39838 -77.06461,31.34459 -1.37966,-2.23232 -0.56171,-13.70462 1.43572,-20.13719 3.05436,-9.83634 8.67609,-18.45836 18.54061,-28.43566 19.40909,-19.631 41.45178,-29.8508 70.1427,-32.52076 13.99593,-1.30245 31.45946,0.1096 45.2476,3.6586 16.55488,4.26115 37.52872,15.97539 45.44253,25.38041 5.07713,6.03384 3.44937,7.75167 -9.44283,9.9653 -18.76366,3.22178 -32.91426,10.52586 -43.58336,22.49633 -5.59328,6.27552 -9.46788,13.61307 -15.07834,28.55468 -5.94888,15.84291 -9.83694,22.82599 -16.13751,28.98349 -17.91874,17.51184 -45.80165,20.52551 -67.50515,7.29616 -5.63491,-3.43476 -6.10739,-3.54899 -10,-2.41765 -21.25287,6.17689 -22.42471,6.36108 -42.58564,6.69383 l -19.5,0.32185 -5,6.88763 c -13.83683,19.06061 -27.0821,30.17261 -48,40.26918 -11.554617,5.57713 -15.725317,6.52274 -20.121697,4.56211 z"
       id="path837" />
  </g>
</svg>
