<?xml version="1.0" encoding="UTF-8" standalone="no"?>
<!-- Created with Inkscape (http://www.inkscape.org/) -->

<svg
   width="100mm"
   height="100mm"
   viewBox="0 0 99.999998 100"
   version="1.1"
   id="svg8"
   inkscape:version="1.1 (c4e8f9ed74, 2021-05-24)"
   sodipodi:docname="C_Rootwhisperer_2 (copy 1).svg"
   xmlns:inkscape="http://www.inkscape.org/namespaces/inkscape"
   xmlns:sodipodi="http://sodipodi.sourceforge.net/DTD/sodipodi-0.dtd"
   xmlns="http://www.w3.org/2000/svg"
   xmlns:svg="http://www.w3.org/2000/svg"
   xmlns:rdf="http://www.w3.org/1999/02/22-rdf-syntax-ns#"
   xmlns:cc="http://creativecommons.org/ns#"
   xmlns:dc="http://purl.org/dc/elements/1.1/">
  <defs
     id="defs2">
    <pattern
       patternUnits="userSpaceOnUse"
       width="66.08707"
       height="119.525"
       patternTransform="translate(-273.29112,150.74447)"
       id="pattern3643">
      <g
         id="XMLID_312_"
         transform="matrix(0.531441,0,0,0.531441,-72.877842,-123.54442)">
        <path
           id="XMLID_315_"
           d="m 218.78418,232.47063 c -19.268,12.587 -70.51918,50.49537 -79.88018,99.75737 -11.904,62.653 40.084,125.15 40.084,125.15 0,0 69.109,-38.02 82.499,-99.082 -28.42072,-37.01822 -43.12762,-80.27562 -42.70282,-125.82537 z"
           sodipodi:nodetypes="ccccc" />
      </g>
    </pattern>
  </defs>
  <sodipodi:namedview
     id="base"
     pagecolor="#ffffff"
     bordercolor="#666666"
     borderopacity="1.0"
     inkscape:pageopacity="0.0"
     inkscape:pageshadow="2"
     inkscape:zoom="1.6443299"
     inkscape:cx="137.442"
     inkscape:cy="165.41692"
     inkscape:document-units="mm"
     inkscape:current-layer="g959"
     showgrid="false"
     fit-margin-top="0"
     fit-margin-left="0"
     fit-margin-right="0"
     fit-margin-bottom="0"
     inkscape:window-width="1920"
     inkscape:window-height="1029"
     inkscape:window-x="0"
     inkscape:window-y="0"
     inkscape:window-maximized="1"
     inkscape:pagecheckerboard="0"
     showguides="false" />
  <metadata
     id="metadata5">
    <rdf:RDF>
      <cc:Work
         rdf:about="">
        <dc:format>image/svg+xml</dc:format>
        <dc:type
           rdf:resource="http://purl.org/dc/dcmitype/StillImage" />
      </cc:Work>
    </rdf:RDF>
  </metadata>
  <g
     inkscape:label="Layer 1"
     inkscape:groupmode="layer"
     id="layer1"
     transform="translate(-56.436471,-70.274684)">
    <g
       id="g959"
       transform="translate(11.049194,-32.079403)">
      <g
         id="g1107"
         transform="matrix(8.3874077,0,0,8.3874077,-671.7871,-1142.6407)">
        <path
           d="m 93.895426,158.15108 c -0.007,-0.007 -0.007,-0.1076 0.003,-0.2219 0.0194,-0.24695 -0.0289,-0.73448 -0.10054,-1.01988 -0.1778,-0.70979 -0.61313,-1.41676 -1.28164,-2.08492 -0.47272,-0.4699 -0.87912,-0.762 -1.47708,-1.05692 -0.22613,-0.11183 -0.46602,-0.23036 -0.53199,-0.26458 -0.0663,-0.0346 -0.14887,-0.0716 -0.18344,-0.0829 l -0.0632,-0.0176 0.0797,0.14323 c 0.0427,0.0787 0.13793,0.23848 0.21237,0.35701 0.27834,0.44768 0.34043,0.63112 0.34149,1.03082 10e-4,0.26846 -0.008,0.33479 -0.0755,0.53446 -0.0744,0.21907 -0.15734,0.40781 -0.20814,0.47272 -0.0194,0.0233 -0.0621,0.018 -0.17109,-0.0208 -0.0797,-0.0275 -0.17216,-0.0508 -0.20532,-0.0508 -0.073,0.001 -0.27834,0.0646 -0.69039,0.21343 -0.27975,0.10195 -0.33196,0.11324 -0.57467,0.11571 -0.31962,0.003 -0.76623,-0.0811 -1.03611,-0.19403 -0.20814,-0.0868 -0.46708,-0.26599 -0.6283,-0.43286 -0.11042,-0.11571 -0.27022,-0.40358 -0.32385,-0.58561 -0.0416,-0.13935 -0.0649,-0.34043 -0.0402,-0.3556 0.0113,-0.007 0.13511,0.0564 0.27587,0.14076 0.47378,0.28787 1.04704,0.47378 1.37654,0.44909 0.27834,-0.0219 0.50306,-0.10337 0.38311,-0.13794 -0.0194,-0.005 -0.13652,-0.037 -0.26176,-0.0702 -0.64346,-0.17216 -1.24319,-0.50024 -1.51306,-0.8308 -0.14746,-0.17921 -0.37077,-0.62441 -0.43004,-0.85442 -0.0526,-0.20532 -0.0593,-0.65194 -0.0109,-0.82974 0.0646,-0.24094 0.35136,-0.77152 0.41733,-0.77434 0.0166,-10e-4 0.0413,0.13088 0.0593,0.32667 0.091,0.93274 0.27446,1.27882 0.889,1.68522 0.32103,0.21237 0.56762,0.28928 0.9204,0.2854 0.27693,-0.003 0.62159,-0.0691 0.61313,-0.11713 -0.005,-0.036 -0.0275,-0.0455 -0.3429,-0.16263 -0.3048,-0.11324 -0.44521,-0.18768 -0.66005,-0.35136 -0.514,-0.39018 -0.77188,-1.01424 -0.77047,-1.86867 0,-0.8449 0.25788,-1.56563 0.72637,-2.03976 0.16404,-0.16792 0.25224,-0.18874 0.22437,-0.0536 -0.13476,0.64205 -0.14041,1.49789 -0.0124,1.95968 0.21096,0.75918 0.72496,1.30351 1.34232,1.41922 0.18203,0.0346 0.19015,0.007 0.0579,-0.19014 -0.24272,-0.36089 -0.4191,-0.79799 -0.47273,-1.17123 -0.0924,-0.65193 0.25647,-1.84114 0.60361,-2.0521 0.10477,-0.0632 0.11571,-0.0466 0.13793,0.20002 0.048,0.51964 0.22437,1.33385 0.35948,1.66053 0.091,0.21766 0.26882,0.5595 0.3556,0.68086 0.13794,0.19403 0.40393,0.46849 0.73025,0.75212 0.14746,0.12841 0.31997,0.28822 0.38171,0.3556 0.14358,0.15593 0.1711,0.16969 0.3817,0.19156 l 0.17392,0.018 0.37465,-0.24659 c 0.50836,-0.3362 0.76341,-0.60219 0.84491,-0.889 0.0494,-0.17216 -0.11325,-0.5842 -0.4438,-1.11619 -0.27975,-0.4505 -0.39017,-0.66675 -0.39546,-0.77435 l -0.006,-0.0952 0.15029,0.004 c 0.15839,0.006 0.34995,0.0483 0.71508,0.15981 0.25082,0.0773 0.38029,0.17216 0.7306,0.53481 0.24095,0.24941 0.40217,0.48931 0.4699,0.69992 0.0441,0.13934 0.048,0.26458 0.048,1.43721 0,1.61114 0,1.61396 -0.26847,2.16782 -0.30868,0.63782 -0.32385,0.8061 -0.12982,1.40547 l 0.12418,0.37888 -0.0967,0.18627 c -0.11007,0.21625 -0.31821,0.49742 -0.55669,0.75494 -0.14463,0.15593 -0.19402,0.19156 -0.34854,0.24413 -0.0991,0.0346 -0.18591,0.0564 -0.19297,0.0483 z"
           style="fill:#000000;fill-opacity:1;fill-rule:nonzero;stroke:none;stroke-width:0.352778"
           id="path4052" />
        <path
           d="m 91.296516,160.16579 c -0.37748,-0.0635 -0.66005,-0.2219 -0.95356,-0.53058 -0.18203,-0.19156 -0.34043,-0.45226 -0.42157,-0.68933 -0.0621,-0.18591 -0.12277,-0.57432 -0.12277,-0.79375 0,-0.52352 0.16404,-0.90522 0.65335,-1.51553 0.47237,-0.58984 0.65299,-1.00189 0.67768,-1.55046 0.0166,-0.35701 -0.0233,-0.57749 -0.15698,-0.86395 -0.0427,-0.0924 -0.0773,-0.17498 -0.0773,-0.18486 0,-0.0303 0.4258,0.20003 0.64629,0.3489 0.32808,0.22331 0.45473,0.33055 0.82691,0.70415 0.8008,0.80609 1.16311,1.48695 1.28305,2.41158 0.0564,0.44239 -0.0526,1.10773 -0.25223,1.542 -0.29069,0.62829 -0.83503,1.04034 -1.4979,1.13277 -0.25082,0.0342 -0.34466,0.0332 -0.60501,-0.0109 z m -0.54152,-2.15971 c 0.16404,-0.0783 0.34855,-0.34572 0.44768,-0.65158 0.0967,-0.29069 0.12559,-0.74824 0.0649,-0.99236 -0.0303,-0.11712 -0.0773,-0.16122 -0.0773,-0.0716 0,0.12558 -0.24236,0.51823 -0.44909,0.72919 -0.20813,0.21202 -0.35983,0.54539 -0.36512,0.79763 -10e-4,0.15028 0.005,0.17498 0.0646,0.22048 0.0759,0.0593 0.13652,0.054 0.31432,-0.0317 z"
           style="fill:#000000;fill-opacity:1;fill-rule:nonzero;stroke:none;stroke-width:0.353;stroke-miterlimit:4;stroke-dasharray:none;stroke-opacity:1"
           id="path4054" />
      </g>
    </g>
  </g>
</svg>
