<?xml version="1.0" encoding="UTF-8" standalone="no"?>
<!-- Generator: Adobe Illustrator 25.2.0, SVG Export Plug-In . SVG Version: 6.00 Build 0)  -->

<svg
   version="1.1"
   id="Layer_1"
   x="0px"
   y="0px"
   viewBox="0 0 377.95275 377.95275"
   xml:space="preserve"
   sodipodi:docname="C_Skull.svg"
   width="100mm"
   height="100mm"
   inkscape:version="1.1.1 (3bf5ae0d25, 2021-09-20)"
   xmlns:inkscape="http://www.inkscape.org/namespaces/inkscape"
   xmlns:sodipodi="http://sodipodi.sourceforge.net/DTD/sodipodi-0.dtd"
   xmlns="http://www.w3.org/2000/svg"
   xmlns:svg="http://www.w3.org/2000/svg"><defs
   id="defs927" /><sodipodi:namedview
   id="namedview925"
   pagecolor="#ffffff"
   bordercolor="#666666"
   borderopacity="1.0"
   inkscape:pageshadow="2"
   inkscape:pageopacity="0.0"
   inkscape:pagecheckerboard="0"
   showgrid="false"
   inkscape:zoom="1.1217719"
   inkscape:cx="-43.680894"
   inkscape:cy="116.77953"
   inkscape:window-width="1920"
   inkscape:window-height="1029"
   inkscape:window-x="0"
   inkscape:window-y="0"
   inkscape:window-maximized="1"
   inkscape:current-layer="Layer_1"
   units="mm"
   inkscape:document-units="mm" />
<style
   type="text/css"
   id="style906">
	.st0{fill:#231F20;}
</style>
<g
   id="g922"
   transform="matrix(0.57522317,0,0,0.57522317,13.341601,19.440942)">
	<g
   id="g910">
		<path
   class="st0"
   d="m 232.9,278.7 c -0.2,-0.2 -0.3,-0.3 -0.5,-0.5 -12.1,-11.1 -25.3,-18.7 -40,-23.7 -0.1,0 -0.6,-0.2 -1.3,-0.4 -12.9,-4.3 -26.5,-5.9 -40.1,-4.7 -4.8,0.4 -8.4,0.9 -9.9,1.2 -37.3,6.1 -64.7,25.9 -80.5,60.3 -3.5,7.5 -5,16 -6.9,24.2 -0.3,1.2 -0.5,2.3 -0.8,3.4 -0.5,2 -0.1,4.3 -0.1,6.9 0,0 0,0 0.1,0 10.7,0.3 20.8,4.6 28,10.3 4.8,3.8 9.1,10.8 9.5,15.2 0.9,8.9 -1.7,16.5 -7.3,23.2 -3.2,3.8 -7.1,6.2 -11.5,7.8 -3.5,1.3 -7.3,2 -11.3,2.5 1.5,6.4 3.1,12.8 4.9,19.1 6.8,24.9 15.1,49.1 25.2,73.2 5.3,-9.3 10.6,-18.6 16.4,-28.6 9.2,12.3 17.9,23.9 26.7,35.6 0.4,-0.1 0.8,-0.2 1.2,-0.3 1.4,-12.2 2.7,-24.4 4.2,-37.4 11,10 21.4,19.4 31.8,28.9 0.6,-0.3 0.6,-0.3 1.2,-0.5 v -42.5 c 5.3,3.2 10.4,6.3 15.5,9.5 8.2,5 16.3,9.9 24.9,15.2 -0.9,-3.3 -1.4,-5.2 -2,-7 -1.7,-5 -3.3,-10.1 -4.8,-15.1 -1.8,-6.3 -3.4,-12.6 -4.7,-18.9 -2,-10.4 -3.2,-20.9 -2.9,-31.6 0.3,-8.6 2,-17.2 3.1,-25.8 0.4,-2.8 1.6,-3.9 4.8,-3.1 12.2,2.9 11.7,2.7 10.2,15.8 -1.1,9.7 -0.6,19.5 -0.7,29.2 0,1.3 0.7,2.7 1.3,5.1 3.8,-3.5 7.5,-6.2 10.4,-9.6 8.5,-10 17.2,-19.8 24.7,-30.5 1.6,-2.3 3,-4.5 4.3,-6.8 0,0 0,0 0,-0.1 3.5,-6.3 5.8,-12.8 7,-19.4 0.6,-3.1 0.9,-6.3 1.1,-9.4 v 0 c 0,-27.5 -12.3,-52.5 -31.2,-70.7 z m -96,161.1 c -3.6,0.2 -9.3,0.4 -11.1,0.6 -9.4,1 -18.5,2 -27.6,2.9 -3.6,0.4 -2.9,-2.2 -2.6,-4.5 0.5,-4.2 1.3,-8.1 2.3,-12.3 0.4,-1.6 2.6,-9.8 6.6,-20 1,-2.6 4.5,-3.1 6.3,-0.9 10.3,12.8 16.9,18 27.2,31.9 0.7,0.9 0,2.2 -1.1,2.3 z m 49.9,-83.2 c -2.2,20.3 -14.8,36.4 -34.2,36.4 -18.9,0 -39.6,-16.3 -33.9,-34.6 5.7,-18.3 16.2,-26.1 33.5,-34.6 16.3,-8 38,1.7 34.6,32.8 z"
   id="path908" />
	</g>
	<g
   id="g920">
		<path
   class="st0"
   d="m 356.4,140.4 c 3,-4.2 8,-7.7 12,-11.4 -25.6,0.6 -78.9,21.8 -88.3,42.2 29.6,-5.3 60.3,-8.1 76.3,-30.8 z"
   id="path912" />
		<path
   class="st0"
   d="m 419.3,264.9 c -3.2,5.6 -6.6,11.1 -10,16.7 20.9,-9.5 51.6,-17 64.6,-15.1 -6.6,4.3 -14.2,8.2 -19.9,13.2 -12.5,11.1 -24.2,22.6 -35.8,34.2 -15.3,15.3 -30.4,30.7 -50.1,43.1 -15.6,9.9 -32.9,17.1 -54.3,17.5 -2.1,10.7 -9.9,18.5 -19.2,23.7 -6.9,3.9 -14.8,5.6 -22.6,4.3 -4.5,-0.7 -8.1,-2.2 -11,-3.9 1.9,-2.5 3.8,-5 5.6,-7.7 1.8,-2.5 3.4,-5.2 4.8,-7.8 l 0.8,-1.4 0.1,-0.4 c 3.6,-7 6.1,-14.3 7.5,-21.9 0.7,-3.8 1.1,-7.6 1.3,-11.4 v -0.4 -0.3 C 281.1,318 269,290 247,268.6 c -0.3,-0.3 -0.6,-0.6 -0.9,-0.9 -12.6,-11.7 -26.7,-20.1 -43,-25.7 -0.2,-0.1 -0.7,-0.2 -1.4,-0.5 -11.1,-3.8 -22.8,-5.7 -34.6,-5.7 -3.1,0 -6.3,0.1 -9.4,0.4 -5.4,0.5 -9.1,1 -10.5,1.3 -11.1,1.8 -21.5,4.9 -31,9.1 5.3,-12.5 14.7,-23.9 29,-34.2 24.5,-17.6 55,-28.6 88.1,-35.4 5.4,-1.1 11.2,-1.2 16.8,-1.8 -5.3,4.1 -11.1,6.8 -16.6,9.8 -5.8,3.1 -11.4,6.3 -16.9,9.6 -5,3.1 -9.8,6.4 -14.7,9.6 25.6,-10.2 52.6,-17 81.1,-20.2 29.1,-3.3 57.7,-7.1 84,-17.5 30.9,-12.3 58.3,-27.5 79.9,-48.1 0.8,-0.8 1.9,-1.5 4.1,-3.1 -2.6,14.2 -8.2,26.3 -16.4,37.6 -8.1,11.1 -16.5,22 -26.1,32.4 -9.5,10.3 -20.7,19.6 -31.5,29.7 44.7,-20.3 87,-30.8 105.3,-26.1 -0.9,0.7 -1.6,1.3 -2.5,1.7 -15.3,7.4 -27.5,17.1 -35.1,29.4 -8.9,14.9 -16.8,30 -25.4,44.9 z"
   id="path914" />
		<path
   class="st0"
   d="m 401.6,364.2 c -7.1,2.2 -13.9,5.3 -20.2,9.1 -7.8,4.7 -19.6,11.7 -26.7,15.7 -11.4,6.5 -23,12.5 -34.6,18.8 29.7,2.9 58.1,-3.4 84.4,-19.7 5.5,-3.4 11,-6.8 16.4,-10.3 12.2,-7.8 24.9,-14.1 39.9,-15.5 -14.8,-9.8 -43,-3.2 -59.2,1.9 z"
   id="path916" />
		<path
   class="st0"
   d="m 440.1,176.9 c 28.6,-9.2 51.5,-23.6 67.9,-43.7 3.4,-4.2 6.8,-8.3 10.1,-12.5 7.4,-9.4 16,-18.1 29.2,-24.6 -26.3,-1.1 -70.5,19.9 -85.8,35.7 7.9,-1.8 15.5,-3.5 23.4,-5.4 -7.7,9.1 -14.7,17.5 -22,25.8 -7.4,8.3 -15.1,16.4 -22.8,24.7 z"
   id="path918" />
	</g>
</g>
</svg>
