<?xml version="1.0" encoding="UTF-8" standalone="no"?>
<!-- Created with Inkscape (http://www.inkscape.org/) -->

<svg
   version="1.1"
   id="svg2"
   width="100mm"
   height="100mm"
   viewBox="0 0 377.95275 377.95276"
   sodipodi:docname="C_Thorns.svg"
   inkscape:version="1.1.1 (3bf5ae0d25, 2021-09-20, custom)"
   xmlns:inkscape="http://www.inkscape.org/namespaces/inkscape"
   xmlns:sodipodi="http://sodipodi.sourceforge.net/DTD/sodipodi-0.dtd"
   xmlns="http://www.w3.org/2000/svg"
   xmlns:svg="http://www.w3.org/2000/svg">
  <defs
     id="defs6" />
  <sodipodi:namedview
     id="namedview4"
     pagecolor="#ffffff"
     bordercolor="#666666"
     borderopacity="1.0"
     inkscape:pageshadow="2"
     inkscape:pageopacity="0.0"
     inkscape:pagecheckerboard="0"
     showgrid="false"
     units="mm"
     inkscape:zoom="1.0913189"
     inkscape:cx="216.2521"
     inkscape:cy="212.58681"
     inkscape:window-width="1920"
     inkscape:window-height="1029"
     inkscape:window-x="0"
     inkscape:window-y="0"
     inkscape:window-maximized="1"
     inkscape:current-layer="g8"
     inkscape:document-units="mm" />
  <g
     inkscape:groupmode="layer"
     inkscape:label="Image"
     id="g8">
    <path
       style="fill:#000000;stroke-width:0.699537"
       d="m 121.54137,322.92496 c -0.46352,-10.02707 -5.62721,-17.10368 -17.58795,-24.10358 -17.967869,-10.51548 -32.168999,-32.76846 -37.451934,-58.68665 -1.514947,-7.43236 -1.806557,-7.35621 -4.018762,1.04931 -2.719407,10.33269 -1.919648,23.91991 2.123468,36.07593 l 1.728476,5.19682 -4.350842,-4.63215 c -5.211908,-5.54884 -8.822762,-12.03649 -11.438291,-20.55122 -1.784007,-5.80776 -1.939807,-7.257 -2.009652,-18.69376 -0.04165,-6.81886 -0.21537,-12.50926 -0.386075,-12.64532 -0.170687,-0.13606 -3.049989,-1.76655 -6.398433,-3.62328 -7.908645,-4.38541 -13.916488,-9.29568 -17.757611,-14.51347 -1.697589,-2.306 -3.086524,-4.47448 -3.086524,-4.81884 0,-0.3553 2.949972,-0.43837 6.820496,-0.19211 11.405953,0.72578 27.277713,-2.99425 31.309502,-7.33832 0.935612,-1.00808 3.488953,-4.814 5.674089,-8.45762 5.005706,-8.34677 9.66845,-14.86089 15.962259,-22.30013 7.397719,-8.74406 7.191584,-7.52309 2.761456,-16.35652 -2.102887,-4.19303 -4.759023,-10.41626 -5.902526,-13.82939 -2.069972,-6.17845 -4.0057,-17.17648 -3.170225,-18.01196 0.241286,-0.24128 1.769973,0.84761 3.397077,2.41977 7.50077,7.24751 18.124856,11.73981 31.108132,13.15381 l 4.36548,0.47543 8.22621,-4.49219 c 23.04337,-12.5836 48.19586,-21.13497 69.78555,-23.72581 3.84745,-0.46171 7.25071,-1.05642 7.5628,-1.32158 1.65618,-1.40717 -10.77074,-5.02585 -20.40021,-5.940471 l -5.1425,-0.488444 0.49191,-3.937132 c 0.66458,-5.31912 3.41664,-14.667088 6.26916,-21.294625 2.40553,-5.58897 8.3844,-15.636153 11.65601,-19.587297 l 1.83625,-2.217649 0.48856,4.534051 c 2.11445,19.622803 5.37125,32.865341 8.08274,32.865341 0.70689,0 4.85186,-0.769712 9.21104,-1.710473 9.06411,-1.956144 15.60654,-2.810127 29.95007,-3.909378 5.57272,-0.427079 10.57349,-1.142759 11.11289,-1.5904 3.26163,-2.70693 6.41872,-10.476329 6.99354,-17.210708 l 0.44247,-5.183665 4.00435,3.663463 c 4.78883,4.381146 9.73019,11.591915 11.83187,17.265837 0.84102,2.270579 1.87163,4.482556 2.29022,4.9155 0.41858,0.432946 3.12201,1.483679 6.00759,2.334966 6.33559,1.869076 15.45122,6.041598 20.05806,9.181227 5.31744,3.623909 12.73321,11.077547 15.75376,15.834187 3.03916,4.78599 4.94691,5.77864 11.1202,5.78614 5.75245,0.008 18.37919,3.83158 24.06453,7.28907 3.16172,1.92277 3.76714,1.55473 -5.23999,3.18542 -5.18733,0.93915 -13.15161,4.54895 -16.85405,7.6391 l -2.51353,2.09786 -0.46272,8.95863 c -1.00052,19.37017 -6.86854,35.8726 -20.08177,56.47524 l -4.38047,6.83021 1.56853,3.60626 c 4.47049,10.27829 7.29679,21.93243 6.91016,28.49374 l -0.21227,3.60354 -4.9195,-4.12548 c -6.48104,-5.43501 -11.07354,-7.42763 -17.95051,-7.7885 l -5.38159,-0.28238 -5.11146,4.81104 c -6.80202,6.4022 -15.47514,13.58961 -23.90661,19.81141 -7.82254,5.77243 -9.48589,8.36321 -10.99288,17.12227 -1.01207,5.88217 -0.44242,20.72644 1.08623,28.30608 0.5767,2.85942 0.8658,5.37776 0.64248,5.59629 -0.75743,0.74112 -12.48393,-12.22862 -18.46,-20.41713 -3.27034,-4.48107 -6.32969,-8.30666 -6.79854,-8.50129 -0.46885,-0.19456 -3.89571,1.05859 -7.61521,2.78492 -22.09211,10.25366 -41.17504,16.09955 -62.53543,19.15717 -5.57882,0.79855 -10.90406,1.83995 -11.83387,2.31417 -1.06529,0.54333 -2.55284,2.75201 -4.02184,5.97152 -2.88942,6.33259 -6.82726,12.13935 -10.93283,16.1216 l -3.13711,3.04288 z m 33.32739,-61.613 10.49307,-1.99773 0.45196,-12.91256 c 0.44576,-12.73557 1.42225,-19.23092 3.86047,-25.67912 0.6183,-1.63517 1.33092,-2.97303 1.58359,-2.97303 0.25268,0 0.85896,1.49526 1.34728,3.3228 1.63473,6.11791 5.20127,12.26171 10.14123,17.46953 5.01087,5.28259 10.34883,9.2878 12.37836,9.2878 3.29403,0 27.17851,-12.6804 39.84114,-21.15187 15.91486,-10.64727 33.57783,-25.83507 33.57783,-28.87246 0,-2.177 -3.83614,-12.9503 -6.47373,-18.18063 -1.19719,-2.37406 -4.25243,-6.40021 -7.03366,-9.26888 l -4.91705,-5.07165 h 4.34493 c 7.75541,0 17.91577,2.72388 29.73934,7.9728 4.84585,2.15124 4.26019,2.57633 9.05727,-6.57372 3.58292,-6.83415 6.5104,-15.18112 7.18087,-20.47446 0.25495,-2.01278 0.69129,-4.08932 0.96967,-4.61452 0.48285,-0.91105 3.34322,2.05498 11.00901,11.41566 1.23979,1.51392 2.37059,2.6127 2.51292,2.44176 0.70899,-0.85162 -1.79965,-13.06586 -3.69067,-17.96945 -4.86174,-12.60697 -13.83057,-21.79825 -27.41854,-28.0987 -19.81703,-9.18872 -49.46902,-8.31465 -82.25311,2.42462 -10.56908,3.46218 -27.33885,10.71028 -29.72182,12.84613 -5.08808,4.56046 -7.01206,26.03608 -3.56682,39.81299 l 0.408,1.63149 -3.76284,-1.90555 c -4.99105,-2.52753 -13.06556,-10.45576 -17.90591,-17.58154 -2.22459,-3.27496 -4.24275,-5.57321 -4.67819,-5.32746 -5.78824,3.2667 -21.22861,15.56351 -29.69616,23.65019 -11.23034,10.72519 -22.837589,25.63707 -28.155065,36.17093 -3.457033,6.84836 -6.094374,15.79987 -6.853381,23.26139 -0.389787,3.83184 -0.578551,7.09712 -0.419477,7.2562 0.159081,0.15909 3.214848,-0.52839 6.790608,-1.52769 9.825701,-2.74595 18.438645,-3.49527 24.840245,-2.16107 1.36603,0.28471 0.83909,1.00546 -4.44089,6.07447 -7.117678,6.83326 -14.947276,16.62721 -14.947276,18.6974 0,2.14531 12.366056,8.03262 20.662086,9.83693 9.58159,2.08391 30.33181,1.51304 44.74471,-1.231 z"
       id="path863" />
  </g>
</svg>
