<?xml version="1.0" encoding="UTF-8" standalone="no"?>
<svg
   version="1.1"
   id="svg2"
   width="100mm"
   height="100mm"
   viewBox="0 0 377.95277 377.95275"
   sodipodi:docname="C_Mirefoot.svg"
   inkscape:version="1.1 (c4e8f9ed74, 2021-05-24)"
   xmlns:inkscape="http://www.inkscape.org/namespaces/inkscape"
   xmlns:sodipodi="http://sodipodi.sourceforge.net/DTD/sodipodi-0.dtd"
   xmlns="http://www.w3.org/2000/svg"
   xmlns:svg="http://www.w3.org/2000/svg"
   xmlns:rdf="http://www.w3.org/1999/02/22-rdf-syntax-ns#"
   xmlns:cc="http://creativecommons.org/ns#"
   xmlns:dc="http://purl.org/dc/elements/1.1/">
  <metadata
     id="metadata8">
    <rdf:RDF>
      <cc:Work
         rdf:about="">
        <dc:format>image/svg+xml</dc:format>
        <dc:type
           rdf:resource="http://purl.org/dc/dcmitype/StillImage" />
      </cc:Work>
    </rdf:RDF>
  </metadata>
  <defs
     id="defs6" />
  <sodipodi:namedview
     pagecolor="#ffffff"
     bordercolor="#666666"
     borderopacity="1"
     objecttolerance="10"
     gridtolerance="10"
     guidetolerance="10"
     inkscape:pageopacity="0"
     inkscape:pageshadow="2"
     inkscape:window-width="1920"
     inkscape:window-height="1029"
     id="namedview4"
     showgrid="false"
     inkscape:zoom="1.9918605"
     inkscape:cx="139.06596"
     inkscape:cy="213.36835"
     inkscape:window-x="0"
     inkscape:window-y="0"
     inkscape:window-maximized="1"
     inkscape:current-layer="g10"
     inkscape:pagecheckerboard="0"
     units="mm"
     width="100mm"
     inkscape:document-units="mm" />
  <g
     inkscape:groupmode="layer"
     inkscape:label="Image"
     id="g10">
    <path
       style="fill:#000000;stroke-width:0.793813"
       d="m 173.08427,336.809 c -0.52041,-11.93006 -1.08496,-26.97922 -1.25458,-33.44259 -0.1696,-6.46336 -0.4777,-11.9209 -0.68467,-12.12786 -0.20698,-0.20697 -1.34214,-0.01 -2.52262,0.43971 -4.61292,1.75383 -9.37829,0.15058 -10.28451,-3.46008 -0.41645,-1.65932 -0.80605,-1.78195 -4.64857,-1.46329 -5.26486,0.43659 -8.01363,-1.37945 -8.01363,-5.29441 0,-3.06801 2.07941,-5.35568 6.13559,-6.75013 3.71773,-1.27811 3.86133,-2.33039 0.39667,-2.90672 -4.34557,-0.72286 -6.26768,-2.12211 -6.26768,-4.56271 0,-2.33734 1.80589,-5.45456 4.14196,-7.14961 1.3881,-1.00721 1.38203,-1.12532 -0.15856,-3.08387 -2.07069,-2.63243 -2.02326,-4.41934 0.18538,-6.98704 1.21252,-1.40964 2.87704,-2.22405 5.17575,-2.53238 3.36472,-0.45129 3.38488,-0.47338 2.88126,-3.15791 -0.60944,-3.24857 0.92905,-5.31789 4.93721,-6.64068 2.33648,-0.77112 2.68237,-1.22778 2.68237,-3.54149 0,-2.26478 -1.50298,-10.58865 -2.0529,-11.3694 -0.0996,-0.14133 -1.26812,0.30519 -2.59681,0.99228 -5.79927,2.99893 -12.02039,0.39264 -12.02039,-5.03584 0,-3.40596 1.30755,-4.92276 5.89667,-6.84021 2.78741,-1.16465 2.94855,-1.39031 1.80757,-2.53128 -1.14098,-1.14098 -1.7761,-0.99398 -7.12484,1.64888 -3.22972,1.59583 -7.78084,3.46831 -10.11361,4.16107 -2.33277,0.69275 -6.05363,2.26012 -8.26855,3.483 -5.9231,3.27023 -9.76561,4.35513 -11.20218,3.16288 -2.0905,-1.73495 -1.35374,-6.55398 2.01488,-13.17897 3.63944,-7.15765 5.66299,-9.65469 10.08723,-12.44759 7.12542,-4.49806 21.9623,-6.78108 28.7321,-4.42111 1.39724,0.48708 2.76093,0.66511 3.03043,0.3956 0.89444,-0.89444 -4.81563,-7.9365 -12.06875,-14.884 -7.11165,-6.81203 -9.92287,-10.31849 -16.74794,-20.88991 -1.95955,-3.03517 -3.68927,-5.64494 -3.84383,-5.79949 -0.15454,-0.15455 -2.73178,0.96166 -5.72721,2.48047 -6.21816,3.15287 -12.52531,4.8877 -20.52865,5.64656 -3.0562,0.28979 -7.811482,1.03699 -10.567304,1.66047 -5.061629,1.14513 -16.423385,1.5403 -18.738904,0.65175 -0.690606,-0.26501 -1.255657,-0.80002 -1.255657,-1.18888 0,-1.82892 5.988542,-8.68458 11.006551,-12.60026 11.489124,-8.96525 17.996514,-11.96505 32.578624,-15.01824 l 6.67279,-1.39713 0.98447,-3.90683 c 0.54145,-2.14875 1.41964,-6.03578 1.95156,-8.63786 0.91502,-4.47624 2.5899,-8.10566 4.29226,-9.3012 3.82537,-2.68649 19.62957,16.9349 25.84836,32.09151 1.47715,3.60014 3.98496,5.21781 3.98496,2.57053 0,-0.95553 0.64708,-1.09664 3.17525,-0.69237 l 3.17526,0.50775 -0.0579,-3.47516 c -0.0319,-1.91135 -0.33028,-5.39144 -0.66313,-7.73353 -0.51931,-3.65383 -1.09865,-4.71396 -4.08109,-7.46785 -5.21518,-4.81552 -18.97484,-12.82201 -38.28523,-22.27747 -9.50863,-4.655964 -17.51919,-8.46539 -17.80124,-8.46539 -0.28205,0 -3.51846,-1.475147 -7.19203,-3.278099 C 95.246104,88.387036 91.73289,85.878938 87.325814,81.652785 83.981048,78.445336 79.994165,75.188366 78.466071,74.41507 70.912874,70.592751 62.679552,63.275734 63.832543,61.410147 64.848776,59.765852 72.821,58.319083 80.865429,58.319083 c 9.53806,0 14.049271,1.063005 19.643841,4.628806 2.06568,1.316587 6.07767,2.989739 8.91555,3.718114 7.03239,1.804939 9.40328,2.877222 13.95778,6.312699 4.51992,3.40937 13.82572,12.259548 13.82572,13.14878 0,0.646721 8.57858,12.010687 9.56911,12.676129 0.32494,0.218299 2.85934,3.292979 5.63199,6.832619 9.11694,11.63897 14.96391,18.68396 14.96061,18.02608 -9.6e-4,-0.35606 -0.3805,-5.63272 -0.84162,-11.72592 l -0.83839,-11.07857 -3.65443,-5.591543 c -2.00993,-3.075345 -5.32326,-7.556219 -7.36291,-9.95751 -6.16108,-7.253445 -9.27667,-12.078373 -10.76432,-16.6701 -0.77799,-2.401287 -1.94772,-5.61463 -2.59938,-7.140762 -2.75149,-6.443689 -0.51535,-21.695873 3.57367,-24.3751 1.77839,-1.165243 2.11343,-1.025695 7.78343,3.241888 3.25878,2.452752 6.25537,4.459548 6.65914,4.459548 0.40374,0 1.10603,-2.111592 1.56063,-4.692429 1.15583,-6.561708 3.73915,-11.344365 10.43445,-19.317829 2.08455,-2.482511 4.18754,-1.6453 7.88183,3.137798 9.77959,12.661963 12.5055,24.811757 10.4064,46.382931 -0.7309,7.510977 -1.31896,9.603076 -8.75231,31.137638 -1.78765,5.1789 -3.07905,9.58742 -2.86973,9.79672 0.20929,0.20929 1.09602,0.15344 1.97048,-0.12411 1.0087,-0.32015 2.89354,-3.17611 5.15577,-7.81217 6.39885,-13.11335 13.21928,-27.551841 13.21928,-27.984511 0,-0.437193 3.23466,-5.211537 4.008,-5.915809 0.2397,-0.218299 2.16563,-3.076029 4.27982,-6.350514 7.25577,-11.237778 7.99084,-12.301205 10.36683,-14.997525 4.10692,-4.660652 6.21179,-6.515704 10.90446,-9.610257 4.65887,-3.072272 20.29678,-9.078388 26.92168,-10.339923 3.93224,-0.748793 11.35544,0.06439 12.68013,1.389058 1.08498,1.084989 -3.34212,12.599114 -7.42402,19.308552 -2.1112,3.470213 -4.65205,6.297428 -7.64304,8.504444 -2.46426,1.818348 -7.1596,5.834899 -10.43409,8.925666 -6.23316,5.88345 -13.92073,11.381162 -20.13887,14.402171 -3.92573,1.907273 -5.08774,3.554611 -1.56174,2.21403 2.73883,-1.041314 3.26379,-0.417455 4.28156,5.088116 0.89746,4.854841 0.16051,10.746444 -2.0775,16.608532 -0.62844,1.64608 -1.14261,3.15155 -1.14261,3.34549 0,0.19394 1.69678,-0.38917 3.77062,-1.29584 7.62321,-3.3328 19.02158,-6.804485 25.20361,-7.676412 21.57612,-3.043156 30.56177,-3.088324 41.81536,-0.210135 6.42107,1.642227 18.91141,6.987977 18.91141,8.093907 0,1.742 -6.84231,3.99863 -25.16023,8.29787 -11.84753,2.78066 -15.3461,4.31306 -9.8469,4.31306 8.78371,0 23.63464,9.8868 31.00203,20.63917 2.75527,4.02121 7.18037,12.07689 7.18037,13.07155 0,0.71303 -5.24564,0.47144 -9.68516,-0.44602 -2.31363,-0.47815 -8.49319,-2.96226 -13.73237,-5.52026 -7.39822,-3.61215 -10.67818,-4.77063 -14.68557,-5.18692 -2.83787,-0.29481 -9.34012,-1.74007 -14.44939,-3.21171 -5.1093,-1.47164 -10.04322,-2.6757 -10.96428,-2.6757 -1.57171,0 -1.51695,0.21959 0.89068,3.57215 1.41094,1.9647 2.79622,3.57217 3.07841,3.57217 1.20659,0 3.97391,6.43896 5.12531,11.92549 0.68506,3.26445 1.8212,8.33847 2.52474,11.27564 1.36856,5.71343 1.03815,11.20717 -0.82743,13.75852 -0.95958,1.31229 -1.39664,1.35441 -4.53186,0.43672 -8.27875,-2.42323 -24.79936,-15.88303 -29.77416,-24.25787 -1.54283,-2.59726 -4.35297,-6.08476 -6.24474,-7.74996 -1.89177,-1.66521 -5.08389,-5.52354 -7.09359,-8.57408 -2.0097,-3.05052 -4.0271,-5.54641 -4.48312,-5.54641 -1.87392,0 -4.06373,1.88051 -7.19192,6.17608 -1.81855,2.49723 -6.01913,7.22963 -9.33461,10.51647 -8.24167,8.17046 -17.80592,20.19884 -17.29685,21.7532 0.62853,1.91907 4.25865,1.27121 7.73236,-1.37995 5.50596,-4.2022 9.42601,-5.84151 15.37429,-6.4293 6.94771,-0.68655 16.34036,0.18687 16.87065,1.56878 0.94953,2.47447 -10.65557,14.62975 -13.96758,14.62975 -0.46709,0 -0.84924,0.31556 -0.84924,0.70124 0,1.02229 2.97542,1.65701 7.82559,1.66937 5.13043,0.0133 29.09279,2.84323 34.64346,4.09168 2.18299,0.49099 5.69471,2.14719 7.80381,3.68041 2.1091,1.53323 5.68127,3.55726 7.93816,4.49785 4.10718,1.71176 9.60407,4.5823 14.81989,7.73916 3.20559,1.94018 12.70102,11.30096 12.70102,12.52092 0,1.15695 -8.16594,0.9806 -13.89175,-0.29999 -7.4521,-1.66667 -23.50297,-6.01528 -24.91788,-6.75092 -2.53955,-1.32032 -18.56323,-6.4631 -18.94573,-6.0806 -0.21561,0.21562 1.40102,2.81801 3.59253,5.78311 7.78743,10.53627 12.88449,22.43102 12.88449,30.0678 0,3.07738 -0.23501,3.53241 -2.06113,3.99073 -4.45742,1.11875 -20.36681,-5.50572 -32.07501,-13.35561 -12.89155,-8.64327 -23.70566,-19.85972 -30.62878,-31.76829 -1.7084,-2.93868 -3.30162,-5.34989 -3.54045,-5.35824 -0.23885,-0.008 -1.82952,1.41366 -3.53482,3.16005 -2.45192,2.51099 -2.79201,3.17524 -1.62569,3.17524 1.42544,0 1.4242,0.0561 -0.0375,1.67296 -0.83933,0.92853 -1.51222,2.83087 -1.51222,4.27521 0,2.56427 0.0624,2.60871 4.28288,3.04449 5.98954,0.61843 9.91169,3.79784 10.24759,8.3069 0.32509,4.36415 -1.92171,5.92382 -8.12001,5.6367 -2.42124,-0.11219 -4.61879,0.0133 -4.88346,0.2773 -0.7604,0.76039 0.46092,3.77613 1.52925,3.77613 0.6951,0 0.87697,1.55293 0.65073,5.55671 -0.17268,3.05617 -0.0806,5.55669 0.20466,5.55669 0.28525,0 1.51828,-0.73907 2.74008,-1.64239 2.96461,-2.19183 7.49674,-3.14083 10.73266,-2.24733 2.06244,0.56945 2.89518,1.42249 3.90955,4.00483 1.19586,3.04434 1.1926,3.44431 -0.045,5.53932 -1.27698,2.16173 -5.26645,4.66515 -7.43446,4.66515 -0.56542,0 0.11365,1.17796 1.50914,2.6177 5.28604,5.4538 2.01543,10.87714 -6.55956,10.87714 -4.27137,0 -4.39781,0.063 -4.38728,2.183 0.0165,3.33745 0.85591,5.75514 1.99797,5.75514 0.76171,0 1.12278,2.32506 1.38686,8.93042 0.46957,11.74551 2.04374,24.64052 3.08671,25.2851 0.53263,0.32917 0.55151,0.68687 0.0525,0.99522 -0.4845,0.29946 -0.77162,10.39284 -0.75969,26.70544 0.0106,14.42323 -0.12357,26.36475 -0.29813,26.53673 -0.17454,0.17198 -1.5879,0.54997 -3.14081,0.83998 l -2.82345,0.52727 -0.9462,-21.691 z m -4.91719,-71.70131 c 0,-1.09149 -0.35722,-1.98453 -0.79381,-1.98453 -0.88684,0 -1.08808,2.61637 -0.2646,3.43984 0.87504,0.87507 1.05841,0.62294 1.05841,-1.45531 z m 3.93193,-78.68852 c 1.7635,-3.9867 2.01535,-6.38736 0.8615,-8.21188 -0.65059,-1.02877 -0.78898,-1.02877 -1.15739,0 -1.41466,3.95035 -2.54202,11.88496 -1.68864,11.88496 0.19785,0 1.0909,-1.65289 1.98453,-3.67308 z m -7.14785,-12.40166 c -0.0658,-3.60193 0.27368,-8.47311 0.75435,-10.82484 1.79369,-8.77582 0.82381,-12.33861 -4.04415,-14.85594 l -2.44028,-1.26191 0.48827,2.25872 c 0.80843,3.73983 3.59228,21.78234 4.1148,26.6685 0.26846,2.51044 0.65877,4.56444 0.86735,4.56444 0.20858,0 0.32543,-2.94704 0.25966,-6.54897 z m 7.10586,-9.65808 c 0.1204,-3.52125 -0.45395,-2.15002 -0.96968,2.31529 -0.30914,2.67669 -0.23879,3.32289 0.21607,1.98454 0.37098,-1.09149 0.7101,-3.02641 0.75361,-4.29983 z m 2.75305,-21.81807 c 1.09388,-6.87434 0.53039,-7.74545 -0.97836,-1.51254 -0.92813,3.83426 -1.23086,9.17261 -0.47744,8.41919 0.23339,-0.23337 0.88849,-3.34137 1.4558,-6.90665 z m 4.09854,-17.25379 c 2.80192,-6.06596 3.03224,-7.7233 0.81793,-5.88559 -1.95501,1.62252 -5.42623,11.94802 -4.01667,11.94802 0.21915,0 1.65858,-2.7281 3.19874,-6.06243 z m -5.19688,-7.78964 c 0.0354,-2.21979 -1.47769,1.24393 -1.88998,4.3263 l -0.47782,3.57216 1.17788,-3.57216 c 0.64782,-1.96469 1.18329,-3.91152 1.18992,-4.3263 z m 10.68353,-3.78848 c 0.67965,-0.97033 1.23573,-2.08572 1.23573,-2.47864 0,-0.97173 -2.28406,0.99005 -3.24653,2.78844 -1.12889,2.10938 0.49116,1.85977 2.0108,-0.3098 z"
       id="path837" />
  </g>
</svg>
