<?xml version="1.0" encoding="UTF-8" standalone="no"?>
<svg
   id="Layer_6"
   data-name="Layer 6"
   viewBox="0 0 377.95278 377.95278"
   version="1.1"
   sodipodi:docname="C_Bombard.svg"
   width="100mm"
   height="100mm"
   inkscape:version="1.1 (c4e8f9ed74, 2021-05-24)"
   xmlns:inkscape="http://www.inkscape.org/namespaces/inkscape"
   xmlns:sodipodi="http://sodipodi.sourceforge.net/DTD/sodipodi-0.dtd"
   xmlns="http://www.w3.org/2000/svg"
   xmlns:svg="http://www.w3.org/2000/svg"
   xmlns:rdf="http://www.w3.org/1999/02/22-rdf-syntax-ns#"
   xmlns:cc="http://creativecommons.org/ns#"
   xmlns:dc="http://purl.org/dc/elements/1.1/">
  <sodipodi:namedview
     id="namedview11"
     pagecolor="#ffffff"
     bordercolor="#666666"
     borderopacity="1.0"
     inkscape:pageshadow="2"
     inkscape:pageopacity="0.0"
     inkscape:pagecheckerboard="0"
     showgrid="false"
     units="mm"
     width="100mm"
     inkscape:zoom="1.0994402"
     inkscape:cx="49.115906"
     inkscape:cy="281.05213"
     inkscape:window-width="1920"
     inkscape:window-height="1029"
     inkscape:window-x="0"
     inkscape:window-y="0"
     inkscape:window-maximized="1"
     inkscape:current-layer="Layer_6"
     inkscape:document-units="mm" />
  <defs
     id="defs4">
    <style
       id="style2">.cls-1{fill:#231f20;}</style>
  </defs>
  <title
     id="title6">BG Class Icons</title>
  <path
     class="cls-1"
     d="M 176.63146,349.51852 A 164.42871,164.42871 0 0 1 147.32726,344.57125 161.32409,161.32409 0 0 1 28.407164,201.34067 H 10.112361 V 176.56565 H 28.383938 A 161.24667,161.24667 0 0 1 176.56953,28.42652 V 10.154943 h 24.77501 V 28.42652 a 164.42871,164.42871 0 0 1 29.30421,4.97823 161.29312,161.29312 0 0 1 118.92009,143.18413 h 18.27158 v 24.77502 h -18.2561 A 161.24667,161.24667 0 0 1 201.40648,349.534 v 18.26384 H 176.63146 Z M 53.329285,201.34067 a 135.66646,135.66646 0 0 0 100.245925,119.22978 138.88721,138.88721 0 0 0 23.05625,4.08014 v -41.98592 h 24.77502 v 42.00915 A 135.53484,135.53484 0 0 0 324.73963,201.37164 h -41.98592 v -24.77502 h 41.98592 A 135.66646,135.66646 0 0 0 224.4937,57.366839 138.7943,138.7943 0 0 0 201.44519,53.286703 V 95.272622 H 176.67017 V 53.286703 A 135.53484,135.53484 0 0 0 53.267348,176.56565 h 42.009145 v 24.77502 z m 123.240245,0 h -17.80705 v -24.77502 h 17.80705 l 0.0387,-17.80704 h 24.77502 l -0.0387,17.80704 17.80705,0.0387 v 24.77501 l -17.80705,-0.0387 v 17.80705 h -24.77501 z"
     id="path8"
     style="stroke-width:0.774219" />
  <metadata
     id="metadata13">
    <rdf:RDF>
      <cc:Work
         rdf:about="">
        <dc:title>BG Class Icons</dc:title>
      </cc:Work>
    </rdf:RDF>
  </metadata>
</svg>
