<?xml version="1.0" encoding="UTF-8" standalone="no"?>
<!-- Created with Inkscape (http://www.inkscape.org/) -->

<svg
   width="100mm"
   height="100mm"
   viewBox="0 0 100 100"
   version="1.1"
   id="svg5114"
   inkscape:version="1.1.1 (3bf5ae0d25, 2021-09-20)"
   sodipodi:docname="C_Three_Eyes.svg"
   xmlns:inkscape="http://www.inkscape.org/namespaces/inkscape"
   xmlns:sodipodi="http://sodipodi.sourceforge.net/DTD/sodipodi-0.dtd"
   xmlns="http://www.w3.org/2000/svg"
   xmlns:svg="http://www.w3.org/2000/svg">
  <sodipodi:namedview
     id="namedview5116"
     pagecolor="#ffffff"
     bordercolor="#666666"
     borderopacity="1.0"
     inkscape:pageshadow="2"
     inkscape:pageopacity="0.0"
     inkscape:pagecheckerboard="0"
     inkscape:document-units="mm"
     showgrid="false"
     inkscape:zoom="0.64765011"
     inkscape:cx="396.8192"
     inkscape:cy="560.48782"
     inkscape:window-width="1852"
     inkscape:window-height="1025"
     inkscape:window-x="0"
     inkscape:window-y="0"
     inkscape:window-maximized="1"
     inkscape:current-layer="layer1" />
  <defs
     id="defs5111" />
  <g
     inkscape:label="Layer 1"
     inkscape:groupmode="layer"
     id="layer1">
    <path
       style="fill:#000000;stroke-width:0.0057123"
       d="m 46.990125,88.609388 c -0.0012,-0.0205 -0.182979,-0.60373 -0.281536,-0.90314 -0.266851,-0.81055 -0.498878,-1.46879 -0.797781,-2.26342 -1.055819,-2.8065 -2.311256,-5.50442 -3.658284,-7.86163 -0.875647,-1.53239 -1.659601,-2.71341 -2.542276,-3.8301 -0.223808,-0.28313 -0.644175,-0.78829 -0.655998,-0.78829 -0.0026,0 -0.04392,0.0248 -0.09179,0.0551 -0.90816,0.57538 -1.894567,1.06704 -2.886052,1.43861 -1.403678,0.52602 -2.858138,0.83916 -4.32421,0.93089 -0.585519,0.0366 -1.247677,0.0367 -1.833649,0 -2.281522,-0.14261 -4.522662,-0.82376 -6.583426,-2.00081 -2.551772,-1.4575 -4.709069,-3.62557 -6.276136,-6.30749 -0.338435,-0.57925 -0.667542,-1.21924 -0.942725,-1.83365 -0.567415,-1.26662 -1.006393,-2.611003 -1.30076,-3.983499 -0.06882,-0.320832 -0.149825,-0.751904 -0.195913,-1.043033 l -0.01581,-0.09966 -0.185568,-0.111862 C 13.633826,59.534647 12.893185,59.006854 12.190478,58.41997 9.5437234,56.209458 7.5086101,53.245309 6.2894925,49.825158 6.2138087,49.612867 6.0615291,49.151435 5.987819,48.911193 5.4542102,47.172039 5.0089794,45.337958 4.6365512,43.344557 4.2278237,41.156974 3.9199627,38.741276 3.8268553,36.992482 c -0.00771,-0.14438 -0.010134,-0.533588 -0.00333,-0.540385 0.00847,-0.0085 0.015654,0.0071 0.024109,0.05224 0.073975,0.393681 0.1512996,0.732745 0.2456065,1.076498 0.5111637,1.863949 1.4700811,3.73464 2.8178007,5.497108 1.6305236,2.132308 3.7807825,4.054567 6.2749645,5.609596 1.238967,0.772453 2.576417,1.456259 3.934234,2.01147 0.345178,0.141143 0.304905,0.128318 1.225286,0.391441 1.036312,0.296265 1.785821,0.502685 3.91007,1.076762 2.010183,0.543243 2.91004,0.790847 3.832951,1.054697 3.482701,0.995661 5.904143,1.858425 7.982938,2.844329 0.356816,0.169183 0.934271,0.463518 1.268126,0.6463 0.559658,0.306385 1.197993,0.691569 1.567842,0.945963 1.48172,1.019201 2.911879,3.16377 4.261501,6.390237 1.357246,3.24469 2.630047,7.57637 3.772369,12.83838 0.661816,3.04879 1.282897,6.45388 1.771125,9.71091 0.130602,0.87123 0.287634,1.99642 0.280983,2.01276 -0.0017,0.004 -0.0029,0.003 -0.0032,-0.001 z M 30.098413,70.974858 c 0.7782,-0.0396 1.463624,-0.2411 2.091688,-0.61486 0.409559,-0.24381 0.792609,-0.5753 1.107897,-0.95918 0.414732,-0.50485 0.719916,-1.10398 0.904743,-1.77612 0.03603,-0.13102 0.06517,-0.25617 0.06074,-0.26088 -0.0076,-0.008 -0.726935,-0.33605 -1.140374,-0.52007 -0.865947,-0.38541 -1.426011,-0.62142 -2.399162,-1.01091 -0.329846,-0.13202 -0.716774,-0.28761 -0.859668,-0.34571 -1.926692,-0.78307 -4.020051,-1.69135 -6.19391,-2.687469 -0.178454,-0.08181 -0.32532,-0.147784 -0.326244,-0.14671 -0.0033,0.0038 -0.04286,0.2357 -0.05446,0.319057 -0.04448,0.319522 -0.06048,0.588202 -0.05546,0.931102 0.0044,0.29696 0.0188,0.49851 0.05548,0.77401 0.187045,1.40455 0.810989,2.77547 1.773203,3.89579 0.24108,0.28066 0.538966,0.5784 0.819949,0.81959 1.032913,0.88642 2.245813,1.43405 3.453081,1.55907 0.254749,0.0264 0.534162,0.0349 0.762496,0.0233 z m 22.909342,17.61108 c 0.0118,-0.12051 0.172357,-1.26458 0.259184,-1.84792 0.623667,-4.18669 1.447782,-8.50939 2.328408,-12.2134 1.929537,-8.11589 4.151943,-13.573535 6.527156,-16.028938 0.363466,-0.375759 0.69285,-0.654026 1.067208,-0.901707 0.410945,-0.271854 0.890796,-0.560935 1.382384,-0.832687 0.509036,-0.281434 1.182174,-0.619107 1.759376,-0.882541 2.055019,-0.937936 4.438046,-1.767025 7.882961,-2.742616 0.916842,-0.259648 1.635339,-0.456798 3.604465,-0.988925 2.139353,-0.578163 3.034113,-0.825271 4.098572,-1.131913 0.67881,-0.195527 0.624316,-0.177682 0.963668,-0.316505 0.892824,-0.365407 1.795494,-0.794812 2.632221,-1.252042 2.777176,-1.517576 5.208194,-3.489392 7.072535,-5.736568 1.757698,-2.118643 2.94326,-4.408696 3.459994,-6.683391 0.02934,-0.129241 0.07577,-0.356446 0.106781,-0.522385 0.0091,-0.04504 0.01558,-0.06071 0.02405,-0.05224 0.0061,0.0068 0.0045,0.402335 -0.003,0.546104 -0.08999,1.673356 -0.372793,3.93956 -0.755008,6.050548 -0.386935,2.136844 -0.89597,4.243737 -1.453224,6.01509 -0.783185,2.489226 -1.981149,4.746708 -3.561162,6.710683 -1.372488,1.706004 -2.999373,3.134221 -4.821381,4.232629 l -0.18511,0.111559 -0.03585,0.214223 c -0.308059,1.844349 -0.861334,3.619342 -1.643416,5.272452 -1.724196,3.64445 -4.466192,6.51529 -7.828587,8.19644 -1.85265,0.92629 -3.810251,1.46073 -5.808038,1.58563 -0.585974,0.0366 -1.248087,0.0366 -1.833653,0 -2.503616,-0.15667 -4.959183,-0.95787 -7.153391,-2.33406 -0.07942,-0.0498 -0.146679,-0.0905 -0.149446,-0.0905 -0.0027,0 -0.0098,0.006 -0.01553,0.0135 -0.0057,0.007 -0.06703,0.08 -0.136152,0.16138 -0.849876,0.99977 -1.631992,2.09344 -2.421847,3.38663 -1.680181,2.75085 -3.255754,6.08305 -4.51737,9.55382 -0.294561,0.8104 -0.603624,1.72929 -0.792424,2.35632 -0.057,0.18927 -0.05797,0.19198 -0.05402,0.15137 z m 17.493723,-17.61947 c 0.403647,-0.0317 0.760468,-0.0971 1.153891,-0.2116 1.185516,-0.34501 2.325251,-1.09287 3.225274,-2.1163 1.044555,-1.18779 1.701222,-2.66631 1.855796,-4.17849 0.0186,-0.18247 0.02647,-0.32878 0.02965,-0.55691 0.0061,-0.42366 -0.01951,-0.74774 -0.09029,-1.148179 -0.0091,-0.05498 -0.01845,-0.100896 -0.01951,-0.10197 -9.99e-4,-0.0011 -0.120846,0.0526 -0.266391,0.119273 -2.54589,1.167066 -4.716687,2.101476 -7.059377,3.038716 -1.200067,0.48013 -1.888118,0.77351 -3.007524,1.28254 -0.598075,0.27193 -0.588652,0.26737 -0.586535,0.28321 0.0045,0.0347 0.06746,0.27378 0.101184,0.38526 0.199237,0.65897 0.508022,1.22503 0.948725,1.73919 0.07593,0.0885 0.278112,0.29356 0.375833,0.38093 0.550326,0.49226 1.2017,0.82423 1.936804,0.987 0.252158,0.0558 0.506268,0.09 0.785681,0.10567 0.124022,0.007 0.483823,0.002 0.616874,-0.008 z M 49.588771,57.867463 c -0.02356,-10e-4 -0.108353,-0.0047 -0.188523,-0.0082 -2.088584,-0.08939 -4.144943,-0.66878 -6.046464,-1.703748 -2.29002,-1.246379 -4.315813,-3.13772 -5.890278,-5.499332 -0.296778,-0.445132 -0.630504,-0.995522 -0.859576,-1.417394 l -0.04612,-0.08497 0.04612,-0.08497 c 0.07181,-0.13225 0.241264,-0.42806 0.340745,-0.59485 1.071624,-1.796181 2.385151,-3.349339 3.901415,-4.613169 2.436932,-2.031216 5.307206,-3.209117 8.279974,-3.397939 0.326982,-0.02077 0.419811,-0.02323 0.873983,-0.02323 0.454173,0 0.547003,0.0024 0.873985,0.02323 1.996023,0.126775 3.954729,0.69999 5.772279,1.689208 2.289863,1.246294 4.315915,3.137883 5.890279,5.499333 0.296593,0.4449 0.623946,0.984729 0.861515,1.420932 l 0.04435,0.08142 -0.04435,0.08143 c -0.07234,0.132795 -0.249392,0.441889 -0.34444,0.601185 -1.06803,1.790981 -2.38465,3.347524 -3.899668,4.610311 -2.015947,1.680317 -4.340965,2.78472 -6.769076,3.215343 -0.594756,0.105449 -1.075716,0.159296 -1.767958,0.197769 -0.102712,0.0057 -0.930264,0.01165 -1.028211,0.0074 z m 0.785403,-2.806799 c 0.384528,-0.02827 0.713911,-0.08081 1.056772,-0.168566 1.743277,-0.446291 3.194699,-1.701994 3.915906,-3.387765 0.270453,-0.632085 0.425354,-1.299313 0.468768,-2.019041 0.01422,-0.235004 0.0076,-0.615938 -0.01521,-0.868271 -0.127925,-1.420653 -0.744208,-2.727305 -1.754002,-3.718763 -0.851538,-0.836096 -1.92805,-1.388208 -3.084032,-1.581673 -0.343793,-0.05753 -0.591709,-0.07748 -0.96239,-0.07748 -0.370673,0 -0.618587,0.01996 -0.96239,0.07748 -1.578834,0.264206 -2.99646,1.198025 -3.88865,2.56145 -0.57739,0.882331 -0.899477,1.86557 -0.964606,2.944633 -0.01422,0.235004 -0.0076,0.61594 0.01522,0.868273 0.107143,1.189759 0.55319,2.294354 1.300095,3.220001 0.174021,0.21569 0.456297,0.51273 0.653133,0.687167 0.578777,0.513192 1.219358,0.89293 1.938487,1.149063 0.411684,0.146634 0.886361,0.252231 1.328951,0.295725 0.09873,0.0097 0.154717,0.01376 0.354138,0.02561 0.0693,0.0041 0.516707,-0.0017 0.599819,-0.0079 z M 42.768246,40.166945 c 0,-0.0085 0.10973,-0.556686 0.196374,-0.980952 1.158958,-5.675548 2.853123,-12.843243 4.925405,-20.838461 0.526126,-2.029903 1.093126,-4.1719 1.60659,-6.069314 0.191109,-0.706093 0.204133,-0.753217 0.214294,-0.772763 0.02304,-0.04456 0.08087,-0.08188 0.161736,-0.105071 0.0642,-0.01829 0.190555,-0.01829 0.25475,0 0.08086,0.02304 0.138739,0.06065 0.161736,0.105071 0.01044,0.02007 0.01301,0.0293 0.204965,0.738541 0.421843,1.558194 0.907329,3.38585 1.344515,5.061083 2.234682,8.563474 4.046071,16.205537 5.25817,22.183705 0.114161,0.562944 0.137074,0.679673 0.133928,0.682763 -0.0015,0.0015 -0.106689,-0.04831 -0.233598,-0.110788 -0.229904,-0.113102 -0.412238,-0.198618 -0.607873,-0.285219 -2.576093,-1.13997 -5.341402,-1.571459 -8.114293,-1.266124 -1.832422,0.201785 -3.659578,0.744025 -5.342391,1.585558 -0.08716,0.04359 -0.159796,0.07927 -0.161366,0.07927 -0.0017,0 -0.0029,-0.0033 -0.0029,-0.0073 z"
       id="path4553" />
  </g>
</svg>
