<?xml version="1.0" encoding="UTF-8" standalone="no"?>
<svg
   width="100mm"
   height="100mm"
   viewBox="0 0 99.999998 99.999996"
   version="1.1"
   id="svg7540"
   inkscape:version="1.1 (c4e8f9ed74, 2021-05-24)"
   sodipodi:docname="C_Artificer.svg"
   xmlns:inkscape="http://www.inkscape.org/namespaces/inkscape"
   xmlns:sodipodi="http://sodipodi.sourceforge.net/DTD/sodipodi-0.dtd"
   xmlns="http://www.w3.org/2000/svg"
   xmlns:svg="http://www.w3.org/2000/svg"
   xmlns:rdf="http://www.w3.org/1999/02/22-rdf-syntax-ns#"
   xmlns:cc="http://creativecommons.org/ns#"
   xmlns:dc="http://purl.org/dc/elements/1.1/">
  <defs
     id="defs7534">
    <clipPath
       clipPathUnits="userSpaceOnUse"
       id="clipPath104">
      <path
         d="M 0,0 H 623 V 811 H 0 Z"
         id="path102" />
    </clipPath>
    <clipPath
       clipPathUnits="userSpaceOnUse"
       id="clipPath122">
      <path
         d="M 0,0 H 623 V 811 H 0 Z"
         id="path120" />
    </clipPath>
  </defs>
  <sodipodi:namedview
     id="base"
     pagecolor="#ffffff"
     bordercolor="#666666"
     borderopacity="1.0"
     inkscape:pageopacity="0.0"
     inkscape:pageshadow="2"
     inkscape:zoom="1.5725969"
     inkscape:cx="167.87518"
     inkscape:cy="159.6086"
     inkscape:document-units="mm"
     inkscape:current-layer="layer1"
     inkscape:document-rotation="0"
     showgrid="false"
     fit-margin-top="0"
     fit-margin-left="0"
     fit-margin-right="0"
     fit-margin-bottom="0"
     inkscape:window-width="1920"
     inkscape:window-height="1029"
     inkscape:window-x="0"
     inkscape:window-y="0"
     inkscape:window-maximized="1"
     inkscape:pagecheckerboard="0" />
  <metadata
     id="metadata7537">
    <rdf:RDF>
      <cc:Work
         rdf:about="">
        <dc:format>image/svg+xml</dc:format>
        <dc:type
           rdf:resource="http://purl.org/dc/dcmitype/StillImage" />
      </cc:Work>
    </rdf:RDF>
  </metadata>
  <g
     inkscape:label="Layer 1"
     inkscape:groupmode="layer"
     id="layer1"
     transform="translate(-76.232657,-111.68221)">
    <g
       id="g239"
       transform="matrix(6.7736893,0,0,6.7736893,-425.99391,-632.78747)">
      <g
         id="g98"
         transform="matrix(0.35277777,0,0,0.35277777,57.061302,100.80489)">
        <g
           id="g100" />
        <g
           id="g114">
          <g
             clip-path="url(#clipPath104)"
             opacity="0.994845"
             id="g112">
            <g
               id="g110">
              <g
                 transform="translate(81.004,59.594)"
                 id="g108">
                <path
                   d="m 0,0 c -0.024,-0.028 -0.141,-0.059 -0.258,-0.071 -0.266,-0.031 -0.594,-0.156 -0.859,-0.324 -0.129,-0.082 -1.739,-1.664 -4.449,-4.371 -2.336,-2.332 -4.25,-4.254 -4.25,-4.269 0,-0.012 0.113,-0.137 0.253,-0.278 0.137,-0.136 0.297,-0.312 0.356,-0.39 l 0.105,-0.137 -0.218,-0.25 c -0.207,-0.246 -8.746,-8.828 -9.09,-9.137 -0.098,-0.09 -0.281,-0.23 -0.41,-0.316 -0.125,-0.086 -0.289,-0.203 -0.36,-0.266 -0.074,-0.058 -0.304,-0.222 -0.519,-0.363 -0.535,-0.352 -1.602,-1.078 -2.352,-1.594 -0.062,-0.043 -0.207,-0.23 -0.328,-0.418 -0.258,-0.398 -0.672,-1.019 -0.73,-1.09 -0.043,-0.05 -0.836,-1.207 -1.059,-1.539 -0.066,-0.101 -0.121,-0.199 -0.121,-0.218 0,-0.071 1.887,-1.922 1.937,-1.903 0.028,0.012 0.164,0.098 0.305,0.192 0.141,0.097 0.438,0.296 0.664,0.445 0.223,0.152 0.43,0.293 0.457,0.316 0.047,0.047 0.621,0.438 1.418,0.965 0.246,0.168 0.442,0.324 0.457,0.367 0.012,0.043 0.07,0.133 0.129,0.2 0.055,0.062 0.215,0.281 0.348,0.484 0.636,0.953 0.734,1.094 0.918,1.351 0.109,0.153 0.261,0.379 0.343,0.504 0.497,0.774 0.622,0.914 2.313,2.625 0.93,0.938 2.969,2.977 4.531,4.536 1.567,1.558 2.942,2.933 3.055,3.058 l 0.207,0.227 0.383,-0.383 c 0.211,-0.211 0.394,-0.387 0.41,-0.387 0.031,0 8.051,8.008 8.426,8.41 0.211,0.227 0.246,0.282 0.355,0.512 0.043,0.094 0.094,0.195 0.113,0.231 0.016,0.035 0.032,0.105 0.032,0.148 0,0.047 0.027,0.125 0.054,0.176 0.078,0.136 0.075,0.879 -0.004,1.125 -0.086,0.265 -0.105,0.32 -0.175,0.484 -0.141,0.324 -0.676,0.895 -0.973,1.035 -0.078,0.035 -0.168,0.082 -0.199,0.098 -0.031,0.016 -0.11,0.039 -0.176,0.051 -0.066,0.015 -0.129,0.043 -0.141,0.062 -0.011,0.02 -0.097,0.035 -0.195,0.035 -0.098,0 -0.207,0.024 -0.25,0.055 C 0.367,0.051 0.062,0.058 0,0 Z m 0.008,-1.196 c 0.199,-0.191 0.218,-0.312 0.086,-0.503 -0.114,-0.165 -7.821,-7.86 -7.883,-7.872 -0.055,-0.011 -0.113,0.04 -0.395,0.332 l -0.199,0.208 3.883,3.894 c 2.137,2.141 3.949,3.938 4.027,4 0.199,0.145 0.282,0.137 0.481,-0.059 z m 1.418,-1.398 c 0.105,-0.102 0.125,-0.141 0.125,-0.301 v -0.183 l -3.957,-3.953 c -2.176,-2.176 -3.973,-3.958 -3.993,-3.958 -0.039,0 -0.566,0.516 -0.566,0.555 0,0.016 1.781,1.809 3.961,3.992 l 3.965,3.969 h 0.172 c 0.144,0 0.191,-0.019 0.293,-0.121 z"
                   style="fill:#0b448a;fill-opacity:1;fill-rule:nonzero;stroke:none"
                   id="path106" />
              </g>
            </g>
          </g>
        </g>
      </g>
      <g
         id="g116"
         transform="matrix(0.35277777,0,0,0.35277777,57.061302,100.80489)">
        <g
           id="g118" />
        <g
           id="g132">
          <g
             clip-path="url(#clipPath122)"
             opacity="0.994845"
             id="g130">
            <g
               id="g128">
              <g
                 transform="translate(71.613,44.234)"
                 id="g126">
                <path
                   d="m 0,0 -1.777,-1.773 1.621,-1.621 C 0.735,-4.285 1.461,-5.035 1.461,-5.062 1.461,-5.089 1.418,-5.238 1.367,-5.394 1.2,-5.89 1.059,-6.746 1.055,-7.246 c 0,-0.32 0.102,-1.105 0.187,-1.422 0.083,-0.32 0.106,-0.394 0.2,-0.671 0.293,-0.856 0.855,-1.719 1.566,-2.399 0.559,-0.531 1.442,-1.082 2.047,-1.273 0.109,-0.035 0.219,-0.075 0.238,-0.09 0.043,-0.031 0.707,-0.195 1.039,-0.254 0.395,-0.074 1.516,-0.055 2.008,0.035 0.442,0.078 0.93,0.203 0.981,0.254 0.015,0.016 -0.938,0.992 -2.118,2.176 -1.183,1.179 -2.148,2.172 -2.148,2.199 0,0.027 0.812,0.867 1.809,1.859 l 1.808,1.813 0.11,-0.078 c 0.054,-0.043 1.043,-1.02 2.191,-2.172 l 2.09,-2.094 0.047,0.141 c 0.062,0.183 0.179,0.668 0.242,0.988 0.031,0.164 0.051,0.523 0.051,0.965 0,0.59 -0.016,0.773 -0.09,1.144 -0.278,1.411 -0.774,2.313 -1.86,3.375 -0.621,0.61 -1.242,0.989 -2.156,1.329 C 8.106,-0.98 6.481,-0.964 5.332,-1.382 5.188,-1.433 5.067,-1.476 5.055,-1.476 5.047,-1.476 4.309,-0.75 3.418,0.141 2.524,1.032 1.789,1.766 1.785,1.77 1.778,1.774 0.977,0.977 0,0 Z"
                   style="fill:#0b448a;fill-opacity:1;fill-rule:nonzero;stroke:none"
                   id="path124" />
              </g>
            </g>
          </g>
        </g>
      </g>
      <path
         d="m 77.314274,122.66053 c -0.0014,-0.003 -0.05362,-0.007 -0.1143,-0.0123 -0.06209,-0.004 -0.150283,-0.0109 -0.197203,-0.0152 -0.04551,-0.004 -0.128058,-0.0123 -0.18168,-0.0166 l -0.09807,-0.009 0.07197,-0.0801 c 0.161219,-0.18027 0.214842,-0.24377 0.220486,-0.25471 0.0011,-0.007 0.04657,-0.0578 0.100542,-0.11324 0.05221,-0.055 0.09631,-0.10618 0.09631,-0.11289 0,-0.008 0.0441,-0.0579 0.09772,-0.11147 0.05397,-0.0526 0.09807,-0.10337 0.09807,-0.11042 0,-0.008 0.03845,-0.0522 0.08537,-0.0977 0.04692,-0.0469 0.08396,-0.091 0.08396,-0.0981 0,-0.007 0.02611,-0.0399 0.05644,-0.0716 0.03034,-0.0332 0.07867,-0.0882 0.107598,-0.12382 0.04974,-0.0635 0.255058,-0.30198 0.405341,-0.47273 0.03845,-0.0427 0.09208,-0.10618 0.119592,-0.13793 0.05927,-0.0716 0.213783,-0.24803 0.317147,-0.36233 0.103364,-0.11571 0.195792,-0.23142 0.195792,-0.24518 0,-0.0166 -0.292453,-0.30339 -0.308681,-0.30339 -0.0127,0 -0.103364,0.10054 -0.277283,0.30445 -0.03034,0.0374 -0.09208,0.1076 -0.137583,0.15875 -0.04551,0.0494 -0.107598,0.121 -0.136525,0.15699 -0.03034,0.036 -0.09631,0.11288 -0.148873,0.17215 -0.05221,0.0579 -0.140405,0.16122 -0.19685,0.22895 -0.05821,0.066 -0.113241,0.12947 -0.125588,0.14041 -0.01094,0.0109 -0.05503,0.0607 -0.09913,0.11183 -0.06773,0.0811 -0.283986,0.33055 -0.567972,0.65722 -0.09631,0.11148 -0.16122,0.18592 -0.298803,0.34573 -0.0829,0.0953 -0.100542,0.11042 -0.113242,0.0938 -0.01376,-0.018 -0.136172,-0.55386 -0.136172,-0.59549 0,-0.0233 0.103364,-0.26847 0.132292,-0.31397 0.01094,-0.018 0.06315,-0.13371 0.115711,-0.26035 0.05362,-0.12559 0.103364,-0.23989 0.112889,-0.25365 0.0085,-0.0152 0.04269,-0.091 0.07726,-0.1711 0.08114,-0.19262 0.0949,-0.22295 0.132292,-0.2988 0.04692,-0.0938 0.21343,-0.48648 0.21343,-0.50165 0,-0.007 0.0056,-0.0152 0.0127,-0.0166 0.0067,-0.003 0.04798,-0.0896 0.09207,-0.19438 0.0441,-0.10478 0.08819,-0.19826 0.09807,-0.20814 0.0095,-0.01 0.04269,-0.0205 0.07303,-0.0233 0.07832,-0.007 0.192969,-0.0621 0.254705,-0.12276 0.07056,-0.0688 0.148872,-0.24236 0.148872,-0.33197 0,-0.0526 -0.03563,-0.14322 -0.08819,-0.2233 l -0.0441,-0.0674 0.05256,-0.0815 c 0.02893,-0.0441 0.06068,-0.0882 0.0702,-0.0963 0.01658,-0.0123 0.108656,-0.13653 0.257528,-0.34749 0.04833,-0.0688 0.06068,-0.0744 0.221897,-0.10583 0.1143,-0.0236 0.577498,-0.0222 0.698853,0 0.144639,0.0275 0.246592,0.0522 0.327731,0.0797 0.04022,0.0152 0.08431,0.0261 0.09525,0.0261 0.01094,0 0.294922,-0.27411 0.631119,-0.61031 l 0.610305,-0.61065 0.620183,0.62018 c 0.341842,0.34184 0.620183,0.62865 0.617361,0.63676 -0.0039,0.0208 -0.285044,0.31433 -0.523522,0.54998 -0.09243,0.0907 -0.285397,0.28081 -0.427214,0.42157 l -0.258939,0.25753 0.01235,0.0427 c 0.04692,0.16122 0.06597,0.23989 0.08396,0.3309 0.02469,0.13088 0.04692,0.45473 0.03598,0.51964 -0.0085,0.0427 -0.04833,0.0882 -0.277283,0.3168 -0.147461,0.14746 -0.276931,0.2674 -0.287867,0.2674 -0.0095,0 -0.03457,-0.008 -0.05221,-0.0194 -0.09525,-0.0536 -0.124177,-0.0607 -0.221897,-0.055 -0.168275,0.01 -0.296333,0.0963 -0.380294,0.25753 -0.02081,0.0402 -0.03034,0.0868 -0.03457,0.16263 l -0.0056,0.10477 -0.111478,0.0716 c -0.06068,0.0402 -0.117122,0.0744 -0.125589,0.0773 -0.0081,0.003 -0.06174,0.036 -0.119592,0.073 -0.192969,0.12559 -0.319969,0.20249 -0.330905,0.20249 -0.0067,0 -0.02469,0.0138 -0.04269,0.0303 -0.01658,0.0166 -0.08149,0.0593 -0.141817,0.0938 -0.06068,0.0346 -0.153105,0.091 -0.204258,0.12524 -0.0508,0.0346 -0.154164,0.0995 -0.2286,0.14358 -0.07444,0.0441 -0.143228,0.0882 -0.154164,0.0977 -0.01799,0.0152 -0.1778,0.11571 -0.479778,0.29916 -0.108655,0.066 -0.16263,0.0907 -0.176389,0.0797 z"
         style="fill:#0b448a;fill-opacity:1;fill-rule:nonzero;stroke:none;stroke-width:0.352777"
         id="path142" />
    </g>
  </g>
</svg>
