<?xml version="1.0" encoding="UTF-8" standalone="no"?>
<svg
   width="100mm"
   height="100mm"
   viewBox="0 0 99.999998 100"
   version="1.1"
   id="svg3586"
   inkscape:version="1.1 (c4e8f9ed74, 2021-05-24)"
   sodipodi:docname="C_Chieftan.svg"
   xmlns:inkscape="http://www.inkscape.org/namespaces/inkscape"
   xmlns:sodipodi="http://sodipodi.sourceforge.net/DTD/sodipodi-0.dtd"
   xmlns="http://www.w3.org/2000/svg"
   xmlns:svg="http://www.w3.org/2000/svg"
   xmlns:rdf="http://www.w3.org/1999/02/22-rdf-syntax-ns#"
   xmlns:cc="http://creativecommons.org/ns#"
   xmlns:dc="http://purl.org/dc/elements/1.1/">
  <defs
     id="defs3580" />
  <sodipodi:namedview
     id="base"
     pagecolor="#ffffff"
     bordercolor="#666666"
     borderopacity="1.0"
     inkscape:pageopacity="0.0"
     inkscape:pageshadow="2"
     inkscape:zoom="1.4988411"
     inkscape:cx="250.86049"
     inkscape:cy="194.15001"
     inkscape:document-units="mm"
     inkscape:current-layer="layer1"
     inkscape:document-rotation="0"
     showgrid="false"
     fit-margin-top="0"
     fit-margin-left="0"
     fit-margin-right="0"
     fit-margin-bottom="0"
     inkscape:window-width="1920"
     inkscape:window-height="1029"
     inkscape:window-x="0"
     inkscape:window-y="0"
     inkscape:window-maximized="1"
     inkscape:pagecheckerboard="0" />
  <metadata
     id="metadata3583">
    <rdf:RDF>
      <cc:Work
         rdf:about="">
        <dc:format>image/svg+xml</dc:format>
        <dc:type
           rdf:resource="http://purl.org/dc/dcmitype/StillImage" />
      </cc:Work>
    </rdf:RDF>
  </metadata>
  <g
     inkscape:label="Layer 1"
     inkscape:groupmode="layer"
     id="layer1"
     transform="translate(-90.127786,-132.84231)">
    <g
       transform="matrix(0.76877444,0,0,-0.76877444,151.34693,197.72105)"
       id="g936">
      <path
         d="m 0,0 c -1.278,-1.089 -2.573,-2.159 -3.884,-3.209 -2.472,-1.979 -4.999,-3.889 -7.577,-5.725 4.44,-2.935 8.966,-5.602 13.464,-7.937 3.742,-0.454 7.482,-0.917 11.222,-1.389 -1.073,-1.047 -2.308,-1.751 -3.669,-2.226 7.075,-3.094 13.922,-5.243 20.086,-6.177 C 20.123,-19.282 9.758,-10.062 0,0 m 18.8,65.358 c -0.566,-2.73 -1.112,-5.459 -2.915,-8.189 -0.031,2.746 -0.406,5.317 -1.522,7.51 C 12.725,64.158 10.388,63.201 10.046,61.428 7.451,46.279 -3.896,28.712 -18.1,12.144 -30.705,-2.561 -45.589,-16.394 -58.833,-26.663 c 15.672,2.372 35.76,12.605 52.794,26.244 C -0.647,3.898 4.434,8.557 8.992,13.39 7.689,13.168 6.354,13.068 5.062,13.041 l 11.322,8.938 c 7.744,9.946 12.914,20.206 13.816,29.461 0.178,1.816 0.265,4.482 -0.124,6.863 -0.389,2.382 -1.257,4.325 -2.567,5.2 -1.681,1.123 -4.655,1.809 -7.666,1.864 -0.348,0.007 -0.696,0.004 -1.043,-0.009 m -71.687,-0.415 -2.735,-12.922 -3.32,7.779 c -0.67,-2.669 -0.703,-5.67 -0.451,-8.36 1.439,-14.752 13.72,-32.056 29.991,-46.573 2.979,3.144 5.886,6.358 8.675,9.611 1.321,1.541 2.615,3.091 3.877,4.647 -11.438,14.44 -20.155,29.266 -22.388,42.303 -0.78,2.19 -3.031,2.94 -4.958,3.423 l 2.234,-3.917 -6.064,4.425 c -1.635,0.037 -3.413,-0.119 -4.861,-0.416"
         style="fill:#79cfc1;fill-opacity:1;fill-rule:nonzero;stroke:none"
         id="path934" />
    </g>
  </g>
</svg>
